<?xml version="1.0" standalone="no"?>
<!DOCTYPE svg PUBLIC "-//W3C//DTD SVG 1.1//EN" "http://www.w3.org/Graphics/SVG/1.1/DTD/svg11.dtd" >
<svg xmlns="http://www.w3.org/2000/svg">
<metadata></metadata>
<defs>
<font id="favoritlight" horiz-adv-x="1314" >
<font-face units-per-em="2048" ascent="1638" descent="-410" />
<missing-glyph horiz-adv-x="512" />
<glyph unicode="&#xfb01;" horiz-adv-x="1261" d="M43 911v113h236v225q0 99 46.5 142t147.5 43h256v-113h-235q-46 0 -64 -18t-18 -64v-215h686v-1024h-133v911h-553v-911h-133v911h-236zM954 1208v174h154v-174h-154z" />
<glyph unicode="&#xfb02;" horiz-adv-x="1261" d="M43 911v113h236v225q0 99 46.5 142t147.5 43h625v-1434h-133v1321h-471q-46 0 -64 -18t-18 -64v-215h266v-113h-266v-911h-133v911h-236z" />
<glyph unicode="&#xfb03;" horiz-adv-x="1947" d="M43 911v113h236v225q0 99 46.5 142t147.5 43h256v-113h-235q-46 0 -64 -18t-18 -64v-215h553v225q0 99 46.5 142t147.5 43h256v-113h-235q-46 0 -64 -18t-18 -64v-215h686v-1024h-133v911h-553v-911h-133v911h-553v-911h-133v911h-236zM1640 1208v174h154v-174h-154z" />
<glyph unicode="&#xfb04;" horiz-adv-x="1947" d="M43 911v113h236v225q0 99 46.5 142t147.5 43h256v-113h-235q-46 0 -64 -18t-18 -64v-215h553v225q0 99 46.5 142t147.5 43h625v-1434h-133v1321h-471q-46 0 -64 -18t-18 -64v-215h266v-113h-266v-911h-133v911h-553v-911h-133v911h-236z" />
<glyph horiz-adv-x="0" />
<glyph horiz-adv-x="682" />
<glyph unicode=" "  horiz-adv-x="512" />
<glyph unicode="&#x09;" horiz-adv-x="512" />
<glyph unicode="&#xa0;" horiz-adv-x="512" />
<glyph unicode="!" horiz-adv-x="495" d="M172 0v174h154v-174h-154zM176 1004v430h143v-430l-40 -584h-62z" />
<glyph unicode="&#x22;" horiz-adv-x="700" d="M127 1270v164h133v-164l-49 -266h-45zM444 1270v164h134v-164l-50 -266h-45z" />
<glyph unicode="#" horiz-adv-x="1376" d="M82 389v113h246l92 430h-250v112h272l84 390h133l-84 -390h363l80 390h133l-80 -390h221v-112h-245l-89 -430h248v-113h-272l-80 -389h-133l80 389h-365l-84 -389h-133l84 389h-221zM461 502h364l88 430h-360z" />
<glyph unicode="$" horiz-adv-x="1255" d="M80 451h139q0 -124 69.5 -206.5t192.5 -113.5l90 535l-77 16q-342 71 -342 362q0 174 134 292t357 118q41 0 59 -2l39 227h127l-41 -249q150 -41 236 -149.5t92 -266.5h-139q-6 101 -62 174.5t-149 107.5l-86 -508l43 -8q371 -74 371 -393q0 -189 -134.5 -298 t-365.5 -109q-33 0 -49 2l-39 -228h-127l41 242q-184 37 -281.5 153.5t-97.5 301.5zM291 1047q0 -174 241 -222l64 -12l86 508h-29h-20q-150 0 -246 -78t-96 -196zM604 113h27h20q160 0 251 75.5t91 190.5q0 104 -66.5 166t-203.5 90l-29 6z" />
<glyph unicode="%" horiz-adv-x="1853" d="M76 1028q0 189 89 302.5t243 113.5t242.5 -113.5t88.5 -302.5t-88.5 -301.5t-242.5 -112.5t-243 112.5t-89 301.5zM201 1028q0 -81 20.5 -149.5t68 -115t113.5 -46.5h9q66 0 113.5 46.5t68 115t20.5 149.5t-20.5 150t-68 116t-113.5 47h-9q-66 0 -113.5 -47t-68 -116 t-20.5 -150zM430 0l860 1434h133l-860 -1434h-133zM1114 403q0 189 89 302.5t243 113.5t243 -113.5t89 -302.5t-89 -301t-243 -112t-243 112t-89 301zM1239 403q0 -81 21 -149.5t68.5 -115t113.5 -46.5h8q66 0 113.5 46.5t68.5 115t21 149.5t-21 150t-68.5 116.5 t-113.5 47.5h-8q-66 0 -113.5 -47.5t-68.5 -116.5t-21 -150z" />
<glyph unicode="&#x26;" d="M119 379q0 124 63 217.5t172 130.5q-103 42 -164 128.5t-61 209.5q0 169 113 269t280 100h252v-134h-237q-113 0 -191 -68.5t-78 -187.5q0 -113 80 -181t201 -68h332v258h139v-258h235v-133h-235v-662h-516q-166 0 -275.5 102.5t-109.5 276.5zM258 410q0 -133 80.5 -205 t212.5 -72h330v529h-332q-130 0 -210.5 -66.5t-80.5 -185.5z" />
<glyph unicode="'" horiz-adv-x="382" d="M127 1270v164h133v-164l-49 -266h-45z" />
<glyph unicode="(" horiz-adv-x="696" d="M106 717q0 285 67.5 513.5t191.5 361t284 139.5v-113q-121 -9 -214.5 -127.5t-144 -320t-50.5 -453.5t50.5 -453.5t144 -320t214.5 -127.5v-113q-159 7 -283.5 140t-192 361.5t-67.5 512.5z" />
<glyph unicode=")" horiz-adv-x="696" d="M47 -184q121 9 214.5 127t144.5 320t51 454t-51 454t-144.5 320t-214.5 127v113q160 -7 284 -139.5t191.5 -361t67.5 -513.5q0 -284 -67.5 -512.5t-192 -361.5t-283.5 -140v113z" />
<glyph unicode="*" horiz-adv-x="878" d="M104 1145v102h246l-123 213l90 51l123 -213l123 213l88 -51l-123 -213h246v-102h-246l123 -213l-90 -51l-123 213l-123 -213l-88 51l123 213h-246z" />
<glyph unicode="+" horiz-adv-x="1198" d="M92 467v123h440v434h134v-434h440v-123h-440v-436h-134v436h-440z" />
<glyph unicode="," horiz-adv-x="491" d="M72 -154h61q123 0 123 123v31h-113v205h205v-246q0 -93 -50.5 -144t-143.5 -51h-82v82z" />
<glyph unicode="-" horiz-adv-x="794" d="M141 563v113h512v-113h-512z" />
<glyph unicode="." horiz-adv-x="491" d="M143 0v205h205v-205h-205z" />
<glyph unicode="/" horiz-adv-x="837" d="M70 0l553 1434h143l-553 -1434h-143z" />
<glyph unicode="0" horiz-adv-x="1327" d="M121 717q0 358 142 547.5t401 189.5t400.5 -189.5t141.5 -547.5t-141.5 -547.5t-400.5 -189.5t-401 189.5t-142 547.5zM260 717q0 -137 24.5 -244.5t64 -173.5t92.5 -109.5t105 -60t107 -16.5h21q55 0 107 16.5t105 60t92.5 109.5t64 173.5t24.5 244.5t-24.5 244.5 t-64 173.5t-92.5 109.5t-105 60t-107 16.5h-21q-55 0 -107 -16.5t-105 -60t-92.5 -109.5t-64 -173.5t-24.5 -244.5z" />
<glyph unicode="1" horiz-adv-x="743" d="M63 901v168l375 365h105v-1434h-133v1229z" />
<glyph unicode="2" horiz-adv-x="1140" d="M104 0v143l576 584q120 121 156 184.5t36 147.5q0 108 -83 185t-205 77h-21q-137 0 -219.5 -83t-85.5 -222h-139q2 194 126.5 316t323.5 122q196 0 319.5 -111t123.5 -284q0 -63 -14 -115.5t-47 -103t-63 -85t-87 -93.5l-514 -525h745v-137h-928z" />
<glyph unicode="3" horiz-adv-x="1171" d="M104 365h140q23 -120 106 -186t213 -66h21q137 0 229 73t92 201q0 120 -88.5 191t-222.5 71h-92v133h110q127 0 205 75.5t78 186.5q0 127 -87.5 202t-221.5 75h-21q-121 0 -202.5 -72.5t-92.5 -183.5h-139q9 168 133.5 278.5t310.5 110.5q130 0 232.5 -44t164.5 -134.5 t62 -214.5q0 -115 -66.5 -208t-168.5 -136q106 -35 175.5 -122.5t69.5 -213.5q0 -97 -39 -174.5t-104.5 -126t-149.5 -74.5t-178 -26q-206 0 -326.5 100t-142.5 285z" />
<glyph unicode="4" horiz-adv-x="1206" d="M57 346v152l693 936h155v-959h236v-129h-236v-346h-133v346h-715zM188 475h584v795z" />
<glyph unicode="5" horiz-adv-x="1161" d="M80 369h139q17 -122 110 -189t226 -67h20q146 0 239 96t93 242q0 138 -86.5 225.5t-222.5 87.5h-20q-85 0 -171.5 -43t-136.5 -121h-137l172 834h727v-138h-612l-111 -512q113 113 299 113q196 0 317.5 -124t121.5 -312q0 -210 -138.5 -345.5t-343.5 -135.5 q-128 0 -233 43t-173.5 132.5t-78.5 213.5z" />
<glyph unicode="6" horiz-adv-x="1239" d="M117 680q0 226 72 402.5t201.5 274t293.5 97.5q179 0 297 -94t152 -264h-140q-26 101 -108.5 163t-190.5 62h-20q-180 0 -300.5 -176.5t-133.5 -460.5q51 128 164 193t245 65q203 0 333 -130.5t130 -332.5q0 -226 -134.5 -362.5t-338.5 -136.5q-247 0 -384.5 187 t-137.5 513zM287 463q0 -151 97 -250.5t243 -99.5h20q140 0 233 99t93 249q0 152 -89.5 250t-236.5 98h-20q-146 0 -243 -98.5t-97 -247.5z" />
<glyph unicode="7" horiz-adv-x="1064" d="M49 1296v138h952v-164q-276 -174 -413 -471.5t-137 -757.5v-41h-140v59q0 452 148.5 771t402.5 466h-813z" />
<glyph unicode="8" horiz-adv-x="1150" d="M119 1055q0 179 126.5 289t329.5 110t330 -110t127 -289q0 -125 -80.5 -223.5t-189.5 -131.5q100 -34 171 -124t71 -216q0 -171 -119.5 -275.5t-309.5 -104.5t-309 104.5t-119 275.5q0 126 71 216t171 124q-109 33 -189.5 131.5t-80.5 223.5zM258 1044q0 -113 89 -190.5 t218 -77.5h21q129 0 218 77.5t89 190.5q0 121 -87 199t-220 78h-21q-133 0 -220 -78t-87 -199zM285 371q0 -113 79.5 -185.5t200.5 -72.5h21q121 0 200.5 72.5t79.5 185.5q0 110 -80.5 186t-199.5 76h-21q-119 0 -199.5 -76t-80.5 -186z" />
<glyph unicode="9" horiz-adv-x="1239" d="M106 338h140q26 -101 109 -163t190 -62h20q180 0 300.5 176.5t133.5 460.5q-51 -128 -164 -193t-245 -65q-203 0 -333 130t-130 332q0 226 134.5 363t338.5 137q247 0 384.5 -187t137.5 -513q0 -226 -72 -402.5t-201.5 -274t-293.5 -97.5q-179 0 -297 94t-152 264z M266 973q0 -152 89.5 -250t236.5 -98h20q146 0 243 98.5t97 247.5q0 151 -97 250.5t-243 99.5h-20q-140 0 -233 -99t-93 -249z" />
<glyph unicode=":" horiz-adv-x="487" d="M141 0v205h205v-205h-205zM141 819v205h205v-205h-205z" />
<glyph unicode=";" horiz-adv-x="555" d="M115 -154h61q123 0 123 123v31h-113v205h205v-246q0 -93 -50.5 -144t-143.5 -51h-82v82zM186 819v205h205v-205h-205z" />
<glyph unicode="&#x3c;" horiz-adv-x="1105" d="M90 467v115l871 362v-149l-676 -267l676 -268v-156z" />
<glyph unicode="=" d="M152 274v134h1011v-134h-1011zM152 645v133h1011v-133h-1011z" />
<glyph unicode="&#x3e;" horiz-adv-x="1105" d="M145 104v150l676 268l-676 266v156l871 -362v-115z" />
<glyph unicode="?" horiz-adv-x="925" d="M74 1300v134h420q154 0 255 -100.5t101 -254.5q0 -164 -99 -266t-241 -102h-27q-40 0 -54.5 -15t-14.5 -55v-221h-133v260q0 92 35.5 128t127.5 36h41q110 0 168 67t58 166q0 97 -64 160t-182 63h-391zM270 0v174h154v-174h-154z" />
<glyph unicode="@" horiz-adv-x="1882" d="M109 635q0 159 45.5 297.5t125 240.5t185.5 175.5t228 110t251 36.5q180 0 333 -56.5t261 -157t168.5 -244t60.5 -312.5q0 -110 -28 -201.5t-72.5 -151t-102.5 -100.5t-115.5 -59t-113.5 -18h-151v157q-26 -71 -99.5 -124.5t-171.5 -53.5q-161 0 -267.5 119t-106.5 321 q0 200 106.5 315t267.5 115q98 0 166.5 -46t104.5 -117v143h123v-717h18q37 0 73.5 8.5t80.5 36t77 71t55.5 122t22.5 180.5q0 296 -187.5 476.5t-502.5 180.5q-144 0 -272 -53t-223.5 -148.5t-151 -237t-55.5 -308.5q0 -181 53 -327.5t148.5 -245t230 -152t295.5 -53.5h501 v-113h-512q-144 0 -271.5 35t-233.5 108t-182.5 177.5t-119 250t-42.5 320.5zM672 614q0 -148 68 -237.5t175 -89.5h17q105 0 178.5 91t73.5 236q0 149 -75 233.5t-177 84.5h-17q-104 0 -173.5 -83.5t-69.5 -234.5z" />
<glyph unicode="A" horiz-adv-x="1386" d="M16 0l588 1434h180l584 -1434h-151l-160 395h-733l-160 -395h-148zM377 528h627l-314 775z" />
<glyph unicode="B" horiz-adv-x="1343" d="M199 0v1434h608q166 0 275.5 -101.5t109.5 -273.5q0 -119 -67.5 -212t-161.5 -120q98 -6 179 -100t81 -232q0 -180 -117.5 -287.5t-294.5 -107.5h-612zM342 133h438q135 0 217 68.5t82 195.5t-81 194.5t-216 67.5h-440v-526zM342 793h440q119 0 193 67t74 187t-74 186.5 t-193 66.5h-440v-507z" />
<glyph unicode="C" horiz-adv-x="1421" d="M111 717q0 157 45.5 292t128.5 234t207 155t274 56q149 0 271.5 -55t198.5 -161t83 -245h-143q-10 151 -125 239.5t-275 88.5h-20q-159 0 -274.5 -83t-171.5 -218t-56 -303t56 -303t171.5 -218t274.5 -83h20q160 0 275 88t125 239h143q-7 -139 -83 -244.5t-198.5 -160.5 t-271.5 -55q-150 0 -274 56t-207 155t-128.5 234t-45.5 292z" />
<glyph unicode="D" horiz-adv-x="1447" d="M199 0v1434h491q294 0 469.5 -193t175.5 -528q0 -334 -175 -523.5t-470 -189.5h-491zM342 133h328q251 0 386.5 151.5t135.5 432.5t-135.5 432t-386.5 151h-328v-1167z" />
<glyph unicode="E" d="M199 0v1434h1001v-134h-858v-495h735v-133h-735v-539h879v-133h-1022z" />
<glyph unicode="F" horiz-adv-x="1208" d="M199 0v1434h952v-134h-809v-538h705v-133h-705v-629h-143z" />
<glyph unicode="G" horiz-adv-x="1490" d="M111 717q0 216 78 381.5t232 260.5t365 95q240 0 390 -131.5t174 -349.5h-144q-25 164 -134 256t-275 92h-21q-236 0 -379 -159t-143 -445t143 -445t379 -159h21q85 0 161.5 26.5t137 75.5t96 125.5t35.5 169.5v74h-441v133h441q133 0 133 -133v-584h-133v186 q-66 -96 -184 -151t-257 -55q-211 0 -365 95t-232 260.5t-78 381.5z" />
<glyph unicode="H" horiz-adv-x="1492" d="M199 0v1434h143v-650h809v650h143v-1434h-143v651h-809v-651h-143z" />
<glyph unicode="I" horiz-adv-x="540" d="M199 0v1434h143v-1434h-143z" />
<glyph unicode="J" horiz-adv-x="792" d="M53 0v133h223q185 0 185 236v1065h143v-1059q0 -185 -84 -280t-241 -95h-226z" />
<glyph unicode="K" horiz-adv-x="1370" d="M199 0v1434h143v-799l805 799h190l-583 -580l592 -854h-179l-516 752l-309 -306v-446h-143z" />
<glyph unicode="L" horiz-adv-x="1232" d="M199 0v1434h143v-1301h858v-133h-1001z" />
<glyph unicode="M" horiz-adv-x="1882" d="M199 0v1434h243l504 -1328l500 1328h237v-1434h-141v1317l-500 -1317h-198l-504 1323v-1323h-141z" />
<glyph unicode="N" horiz-adv-x="1513" d="M199 0v1434h184l788 -1215v1215h144v-1434h-174l-799 1235v-1235h-143z" />
<glyph unicode="O" horiz-adv-x="1531" d="M111 717q0 170 49.5 309.5t136.5 232.5t207.5 144t261.5 51t261.5 -51t207.5 -144t136.5 -232.5t49.5 -309.5t-49.5 -309.5t-136.5 -232.5t-207.5 -144t-261.5 -51t-261.5 51t-207.5 144t-136.5 232.5t-49.5 309.5zM254 717q0 -277 140 -440.5t362 -163.5h20 q222 0 362 163.5t140 440.5t-140 440.5t-362 163.5h-20q-222 0 -362 -163.5t-140 -440.5z" />
<glyph unicode="P" horiz-adv-x="1296" d="M199 0v1434h573q193 0 322 -112.5t129 -311.5q0 -133 -62 -230t-162.5 -143.5t-226.5 -46.5h-430v-590h-143zM342 723h399q156 0 247 72.5t91 214.5t-91 216t-247 74h-399v-577z" />
<glyph unicode="Q" horiz-adv-x="1531" d="M111 717q0 170 49.5 309.5t136.5 232.5t207.5 144t261.5 51t261.5 -51t207.5 -144t136.5 -232.5t49.5 -309.5q0 -316 -161 -512t-420 -221v-107q0 -54 24 -78t78 -24h303v-133h-334q-215 0 -215 217v125q-262 24 -423.5 219.5t-161.5 513.5zM254 717q0 -277 140 -440.5 t362 -163.5h20q222 0 362 163.5t140 440.5t-140 440.5t-362 163.5h-20q-222 0 -362 -163.5t-140 -440.5z" />
<glyph unicode="R" horiz-adv-x="1382" d="M199 0v1434h585q189 0 314 -108.5t125 -274.5q0 -122 -58.5 -213t-158.5 -131h14q98 0 140 -46.5t42 -148.5v-512h-143v512q0 92 -92 92h-625v-604h-143zM342 737h422q128 0 221.5 81.5t93.5 211.5q0 127 -83.5 198.5t-231.5 71.5h-422v-563z" />
<glyph unicode="S" horiz-adv-x="1265" d="M86 451h143q0 -160 112 -249t296 -89h20q159 0 248.5 75.5t89.5 190.5q0 99 -65 158.5t-201 87.5l-229 47q-342 71 -342 372q0 174 134 292t357 118q229 0 366.5 -118.5t145.5 -321.5h-143q-9 140 -108.5 223.5t-250.5 83.5h-20q-148 0 -243 -78t-95 -196 q0 -94 62.5 -151.5t175.5 -80.5l229 -45q371 -74 371 -383q0 -189 -134.5 -298t-365.5 -109q-265 0 -409 123t-144 348z" />
<glyph unicode="T" horiz-adv-x="1249" d="M31 1300v134h1188v-134h-523v-1300h-143v1300h-522z" />
<glyph unicode="U" horiz-adv-x="1413" d="M184 512v922h144v-902q0 -199 94.5 -309t273.5 -110h21q179 0 273.5 110t94.5 309v902h144v-922q0 -244 -135 -388t-387 -144q-258 0 -390.5 143t-132.5 389z" />
<glyph unicode="V" horiz-adv-x="1392" d="M10 1434h154l541 -1274l514 1274h153l-590 -1434h-159z" />
<glyph unicode="W" horiz-adv-x="1878" d="M51 1434h146l321 -1323l318 1323h213l321 -1313l313 1313h144l-354 -1434h-218l-315 1284l-317 -1284h-217z" />
<glyph unicode="X" horiz-adv-x="1275" d="M25 0l528 731l-504 703h170l420 -584l422 584h166l-506 -699l528 -735h-170l-442 616l-447 -616h-165z" />
<glyph unicode="Y" horiz-adv-x="1216" d="M14 1434h162l434 -709l434 709h158l-522 -840v-594h-143v594z" />
<glyph unicode="Z" horiz-adv-x="1220" d="M84 0v152l872 1148h-852v134h1014v-142l-878 -1159h899v-133h-1055z" />
<glyph unicode="[" horiz-adv-x="651" d="M186 -297v2028h410v-113h-277v-1802h277v-113h-410z" />
<glyph unicode="\" horiz-adv-x="837" d="M72 1434h143l553 -1434h-143z" />
<glyph unicode="]" horiz-adv-x="651" d="M55 -184h277v1802h-277v113h410v-2028h-410v113z" />
<glyph unicode="^" horiz-adv-x="1056" d="M84 584l362 850h162l365 -850h-137l-310 729l-309 -729h-133z" />
<glyph unicode="_" horiz-adv-x="1003" d="M61 0h881v-113h-881v113z" />
<glyph unicode="`" horiz-adv-x="413" d="M61 1434h164l117 -267h-100z" />
<glyph unicode="a" horiz-adv-x="1058" d="M96 283q0 65 22 117t56.5 85t82.5 56.5t94.5 34t97.5 14.5l323 24v41q0 131 -68.5 204t-187.5 73h-10q-103 0 -174.5 -51t-81.5 -144h-133q9 136 118.5 221.5t274.5 85.5q97 0 173.5 -31t124 -85t72.5 -123.5t25 -149.5v-430q0 -153 10 -225h-122q-11 62 -11 164 q-33 -75 -133 -129.5t-229 -54.5q-136 0 -230 86.5t-94 216.5zM229 291q0 -85 58.5 -142t146.5 -57h21q111 0 214 84t103 193v137l-297 -21q-111 -8 -178.5 -59.5t-67.5 -134.5z" />
<glyph unicode="b" horiz-adv-x="1198" d="M164 0v1434h133v-574q45 83 142 133.5t200 50.5q202 0 329.5 -144.5t127.5 -387.5t-127.5 -387.5t-329.5 -144.5q-103 0 -200 50.5t-142 133.5v-164h-133zM297 512q0 -84 20.5 -159t60 -133.5t103.5 -93t144 -34.5h10q80 0 143 34.5t102.5 93t60 133.5t20.5 159 t-20.5 159t-60 133.5t-102.5 93t-143 34.5h-10q-80 0 -144 -34.5t-103.5 -93t-60 -133.5t-20.5 -159z" />
<glyph unicode="c" horiz-adv-x="1067" d="M102 512q0 152 53.5 271.5t161.5 190t256 70.5q167 0 276 -94t124 -254h-133q-18 105 -86.5 170.5t-169.5 65.5h-21q-107 0 -183 -59.5t-110 -152.5t-34 -208t34 -208t110 -152.5t183 -59.5h21q99 0 167 66.5t89 169.5h133q-28 -161 -132.5 -254.5t-267.5 -93.5 q-148 0 -256 70.5t-161.5 190t-53.5 271.5z" />
<glyph unicode="d" horiz-adv-x="1198" d="M102 512q0 243 127.5 387.5t329.5 144.5q103 0 200 -50.5t142 -133.5v574h133v-1434h-133v164q-45 -83 -142 -133.5t-200 -50.5q-202 0 -329.5 144.5t-127.5 387.5zM238 512q0 -114 34.5 -207t110 -153t180.5 -60h10q80 0 144 34.5t103.5 93t60 133.5t20.5 159t-20.5 159 t-60 133.5t-103.5 93t-144 34.5h-10q-105 0 -180.5 -60t-110 -153t-34.5 -207z" />
<glyph unicode="e" horiz-adv-x="1073" d="M102 514q0 130 38 233t102.5 167t145.5 97t171 33q185 0 299.5 -130.5t114.5 -329.5v-82h-737q3 -206 93.5 -308t227.5 -102h12q96 0 168.5 51t100.5 150h133q-33 -151 -142.5 -232t-269.5 -81q-97 0 -179.5 34.5t-144.5 100.5t-97.5 168.5t-35.5 230.5zM240 614h600 q-5 139 -79.5 228.5t-193.5 89.5h-20q-52 0 -99 -16t-91.5 -51t-75.5 -99t-41 -152z" />
<glyph unicode="f" horiz-adv-x="718" d="M43 911v113h236v225q0 99 46.5 142t147.5 43h256v-113h-235q-46 0 -64 -18t-18 -64v-215h266v-113h-266v-911h-133v911h-236z" />
<glyph unicode="g" horiz-adv-x="1181" d="M82 -143h133q20 -95 104 -145t216 -50h20q68 0 125.5 20t104.5 61.5t73.5 111.5t26.5 163v166q-47 -87 -133.5 -135.5t-206.5 -48.5q-197 0 -320 136t-123 376q0 242 124 387t319 145q120 0 206.5 -48.5t133.5 -135.5v164h133v-1016q0 -204 -127 -331.5t-346 -127.5 q-214 0 -330.5 84t-132.5 224zM236 512q0 -188 86 -293.5t227 -105.5h20q141 0 228.5 105.5t87.5 293.5q0 190 -88 305t-228 115h-20q-139 0 -226 -115t-87 -305z" />
<glyph unicode="h" horiz-adv-x="1167" d="M164 0v1434h133v-584q53 92 147.5 143t221.5 51q166 0 257 -101t91 -267v-676h-133v635q0 297 -246 297h-21q-126 0 -221.5 -104.5t-95.5 -274.5v-553h-133z" />
<glyph unicode="i" horiz-adv-x="460" d="M154 1208v174h153v-174h-153zM164 0v1024h133v-1024h-133z" />
<glyph unicode="j" horiz-adv-x="477" d="M-168 -225h266q46 0 64 18t18 64v1167h133v-1178q0 -98 -46.5 -141t-147.5 -43h-287v113zM170 1208v174h154v-174h-154z" />
<glyph unicode="k" horiz-adv-x="1073" d="M164 0v1434h133v-940l545 530h182l-426 -408l446 -616h-165l-375 524l-207 -196v-328h-133z" />
<glyph unicode="l" horiz-adv-x="460" d="M164 0v1434h133v-1434h-133z" />
<glyph unicode="m" horiz-adv-x="1822" d="M164 0v1024h133v-164q48 83 136 133.5t202 50.5q115 0 200 -55.5t123 -159.5q54 105 146.5 160t216.5 55q155 0 251.5 -97.5t96.5 -276.5v-670h-133v629q0 303 -236 303h-12q-99 0 -170 -60t-103 -153t-32 -207v-512h-133v629q0 303 -236 303h-12q-99 0 -170 -60 t-103 -153t-32 -207v-512h-133z" />
<glyph unicode="n" horiz-adv-x="1167" d="M164 0v1024h133v-172q45 87 140 139.5t218 52.5q160 0 259.5 -97.5t99.5 -276.5v-670h-133v629q0 303 -246 303h-12q-80 0 -143.5 -34.5t-102.5 -93t-59.5 -133t-20.5 -159.5v-512h-133z" />
<glyph unicode="o" horiz-adv-x="1142" d="M100 512q0 234 135 383t336 149t336 -149t135 -383t-135 -383t-336 -149t-336 149t-135 383zM236 512q0 -192 92 -306t233 -114h21q141 0 233 114t92 306t-92 306t-233 114h-21q-141 0 -233 -114t-92 -306z" />
<glyph unicode="p" horiz-adv-x="1198" d="M164 -410v1434h133v-164q45 83 142 133.5t200 50.5q202 0 329.5 -144.5t127.5 -387.5t-127.5 -387.5t-329.5 -144.5q-103 0 -200 50.5t-142 133.5v-574h-133zM297 512q0 -84 20.5 -159t60 -133.5t103.5 -93t144 -34.5h10q80 0 143 34.5t102.5 93t60 133.5t20.5 159 t-20.5 159t-60 133.5t-102.5 93t-143 34.5h-10q-80 0 -144 -34.5t-103.5 -93t-60 -133.5t-20.5 -159z" />
<glyph unicode="q" horiz-adv-x="1198" d="M102 512q0 243 127.5 387.5t329.5 144.5q103 0 200 -50.5t142 -133.5v164h133v-1434h-133v574q-45 -83 -142 -133.5t-200 -50.5q-202 0 -329.5 144.5t-127.5 387.5zM238 512q0 -114 34.5 -207t110 -153t180.5 -60h10q80 0 144 34.5t103.5 93t60 133.5t20.5 159t-20.5 159 t-60 133.5t-103.5 93t-144 34.5h-10q-105 0 -180.5 -60t-110 -153t-34.5 -207z" />
<glyph unicode="r" horiz-adv-x="733" d="M164 0v1024h123v-233q34 119 120 181t197 62h92v-123h-82q-148 0 -232.5 -110t-84.5 -303v-498h-133z" />
<glyph unicode="s" horiz-adv-x="976" d="M84 307h133q10 -103 82.5 -159t181.5 -56h21q107 0 169 49.5t62 134.5q0 62 -40 99.5t-140 58.5l-150 31q-130 28 -204 92t-74 186q0 140 106.5 220.5t260.5 80.5q95 0 169 -27t119 -74t69 -104t28 -122h-134q-9 89 -75 152t-166 63h-21q-103 0 -163 -54t-60 -133 q0 -56 44.5 -94t141.5 -59l160 -35q59 -13 103 -31.5t81 -49.5q37 -30 57 -78q21 -50 21 -114q0 -142 -101 -222q-102 -82 -273 -82q-191 0 -295.5 90t-112.5 237z" />
<glyph unicode="t" horiz-adv-x="729" d="M31 911v113h235v332h133v-332h256v-113h-256v-716q0 -46 18 -64t64 -18h205v-113h-225q-101 0 -148 43t-47 141v727h-235z" />
<glyph unicode="u" horiz-adv-x="1146" d="M154 348v676h133v-635q0 -297 245 -297h21q119 0 208 104t89 275v553h133v-1024h-133v193q-40 -102 -128.5 -157.5t-213.5 -55.5q-167 0 -260.5 101.5t-93.5 266.5z" />
<glyph unicode="v" horiz-adv-x="1030" d="M39 1024h141l336 -903l336 903h139l-393 -1024h-166z" />
<glyph unicode="w" horiz-adv-x="1568" d="M47 1024h137l285 -905l231 905h170l242 -918l279 920l131 -2l-328 -1024h-178l-232 883l-231 -883h-176z" />
<glyph unicode="x" horiz-adv-x="1024" d="M41 0l395 520l-381 504h156l303 -401l305 401h150l-381 -500l395 -524h-156l-317 420l-320 -420h-149z" />
<glyph unicode="y" horiz-adv-x="1064" d="M47 1024h146l352 -827l352 827h139l-422 -989v-195q0 -93 -47 -135.5t-147 -42.5h-311v113h290q46 0 64 18t18 64v172z" />
<glyph unicode="z" horiz-adv-x="966" d="M84 0v125l635 786h-625v113h768v-121l-639 -790h670v-113h-809z" />
<glyph unicode="{" horiz-adv-x="669" d="M88 584v266h51q61 0 82 29.5t21 113.5v420q0 164 55 241t180 77h133v-113h-112q-74 0 -98.5 -35t-24.5 -129v-543q0 -174 -164 -174v-41q164 0 164 -174v-542q0 -94 24.5 -129t98.5 -35h112v-113h-133q-125 0 -180 76.5t-55 240.5v420q0 84 -21 114t-82 30h-51z" />
<glyph unicode="|" horiz-adv-x="505" d="M186 -174v1782h133v-1782h-133z" />
<glyph unicode="}" horiz-adv-x="669" d="M59 -184h113q74 0 98.5 35t24.5 129v542q0 174 164 174v41q-164 0 -164 174v543q0 94 -24.5 129t-98.5 35h-113v113h134q125 0 180 -77t55 -241v-420q0 -84 20.5 -113.5t81.5 -29.5h52v-266h-52q-61 0 -81.5 -30t-20.5 -114v-420q0 -164 -55 -240.5t-180 -76.5h-134v113z " />
<glyph unicode="~" horiz-adv-x="1001" d="M160 721v20q0 106 52 160.5t138 54.5q59 0 146 -53l82 -49q3 -2 12.5 -7.5t12.5 -7t11 -6t11.5 -6t10.5 -4t11.5 -3.5t10.5 -2t12 -1q84 0 84 129h102v-20q0 -101 -49.5 -158t-132.5 -57q-10 0 -20.5 1t-21 3.5t-19 5t-19 7t-17 7t-17.5 8t-14.5 7.5t-14 7.5t-11.5 6.5 l-78 45q-66 41 -96 41q-84 0 -84 -129h-102z" />
<glyph unicode="&#xa1;" horiz-adv-x="454" d="M152 850v174h153v-174h-153zM156 20l41 584h61l41 -584v-430h-143v430z" />
<glyph unicode="&#xa2;" horiz-adv-x="1077" d="M100 512q0 152 53.5 271.5t161.5 190t256 70.5h19l39 226h125l-41 -246q109 -34 176.5 -119.5t79.5 -208.5h-140q-10 66 -46.5 116.5t-92.5 76.5l-131 -776h2h21q98 0 165.5 60.5t86.5 154.5h139q-28 -161 -133 -254.5t-269 -93.5q-24 0 -34 2l-39 -228h-125l43 250 q-151 49 -233.5 185t-82.5 323zM240 512q0 -132 50.5 -233.5t147.5 -141.5l129 774h-6q-80 0 -142.5 -32t-100.5 -88t-58 -126.5t-20 -152.5z" />
<glyph unicode="&#xa3;" horiz-adv-x="1140" d="M98 0v133h41q154 0 166 184l21 283l-228 -51v123l238 53l20 281q15 212 115.5 320t298.5 108h199v-134h-205q-134 0 -195.5 -77.5t-72.5 -227.5l-19 -237l287 63v-123l-297 -67l-23 -295q-6 -80 -28 -126t-74 -77h729v-133h-973z" />
<glyph unicode="&#xa4;" horiz-adv-x="1452" d="M119 127l184 184q-92 137 -92 314q0 169 88 307l-180 180l90 90l178 -170q144 125 336 125q198 0 340 -129l182 174l90 -90l-186 -186q86 -131 86 -301q0 -169 -88 -310l188 -188l-90 -90l-184 176q-144 -131 -338 -131q-191 0 -334 127l-180 -172zM350 625 q0 -177 109 -293.5t264 -116.5h10q154 0 258.5 116t104.5 294q0 177 -104 288t-259 111h-20q-155 0 -259 -111t-104 -288z" />
<glyph unicode="&#xa5;" horiz-adv-x="1308" d="M61 1434h162l434 -701l435 701h157l-432 -689l270 62v-123l-360 -82v-166l299 68v-123l-299 -68v-313h-143v283l-299 -68v123l299 68v165l-361 -82v123l309 70z" />
<glyph unicode="&#xa6;" horiz-adv-x="501" d="M184 -174v747h133v-747h-133zM184 881v727h133v-727h-133z" />
<glyph unicode="&#xa7;" horiz-adv-x="1048" d="M92 659q0 78 50.5 149.5t142.5 127.5q-61 52 -91 104t-30 117q0 134 85.5 205.5t239.5 71.5h351v-134h-348q-89 0 -139 -35.5t-50 -107.5q0 -57 41.5 -93t138.5 -67l187 -61q72 -23 121 -46.5t90.5 -57t61.5 -78.5t20 -103q0 -164 -193 -278q62 -49 91.5 -97.5 t29.5 -117.5q0 -56 -18.5 -104.5t-56 -89t-103 -64t-152.5 -23.5h-387v133h406q87 0 129.5 39t42.5 109q0 51 -44 87.5t-141 73.5l-284 107q-95 35 -143 97t-48 136zM231 676q0 -18 5.5 -34.5t13 -28t24 -24t27.5 -20t36.5 -18t38 -15.5t44.5 -16t45 -16l180 -68 q104 45 141 93.5t37 101.5q0 31 -14 57t-34 43.5t-55.5 35t-63.5 28t-72 24.5l-178 58q-86 -35 -130.5 -90.5t-44.5 -110.5z" />
<glyph unicode="&#xa8;" horiz-adv-x="696" d="M92 1208v164h154v-164h-154zM451 1208v164h153v-164h-153z" />
<glyph unicode="&#xa9;" horiz-adv-x="1810" d="M106 717q0 162 63.5 310t170.5 255t255 170.5t310 63.5t310 -63.5t255 -170.5t170.5 -255t63.5 -310t-63.5 -310t-170.5 -255t-255 -170.5t-310 -63.5t-310 63.5t-255 170.5t-170.5 255t-63.5 310zM213 717q0 -141 54.5 -270t147 -222.5t221 -149t269.5 -55.5t269.5 55.5 t221 149t147 222.5t54.5 270q0 189 -92.5 349t-252 253.5t-347.5 93.5t-347.5 -93.5t-252 -253.5t-92.5 -349zM539 717q0 183 101 294.5t267 110.5q130 -2 216.5 -71t101.5 -193h-125q-14 68 -66.5 115t-124.5 47h-10q-100 0 -167.5 -84.5t-67.5 -218.5q0 -133 67 -213 t168 -80h10q75 0 131.5 45t69.5 117h125q-21 -123 -112.5 -193.5t-215.5 -70.5q-159 0 -263.5 102.5t-104.5 292.5z" />
<glyph unicode="&#xaa;" horiz-adv-x="739" d="M119 1014q0 84 48.5 130t129.5 56l184 21v18q0 51 -33.5 82t-82.5 31h-7q-46 0 -82 -28.5t-36 -76.5h-113q4 93 73 145t165 52q95 0 162 -56.5t67 -152.5v-258q0 -84 6 -127h-102q-11 60 -11 102q-21 -55 -73 -83.5t-121 -28.5q-76 0 -125 47t-49 127zM231 1022 q0 -43 26.5 -66.5t66.5 -23.5h6q64 0 107 37.5t44 105.5v66l-151 -17q-42 -5 -70.5 -31.5t-28.5 -70.5z" />
<glyph unicode="&#xab;" horiz-adv-x="1001" d="M84 584l297 440h151l-294 -438l299 -443h-156zM461 584l297 440h151l-295 -438l299 -443h-155z" />
<glyph unicode="&#xac;" horiz-adv-x="1216" d="M150 563v133h911v-430h-139v297h-772z" />
<glyph unicode="&#xad;" horiz-adv-x="794" d="M141 563v113h512v-113h-512z" />
<glyph unicode="&#xae;" horiz-adv-x="1810" d="M106 717q0 162 63.5 310t170.5 255t255 170.5t310 63.5t310 -63.5t255 -170.5t170.5 -255t63.5 -310t-63.5 -310t-170.5 -255t-255 -170.5t-310 -63.5t-310 63.5t-255 170.5t-170.5 255t-63.5 310zM213 717q0 -141 54.5 -270t147 -222.5t221 -149t269.5 -55.5t269.5 55.5 t221 149t147 222.5t54.5 270q0 189 -92.5 349t-252 253.5t-347.5 93.5t-347.5 -93.5t-252 -253.5t-92.5 -349zM639 342v770h338q116 0 181 -59t65 -152q0 -82 -44 -133.5t-112 -60.5q78 -2 111.5 -38t33.5 -126v-201h-125v203q0 98 -110 98h-213v-301h-125zM764 741h162 q80 0 126 33.5t46 97.5q0 76 -43 107t-129 31h-162v-269z" />
<glyph unicode="&#xaf;" horiz-adv-x="727" d="M82 1208v113h563v-113h-563z" />
<glyph unicode="&#xb0;" horiz-adv-x="946" d="M94 1075q0 162 107.5 270.5t271.5 108.5q162 0 270.5 -108.5t108.5 -270.5t-108.5 -270.5t-270.5 -108.5q-164 0 -271.5 108.5t-107.5 270.5zM221 1075q0 -107 74 -183.5t178 -76.5t178 76.5t74 183.5t-74 183.5t-178 76.5t-178 -76.5t-74 -183.5z" />
<glyph unicode="&#xb1;" horiz-adv-x="1306" d="M147 0v133h1012v-133h-1012zM147 594v133h441v297h131v-297h440v-133h-440v-287h-131v287h-441z" />
<glyph unicode="&#xb2;" horiz-adv-x="696" d="M76 850v139l258 225q96 84 124.5 123t28.5 97q0 59 -38 96t-95 37h-10q-51 0 -95 -39t-44 -103h-125q0 110 80 177t192 67q114 0 187 -62.5t73 -172.5q0 -36 -10 -68.5t-22 -55.5t-38 -51.5t-41.5 -43t-49.5 -44.5l-252 -219h422v-102h-545z" />
<glyph unicode="&#xb3;" horiz-adv-x="714" d="M72 1073h125q3 -60 42 -95.5t101 -35.5h10q67 0 111.5 38t44.5 103q0 60 -39 93.5t-98 33.5h-90v97h94q58 0 92.5 32.5t34.5 92.5q0 66 -39 100.5t-105 34.5h-10q-61 0 -97.5 -33.5t-39.5 -89.5h-125q0 107 79 166t193 59q113 0 191 -59.5t78 -165.5q0 -63 -30.5 -112.5 t-82.5 -74.5q57 -23 88 -72t31 -114q0 -105 -85.5 -168t-199.5 -63t-194 62t-80 171z" />
<glyph unicode="&#xb4;" horiz-adv-x="485" d="M102 1167l117 267h164l-180 -267h-101z" />
<glyph unicode="&#xb5;" horiz-adv-x="1157" d="M164 -410v1434h133v-635q0 -297 246 -297h20q119 0 208 104t89 275v553h133v-1024h-133v193q-40 -102 -128.5 -157.5t-213.5 -55.5q-131 0 -221 65v-455h-133z" />
<glyph unicode="&#xb6;" horiz-adv-x="1259" d="M61 1051q0 160 109 271.5t274 111.5h709v-113h-123v-1731h-133v1731h-266v-1731h-133v1076h-41q-173 0 -284.5 112.5t-111.5 272.5z" />
<glyph unicode="&#xb7;" horiz-adv-x="487" d="M141 614v205h205v-205h-205z" />
<glyph unicode="&#xb8;" horiz-adv-x="528" d="M98 -348h129q44 0 72.5 23t28.5 67t-28.5 66t-72.5 22h-57v201h92v-123q68 2 118 -45t50 -121q0 -88 -54.5 -145.5t-150.5 -57.5h-127v113z" />
<glyph unicode="&#xb9;" horiz-adv-x="530" d="M47 1313v121l279 225h77v-809h-116v655z" />
<glyph unicode="&#xba;" horiz-adv-x="749" d="M106 1141q0 138 73 220.5t196 82.5t195.5 -82.5t72.5 -220.5t-72.5 -219.5t-195.5 -81.5t-196 81.5t-73 219.5zM223 1141q0 -94 41.5 -151.5t112.5 -57.5q72 0 110.5 57t38.5 152q0 94 -40 152.5t-111 58.5t-111.5 -58.5t-40.5 -152.5z" />
<glyph unicode="&#xbb;" horiz-adv-x="1001" d="M88 143l299 443l-295 438h152l297 -440l-297 -441h-156zM465 143l299 443l-295 438h152l297 -440l-297 -441h-156z" />
<glyph unicode="&#xbc;" horiz-adv-x="1759" d="M66 1087v121l278 226h78v-809h-117v655zM377 0l860 1434h133l-860 -1434h-133zM1081 197v114l367 498h127v-510h111v-102h-111v-197h-115v197h-379zM1200 299h260v360z" />
<glyph unicode="&#xbd;" horiz-adv-x="1802" d="M68 1087v121l278 226h78v-809h-117v655zM334 0l860 1434h133l-860 -1434h-133zM1165 0v139l258 226q97 85 125.5 123.5t28.5 95.5q0 59 -38 96t-95 37h-10q-51 0 -95.5 -39t-44.5 -103h-125q0 110 80.5 177t192.5 67q114 0 187 -62.5t73 -172.5q0 -36 -10.5 -69t-22 -55 t-38.5 -51.5t-41.5 -42.5t-49.5 -44l-252 -220h422v-102h-545z" />
<glyph unicode="&#xbe;" horiz-adv-x="1843" d="M86 848h125q3 -60 42 -95.5t101 -35.5h11q67 0 111 38t44 103q0 60 -39 93.5t-98 33.5h-90v96h94q58 0 92.5 32.5t34.5 92.5q0 66 -38.5 100.5t-104.5 34.5h-11q-61 0 -97.5 -33t-39.5 -89h-125q0 107 79 166t194 59q113 0 190.5 -59.5t77.5 -165.5q0 -63 -30.5 -112.5 t-82.5 -74.5q57 -23 88 -72t31 -114q0 -105 -85.5 -168.5t-199.5 -63.5t-194 62.5t-80 171.5zM489 0l861 1434h133l-860 -1434h-134zM1169 197v114l367 498h127v-510h111v-102h-111v-197h-115v197h-379zM1288 299h260v360z" />
<glyph unicode="&#xbf;" horiz-adv-x="907" d="M68 -55q0 164 99 266t241 102h26q40 0 55 15t15 55v221h133v-260q0 -92 -36 -128t-128 -36h-41q-110 0 -167.5 -67t-57.5 -166q0 -97 64 -160t182 -63h391v-134h-420q-154 0 -255 100.5t-101 254.5zM494 850v174h153v-174h-153z" />
<glyph unicode="&#xc0;" horiz-adv-x="1386" d="M16 0l588 1434h180l584 -1434h-151l-160 395h-733l-160 -395h-148zM377 528h627l-314 775zM459 1823h184l109 -256h-123z" />
<glyph unicode="&#xc1;" horiz-adv-x="1386" d="M16 0l588 1434h180l584 -1434h-151l-160 395h-733l-160 -395h-148zM377 528h627l-314 775zM641 1567l109 256h184l-170 -256h-123z" />
<glyph unicode="&#xc2;" horiz-adv-x="1386" d="M16 0l588 1434h180l584 -1434h-151l-160 395h-733l-160 -395h-148zM365 1567l235 256h184l236 -256h-139l-189 147l-188 -147h-139zM377 528h627l-314 775z" />
<glyph unicode="&#xc3;" horiz-adv-x="1386" d="M16 0l588 1434h180l584 -1434h-151l-160 395h-733l-160 -395h-148zM358 1577v47q0 85 51.5 142t127.5 57q39 0 70 -15t91 -57q9 -6 32.5 -24t33 -24t26.5 -16.5t30.5 -14t27.5 -3.5q82 0 82 133h102v-47q0 -85 -51.5 -142t-126.5 -57q-37 0 -67.5 15t-92.5 57 q-9 6 -27 20.5t-26 20.5t-23 15.5t-25 14t-23 8t-25 3.5q-84 0 -84 -133h-103zM377 528h627l-314 775z" />
<glyph unicode="&#xc4;" horiz-adv-x="1386" d="M16 0l588 1434h180l584 -1434h-151l-160 395h-733l-160 -395h-148zM377 528h627l-314 775zM420 1597v164h164v-164h-164zM801 1597v164h164v-164h-164z" />
<glyph unicode="&#xc5;" horiz-adv-x="1386" d="M16 0l588 1434h180l584 -1434h-151l-160 395h-733l-160 -395h-148zM377 528h627l-314 775zM530 1716q0 68 49 115t113 47t113 -47t49 -115t-49 -115t-113 -47t-113 47t-49 115zM625 1716q0 -28 20.5 -48.5t48.5 -20.5q27 0 46.5 20.5t19.5 48.5t-19.5 49t-46.5 21 q-28 0 -48.5 -21t-20.5 -49z" />
<glyph unicode="&#xc6;" horiz-adv-x="2015" d="M-6 0l850 1434h993v-134h-764l68 -495h635v-133h-617l72 -539h729v-133h-850l-53 395h-668l-233 -395h-162zM467 528h571l-108 787z" />
<glyph unicode="&#xc7;" horiz-adv-x="1421" d="M111 717q0 157 45.5 292t128.5 234t207 155t274 56q149 0 271.5 -55t198.5 -161t83 -245h-143q-10 151 -125 239.5t-275 88.5h-20q-159 0 -274.5 -83t-171.5 -218t-56 -303t56 -303t171.5 -218t274.5 -83h20q160 0 275 88t125 239h143q-7 -136 -80 -240.5t-191.5 -160 t-263.5 -59.5v-72q68 2 118 -45t50 -121q0 -88 -54 -145.5t-150 -57.5h-127v113h129q44 0 72 23t28 67t-28 66t-72 22h-58v154q-177 17 -310 117.5t-202 259.5t-69 356z" />
<glyph unicode="&#xc8;" d="M199 0v1434h1001v-134h-858v-495h735v-133h-735v-539h879v-133h-1022zM479 1823h185l108 -256h-123z" />
<glyph unicode="&#xc9;" d="M199 0v1434h1001v-134h-858v-495h735v-133h-735v-539h879v-133h-1022zM629 1567l108 256h185l-170 -256h-123z" />
<glyph unicode="&#xca;" d="M199 0v1434h1001v-134h-858v-495h735v-133h-735v-539h879v-133h-1022zM367 1567l235 256h184l236 -256h-139l-189 147l-188 -147h-139z" />
<glyph unicode="&#xcb;" d="M199 0v1434h1001v-134h-858v-495h735v-133h-735v-539h879v-133h-1022zM422 1597v164h164v-164h-164zM803 1597v164h164v-164h-164z" />
<glyph unicode="&#xcc;" horiz-adv-x="540" d="M39 1823h184l109 -256h-123zM199 0v1434h143v-1434h-143z" />
<glyph unicode="&#xcd;" horiz-adv-x="540" d="M199 0v1434h143v-1434h-143zM221 1567l109 256h184l-170 -256h-123z" />
<glyph unicode="&#xce;" horiz-adv-x="540" d="M-57 1567l235 256h184l236 -256h-139l-189 147l-188 -147h-139zM199 0v1434h143v-1434h-143z" />
<glyph unicode="&#xcf;" horiz-adv-x="540" d="M-2 1597v164h164v-164h-164zM199 0v1434h143v-1434h-143zM379 1597v164h164v-164h-164z" />
<glyph unicode="&#xd0;" horiz-adv-x="1472" d="M18 657v123h205v654h492q294 0 469.5 -193t175.5 -528q0 -334 -175 -523.5t-470 -189.5h-492v657h-205zM367 133h327q251 0 387 151.5t136 432.5t-136 432t-387 151h-327v-520h307v-123h-307v-524z" />
<glyph unicode="&#xd1;" horiz-adv-x="1513" d="M199 0v1434h184l788 -1215v1215h144v-1434h-174l-799 1235v-1235h-143zM442 1577v47q0 85 51.5 142t127.5 57q39 0 70 -15t91 -57q9 -6 32.5 -24t33 -24t26.5 -16.5t30.5 -14t27.5 -3.5q82 0 82 133h102v-47q0 -85 -51.5 -142t-126.5 -57q-37 0 -67.5 15t-92.5 57 q-9 6 -27 20.5t-26 20.5t-23 15.5t-25 14t-23 8t-25 3.5q-84 0 -84 -133h-103z" />
<glyph unicode="&#xd2;" horiz-adv-x="1531" d="M111 717q0 170 49.5 309.5t136.5 232.5t207.5 144t261.5 51t261.5 -51t207.5 -144t136.5 -232.5t49.5 -309.5t-49.5 -309.5t-136.5 -232.5t-207.5 -144t-261.5 -51t-261.5 51t-207.5 144t-136.5 232.5t-49.5 309.5zM254 717q0 -277 140 -440.5t362 -163.5h20 q222 0 362 163.5t140 440.5t-140 440.5t-362 163.5h-20q-222 0 -362 -163.5t-140 -440.5zM551 1823h184l109 -256h-123z" />
<glyph unicode="&#xd3;" horiz-adv-x="1531" d="M111 717q0 170 49.5 309.5t136.5 232.5t207.5 144t261.5 51t261.5 -51t207.5 -144t136.5 -232.5t49.5 -309.5t-49.5 -309.5t-136.5 -232.5t-207.5 -144t-261.5 -51t-261.5 51t-207.5 144t-136.5 232.5t-49.5 309.5zM254 717q0 -277 140 -440.5t362 -163.5h20 q222 0 362 163.5t140 440.5t-140 440.5t-362 163.5h-20q-222 0 -362 -163.5t-140 -440.5zM719 1567l108 256h185l-170 -256h-123z" />
<glyph unicode="&#xd4;" horiz-adv-x="1531" d="M111 717q0 170 49.5 309.5t136.5 232.5t207.5 144t261.5 51t261.5 -51t207.5 -144t136.5 -232.5t49.5 -309.5t-49.5 -309.5t-136.5 -232.5t-207.5 -144t-261.5 -51t-261.5 51t-207.5 144t-136.5 232.5t-49.5 309.5zM254 717q0 -277 140 -440.5t362 -163.5h20 q222 0 362 163.5t140 440.5t-140 440.5t-362 163.5h-20q-222 0 -362 -163.5t-140 -440.5zM438 1567l236 256h184l236 -256h-140l-188 147l-188 -147h-140z" />
<glyph unicode="&#xd5;" horiz-adv-x="1531" d="M111 717q0 170 49.5 309.5t136.5 232.5t207.5 144t261.5 51t261.5 -51t207.5 -144t136.5 -232.5t49.5 -309.5t-49.5 -309.5t-136.5 -232.5t-207.5 -144t-261.5 -51t-261.5 51t-207.5 144t-136.5 232.5t-49.5 309.5zM254 717q0 -277 140 -440.5t362 -163.5h20 q222 0 362 163.5t140 440.5t-140 440.5t-362 163.5h-20q-222 0 -362 -163.5t-140 -440.5zM449 1577v47q0 85 51 142t127 57q39 0 70 -15t91 -57q9 -6 32.5 -24t33 -24t26.5 -16.5t30.5 -14t27.5 -3.5q82 0 82 133h102v-47q0 -85 -51.5 -142t-126.5 -57q-37 0 -67.5 15 t-92.5 57q-9 6 -27 20.5t-26 20.5t-23 15.5t-25 14t-23 8t-25 3.5q-84 0 -84 -133h-102z" />
<glyph unicode="&#xd6;" horiz-adv-x="1531" d="M111 717q0 170 49.5 309.5t136.5 232.5t207.5 144t261.5 51t261.5 -51t207.5 -144t136.5 -232.5t49.5 -309.5t-49.5 -309.5t-136.5 -232.5t-207.5 -144t-261.5 -51t-261.5 51t-207.5 144t-136.5 232.5t-49.5 309.5zM254 717q0 -277 140 -440.5t362 -163.5h20 q222 0 362 163.5t140 440.5t-140 440.5t-362 163.5h-20q-222 0 -362 -163.5t-140 -440.5zM494 1597v164h163v-164h-163zM874 1597v164h164v-164h-164z" />
<glyph unicode="&#xd7;" horiz-adv-x="1095" d="M121 197l332 331l-332 330l96 96l332 -329l330 329l96 -96l-330 -330l330 -331l-96 -97l-330 332l-332 -332z" />
<glyph unicode="&#xd8;" horiz-adv-x="1540" d="M115 717q0 170 49.5 309.5t136.5 232.5t207.5 144t261.5 51q228 0 395 -129l131 166l107 -84l-139 -176q161 -197 161 -514q0 -170 -49.5 -309.5t-136.5 -232.5t-207.5 -144t-261.5 -51q-228 0 -395 126l-129 -163l-107 84l140 176q-164 201 -164 514zM258 717 q0 -240 111 -402l712 904q-127 102 -301 102h-20q-222 0 -362 -163.5t-140 -440.5zM461 215q123 -102 299 -102h20q222 0 362 163.5t140 440.5q0 245 -108 399z" />
<glyph unicode="&#xd9;" horiz-adv-x="1413" d="M184 512v922h144v-902q0 -199 94.5 -309t273.5 -110h21q179 0 273.5 110t94.5 309v902h144v-922q0 -244 -135 -388t-387 -144q-258 0 -390.5 143t-132.5 389zM494 1823h184l108 -256h-122z" />
<glyph unicode="&#xda;" horiz-adv-x="1413" d="M184 512v922h144v-902q0 -199 94.5 -309t273.5 -110h21q179 0 273.5 110t94.5 309v902h144v-922q0 -244 -135 -388t-387 -144q-258 0 -390.5 143t-132.5 389zM631 1567l108 256h185l-170 -256h-123z" />
<glyph unicode="&#xdb;" horiz-adv-x="1413" d="M184 512v922h144v-902q0 -199 94.5 -309t273.5 -110h21q179 0 273.5 110t94.5 309v902h144v-922q0 -244 -135 -388t-387 -144q-258 0 -390.5 143t-132.5 389zM379 1567l235 256h185l235 -256h-139l-188 147l-189 -147h-139z" />
<glyph unicode="&#xdc;" horiz-adv-x="1413" d="M184 512v922h144v-902q0 -199 94.5 -309t273.5 -110h21q179 0 273.5 110t94.5 309v902h144v-922q0 -244 -135 -388t-387 -144q-258 0 -390.5 143t-132.5 389zM434 1597v164h164v-164h-164zM815 1597v164h164v-164h-164z" />
<glyph unicode="&#xdd;" horiz-adv-x="1216" d="M14 1434h162l434 -709l434 709h158l-522 -840v-594h-143v594zM559 1567l109 256h184l-170 -256h-123z" />
<glyph unicode="&#xde;" horiz-adv-x="1300" d="M199 0v1434h143v-308h453q195 0 311.5 -106.5t116.5 -300.5q0 -195 -117 -303.5t-311 -108.5h-453v-307h-143zM342 440h412q325 0 325 279q0 143 -83 208.5t-242 65.5h-412v-553z" />
<glyph unicode="&#xdf;" horiz-adv-x="1103" d="M164 -379v1409q0 214 104 319t297 105q170 0 278.5 -103.5t108.5 -263.5q0 -127 -63 -211.5t-144 -109.5q44 -7 88.5 -32.5t83 -68t63 -107.5t24.5 -142q0 -206 -114.5 -311t-320.5 -105h-118v123h131q151 0 219.5 79.5t68.5 215.5q0 131 -84 206.5t-213 75.5h-122v113 h102q66 0 118.5 24.5t84 64t47.5 84.5t16 91q0 111 -67.5 187.5t-176.5 76.5h-20q-52 0 -96.5 -17.5t-82 -54t-58.5 -102t-21 -153.5v-1393h-133z" />
<glyph unicode="&#xe0;" horiz-adv-x="1058" d="M96 283q0 65 22 117t56.5 85t82.5 56.5t94.5 34t97.5 14.5l323 24v41q0 131 -68.5 204t-187.5 73h-10q-103 0 -174.5 -51t-81.5 -144h-133q9 136 118.5 221.5t274.5 85.5q97 0 173.5 -31t124 -85t72.5 -123.5t25 -149.5v-430q0 -153 10 -225h-122q-11 62 -11 164 q-33 -75 -133 -129.5t-229 -54.5q-136 0 -230 86.5t-94 216.5zM229 291q0 -85 58.5 -142t146.5 -57h21q111 0 214 84t103 193v137l-297 -21q-111 -8 -178.5 -59.5t-67.5 -134.5zM309 1434h164l117 -267h-101z" />
<glyph unicode="&#xe1;" horiz-adv-x="1058" d="M96 283q0 65 22 117t56.5 85t82.5 56.5t94.5 34t97.5 14.5l323 24v41q0 131 -68.5 204t-187.5 73h-10q-103 0 -174.5 -51t-81.5 -144h-133q9 136 118.5 221.5t274.5 85.5q97 0 173.5 -31t124 -85t72.5 -123.5t25 -149.5v-430q0 -153 10 -225h-122q-11 62 -11 164 q-33 -75 -133 -129.5t-229 -54.5q-136 0 -230 86.5t-94 216.5zM229 291q0 -85 58.5 -142t146.5 -57h21q111 0 214 84t103 193v137l-297 -21q-111 -8 -178.5 -59.5t-67.5 -134.5zM465 1167l117 267h163l-180 -267h-100z" />
<glyph unicode="&#xe2;" horiz-adv-x="1058" d="M96 283q0 65 22 117t56.5 85t82.5 56.5t94.5 34t97.5 14.5l323 24v41q0 131 -68.5 204t-187.5 73h-10q-103 0 -174.5 -51t-81.5 -144h-133q9 136 118.5 221.5t274.5 85.5q97 0 173.5 -31t124 -85t72.5 -123.5t25 -149.5v-430q0 -153 10 -225h-122q-11 62 -11 164 q-33 -75 -133 -129.5t-229 -54.5q-136 0 -230 86.5t-94 216.5zM188 1167l261 267h135l260 -267h-123l-205 154l-205 -154h-123zM229 291q0 -85 58.5 -142t146.5 -57h21q111 0 214 84t103 193v137l-297 -21q-111 -8 -178.5 -59.5t-67.5 -134.5z" />
<glyph unicode="&#xe3;" horiz-adv-x="1058" d="M96 283q0 65 22 117t56.5 85t82.5 56.5t94.5 34t97.5 14.5l323 24v41q0 131 -68.5 204t-187.5 73h-10q-103 0 -174.5 -51t-81.5 -144h-133q9 136 118.5 221.5t274.5 85.5q97 0 173.5 -31t124 -85t72.5 -123.5t25 -149.5v-430q0 -153 10 -225h-122q-11 62 -11 164 q-33 -75 -133 -129.5t-229 -54.5q-136 0 -230 86.5t-94 216.5zM176 1167v47q0 85 51 142t127 57q40 0 71 -15t91 -57q6 -4 32 -23.5t33.5 -24.5t26 -16t31.5 -14t27 -3q82 0 82 133h102v-47q0 -85 -51.5 -142t-126.5 -57q-37 0 -67.5 15t-92.5 57q-7 5 -23 17.5t-23 17.5 t-20.5 14.5t-21.5 13.5t-19.5 9t-21.5 7t-21 2q-83 0 -83 -133h-103zM229 291q0 -85 58.5 -142t146.5 -57h21q111 0 214 84t103 193v137l-297 -21q-111 -8 -178.5 -59.5t-67.5 -134.5z" />
<glyph unicode="&#xe4;" horiz-adv-x="1058" d="M96 283q0 65 22 117t56.5 85t82.5 56.5t94.5 34t97.5 14.5l323 24v41q0 131 -68.5 204t-187.5 73h-10q-103 0 -174.5 -51t-81.5 -144h-133q9 136 118.5 221.5t274.5 85.5q97 0 173.5 -31t124 -85t72.5 -123.5t25 -149.5v-430q0 -153 10 -225h-122q-11 62 -11 164 q-33 -75 -133 -129.5t-229 -54.5q-136 0 -230 86.5t-94 216.5zM229 291q0 -85 58.5 -142t146.5 -57h21q111 0 214 84t103 193v137l-297 -21q-111 -8 -178.5 -59.5t-67.5 -134.5zM270 1208v164h154v-164h-154zM629 1208v164h153v-164h-153z" />
<glyph unicode="&#xe5;" horiz-adv-x="1058" d="M96 283q0 65 22 117t56.5 85t82.5 56.5t94.5 34t97.5 14.5l323 24v41q0 131 -68.5 204t-187.5 73h-10q-103 0 -174.5 -51t-81.5 -144h-133q9 136 118.5 221.5t274.5 85.5q97 0 173.5 -31t124 -85t72.5 -123.5t25 -149.5v-430q0 -153 10 -225h-122q-11 62 -11 164 q-33 -75 -133 -129.5t-229 -54.5q-136 0 -230 86.5t-94 216.5zM229 291q0 -85 58.5 -142t146.5 -57h21q111 0 214 84t103 193v137l-297 -21q-111 -8 -178.5 -59.5t-67.5 -134.5zM354 1329q0 73 51.5 122.5t120.5 49.5t120.5 -49.5t51.5 -122.5t-51.5 -122.5t-120.5 -49.5 t-120.5 49.5t-51.5 122.5zM438 1329q0 -37 26.5 -63.5t63.5 -26.5t62.5 26.5t25.5 63.5t-25.5 63.5t-62.5 26.5t-63.5 -26.5t-26.5 -63.5z" />
<glyph unicode="&#xe6;" horiz-adv-x="1722" d="M96 283q0 67 21 121t54.5 88t80 58t91.5 35t95 15l314 25v30q0 131 -65.5 204t-180.5 73h-10q-98 0 -167 -51t-79 -144h-133q9 136 116 221.5t267 85.5q122 0 208.5 -52t131.5 -142q63 95 160 144.5t208 49.5q185 0 299.5 -130.5t114.5 -329.5v-82h-737q3 -206 93.5 -308 t227.5 -102h13q96 0 168 51t100 150h133q-33 -151 -142.5 -232t-269.5 -81q-123 0 -222.5 55t-158.5 160q-56 -99 -156 -157t-231 -58q-146 0 -245 86.5t-99 216.5zM229 291q0 -85 61.5 -142t153.5 -57h21q105 0 196 88.5t91 204.5v127l-287 -20q-106 -8 -171 -61.5 t-65 -139.5zM889 614h600q-5 139 -79 228.5t-193 89.5h-21q-52 0 -99 -16t-91.5 -51t-75.5 -99t-41 -152z" />
<glyph unicode="&#xe7;" horiz-adv-x="1067" d="M102 512q0 152 53.5 271.5t161.5 190t256 70.5q167 0 276 -94t124 -254h-133q-18 105 -86.5 170.5t-169.5 65.5h-21q-107 0 -183 -59.5t-110 -152.5t-34 -208t34 -208t110 -152.5t183 -59.5h21q99 0 167 66.5t89 169.5h133q-27 -155 -124.5 -248t-250.5 -100v-72 q68 2 118 -45t50 -121q0 -88 -54.5 -145.5t-150.5 -57.5h-127v113h129q44 0 72.5 23t28.5 67t-28.5 66t-72.5 22h-57v154q-191 24 -297.5 169t-106.5 359z" />
<glyph unicode="&#xe8;" horiz-adv-x="1073" d="M102 514q0 130 38 233t102.5 167t145.5 97t171 33q185 0 299.5 -130.5t114.5 -329.5v-82h-737q3 -206 93.5 -308t227.5 -102h12q96 0 168.5 51t100.5 150h133q-33 -151 -142.5 -232t-269.5 -81q-97 0 -179.5 34.5t-144.5 100.5t-97.5 168.5t-35.5 230.5zM240 614h600 q-5 139 -79.5 228.5t-193.5 89.5h-20q-52 0 -99 -16t-91.5 -51t-75.5 -99t-41 -152zM344 1434h164l117 -267h-101z" />
<glyph unicode="&#xe9;" horiz-adv-x="1073" d="M102 514q0 130 38 233t102.5 167t145.5 97t171 33q185 0 299.5 -130.5t114.5 -329.5v-82h-737q3 -206 93.5 -308t227.5 -102h12q96 0 168.5 51t100.5 150h133q-33 -151 -142.5 -232t-269.5 -81q-97 0 -179.5 34.5t-144.5 100.5t-97.5 168.5t-35.5 230.5zM240 614h600 q-5 139 -79.5 228.5t-193.5 89.5h-20q-52 0 -99 -16t-91.5 -51t-75.5 -99t-41 -152zM500 1167l116 267h164l-180 -267h-100z" />
<glyph unicode="&#xea;" horiz-adv-x="1073" d="M102 514q0 130 38 233t102.5 167t145.5 97t171 33q185 0 299.5 -130.5t114.5 -329.5v-82h-737q3 -206 93.5 -308t227.5 -102h12q96 0 168.5 51t100.5 150h133q-33 -151 -142.5 -232t-269.5 -81q-97 0 -179.5 34.5t-144.5 100.5t-97.5 168.5t-35.5 230.5zM238 1167 l260 267h135l260 -267h-123l-205 154l-205 -154h-122zM240 614h600q-5 139 -79.5 228.5t-193.5 89.5h-20q-52 0 -99 -16t-91.5 -51t-75.5 -99t-41 -152z" />
<glyph unicode="&#xeb;" horiz-adv-x="1073" d="M102 514q0 130 38 233t102.5 167t145.5 97t171 33q185 0 299.5 -130.5t114.5 -329.5v-82h-737q3 -206 93.5 -308t227.5 -102h12q96 0 168.5 51t100.5 150h133q-33 -151 -142.5 -232t-269.5 -81q-97 0 -179.5 34.5t-144.5 100.5t-97.5 168.5t-35.5 230.5zM240 614h600 q-5 139 -79.5 228.5t-193.5 89.5h-20q-52 0 -99 -16t-91.5 -51t-75.5 -99t-41 -152zM295 1208v164h154v-164h-154zM653 1208v164h154v-164h-154z" />
<glyph unicode="&#xec;" horiz-adv-x="460" d="M12 1434h164l117 -267h-100zM164 0v1024h133v-1024h-133z" />
<glyph unicode="&#xed;" horiz-adv-x="460" d="M164 0v1024h133v-1024h-133zM172 1167l117 267h164l-181 -267h-100z" />
<glyph unicode="&#xee;" horiz-adv-x="460" d="M-96 1167l260 267h135l260 -267h-123l-205 154l-204 -154h-123zM164 0v1024h133v-1024h-133z" />
<glyph unicode="&#xef;" horiz-adv-x="460" d="M-27 1208v164h154v-164h-154zM164 0v1024h133v-1024h-133zM332 1208v164h153v-164h-153z" />
<glyph unicode="&#xf0;" horiz-adv-x="1157" d="M102 494q0 134 55 242t161 172.5t245 64.5q95 0 182.5 -36t143.5 -108q-36 213 -166 340l-166 -112l-57 82l139 96q-129 76 -297 76v123q244 0 406 -125l159 110l62 -86l-144 -96q209 -228 209 -678q0 -265 -127 -422t-344 -157q-210 0 -335.5 145t-125.5 369zM236 494 q0 -173 86.5 -287.5t240.5 -114.5h10q154 0 241 113.5t87 286.5q0 159 -87 263.5t-241 104.5h-20q-153 0 -235 -103t-82 -263z" />
<glyph unicode="&#xf1;" horiz-adv-x="1167" d="M164 0v1024h133v-172q45 87 140 139.5t218 52.5q160 0 259.5 -97.5t99.5 -276.5v-670h-133v629q0 303 -246 303h-12q-80 0 -143.5 -34.5t-102.5 -93t-59.5 -133t-20.5 -159.5v-512h-133zM252 1167v47q0 85 51 142t127 57q40 0 71 -15t91 -57l32 -24t33 -24t26 -16 t30.5 -13.5t27.5 -3.5q82 0 82 133h103v-47q0 -85 -51.5 -142t-126.5 -57q-37 0 -67.5 15t-92.5 57q-7 5 -23 17.5t-23 17.5t-20.5 14.5t-21.5 13.5t-19.5 9t-21.5 7t-21 2q-84 0 -84 -133h-102z" />
<glyph unicode="&#xf2;" horiz-adv-x="1142" d="M100 512q0 234 135 383t336 149t336 -149t135 -383t-135 -383t-336 -149t-336 149t-135 383zM236 512q0 -192 92 -306t233 -114h21q141 0 233 114t92 306t-92 306t-233 114h-21q-141 0 -233 -114t-92 -306zM356 1434h164l117 -267h-100z" />
<glyph unicode="&#xf3;" horiz-adv-x="1142" d="M100 512q0 234 135 383t336 149t336 -149t135 -383t-135 -383t-336 -149t-336 149t-135 383zM236 512q0 -192 92 -306t233 -114h21q141 0 233 114t92 306t-92 306t-233 114h-21q-141 0 -233 -114t-92 -306zM512 1167l117 267h164l-181 -267h-100z" />
<glyph unicode="&#xf4;" horiz-adv-x="1142" d="M100 512q0 234 135 383t336 149t336 -149t135 -383t-135 -383t-336 -149t-336 149t-135 383zM236 512q0 -192 92 -306t233 -114h21q141 0 233 114t92 306t-92 306t-233 114h-21q-141 0 -233 -114t-92 -306zM244 1167l260 267h135l260 -267h-123l-205 154l-204 -154h-123z " />
<glyph unicode="&#xf5;" horiz-adv-x="1142" d="M100 512q0 234 135 383t336 149t336 -149t135 -383t-135 -383t-336 -149t-336 149t-135 383zM236 512q0 -192 92 -306t233 -114h21q141 0 233 114t92 306t-92 306t-233 114h-21q-141 0 -233 -114t-92 -306zM236 1167v47q0 85 51 142t127 57q39 0 70 -15t91 -57 q6 -4 32 -23.5t33.5 -24.5t26 -16t31.5 -14t27 -3q82 0 82 133h102v-47q0 -85 -51.5 -142t-126.5 -57q-37 0 -67.5 15t-92.5 57q-7 5 -26.5 20t-26.5 20.5t-23 15.5t-25 14t-22.5 7.5t-25.5 3.5q-84 0 -84 -133h-102z" />
<glyph unicode="&#xf6;" horiz-adv-x="1142" d="M100 512q0 234 135 383t336 149t336 -149t135 -383t-135 -383t-336 -149t-336 149t-135 383zM236 512q0 -192 92 -306t233 -114h21q141 0 233 114t92 306t-92 306t-233 114h-21q-141 0 -233 -114t-92 -306zM315 1208v164h154v-164h-154zM674 1208v164h153v-164h-153z" />
<glyph unicode="&#xf7;" d="M152 461v133h1011v-133h-1011zM582 102v174h153v-174h-153zM582 778v174h153v-174h-153z" />
<glyph unicode="&#xf8;" horiz-adv-x="1144" d="M102 512q0 234 135 383t336 149q148 0 267 -86l102 136l94 -66l-112 -147q120 -145 120 -369q0 -234 -135 -383t-336 -149q-148 0 -270 88l-104 -136l-88 74l108 144q-117 150 -117 362zM238 512q0 -154 61 -260l469 614q-78 66 -184 66h-21q-141 0 -233 -114t-92 -306z M373 162q82 -70 190 -70h21q141 0 233 114t92 306q0 153 -63 266z" />
<glyph unicode="&#xf9;" horiz-adv-x="1146" d="M154 348v676h133v-635q0 -297 245 -297h21q119 0 208 104t89 275v553h133v-1024h-133v193q-40 -102 -128.5 -157.5t-213.5 -55.5q-167 0 -260.5 101.5t-93.5 266.5zM348 1434h164l117 -267h-101z" />
<glyph unicode="&#xfa;" horiz-adv-x="1146" d="M154 348v676h133v-635q0 -297 245 -297h21q119 0 208 104t89 275v553h133v-1024h-133v193q-40 -102 -128.5 -157.5t-213.5 -55.5q-167 0 -260.5 101.5t-93.5 266.5zM502 1167l116 267h164l-180 -267h-100z" />
<glyph unicode="&#xfb;" horiz-adv-x="1146" d="M154 348v676h133v-635q0 -297 245 -297h21q119 0 208 104t89 275v553h133v-1024h-133v193q-40 -102 -128.5 -157.5t-213.5 -55.5q-167 0 -260.5 101.5t-93.5 266.5zM238 1167l260 267h135l260 -267h-123l-205 154l-205 -154h-122z" />
<glyph unicode="&#xfc;" horiz-adv-x="1146" d="M154 348v676h133v-635q0 -297 245 -297h21q119 0 208 104t89 275v553h133v-1024h-133v193q-40 -102 -128.5 -157.5t-213.5 -55.5q-167 0 -260.5 101.5t-93.5 266.5zM309 1208v164h154v-164h-154zM668 1208v164h153v-164h-153z" />
<glyph unicode="&#xfd;" horiz-adv-x="1064" d="M47 1024h146l352 -827l352 827h139l-422 -989v-195q0 -93 -47 -135.5t-147 -42.5h-311v113h290q46 0 64 18t18 64v172zM485 1167l117 267h164l-180 -267h-101z" />
<glyph unicode="&#xfe;" horiz-adv-x="1198" d="M164 -410v1844h133v-574q45 83 142 133.5t200 50.5q202 0 329.5 -144.5t127.5 -387.5t-127.5 -387.5t-329.5 -144.5q-103 0 -200 50.5t-142 133.5v-574h-133zM297 512q0 -84 20.5 -159t60 -133.5t103.5 -93t144 -34.5h10q80 0 143 34.5t102.5 93t60 133.5t20.5 159 t-20.5 159t-60 133.5t-102.5 93t-143 34.5h-10q-80 0 -144 -34.5t-103.5 -93t-60 -133.5t-20.5 -159z" />
<glyph unicode="&#xff;" horiz-adv-x="1064" d="M47 1024h146l352 -827l352 827h139l-422 -989v-195q0 -93 -47 -135.5t-147 -42.5h-311v113h290q46 0 64 18t18 64v172zM289 1208v164h153v-164h-153zM647 1208v164h154v-164h-154z" />
<glyph unicode="&#x152;" horiz-adv-x="2392" d="M111 717q0 170 49.5 309.5t136.5 232.5t207.5 144t261.5 51q158 0 290 -63.5t220 -182.5v226h1001v-134h-858v-495h735v-133h-733q-2 -8 -2 -23v-516h879v-133h-1022v225q-88 -118 -220 -181.5t-290 -63.5q-141 0 -261.5 51t-207.5 144t-136.5 232.5t-49.5 309.5z M254 717q0 -277 140 -440.5t362 -163.5h20q208 0 345.5 145.5t154.5 394.5v127q-17 249 -154.5 395t-345.5 146h-20q-222 0 -362 -163.5t-140 -440.5z" />
<glyph unicode="&#x153;" horiz-adv-x="1869" d="M100 512q0 234 135 383t336 149q126 0 228.5 -63t163.5 -174q61 116 165.5 176.5t227.5 60.5q185 0 299 -130.5t114 -329.5v-82h-737q3 -206 94 -308t228 -102h12q96 0 168 51t100 150h133q-33 -151 -142 -232t-269 -81q-130 0 -232 60t-161 175q-60 -111 -162.5 -173 t-229.5 -62q-201 0 -336 149t-135 383zM233 512q0 -192 92.5 -306t235.5 -114h21q142 0 229.5 113t87.5 307t-87.5 307t-229.5 113h-21q-143 0 -235.5 -114t-92.5 -306zM1036 614h600q-5 139 -79 228.5t-193 89.5h-21q-52 0 -99 -16t-91.5 -51t-75.5 -99t-41 -152z" />
<glyph unicode="&#x178;" horiz-adv-x="1216" d="M14 1434h162l434 -709l434 709h158l-522 -840v-594h-143v594zM336 1597v164h164v-164h-164zM717 1597v164h164v-164h-164z" />
<glyph unicode="&#x2c6;" horiz-adv-x="675" d="M10 1167l260 267h136l260 -267h-123l-205 154l-205 -154h-123z" />
<glyph unicode="&#x2dc;" horiz-adv-x="880" d="M82 1167v47q0 85 51 142t127 57q40 0 71 -15t91 -57l32 -24t33 -24t26 -16t30.5 -13.5t27.5 -3.5q82 0 82 133h103v-47q0 -85 -51.5 -142t-126.5 -57q-37 0 -67.5 15t-92.5 57q-7 5 -23 17.5t-23 17.5t-20.5 14.5t-21.5 13.5t-19.5 9t-21.5 7t-21 2q-84 0 -84 -133h-102z " />
<glyph unicode="&#x2000;" horiz-adv-x="939" />
<glyph unicode="&#x2001;" horiz-adv-x="1878" />
<glyph unicode="&#x2002;" horiz-adv-x="939" />
<glyph unicode="&#x2003;" horiz-adv-x="1878" />
<glyph unicode="&#x2004;" horiz-adv-x="626" />
<glyph unicode="&#x2005;" horiz-adv-x="469" />
<glyph unicode="&#x2006;" horiz-adv-x="313" />
<glyph unicode="&#x2007;" horiz-adv-x="313" />
<glyph unicode="&#x2008;" horiz-adv-x="234" />
<glyph unicode="&#x2009;" horiz-adv-x="375" />
<glyph unicode="&#x200a;" horiz-adv-x="104" />
<glyph unicode="&#x2010;" horiz-adv-x="794" d="M141 563v113h512v-113h-512z" />
<glyph unicode="&#x2011;" horiz-adv-x="794" d="M141 563v113h512v-113h-512z" />
<glyph unicode="&#x2012;" horiz-adv-x="794" d="M141 563v113h512v-113h-512z" />
<glyph unicode="&#x2013;" horiz-adv-x="1163" d="M141 563v113h881v-113h-881z" />
<glyph unicode="&#x2014;" horiz-adv-x="1818" d="M141 563v113h1536v-113h-1536z" />
<glyph unicode="&#x2018;" horiz-adv-x="507" d="M133 993v246q0 93 51 144t144 51h82v-82h-62q-123 0 -123 -123v-31h113v-205h-205z" />
<glyph unicode="&#x2019;" horiz-adv-x="512" d="M115 993v82h61q123 0 123 123v31h-113v205h205v-246q0 -93 -50.5 -144t-143.5 -51h-82z" />
<glyph unicode="&#x201a;" horiz-adv-x="491" d="M72 -154h61q123 0 123 123v31h-113v205h205v-246q0 -93 -50.5 -144t-143.5 -51h-82v82z" />
<glyph unicode="&#x201c;" horiz-adv-x="927" d="M133 993v246q0 93 51 144t144 51h82v-82h-62q-123 0 -123 -123v-31h113v-205h-205zM553 993v246q0 93 51 144t144 51h81v-82h-61q-123 0 -123 -123v-31h113v-205h-205z" />
<glyph unicode="&#x201d;" horiz-adv-x="931" d="M115 993v82h61q123 0 123 123v31h-113v205h205v-246q0 -93 -50.5 -144t-143.5 -51h-82zM535 993v82h61q123 0 123 123v31h-113v205h205v-246q0 -93 -51 -144t-144 -51h-81z" />
<glyph unicode="&#x201e;" horiz-adv-x="911" d="M72 -154h61q123 0 123 123v31h-113v205h205v-246q0 -93 -50.5 -144t-143.5 -51h-82v82zM492 -154h61q123 0 123 123v31h-113v205h205v-246q0 -93 -51 -144t-144 -51h-81v82z" />
<glyph unicode="&#x2022;" horiz-adv-x="999" d="M152 717q0 141 103.5 244.5t244.5 103.5t244.5 -103.5t103.5 -244.5t-103.5 -244.5t-244.5 -103.5t-244.5 103.5t-103.5 244.5z" />
<glyph unicode="&#x2026;" horiz-adv-x="1536" d="M143 0v205h205v-205h-205zM666 0v205h204v-205h-204zM1188 0v205h205v-205h-205z" />
<glyph unicode="&#x202f;" horiz-adv-x="375" />
<glyph unicode="&#x2039;" horiz-adv-x="624" d="M84 584l297 440h151l-294 -438l299 -443h-156z" />
<glyph unicode="&#x203a;" horiz-adv-x="624" d="M88 1024h156l297 -440l-297 -441h-152l295 439z" />
<glyph unicode="&#x205f;" horiz-adv-x="469" />
<glyph unicode="&#x20ac;" horiz-adv-x="1374" d="M90 371v123l178 38q-12 76 -12 164l-166 -37v123l170 39q22 297 165 465t374 168q199 0 319 -116t139 -324h-139q-15 148 -95 227.5t-216 79.5h-21q-158 0 -259 -124.5t-124 -344.5l422 96v-123l-430 -96v-12q0 -64 11 -154l333 76v-123l-311 -70q41 -159 134 -246 t224 -87h21q136 0 216 79.5t95 227.5h139q-19 -208 -139 -324t-319 -116q-189 0 -320.5 114t-187.5 322z" />
<glyph unicode="&#x2122;" horiz-adv-x="1925" d="M70 1331v103h665v-103h-270v-676h-125v676h-270zM930 655v779h196l224 -646l215 646h194v-779h-125v645l-213 -645h-143l-223 639v-639h-125z" />
<glyph unicode="&#x25fc;" horiz-adv-x="1024" d="M0 0v1024h1024v-1024h-1024z" />
</font>
</defs>
</svg>
