<?xml version="1.0" standalone="no"?>
<!DOCTYPE svg PUBLIC "-//W3C//DTD SVG 1.1//EN" "http://www.w3.org/Graphics/SVG/1.1/DTD/svg11.dtd" >
<svg xmlns="http://www.w3.org/2000/svg">
<metadata></metadata>
<defs>
<font id="favorititalic" horiz-adv-x="1232" >
<font-face units-per-em="2048" ascent="1638" descent="-410" />
<missing-glyph horiz-adv-x="593" />
<glyph unicode="&#xfb01;" horiz-adv-x="1302" d="M162 856l37 168h213l45 217q41 193 219 193h325l-38 -181h-244q-64 0 -80 -73l-33 -156h666l-217 -1024h-195l182 856h-471l-182 -856h-192l180 856h-215zM1110 1208l49 226h209l-49 -226h-209z" />
<glyph unicode="&#xfb02;" horiz-adv-x="1280" d="M162 856l37 168h213l45 217q41 193 219 193h684l-305 -1434h-195l266 1253h-407q-64 0 -80 -73l-33 -156h225l-36 -168h-224l-182 -856h-192l180 856h-215z" />
<glyph unicode="&#xfb03;" horiz-adv-x="1968" d="M166 856l37 168h213l45 217q41 193 219 193h326l-39 -181h-244q-64 0 -80 -73l-33 -156h467l45 217q41 193 219 193h326l-39 -181h-244q-32 0 -51 -16.5t-28 -56.5l-33 -156h665l-217 -1024h-194l182 856h-471l-182 -856h-193l180 856h-467l-182 -856h-192l180 856h-215z M1776 1208l49 226h209l-49 -226h-209z" />
<glyph unicode="&#xfb04;" horiz-adv-x="1945" d="M166 856l37 168h213l45 217q41 193 219 193h326l-39 -181h-244q-64 0 -80 -73l-33 -156h467l45 217q41 193 219 193h684l-305 -1434h-194l266 1253h-408q-32 0 -51 -16.5t-28 -56.5l-33 -156h225l-37 -168h-223l-182 -856h-193l180 856h-467l-182 -856h-192l180 856h-215 z" />
<glyph horiz-adv-x="0" />
<glyph horiz-adv-x="682" />
<glyph unicode="&#xd;" horiz-adv-x="485" />
<glyph unicode=" "  horiz-adv-x="593" />
<glyph unicode="&#x09;" horiz-adv-x="593" />
<glyph unicode="&#xa0;" horiz-adv-x="593" />
<glyph unicode="!" horiz-adv-x="595" d="M115 0l49 236h205l-50 -236h-204zM274 410l76 696l70 328h205l-70 -328l-219 -696h-62z" />
<glyph unicode="&#x22;" horiz-adv-x="778" d="M313 993l9 277l34 164h195l-35 -164l-121 -277h-82zM631 993l8 277l35 164h194l-34 -164l-121 -277h-82z" />
<glyph unicode="#" horiz-adv-x="1228" d="M59 338l33 168h221l88 422h-219l33 168h223l72 338h174l-72 -338h322l70 338h174l-70 -338h213l-37 -168h-211l-88 -422h215l-37 -168h-213l-69 -338h-174l69 338h-325l-72 -338h-174l71 338h-217zM487 506h324l88 422h-324z" />
<glyph unicode="$" horiz-adv-x="1308" d="M98 420q0 25 4 41h201q-2 -10 -2 -29q0 -153 131 -227l172 444l-14 4q-139 38 -225 134t-86 231q0 189 149.5 312.5t378.5 123.5q58 0 102 -8l84 219h183l-103 -266q117 -55 182.5 -152.5t65.5 -214.5v-26h-201q-3 155 -112 223l-166 -436q146 -49 236.5 -147t90.5 -236 q0 -186 -143.5 -308t-363.5 -122q-75 0 -130 8l-90 -234h-182l107 279q-128 54 -198.5 154t-70.5 233zM479 1040q0 -135 174 -190l25 -8l168 436q-16 2 -49 2q-136 0 -227 -68.5t-91 -171.5zM596 156q20 -2 59 -2q132 0 219 67t87 168q0 70 -42.5 124t-150.5 91z" />
<glyph unicode="%" horiz-adv-x="2037" d="M186 1083q0 155 108.5 264t262.5 109q129 0 220 -91.5t91 -221.5q0 -151 -108.5 -257t-263.5 -106q-129 0 -219.5 88.5t-90.5 214.5zM338 0l1165 1434h211l-1165 -1434h-211zM342 1087q0 -66 50.5 -112.5t121.5 -46.5q82 0 140.5 62.5t58.5 150.5q0 69 -47.5 117.5 t-114.5 48.5q-86 0 -147.5 -64.5t-61.5 -155.5zM1200 283q0 155 108.5 263.5t262.5 108.5q129 0 220 -91.5t91 -221.5q0 -151 -109 -256.5t-264 -105.5q-129 0 -219 88.5t-90 214.5zM1356 287q0 -66 50.5 -113t121.5 -47q82 0 140 62.5t58 150.5q0 69 -47 117.5t-114 48.5 q-86 0 -147.5 -64t-61.5 -155z" />
<glyph unicode="&#x26;" horiz-adv-x="1357" d="M145 348q0 145 93 257.5t241 144.5q-76 39 -129 119t-53 173q0 169 123.5 280.5t310.5 111.5h289l-37 -174h-240q-108 0 -179.5 -68.5t-71.5 -171.5q0 -79 58 -142t144 -63h285l51 248h195l-51 -248h225l-37 -174h-225l-138 -641h-444q-188 0 -299 94t-111 254zM348 387 q0 -101 62 -157t170 -56h262l100 467h-328q-115 0 -190.5 -72.5t-75.5 -181.5z" />
<glyph unicode="'" horiz-adv-x="460" d="M313 993l9 277l34 164h195l-35 -164l-121 -277h-82z" />
<glyph unicode="(" horiz-adv-x="892" d="M172 498q0 195 45.5 380.5t129.5 338t195.5 269.5t250 185.5t286.5 77.5l-39 -180q-180 -29 -333 -178.5t-241.5 -378.5t-88.5 -482q0 -232 87 -432.5t210 -253.5l-35 -172q-127 28 -234.5 149t-170 301.5t-62.5 375.5z" />
<glyph unicode=")" horiz-adv-x="892" d="M-47 -328l39 181q180 29 333 178.5t241.5 378t88.5 481.5q0 232 -87 432.5t-210 253.5l35 172q127 -28 234.5 -149t170 -301t62.5 -375t-45.5 -381t-129.5 -338t-195.5 -269.5t-250 -186t-286.5 -77.5z" />
<glyph unicode="*" horiz-adv-x="935" d="M123 1135v122h237l-118 207l106 62l121 -207l119 207l106 -62l-119 -207h238v-122h-238l119 -207l-106 -62l-119 207l-121 -207l-106 62l118 207h-237z" />
<glyph unicode="+" horiz-adv-x="1306" d="M203 635v174h405v410h201v-410h405v-174h-405v-410h-201v410h-405z" />
<glyph unicode="," horiz-adv-x="559" d="M-41 -287l29 133h45q154 0 178 123l8 31h-135l53 246h256l-57 -266q-28 -129 -110.5 -198t-211.5 -69h-55z" />
<glyph unicode="-" horiz-adv-x="819" d="M143 532l37 175h553l-37 -175h-553z" />
<glyph unicode="." horiz-adv-x="563" d="M82 0l53 246h246l-53 -246h-246z" />
<glyph unicode="/" horiz-adv-x="780" d="M72 0l553 1434h204l-553 -1434h-204z" />
<glyph unicode="0" horiz-adv-x="1370" d="M170 532q0 76 10.5 158.5t35.5 173.5t62 174.5t93.5 160t125.5 132.5t163.5 89.5t203.5 33.5q221 0 348 -147t127 -406q0 -76 -10.5 -158.5t-35.5 -173.5t-62 -174.5t-93.5 -159.5t-125.5 -132.5t-163.5 -89.5t-203.5 -33q-221 0 -348 146.5t-127 405.5zM371 541 q0 -78 18.5 -146.5t54.5 -123t96.5 -86t137.5 -31.5q125 0 231 99t168 269t62 371q0 106 -31.5 191t-103 140.5t-173.5 55.5q-125 0 -231 -99t-167.5 -269t-61.5 -371z" />
<glyph unicode="1" horiz-adv-x="788" d="M168 825l51 250l440 359h158l-305 -1434h-201l242 1135z" />
<glyph unicode="2" horiz-adv-x="1196" d="M55 0l45 213l557 393q174 123 245 218.5t71 205.5q0 115 -67.5 181.5t-184.5 66.5q-123 0 -207 -74.5t-88 -189.5h-201q2 191 140.5 315.5t349.5 124.5q206 0 332.5 -119t126.5 -295q0 -166 -88.5 -292.5t-307.5 -278.5l-411 -287h700l-35 -182h-977z" />
<glyph unicode="3" horiz-adv-x="1191" d="M78 365h201q0 -92 79 -151.5t207 -59.5q134 0 216.5 74t82.5 184q0 100 -59 157.5t-168 57.5h-111l37 182h131q117 0 202 69.5t85 188.5q0 99 -66.5 156t-177.5 57q-112 0 -189.5 -58t-92.5 -157h-201q8 77 44 146.5t96 124t149.5 86.5t195.5 32q198 0 320.5 -104.5 t122.5 -272.5q0 -139 -85 -232t-214 -128q81 -38 131.5 -120t50.5 -191q0 -180 -139.5 -303t-366.5 -123q-214 0 -347.5 104t-133.5 281z" />
<glyph unicode="4" horiz-adv-x="1300" d="M90 326l41 196l881 912h215l-199 -932h223l-34 -176h-226l-69 -326h-195l70 326h-707zM352 502h484l137 641z" />
<glyph unicode="5" horiz-adv-x="1236" d="M139 379h201q6 -107 85.5 -166t192.5 -59q139 0 226.5 86.5t87.5 214.5q0 115 -72 191.5t-186 76.5q-160 0 -299 -113h-195l350 824h750l-37 -185h-596l-201 -456q129 104 283 104q178 0 289.5 -118t111.5 -300q0 -224 -146 -361.5t-374 -137.5q-197 0 -331 107t-140 292 z" />
<glyph unicode="6" horiz-adv-x="1310" d="M193 528q0 140 29.5 274t89.5 252t143.5 207.5t198.5 141t247 51.5q185 0 309 -103t138 -266h-201q-12 84 -84 139.5t-180 55.5q-120 0 -224 -74t-169 -193t-87 -261q157 211 392 211q171 0 288 -120t117 -311q0 -103 -38.5 -201.5t-107 -177t-173.5 -126t-228 -47.5 q-95 0 -177.5 34.5t-146 101t-100 172.5t-36.5 240zM391 457q0 -124 77.5 -213.5t199.5 -89.5q95 0 174 50t121.5 129.5t42.5 168.5q0 125 -75 205.5t-198 80.5q-138 0 -238.5 -95t-103.5 -236z" />
<glyph unicode="7" horiz-adv-x="1130" d="M258 1249l37 185h997l-41 -195q-172 -72 -300.5 -171t-227 -241.5t-157.5 -336t-81 -443.5l-4 -47h-202l8 90q38 421 219.5 718.5t478.5 440.5h-727z" />
<glyph unicode="8" horiz-adv-x="1196" d="M152 328q0 131 83 235.5t220 147.5q-187 112 -187 313q0 132 68.5 231t181 149t250.5 50q189 0 316.5 -101t127.5 -276q0 -149 -100 -259t-240 -152q80 -46 123 -120.5t43 -166.5q0 -164 -130.5 -281.5t-334.5 -117.5q-117 0 -212 41t-152 121t-57 186zM354 358 q0 -98 67.5 -151t160.5 -53q107 0 185.5 70.5t78.5 176.5q0 100 -70 154.5t-162 54.5q-105 0 -182.5 -73.5t-77.5 -178.5zM465 1020q0 -104 78 -164.5t182 -60.5q119 0 202 79.5t83 190.5q0 102 -73.5 158.5t-184.5 56.5q-123 0 -205 -71.5t-82 -188.5z" />
<glyph unicode="9" horiz-adv-x="1290" d="M104 348h201q12 -84 84 -139t180 -55q120 0 224 74t169 193t87 261q-157 -211 -392 -211q-171 0 -288 119.5t-117 310.5q0 103 38.5 202t107 177t173.5 126t228 48q95 0 177.5 -35t146.5 -101.5t100.5 -172.5t36.5 -240q0 -140 -29.5 -274t-90 -251.5t-144 -207 t-198.5 -141t-247 -51.5q-186 0 -309.5 102.5t-137.5 265.5zM446 932q0 -125 75 -206t198 -81q138 0 238.5 95.5t103.5 236.5q0 124 -77.5 213.5t-199.5 89.5q-95 0 -174 -50t-121.5 -129.5t-42.5 -168.5z" />
<glyph unicode=":" horiz-adv-x="552" d="M82 0l53 246h246l-53 -246h-246zM248 778l51 246h246l-51 -246h-246z" />
<glyph unicode=";" horiz-adv-x="555" d="M-45 -287l29 133h45q154 0 178 123l8 31h-135l53 246h256l-57 -266q-28 -129 -110.5 -198t-211.5 -69h-55zM248 778l53 246h246l-53 -246h-246z" />
<glyph unicode="&#x3c;" horiz-adv-x="1257" d="M201 635v164l870 358v-199l-594 -233l594 -236v-213z" />
<glyph unicode="=" horiz-adv-x="1363" d="M252 451v174h1012v-174h-1012zM252 819v174h1012v-174h-1012z" />
<glyph unicode="&#x3e;" horiz-adv-x="1196" d="M225 276v213l594 236l-594 233v199l871 -358v-164z" />
<glyph unicode="?" horiz-adv-x="1034" d="M186 0l50 236h235l-49 -236h-236zM268 1260l37 174h318q193 0 304 -95.5t111 -261.5q0 -117 -60 -211.5t-160 -146t-218 -51.5q-64 0 -84 -78l-45 -180h-186l59 256q25 102 89 139t171 37q111 0 175.5 64t64.5 155q0 199 -246 199h-330z" />
<glyph unicode="@" horiz-adv-x="2007" d="M217 635q0 158 48 297t131.5 241t194 175.5t237.5 110t259 36.5q141 0 267 -36.5t228.5 -108t177.5 -171t116 -231t41 -282.5q0 -119 -35 -211.5t-95 -148t-133.5 -83.5t-156.5 -28h-205v153q-26 -70 -96.5 -122t-169.5 -52q-171 0 -275 118t-104 322q0 201 106.5 315.5 t272.5 114.5q93 0 157.5 -42.5t98.5 -110.5v133h174v-676h51q215 0 215 318q0 306 -171 480.5t-464 174.5q-138 0 -261 -49t-215 -136t-145.5 -217t-53.5 -284q0 -334 193.5 -525.5t512.5 -191.5h502v-174h-512q-190 0 -351 56.5t-282 165.5t-189.5 280.5t-68.5 388.5z M842 614q0 -142 55 -214t150 -72h10q95 0 160 79.5t65 206.5q0 131 -66.5 204t-158.5 73h-10q-205 0 -205 -277z" />
<glyph unicode="A" horiz-adv-x="1441" d="M-51 0l866 1434h266l248 -1434h-196l-64 369h-688l-221 -369h-211zM492 553h546l-123 709z" />
<glyph unicode="B" horiz-adv-x="1390" d="M102 0l306 1434h548q192 0 308 -87t116 -257q0 -131 -78.5 -229t-226.5 -134q100 -40 147.5 -117t47.5 -170q0 -185 -130.5 -312.5t-330.5 -127.5h-707zM344 184h457q51 0 97 14.5t84 44t60.5 79.5t22.5 116q0 91 -61.5 146t-169.5 55h-394zM479 819h428q113 0 191 69.5 t78 184.5q0 180 -252 180h-353z" />
<glyph unicode="C" horiz-adv-x="1478" d="M170 580q0 143 33.5 274.5t99 240.5t156.5 189.5t213.5 125t263.5 44.5q148 0 265 -55t187.5 -162.5t75.5 -251.5h-204q0 130 -94.5 207.5t-252.5 77.5q-147 0 -270 -85t-195.5 -238.5t-72.5 -342.5q0 -206 111.5 -323t318.5 -117q147 0 260.5 72.5t138.5 212.5h205 q-38 -218 -205.5 -343.5t-419.5 -125.5q-278 0 -446 164t-168 436z" />
<glyph unicode="D" horiz-adv-x="1460" d="M102 0l306 1434h391q150 0 266 -36t186 -93t115 -136.5t61.5 -158t16.5 -166.5q0 -122 -30 -242.5t-91 -229t-146 -191.5t-204 -132t-256 -49h-615zM350 184h369q126 0 228 56.5t165 150.5t96 209.5t33 239.5q0 196 -113 302.5t-327 106.5h-230z" />
<glyph unicode="E" horiz-adv-x="1372" d="M102 0l306 1434h1044l-39 -185h-840l-90 -420h717l-39 -184h-717l-98 -461h860l-39 -184h-1065z" />
<glyph unicode="F" horiz-adv-x="1269" d="M102 0l306 1434h1003l-39 -185h-799l-98 -461h696l-38 -184h-697l-129 -604h-205z" />
<glyph unicode="G" horiz-adv-x="1595" d="M170 590q0 241 94.5 436.5t274.5 311.5t415 116q157 0 284 -66t197.5 -177.5t73.5 -245.5h-204q-8 100 -61 170.5t-133 102.5t-179 32q-170 0 -298.5 -90t-193.5 -236t-65 -323q0 -200 120 -328.5t316 -128.5q168 0 313.5 108.5t180.5 259.5h-445l41 185h416 q70 0 117 -42t47 -110q0 -25 -6 -61l-105 -504h-174l47 221q-67 -106 -198.5 -173t-282.5 -68q-174 1 -309.5 79.5t-209 216.5t-73.5 314z" />
<glyph unicode="H" horiz-adv-x="1505" d="M102 0l306 1434h204l-133 -625h727l133 625h205l-305 -1434h-205l133 625h-727l-133 -625h-205z" />
<glyph unicode="I" horiz-adv-x="573" d="M102 0l306 1434h204l-305 -1434h-205z" />
<glyph unicode="J" horiz-adv-x="847" d="M20 0l41 195h203q97 0 144.5 46t70.5 148l223 1045h205l-227 -1065q-41 -195 -147 -282t-304 -87h-209z" />
<glyph unicode="K" horiz-adv-x="1519" d="M106 0l302 1434h202l-153 -713l854 713h293l-740 -615l553 -819h-250l-462 686l-304 -252l-92 -434h-203z" />
<glyph unicode="L" horiz-adv-x="1310" d="M102 0l306 1434h204l-266 -1250h840l-39 -184h-1045z" />
<glyph unicode="M" horiz-adv-x="1910" d="M102 0l306 1434h317l182 -1254l709 1254h334l-305 -1434h-205l270 1270l-696 -1270h-266l-170 1272l-271 -1272h-205z" />
<glyph unicode="N" horiz-adv-x="1525" d="M102 0l306 1434h286l406 -1221l260 1221h205l-305 -1434h-285l-408 1227l-260 -1227h-205z" />
<glyph unicode="O" horiz-adv-x="1560" d="M170 588q0 160 41.5 300t114 242.5t169 176t208.5 110.5t231 37q126 0 237.5 -45t193.5 -124.5t129.5 -196t47.5 -252.5q0 -128 -31 -251t-94.5 -232.5t-152.5 -192.5t-212.5 -131.5t-265.5 -48.5q-272 0 -444 165.5t-172 442.5zM375 600q0 -200 116.5 -318t315.5 -118 q100 0 195 46t170 128.5t121 209t46 275.5q0 206 -112.5 326.5t-321.5 120.5q-100 0 -194 -45t-169 -127.5t-121 -212t-46 -285.5z" />
<glyph unicode="P" horiz-adv-x="1359" d="M106 0l302 1434h512q207 0 327.5 -105t120.5 -272q0 -134 -58.5 -243.5t-170 -175t-256.5 -65.5h-451l-123 -573h-203zM473 758h412q121 0 198.5 78t77.5 204q0 97 -71 153t-216 56h-301z" />
<glyph unicode="Q" horiz-adv-x="1570" d="M170 588q0 160 41.5 300t114 242.5t169 176t208.5 110.5t231 37q126 0 237.5 -45t193.5 -124.5t129.5 -196t47.5 -252.5q0 -126 -30.5 -248t-92.5 -230.5t-148 -191.5t-206.5 -133t-259.5 -53l-19 -82q-6 -24 -6 -43q0 -26 16.5 -38t59.5 -12h305l-39 -184h-344 q-108 0 -162 68q-36 46 -36 112q0 31 8 66l28 131q-204 48 -325 204t-121 386zM375 600q0 -200 116.5 -318t315.5 -118q100 0 195 46t170 128.5t121 209t46 275.5q0 206 -112.5 326.5t-321.5 120.5q-100 0 -194 -45t-169 -127.5t-121 -212t-46 -285.5z" />
<glyph unicode="R" horiz-adv-x="1392" d="M102 0l306 1434h466q220 0 347 -95.5t127 -259.5q0 -134 -84.5 -239.5t-223.5 -145.5h17q89 0 144.5 -49t55.5 -127q0 -41 -10 -96l-90 -422h-207l92 434q5 24 5 43q0 41 -24 63q-36 32 -134 33h-455l-123 -573h-209zM471 758h358q130 0 219 85t89 204q0 107 -72 155.5 t-231 48.5h-259z" />
<glyph unicode="S" horiz-adv-x="1308" d="M104 420q0 21 5 41h200q-2 -10 -2 -29q0 -70 31 -123.5t83 -84t112.5 -45.5t128.5 -15q135 0 218 61t83 164q0 78 -50.5 134t-179.5 95l-135 41q-147 44 -230 135t-83 224q0 188 153 312t375 124q228 0 371 -122t143 -300v-26h-205q-3 131 -85.5 197.5t-233.5 66.5 q-131 0 -219 -65.5t-88 -164.5q0 -137 159 -188l199 -64q153 -50 237.5 -149t84.5 -229q0 -182 -141.5 -306t-366.5 -124q-258 0 -411 120.5t-153 319.5z" />
<glyph unicode="T" horiz-adv-x="1351" d="M246 1249l39 185h1228l-38 -185h-502l-266 -1249h-205l266 1249h-522z" />
<glyph unicode="U" horiz-adv-x="1398" d="M174 416q0 69 19 153l184 865h205l-185 -865q-18 -81 -18 -133q0 -134 86.5 -203t228.5 -69q151 0 241.5 82.5t125.5 251.5l199 936h208l-208 -977q-48 -227 -194.5 -352t-373.5 -125q-104 0 -194 25t-164 75t-117 136.5t-43 199.5z" />
<glyph unicode="V" horiz-adv-x="1464" d="M254 1434h205l219 -1252l733 1252h225l-858 -1434h-266z" />
<glyph unicode="W" horiz-adv-x="1959" d="M285 1434h209l14 -1252l565 1252h254l31 -1254l536 1254h217l-653 -1434h-272l-31 1223l-551 -1223h-272z" />
<glyph unicode="X" horiz-adv-x="1390" d="M-31 0l678 737l-344 697h234l256 -533l481 533h248l-639 -697l364 -737h-235l-277 573l-522 -573h-244z" />
<glyph unicode="Y" horiz-adv-x="1361" d="M244 1434h227l270 -637l529 637h254l-715 -840l-127 -594h-205l127 594z" />
<glyph unicode="Z" horiz-adv-x="1333" d="M35 0l39 205l1067 1044h-822l39 185h1055l-39 -205l-1069 -1045h862l-39 -184h-1093z" />
<glyph unicode="[" horiz-adv-x="768" d="M33 -328l444 2089h449l-37 -174h-254l-371 -1741h256l-37 -174h-450z" />
<glyph unicode="\" horiz-adv-x="1144" d="M274 1434h205l553 -1434h-205z" />
<glyph unicode="]" horiz-adv-x="727" d="M-57 -328l37 174h253l371 1741h-256l37 174h451l-445 -2089h-448z" />
<glyph unicode="^" horiz-adv-x="1167" d="M123 584l358 850h215l359 -850h-195l-276 686l-277 -686h-184z" />
<glyph unicode="_" horiz-adv-x="1146" d="M4 -174l37 174h922l-37 -174h-922z" />
<glyph unicode="`" horiz-adv-x="450" d="M10 1434h205l113 -277h-133z" />
<glyph unicode="a" d="M131 434q0 136 41 252t110.5 193.5t161.5 121t195 43.5q126 0 213 -62.5t119 -145.5v-2l39 190h194l-217 -1024h-184l33 164q-43 -81 -130 -132.5t-198 -51.5q-67 0 -132 27t-120.5 79.5t-90 143t-34.5 204.5zM328 451q0 -148 71 -230t170 -82q101 0 180 66t118.5 165.5 t39.5 209.5q0 136 -73.5 216.5t-176.5 82.5h-4q-133 0 -229 -118q-96 -120 -96 -310z" />
<glyph unicode="b" horiz-adv-x="1239" d="M82 0l305 1434h193l-117 -547q55 70 143.5 113.5t181.5 43.5q164 0 266.5 -122t102.5 -297q0 -144 -39.5 -265.5t-108 -204t-161.5 -129t-199 -46.5q-120 0 -210 56.5t-122 153.5l-41 -190h-194zM379 424q1 -123 73 -204q69 -77 174 -77h11q64 2 121 32t103 85t73 143 t27 197q0 119 -63.5 201t-172.5 82q-60 0 -120 -31.5t-111 -87.5t-83 -145.5t-32 -194.5z" />
<glyph unicode="c" horiz-adv-x="1161" d="M173 680q45 118 122 195.5t180.5 120t220.5 42.5q175 0 288.5 -97t113.5 -255h-197q0 95 -61.5 144t-163.5 49q-154 0 -255.5 -126.5t-101.5 -328.5q0 -129 72 -207t201 -78q92 0 160.5 51.5t91.5 137.5h192q-31 -164 -159 -258.5t-299 -94.5q-200 1 -326 119 q-125 118 -125 323q0 143 46 263z" />
<glyph unicode="d" d="M131 438q0 130 41.5 243.5t111.5 192.5t164 124.5t197 45.5q125 0 209.5 -62t116.5 -146v-2l123 600h198l-305 -1434h-184l33 164q-43 -81 -130 -132.5t-198 -51.5q-54 0 -106.5 16.5t-102 53t-86.5 89t-59.5 130t-22.5 169.5zM328 451q0 -148 71 -230t170 -82 q101 0 180 66t118.5 165.5t39.5 209.5q0 136 -73.5 216.5t-176.5 82.5h-4q-133 0 -229 -118q-96 -120 -96 -310z" />
<glyph unicode="e" horiz-adv-x="1177" d="M133 453q0 168 72.5 303.5t199.5 211.5t285 76q113 0 202.5 -49.5t141.5 -145.5q48 -89 48 -206q0 -9 -1 -18q0 -54 -22 -144h-740v-28q0 -140 78 -225t197 -85q94 0 163 41.5t97 112.5h193q-43 -145 -165.5 -231t-308.5 -86q-200 0 -320 127.5t-120 345.5zM348 635h547 q2 16 2 27q1 9 1 17q0 92 -60 146q-65 58 -166 58q-117 0 -202 -66t-122 -182z" />
<glyph unicode="f" horiz-adv-x="839" d="M162 856l37 168h213l45 217q41 193 219 193h325l-38 -181h-244q-64 0 -80 -73l-33 -156h225l-36 -168h-224l-182 -856h-192l180 856h-215z" />
<glyph unicode="g" horiz-adv-x="1243" d="M29 -133h198q12 -74 77 -113t171 -39q134 0 216 77.5t112 219.5l26 123q-48 -69 -129.5 -112t-181.5 -43q-57 0 -110 16.5t-102 53t-85.5 89.5t-58 132t-21.5 175q0 135 42 249.5t112.5 189.5t161.5 117t190 42q128 0 215 -62t119 -146v-2l39 190h194l-223 -1049 q-43 -200 -175.5 -310.5t-362.5 -110.5q-108 0 -198 32t-153 104.5t-73 176.5zM338 451q0 -148 71 -230t171 -82q101 0 180 66t118.5 165.5t39.5 209.5q0 136 -73.5 216.5t-176.5 82.5h-4q-134 0 -229 -118q-97 -120 -97 -310z" />
<glyph unicode="h" horiz-adv-x="1189" d="M82 0l305 1434h193l-125 -582q52 86 138.5 139t194.5 53q135 0 222.5 -87t87.5 -230q0 -37 -11 -98l-133 -629h-196l131 612q8 46 8 68q0 89 -49.5 145t-140.5 56q-107 0 -196.5 -97.5t-121.5 -251.5l-113 -532h-194z" />
<glyph unicode="i" horiz-adv-x="522" d="M82 0l217 1024h195l-218 -1024h-194zM332 1208l49 226h209l-49 -226h-209z" />
<glyph unicode="j" horiz-adv-x="520" d="M-313 -410l39 181h237q70 0 86 73l250 1180h193l-261 -1241q-20 -95 -77.5 -144t-147.5 -49h-319zM326 1208l53 226h215l-53 -226h-215z" />
<glyph unicode="k" horiz-adv-x="1224" d="M82 0l305 1434h195l-189 -883l590 473h277l-531 -422l393 -602h-233l-311 481l-240 -190l-62 -291h-194z" />
<glyph unicode="l" horiz-adv-x="522" d="M82 0l305 1434h195l-306 -1434h-194z" />
<glyph unicode="m" horiz-adv-x="1867" d="M82 0l217 1024h195l-37 -172q47 82 134 137t197 55q109 0 188.5 -61t102.5 -164q59 93 161 159t216 66q139 0 230.5 -85.5t91.5 -223.5q0 -49 -13 -112l-133 -623h-194l131 616q10 48 10 84q0 83 -52.5 132t-137.5 49q-106 0 -195 -90t-115 -209l-123 -582h-196l131 612 q8 46 8 68q0 89 -49.5 145t-140.5 56q-107 0 -196.5 -97.5t-121.5 -251.5l-112 -532h-197z" />
<glyph unicode="n" horiz-adv-x="1189" d="M82 0l217 1024h193l-37 -172q52 86 138.5 139t194.5 53q135 0 222.5 -87t87.5 -230q0 -37 -11 -98l-133 -629h-196l131 612q8 46 8 68q0 89 -49.5 145t-140.5 56q-107 0 -196.5 -97.5t-121.5 -251.5l-113 -532h-194z" />
<glyph unicode="o" horiz-adv-x="1214" d="M127 424q0 139 45.5 257t122 196.5t178 122.5t213.5 44q196 0 318 -128t122 -328q0 -142 -45.5 -259t-122.5 -192t-176.5 -116t-208.5 -41q-195 0 -320.5 120.5t-125.5 323.5zM322 430q0 -122 72 -204.5t196 -82.5q63 0 123 29.5t109.5 84.5t79.5 143t30 194 q0 123 -72 205t-194 82q-64 0 -125 -30.5t-110 -86t-79 -143t-30 -191.5z" />
<glyph unicode="p" horiz-adv-x="1239" d="M-6 -410l305 1434h190l-28 -137q55 70 143.5 113.5t181.5 43.5q164 0 266.5 -115t102.5 -306q0 -288 -144 -465.5t-360 -177.5q-119 0 -211.5 57.5t-124.5 152.5l-125 -600h-196zM377 424q0 -120 70 -200.5t178 -80.5q65 0 124 28.5t106 83.5t75 144t28 201 q0 119 -63.5 202t-171.5 83q-60 0 -120.5 -31.5t-111 -88.5t-82.5 -146.5t-32 -194.5z" />
<glyph unicode="q" horiz-adv-x="1228" d="M131 434q0 136 41 252t110.5 193.5t161.5 121t195 43.5q126 0 213 -62.5t119 -145.5l39 188h194l-299 -1434h-194l116 560q-46 -76 -130 -123t-189 -47q-67 0 -132 27t-120.5 79.5t-90 143t-34.5 204.5zM328 451q0 -148 71 -230t170 -82q113 0 194.5 77.5t119.5 199.5 l20 98q4 46 4 66q0 136 -73.5 216.5t-176.5 82.5h-4q-134 0 -229 -118q-96 -120 -96 -310z" />
<glyph unicode="r" horiz-adv-x="819" d="M82 0l217 1024h186l-45 -219q46 102 138.5 166.5t197.5 64.5q46 0 86 -12l-41 -193q-41 13 -94 13q-116 0 -210.5 -84t-133.5 -262l-107 -498h-194z" />
<glyph unicode="s" horiz-adv-x="1038" d="M78 317h198q6 -89 69.5 -131.5t162.5 -42.5q86 0 140 39t54 103q0 88 -116 125l-117 36q-252 80 -252 277q0 135 108.5 228t282.5 93q166 0 279.5 -89.5t116.5 -247.5h-197q-1 82 -62.5 128t-148.5 46q-83 0 -135.5 -40t-52.5 -104q0 -89 112 -125l123 -39 q41 -13 73.5 -27.5t67.5 -38.5t58.5 -53t39 -71.5t15.5 -93.5q0 -137 -112 -223t-283 -86q-192 0 -305 89.5t-119 247.5z" />
<glyph unicode="t" horiz-adv-x="878" d="M141 856l35 168h238l71 332h189l-72 -332h256l-35 -168h-258l-125 -594q-4 -20 -4 -31q0 -28 22 -42.5t54 -14.5h219l-37 -174h-256q-84 0 -142 48t-58 126q0 29 6 53l131 629h-234z" />
<glyph unicode="u" horiz-adv-x="1189" d="M145 297q0 38 11 98l133 629h196l-133 -625q-8 -46 -8 -69q0 -90 52.5 -138.5t140.5 -48.5q106 0 195.5 97.5t121.5 251.5l113 532h194l-217 -1024h-192l36 172q-112 -192 -321 -192q-134 0 -228 82t-94 235z" />
<glyph unicode="v" horiz-adv-x="1075" d="M156 1024h202l117 -817l465 817h209l-598 -1024h-236z" />
<glyph unicode="w" horiz-adv-x="1617" d="M166 1024h192l54 -809l397 809h205l63 -809l387 809h217l-536 -1024h-215l-56 801l-395 -801h-215z" />
<glyph unicode="x" horiz-adv-x="1083" d="M-41 0l487 518l-260 506h213l181 -350l331 350h238l-477 -506l268 -518h-213l-188 365l-344 -365h-236z" />
<glyph unicode="y" horiz-adv-x="1146" d="M-29 -410l37 174h244q33 0 58 20.5t34 59.5l43 203l-211 977h205l154 -727l466 727h220l-658 -989l-55 -252q-44 -193 -225 -193h-312z" />
<glyph unicode="z" horiz-adv-x="1062" d="M31 0l41 195l731 655h-582l37 174h809l-41 -195l-733 -655h622l-36 -174h-848z" />
<glyph unicode="{" horiz-adv-x="794" d="M121 573l59 287h56q53 0 81 28t41 95l105 487q33 159 104 225t203 66h201l-37 -174h-131q-66 0 -100.5 -35t-49.5 -112l-112 -547q-15 -74 -67 -114t-126 -42l-8 -41q57 -4 90 -42.5t33 -94.5q0 -26 -6 -47l-115 -524q-6 -24 -6 -51q0 -91 100 -91h127l-37 -174h-168 q-110 0 -167.5 61t-57.5 169q0 12 19 98l94 440q8 32 8 52q0 37 -23.5 59t-70.5 22h-39z" />
<glyph unicode="|" horiz-adv-x="763" d="M346 -236v1772h205v-1772h-205z" />
<glyph unicode="}" horiz-adv-x="784" d="M-59 -328l36 174h132q66 0 100 35.5t49 112.5l113 547q15 74 66.5 113.5t125.5 41.5l8 41q-57 4 -89.5 42.5t-32.5 94.5q0 27 6 48l114 524q6 24 6 51q0 90 -100 90h-127l37 174h168q110 0 167.5 -60.5t57.5 -168.5q0 -17 -18 -98l-94 -441q-9 -36 -9 -51q0 -37 24 -59.5 t71 -22.5h39l-60 -287h-55q-53 0 -81.5 -27.5t-41.5 -94.5l-104 -488q-33 -159 -104.5 -225t-203.5 -66h-200z" />
<glyph unicode="~" horiz-adv-x="849" d="M49 725l6 31q19 94 81.5 150.5t152.5 56.5q67 0 145 -43l41 -25q49 -27 82 -27t53 21.5t27 54.5h164l-6 -31q-19 -92 -82 -149t-152 -57q-76 0 -145 38l-41 25q-3 2 -13.5 8t-14 7.5t-12.5 5.5t-14 5.5t-12.5 3t-15.5 1.5q-33 0 -53 -21.5t-27 -54.5h-164z" />
<glyph unicode="&#xa1;" horiz-adv-x="595" d="M25 -410l69 328l219 696h62l-76 -696l-70 -328h-204zM281 788l49 236h205l-50 -236h-204z" />
<glyph unicode="&#xa2;" horiz-adv-x="1161" d="M127 424q1 142 46 260t122 196.5t180.5 121t220.5 42.5q25 0 39 -2l86 228h183l-103 -269q93 -44 145 -124t52 -187h-201q0 92 -61 144l-265 -691h21q89 0 155 51t89 138h200q-31 -164 -159 -258t-299 -94q-22 0 -68 4l-88 -230h-182l106 277q-104 54 -162 154t-57 239z M326 428q0 -143 86 -223l260 676q-149 -2 -247.5 -128t-98.5 -325z" />
<glyph unicode="&#xa3;" horiz-adv-x="1255" d="M51 0l39 174q180 0 225 176l41 160l-188 -45l41 194l199 48l88 348q50 192 186.5 285.5t318.5 93.5h209l-36 -174h-166q-124 0 -211 -63.5t-117 -180.5l-66 -258l306 73l-41 -194l-316 -76l-53 -211q-15 -62 -59 -111.5t-97 -64.5h762l-37 -174h-1028z" />
<glyph unicode="&#xa4;" horiz-adv-x="1492" d="M121 143l182 174q-90 136 -90 308q0 162 84 295l-176 176l123 123l176 -168q140 106 325 106q191 0 332 -110l180 172l123 -123l-182 -183q80 -129 80 -288q0 -167 -86 -301l188 -181l-123 -123l-182 175q-141 -113 -330 -113q-180 0 -323 108l-178 -170zM414 625 q0 -159 97 -264t234 -105h11q136 0 228.5 104.5t92.5 264.5q0 159 -92 258.5t-229 99.5h-21q-137 0 -229 -99.5t-92 -258.5z" />
<glyph unicode="&#xa5;" horiz-adv-x="1341" d="M150 182l30 183l385 79l31 144l-379 -78l33 180l295 62l-305 682h231l266 -623l520 623h254l-497 -584l231 47l-31 -182l-380 -78l-35 -43l-23 -107l402 82l-33 -180l-408 -84l-65 -305h-201l55 260z" />
<glyph unicode="&#xa6;" horiz-adv-x="768" d="M362 -174v758h205v-758h-205zM362 870v738h205v-738h-205z" />
<glyph unicode="&#xa7;" horiz-adv-x="1167" d="M129 -125l35 164h426q68 0 111.5 32t43.5 85q0 43 -31 74t-100 63l-180 84q-192 88 -192 250q0 179 213 313q-97 78 -97 199q0 132 101 213.5t246 81.5h444l-35 -164h-416q-66 0 -109.5 -32t-43.5 -87q0 -39 30.5 -70.5t96.5 -62.5l180 -84q184 -86 184 -252 q0 -94 -58.5 -173t-154.5 -136q109 -88 109 -199q0 -134 -98.5 -216.5t-241.5 -82.5h-463zM434 664q0 -48 30.5 -79t84.5 -57l141 -65q156 70 156 186q0 51 -30.5 88.5t-78.5 57.5l-143 59q-84 -37 -122 -88t-38 -102z" />
<glyph unicode="&#xa8;" horiz-adv-x="757" d="M-4 1198l47 215h205l-47 -215h-205zM385 1198l47 215h205l-47 -215h-205z" />
<glyph unicode="&#xa9;" horiz-adv-x="1929" d="M231 717q0 162 63.5 310t171 255t255.5 170.5t309 63.5q162 0 310 -63.5t255 -170.5t170.5 -255t63.5 -310q0 -161 -63.5 -309t-170.5 -255.5t-255 -171t-310 -63.5q-161 0 -309 63.5t-255.5 171t-171 255.5t-63.5 309zM385 717q0 -174 87 -322.5t235.5 -235.5t322.5 -87 t322.5 87t235.5 235.5t87 322.5t-87 322.5t-235.5 235.5t-322.5 87t-322.5 -87t-235.5 -235.5t-87 -322.5zM645 717q0 185 102 295t283 110q145 0 232 -71.5t102 -202.5h-162q-31 143 -172 143h-10q-101 0 -162 -70.5t-61 -203.5q0 -126 61 -195t162 -69h10q154 0 182 143 h162q-23 -130 -115 -202t-229 -72q-174 0 -279.5 101.5t-105.5 293.5z" />
<glyph unicode="&#xaa;" horiz-adv-x="667" d="M125 1020q0 143 84.5 250.5t208.5 107.5q68 0 115 -33.5t59 -76.5l20 100h152l-123 -582h-147l14 76q-23 -36 -71 -62t-101 -26q-101 0 -156 69.5t-55 176.5zM276 1036q0 -63 28 -100t83 -37q75 0 120.5 66.5t45.5 148.5q0 64 -29.5 100.5t-83.5 36.5q-72 0 -118 -64.5 t-46 -150.5z" />
<glyph unicode="&#xab;" horiz-adv-x="1146" d="M115 584l389 440h256l-412 -463l195 -418h-226zM565 584l389 440h256l-411 -463l194 -418h-225z" />
<glyph unicode="&#xac;" horiz-adv-x="1327" d="M207 655v174h952v-460h-201v286h-751z" />
<glyph unicode="&#xad;" horiz-adv-x="819" d="M143 532l37 175h553l-37 -175h-553z" />
<glyph unicode="&#xae;" horiz-adv-x="1929" d="M231 717q0 162 63.5 310t171 255t255.5 170.5t309 63.5q162 0 310 -63.5t255 -170.5t170.5 -255t63.5 -310q0 -161 -63.5 -309t-170.5 -255.5t-255 -171t-310 -63.5q-161 0 -309 63.5t-255.5 171t-171 255.5t-63.5 309zM385 717q0 -174 87 -322.5t235.5 -235.5t322.5 -87 t322.5 87t235.5 235.5t87 322.5t-87 322.5t-235.5 235.5t-322.5 87t-322.5 -87t-235.5 -235.5t-87 -322.5zM756 342v770h346q119 0 186.5 -59t67.5 -154q0 -79 -45 -127.5t-119 -64.5q79 0 116.5 -27.5t37.5 -93.5v-244h-144v203q0 46 -24 68t-76 22h-203v-293h-143z M899 758h152q72 0 116.5 31.5t44.5 89.5q0 51 -40 71.5t-121 20.5h-152v-213z" />
<glyph unicode="&#xaf;" horiz-adv-x="747" d="M4 1208l35 164h584l-35 -164h-584z" />
<glyph unicode="&#xb0;" horiz-adv-x="940" d="M213 1075q0 161 109 270t270 109q160 0 264.5 -108.5t104.5 -270.5q0 -157 -105 -268t-264 -111q-160 0 -269.5 112t-109.5 267zM397 1075q0 -93 52 -149t143 -56t142.5 55.5t51.5 149.5t-51.5 149.5t-142.5 55.5t-143 -56t-52 -149z" />
<glyph unicode="&#xb1;" horiz-adv-x="1492" d="M287 205v174h1011v-174h-1011zM287 788v175h405v266h201v-266h405v-175h-405v-256h-201v256h-405z" />
<glyph unicode="&#xb2;" horiz-adv-x="929" d="M256 786l37 160l311 203q43 27 65 42.5t52.5 42.5t44.5 55.5t14 60.5q0 52 -36.5 86t-102.5 34q-64 0 -109 -39t-51 -98h-153q6 112 96.5 193.5t226.5 81.5q117 0 200 -68t83 -178q0 -94 -52.5 -160.5t-152.5 -128.5l-237 -149h389l-29 -138h-596z" />
<glyph unicode="&#xb3;" horiz-adv-x="868" d="M248 1018h153q3 -55 41.5 -86t100.5 -31q66 0 107.5 33t41.5 86q0 47 -35.5 77.5t-91.5 30.5h-82l29 138h90q70 0 110 31.5t40 84.5q0 50 -34 75.5t-87 25.5q-59 0 -97.5 -30.5t-44.5 -80.5h-153q6 104 89 170t208 66q119 0 196.5 -60.5t77.5 -156.5q0 -79 -53 -134 t-133 -69q53 -22 87 -73t34 -111q0 -94 -87 -161t-223 -67q-137 0 -209.5 70.5t-74.5 171.5z" />
<glyph unicode="&#xb4;" horiz-adv-x="522" d="M20 1157l113 277h205l-184 -277h-134z" />
<glyph unicode="&#xb5;" horiz-adv-x="1167" d="M154 -410v1434h204v-604q0 -136 46.5 -201t158.5 -65h10q113 0 190 84.5t77 232.5v553h204v-1024h-204v174q-40 -89 -118.5 -141.5t-189.5 -52.5q-104 0 -174 40v-430h-204z" />
<glyph unicode="&#xb6;" horiz-adv-x="1193" d="M307 1010q0 82 25.5 152.5t69.5 119.5t101.5 84t121.5 51.5t131 16.5h508l-37 -174h-266l-297 -1393h-185l170 801q-145 14 -243.5 104t-98.5 238z" />
<glyph unicode="&#xb7;" horiz-adv-x="614" d="M219 604l53 246h246l-53 -246h-246z" />
<glyph unicode="&#xb8;" horiz-adv-x="569" d="M-33 -502l29 133h149q50 0 81.5 25.5t31.5 67.5q0 37 -23 54t-55 17h-67l49 230l125 -15l-25 -121q137 -27 137 -161q0 -104 -78.5 -167t-185.5 -63h-168z" />
<glyph unicode="&#xb9;" horiz-adv-x="643" d="M268 1200l35 172l318 223h114l-172 -809h-147l129 611z" />
<glyph unicode="&#xba;" horiz-adv-x="671" d="M125 1024q0 158 91.5 256t223.5 98q113 0 190 -63t77 -185q0 -159 -91.5 -257.5t-222.5 -98.5q-120 0 -194 65.5t-74 184.5zM279 1034q0 -60 30 -97.5t86 -37.5q67 0 113.5 63.5t46.5 157.5q0 59 -30 96t-85 37q-73 0 -117 -68.5t-44 -150.5z" />
<glyph unicode="&#xbb;" horiz-adv-x="1155" d="M10 143l412 463l-195 418h226l202 -440l-389 -441h-256zM461 143l411 463l-194 418h225l203 -440l-389 -441h-256z" />
<glyph unicode="&#xbc;" horiz-adv-x="1882" d="M201 1038l37 172l317 224h115l-172 -809h-148l129 610zM420 0l860 1434h174l-860 -1434h-174zM1071 180l27 131l469 498h164l-103 -498h115l-27 -131h-117l-38 -180h-150l39 180h-379zM1253 311h226l67 316z" />
<glyph unicode="&#xbd;" horiz-adv-x="2011" d="M201 1038l37 172l317 224h115l-172 -809h-148l129 610zM420 0l860 1434h174l-860 -1434h-174zM1192 0l35 160l311 202q43 27 65 42.5t52.5 42.5t44.5 55.5t14 60.5q0 52 -36.5 86.5t-102.5 34.5q-64 0 -109 -39t-51 -98h-153q6 112 96.5 193t226.5 81q117 0 200 -68 t83 -178q0 -94 -52 -159.5t-153 -128.5l-238 -150h390l-29 -137h-594z" />
<glyph unicode="&#xbe;" horiz-adv-x="2027" d="M182 856h154q3 -55 41 -86t100 -31q66 0 108 33.5t42 85.5q0 47 -36 78t-91 31h-80l26 137h91q70 0 109.5 32t39.5 85q0 50 -34 75t-87 25q-59 0 -97 -30.5t-44 -80.5h-154q6 104 89 170t208 66q119 0 197 -60.5t78 -156.5q0 -79 -53.5 -134t-133.5 -69q53 -22 87 -73 t34 -111q0 -94 -86.5 -161t-222.5 -67q-138 0 -210.5 70.5t-74.5 171.5zM565 0l860 1434h174l-860 -1434h-174zM1217 180l26 131l469 498h164l-102 -498h114l-26 -131h-117l-39 -180h-150l39 180h-378zM1399 311h225l68 316z" />
<glyph unicode="&#xbf;" horiz-adv-x="890" d="M29 -53q0 117 60 211.5t160 146t218 51.5q64 0 84 78l45 180h186l-59 -256q-25 -102 -89 -139t-171 -37q-111 0 -175.5 -64t-64.5 -155q0 -199 246 -199h330l-37 -174h-318q-193 0 -304 95.5t-111 261.5zM596 788l49 236h236l-50 -236h-235z" />
<glyph unicode="&#xc0;" horiz-adv-x="1441" d="M-51 -2l866 1434h266l248 -1434h-196l-64 369h-688l-221 -369h-211zM492 551h546l-123 709zM659 1823h277l82 -267h-144z" />
<glyph unicode="&#xc1;" horiz-adv-x="1441" d="M-51 0l866 1434h266l248 -1434h-196l-64 369h-688l-221 -369h-211zM492 553h546l-123 709zM891 1556l82 267h276l-215 -267h-143z" />
<glyph unicode="&#xc2;" horiz-adv-x="1441" d="M-51 0l866 1434h266l248 -1434h-196l-64 369h-688l-221 -369h-211zM492 553h546l-123 709zM565 1556l297 267h242l186 -267h-139l-199 123l-245 -123h-142z" />
<glyph unicode="&#xc3;" horiz-adv-x="1441" d="M-51 0l866 1434h266l248 -1434h-196l-64 369h-688l-221 -369h-211zM492 553h546l-123 709zM571 1565l7 30q19 94 81.5 150.5t151.5 56.5q67 0 145 -43l41 -24q49 -27 82 -27t53 21.5t27 54.5h164l-6 -31q-19 -93 -82 -150t-152 -57q-74 0 -145 39l-41 25q-54 30 -82 30 q-65 0 -80 -75h-164z" />
<glyph unicode="&#xc4;" horiz-adv-x="1441" d="M-51 0l866 1434h266l248 -1434h-196l-64 369h-688l-221 -369h-211zM492 553h546l-123 709zM655 1577l47 225h216l-48 -225h-215zM1055 1577l47 225h215l-47 -225h-215z" />
<glyph unicode="&#xc5;" horiz-adv-x="1441" d="M-51 0l866 1434h266l248 -1434h-196l-64 369h-688l-221 -369h-211zM492 553h546l-123 709zM778 1710q0 87 61.5 146t143.5 59q84 0 144.5 -58.5t60.5 -146.5t-60.5 -146.5t-144.5 -58.5q-82 0 -143.5 59t-61.5 146zM891 1710q0 -38 28 -66t66 -28q37 0 63.5 28t26.5 66 t-26.5 66t-63.5 28q-38 0 -66 -28t-28 -66z" />
<glyph unicode="&#xc6;" horiz-adv-x="2156" d="M-61 0l1142 1434h1020l-39 -185h-706l-27 -420h615l-41 -194h-596l-31 -440h717l-41 -195h-881l27 369h-625l-293 -369h-241zM604 553h502l57 707z" />
<glyph unicode="&#xc7;" horiz-adv-x="1468" d="M170 580q0 143 33.5 274.5t99 240.5t156.5 189.5t213.5 125t263.5 44.5q148 0 265 -55t187.5 -162.5t75.5 -251.5h-204q0 130 -94.5 207.5t-252.5 77.5q-147 0 -270 -85t-195.5 -238.5t-72.5 -342.5q0 -206 111.5 -323t318.5 -117q147 0 260.5 72.5t138.5 212.5h205 q-38 -215 -200.5 -339.5t-407.5 -129.5l-19 -91q138 -28 138 -161q0 -104 -79 -167t-186 -63h-168l29 133h150q50 0 81 25.5t31 67.5q0 37 -23 54t-55 17h-67l41 193q-232 32 -368 190.5t-136 401.5z" />
<glyph unicode="&#xc8;" horiz-adv-x="1372" d="M102 0l306 1434h1044l-39 -185h-840l-90 -420h717l-39 -184h-717l-98 -461h860l-39 -184h-1065zM666 1823h276l82 -267h-143z" />
<glyph unicode="&#xc9;" horiz-adv-x="1372" d="M102 0l306 1434h1044l-39 -185h-840l-90 -420h717l-39 -184h-717l-98 -461h860l-39 -184h-1065zM840 1556l82 267h276l-215 -267h-143z" />
<glyph unicode="&#xca;" horiz-adv-x="1372" d="M102 0l306 1434h1044l-39 -185h-840l-90 -420h717l-39 -184h-717l-98 -461h860l-39 -184h-1065zM563 1556l297 267h242l186 -267h-139l-199 123l-245 -123h-142z" />
<glyph unicode="&#xcb;" horiz-adv-x="1372" d="M102 0l306 1434h1044l-39 -185h-840l-90 -420h717l-39 -184h-717l-98 -461h860l-39 -184h-1065zM629 1577l47 225h215l-47 -225h-215zM1028 1577l47 225h215l-47 -225h-215z" />
<glyph unicode="&#xcc;" horiz-adv-x="573" d="M102 0l306 1434h204l-305 -1434h-205zM219 1823h277l82 -267h-144z" />
<glyph unicode="&#xcd;" horiz-adv-x="573" d="M102 0l306 1434h204l-305 -1434h-205zM469 1556l82 267h276l-215 -267h-143z" />
<glyph unicode="&#xce;" horiz-adv-x="573" d="M102 0l306 1434h204l-305 -1434h-205zM172 1556l297 267h242l186 -267h-139l-199 123l-246 -123h-141z" />
<glyph unicode="&#xcf;" horiz-adv-x="573" d="M102 0l306 1434h204l-305 -1434h-205zM227 1577l47 225h215l-47 -225h-215zM627 1577l47 225h215l-47 -225h-215z" />
<glyph unicode="&#xd0;" horiz-adv-x="1488" d="M72 625l39 184h192l133 625h391q150 0 266 -36t186.5 -93t115.5 -136.5t61.5 -158t16.5 -166.5q0 -122 -30 -242.5t-91.5 -229t-146.5 -191.5t-204 -132t-256 -49h-614l133 625h-192zM379 184h369q126 0 228 56.5t165 150.5t96 209.5t33 239.5q0 196 -113.5 302.5 t-327.5 106.5h-229l-92 -440h299l-39 -184h-297z" />
<glyph unicode="&#xd1;" horiz-adv-x="1525" d="M102 0l306 1434h286l406 -1221l260 1221h205l-305 -1434h-285l-408 1227l-260 -1227h-205zM616 1565l7 30q19 94 81.5 150.5t151.5 56.5q67 0 145 -43l41 -24q49 -27 82 -27t53 21.5t27 54.5h164l-6 -31q-19 -93 -82 -150t-152 -57q-74 0 -145 39l-41 25q-54 30 -82 30 q-65 0 -80 -75h-164z" />
<glyph unicode="&#xd2;" horiz-adv-x="1560" d="M170 588q0 160 41.5 300t114 242.5t169 176t208.5 110.5t231 37q126 0 237.5 -45t193.5 -124.5t129.5 -196t47.5 -252.5q0 -128 -31 -251t-94.5 -232.5t-152.5 -192.5t-212.5 -131.5t-265.5 -48.5q-272 0 -444 165.5t-172 442.5zM375 600q0 -200 116.5 -318t315.5 -118 q100 0 195 46t170 128.5t121 209t46 275.5q0 206 -112.5 326.5t-321.5 120.5q-100 0 -194 -45t-169 -127.5t-121 -212t-46 -285.5zM715 1823h276l82 -267h-143z" />
<glyph unicode="&#xd3;" horiz-adv-x="1560" d="M170 588q0 160 41.5 300t114 242.5t169 176t208.5 110.5t231 37q126 0 237.5 -45t193.5 -124.5t129.5 -196t47.5 -252.5q0 -128 -31 -251t-94.5 -232.5t-152.5 -192.5t-212.5 -131.5t-265.5 -48.5q-272 0 -444 165.5t-172 442.5zM375 600q0 -200 116.5 -318t315.5 -118 q100 0 195 46t170 128.5t121 209t46 275.5q0 206 -112.5 326.5t-321.5 120.5q-100 0 -194 -45t-169 -127.5t-121 -212t-46 -285.5zM924 1556l82 267h276l-215 -267h-143z" />
<glyph unicode="&#xd4;" horiz-adv-x="1560" d="M170 588q0 160 41.5 300t114 242.5t169 176t208.5 110.5t231 37q126 0 237.5 -45t193.5 -124.5t129.5 -196t47.5 -252.5q0 -128 -31 -251t-94.5 -232.5t-152.5 -192.5t-212.5 -131.5t-265.5 -48.5q-272 0 -444 165.5t-172 442.5zM375 600q0 -200 116.5 -318t315.5 -118 q100 0 195 46t170 128.5t121 209t46 275.5q0 206 -112.5 326.5t-321.5 120.5q-100 0 -194 -45t-169 -127.5t-121 -212t-46 -285.5zM600 1556l297 267h242l186 -267h-139l-199 123l-246 -123h-141z" />
<glyph unicode="&#xd5;" horiz-adv-x="1560" d="M170 588q0 160 41.5 300t114 242.5t169 176t208.5 110.5t231 37q126 0 237.5 -45t193.5 -124.5t129.5 -196t47.5 -252.5q0 -128 -31 -251t-94.5 -232.5t-152.5 -192.5t-212.5 -131.5t-265.5 -48.5q-272 0 -444 165.5t-172 442.5zM375 600q0 -200 116.5 -318t315.5 -118 q100 0 195 46t170 128.5t121 209t46 275.5q0 206 -112.5 326.5t-321.5 120.5q-100 0 -194 -45t-169 -127.5t-121 -212t-46 -285.5zM631 1565l6 30q19 94 81.5 150.5t151.5 56.5q68 0 146 -43l41 -24q49 -27 82 -27t53 21.5t27 54.5h163l-6 -31q-19 -93 -81.5 -150 t-151.5 -57q-75 0 -146 39l-41 25q-54 30 -82 30q-64 0 -79 -75h-164z" />
<glyph unicode="&#xd6;" horiz-adv-x="1560" d="M170 588q0 160 41.5 300t114 242.5t169 176t208.5 110.5t231 37q126 0 237.5 -45t193.5 -124.5t129.5 -196t47.5 -252.5q0 -128 -31 -251t-94.5 -232.5t-152.5 -192.5t-212.5 -131.5t-265.5 -48.5q-272 0 -444 165.5t-172 442.5zM375 600q0 -200 116.5 -318t315.5 -118 q100 0 195 46t170 128.5t121 209t46 275.5q0 206 -112.5 326.5t-321.5 120.5q-100 0 -194 -45t-169 -127.5t-121 -212t-46 -285.5zM670 1577l47 225h215l-47 -225h-215zM1069 1577l47 225h215l-47 -225h-215z" />
<glyph unicode="&#xd7;" horiz-adv-x="1300" d="M258 410l315 315l-315 315l127 127l315 -315l316 315l127 -127l-316 -315l316 -315l-127 -127l-316 315l-315 -315z" />
<glyph unicode="&#xd8;" horiz-adv-x="1601" d="M84 113l178 166q-72 138 -72 309q0 160 41.5 300t114 242.5t169 176t208.5 110.5t231 37q120 0 227 -40.5t187 -115.5l162 150l117 -127l-170 -156q86 -144 86 -329q0 -128 -31 -251t-94.5 -232.5t-152.5 -192.5t-212.5 -131.5t-265.5 -48.5q-268 0 -438 159l-168 -153z M395 600q0 -92 29 -174l803 743q-115 101 -301 101q-100 0 -194 -45t-169.5 -127.5t-121.5 -212t-46 -285.5zM516 276q118 -112 311 -112q79 0 156.5 28.5t145.5 85.5t119.5 135t81.5 184.5t30 225.5q0 114 -35 201z" />
<glyph unicode="&#xd9;" horiz-adv-x="1398" d="M174 416q0 69 19 153l184 865h205l-185 -865q-18 -81 -18 -133q0 -134 86.5 -203t228.5 -69q151 0 241.5 82.5t125.5 251.5l199 936h208l-208 -977q-48 -227 -194.5 -352t-373.5 -125q-104 0 -194 25t-164 75t-117 136.5t-43 199.5zM674 1823h276l82 -267h-143z" />
<glyph unicode="&#xda;" horiz-adv-x="1398" d="M174 416q0 69 19 153l184 865h205l-185 -865q-18 -81 -18 -133q0 -134 86.5 -203t228.5 -69q151 0 241.5 82.5t125.5 251.5l199 936h208l-208 -977q-48 -227 -194.5 -352t-373.5 -125q-104 0 -194 25t-164 75t-117 136.5t-43 199.5zM846 1556l82 267h276l-215 -267h-143z " />
<glyph unicode="&#xdb;" horiz-adv-x="1398" d="M174 416q0 69 19 153l184 865h205l-185 -865q-18 -81 -18 -133q0 -134 86.5 -203t228.5 -69q151 0 241.5 82.5t125.5 251.5l199 936h208l-208 -977q-48 -227 -194.5 -352t-373.5 -125q-104 0 -194 25t-164 75t-117 136.5t-43 199.5zM573 1556l297 267h242l186 -267h-139 l-198 123l-246 -123h-142z" />
<glyph unicode="&#xdc;" horiz-adv-x="1400" d="M174 416q0 69 19 153l184 865h205l-185 -865q-18 -81 -18 -133q0 -134 86.5 -203t228.5 -69q151 0 241.5 82.5t125.5 251.5l199 936h208l-208 -977q-48 -227 -194.5 -352t-373.5 -125q-104 0 -194 25t-164 75t-117 136.5t-43 199.5zM639 1577l47 225h215l-47 -225h-215z M1038 1577l47 225h215l-47 -225h-215z" />
<glyph unicode="&#xdd;" horiz-adv-x="1361" d="M244 1434h227l270 -637l529 637h254l-715 -840l-127 -594h-205l127 594zM793 1556l81 267h277l-215 -267h-143z" />
<glyph unicode="&#xde;" horiz-adv-x="1357" d="M102 0l306 1434h204l-67 -316h305q207 0 327.5 -105t120.5 -272q0 -134 -58.5 -243.5t-170 -174.5t-256.5 -65h-451l-55 -258h-205zM401 442h414q121 0 199 78.5t78 204.5q0 97 -71 153t-216 56h-299z" />
<glyph unicode="&#xdf;" horiz-adv-x="1175" d="M18 -301l293 1376q37 174 156.5 276.5t294.5 102.5q171 0 280 -96.5t109 -247.5q0 -78 -31 -145.5t-78.5 -111.5t-98.5 -71t-97 -34q85 -23 150 -109t65 -215q0 -181 -129.5 -302.5t-333.5 -121.5h-190l36 174h131q132 0 209.5 78t77.5 192q0 101 -60.5 166.5 t-158.5 65.5h-88l35 164h108q106 0 180 80.5t74 179.5q0 90 -50 141t-136 51q-101 0 -169 -64t-95 -190l-285 -1339h-199z" />
<glyph unicode="&#xe0;" d="M131 434q0 136 41 252t110.5 193.5t161.5 121t195 43.5q126 0 213 -62.5t119 -145.5v-2l39 190h194l-217 -1024h-184l33 164q-43 -81 -130 -132.5t-198 -51.5q-67 0 -132 27t-120.5 79.5t-90 143t-34.5 204.5zM328 451q0 -148 71 -230t170 -82q101 0 180 66t118.5 165.5 t39.5 209.5q0 136 -73.5 216.5t-176.5 82.5q-136 2 -232.5 -118t-96.5 -310zM475 1434h205l113 -277h-134z" />
<glyph unicode="&#xe1;" d="M131 434q0 136 41 252t110.5 193.5t161.5 121t195 43.5q126 0 213 -62.5t119 -145.5v-2l39 190h194l-217 -1024h-184l33 164q-43 -81 -130 -132.5t-198 -51.5q-67 0 -132 27t-120.5 79.5t-90 143t-34.5 204.5zM328 451q0 -148 71 -230t170 -82q101 0 180 66t118.5 165.5 t39.5 209.5q0 136 -73.5 216.5t-176.5 82.5q-136 2 -232.5 -118t-96.5 -310zM629 1157l112 277h205l-184 -277h-133z" />
<glyph unicode="&#xe2;" d="M131 434q0 136 41 252t110.5 193.5t161.5 121t195 43.5q126 0 213 -62.5t119 -145.5v-2l39 190h194l-217 -1024h-184l33 164q-43 -81 -130 -132.5t-198 -51.5q-67 0 -132 27t-120.5 79.5t-90 143t-34.5 204.5zM328 451q0 -148 71 -230t170 -82q101 0 180 66t118.5 165.5 t39.5 209.5q0 136 -73.5 216.5t-176.5 82.5q-136 2 -232.5 -118t-96.5 -310zM432 1157l295 277h143l177 -277h-144l-139 113l-189 -113h-143z" />
<glyph unicode="&#xe3;" d="M131 434q0 136 41 252t110.5 193.5t161.5 121t195 43.5q126 0 213 -62.5t119 -145.5v-2l39 190h194l-217 -1024h-184l33 164q-43 -81 -130 -132.5t-198 -51.5q-67 0 -132 27t-120.5 79.5t-90 143t-34.5 204.5zM328 451q0 -148 71 -230t170 -82q101 0 180 66t118.5 165.5 t39.5 209.5q0 136 -73.5 216.5t-176.5 82.5q-136 2 -232.5 -118t-96.5 -310zM416 1178l6 30q19 93 77 144t146 51q57 0 133 -39l39 -21q4 -2 18.5 -10.5t23.5 -12.5t22.5 -8.5t25.5 -4.5q24 0 42.5 22.5t27.5 63.5h143l-6 -31q-19 -93 -73.5 -144t-135.5 -51q-55 0 -123 35 l-51 27q-64 35 -90 35q-63 0 -82 -86h-143z" />
<glyph unicode="&#xe4;" d="M131 434q0 136 41 252t110.5 193.5t161.5 121t195 43.5q126 0 213 -62.5t119 -145.5v-2l39 190h194l-217 -1024h-184l33 164q-43 -81 -130 -132.5t-198 -51.5q-67 0 -132 27t-120.5 79.5t-90 143t-34.5 204.5zM328 451q0 -148 71 -230t170 -82q101 0 180 66t118.5 165.5 t39.5 209.5q0 136 -73.5 216.5t-176.5 82.5q-136 2 -232.5 -118t-96.5 -310zM455 1200l47 215h205l-48 -215h-204zM844 1200l47 215h205l-47 -215h-205z" />
<glyph unicode="&#xe5;" d="M131 434q0 136 41 252t110.5 193.5t161.5 121t195 43.5q126 0 213 -62.5t119 -145.5v-2l39 190h194l-217 -1024h-184l33 164q-43 -81 -130 -132.5t-198 -51.5q-67 0 -132 27t-120.5 79.5t-90 143t-34.5 204.5zM328 451q0 -148 71 -230t170 -82q101 0 180 66t118.5 165.5 t39.5 209.5q0 136 -73.5 216.5t-176.5 82.5q-136 2 -232.5 -118t-96.5 -310zM559 1321q0 83 58.5 139t136.5 56t136 -56t58 -139t-58 -139t-136 -56t-136.5 56t-58.5 139zM666 1321q0 -37 26.5 -63.5t63.5 -26.5t62.5 26.5t25.5 63.5t-25.5 63.5t-62.5 26.5t-63.5 -26.5 t-26.5 -63.5z" />
<glyph unicode="&#xe6;" horiz-adv-x="1847" d="M106 268q0 154 109.5 250t292.5 96h309q19 83 19 99q0 75 -55 121.5t-146 46.5h-10q-83 0 -142.5 -42.5t-76.5 -111.5h-195q22 144 139 230.5t295 86.5q116 0 196.5 -43.5t119.5 -123.5q161 167 399 167q113 0 202.5 -49.5t141 -145.5t47.5 -224q0 -54 -22 -144h-740v-28 q0 -140 78 -225t197 -85q94 0 163 41.5t97 112.5h192q-43 -145 -165 -231t-308 -86q-129 0 -227 54.5t-154 155.5q-65 -96 -172 -153t-246 -57q-149 0 -243.5 80.5t-94.5 207.5zM295 295q0 -68 49 -109t125 -43q118 -3 204.5 69t112.5 198l11 51h-293q-92 0 -150.5 -45.5 t-58.5 -120.5zM1018 635h547q2 16 2 27q6 105 -59.5 163t-166.5 58q-117 0 -201.5 -66t-121.5 -182z" />
<glyph unicode="&#xe7;" horiz-adv-x="1161" d="M127 420q1 142 46 259.5t122 195.5t180.5 120.5t220.5 42.5q175 0 288.5 -97t113.5 -255h-197q0 95 -61.5 144t-163.5 49q-154 0 -255.5 -126.5t-101.5 -328.5q0 -129 72 -207t201 -78q92 0 160.5 51.5t91.5 137.5h192q-30 -158 -150 -251.5t-284 -101.5l-18 -86 q137 -27 137 -161q0 -104 -78.5 -167t-185.5 -63h-168l28 133h150q50 0 81.5 25.5t31.5 67.5q0 37 -23 54t-55 17h-68l41 189q-159 30 -254 143.5t-94 292.5z" />
<glyph unicode="&#xe8;" horiz-adv-x="1177" d="M133 453q0 168 72.5 303.5t199.5 211.5t285 76q113 0 202.5 -49.5t141 -145.5t47.5 -224q0 -54 -22 -144h-740v-28q0 -140 78 -225t197 -85q94 0 163 41.5t97 112.5h193q-43 -145 -165.5 -231t-308.5 -86q-200 0 -320 127.5t-120 345.5zM348 635h547q2 16 2 27 q6 105 -59 163t-166 58q-117 0 -202 -66t-122 -182zM510 1434h205l112 -277h-133z" />
<glyph unicode="&#xe9;" horiz-adv-x="1177" d="M133 453q0 168 72.5 303.5t199.5 211.5t285 76q113 0 202.5 -49.5t141 -145.5t47.5 -224q0 -54 -22 -144h-740v-28q0 -140 78 -225t197 -85q94 0 163 41.5t97 112.5h193q-43 -145 -165.5 -231t-308.5 -86q-200 0 -320 127.5t-120 345.5zM348 635h547q2 16 2 27 q6 105 -59 163t-166 58q-117 0 -202 -66t-122 -182zM635 1157l113 277h204l-184 -277h-133z" />
<glyph unicode="&#xea;" horiz-adv-x="1177" d="M133 453q0 168 72.5 303.5t199.5 211.5t285 76q113 0 202.5 -49.5t141 -145.5t47.5 -224q0 -54 -22 -144h-740v-28q0 -140 78 -225t197 -85q94 0 163 41.5t97 112.5h193q-43 -145 -165.5 -231t-308.5 -86q-200 0 -320 127.5t-120 345.5zM348 635h547q2 16 2 27 q6 105 -59 163t-166 58q-117 0 -202 -66t-122 -182zM401 1157l295 277h144l176 -277h-144l-139 113l-188 -113h-144z" />
<glyph unicode="&#xeb;" horiz-adv-x="1177" d="M133 453q0 168 72.5 303.5t199.5 211.5t285 76q113 0 202.5 -49.5t141 -145.5t47.5 -224q0 -54 -22 -144h-740v-28q0 -140 78 -225t197 -85q94 0 163 41.5t97 112.5h193q-43 -145 -165.5 -231t-308.5 -86q-200 0 -320 127.5t-120 345.5zM348 635h547q2 16 2 27 q6 105 -59 163t-166 58q-117 0 -202 -66t-122 -182zM438 1198l47 215h205l-47 -215h-205zM827 1198l47 215h205l-47 -215h-205z" />
<glyph unicode="&#xec;" horiz-adv-x="522" d="M82 0l217 1024h195l-218 -1024h-194zM209 1434h205l112 -277h-133z" />
<glyph unicode="&#xed;" horiz-adv-x="522" d="M82 0l217 1024h195l-218 -1024h-194zM362 1157l113 277h205l-184 -277h-134z" />
<glyph unicode="&#xee;" horiz-adv-x="522" d="M82 0l217 1024h195l-218 -1024h-194zM111 1157l295 277h143l176 -277h-143l-140 113l-188 -113h-143z" />
<glyph unicode="&#xef;" horiz-adv-x="522" d="M82 0l217 1024h195l-218 -1024h-194zM131 1198l47 215h205l-47 -215h-205zM520 1198l47 215h205l-47 -215h-205z" />
<glyph unicode="&#xf0;" horiz-adv-x="1212" d="M123 410q0 159 66 294t181.5 214t254.5 79q123 0 200 -46t131 -124q7 47 7 82q0 164 -101 265l-241 -146l34 172l86 53q-76 36 -184 45l31 156q192 -9 323 -96l207 127l-37 -178l-67 -41q137 -170 137 -457q1 -115 -19.5 -229t-67 -222.5t-113 -192t-166 -134 t-218.5 -51.5q-114 -1 -202 35t-139.5 97.5t-77 137t-25.5 160.5zM313 424q0 -119 69 -195.5t198 -76.5q60 0 120 30.5t107.5 84t77.5 134t30 172.5q0 112 -70.5 186.5t-191.5 74.5q-62 0 -121.5 -27t-109 -76.5t-79.5 -129.5t-30 -177z" />
<glyph unicode="&#xf1;" horiz-adv-x="1189" d="M82 0l217 1024h193l-37 -172q52 86 138.5 139t194.5 53q135 0 222.5 -87t87.5 -230q0 -37 -11 -98l-133 -629h-196l131 612q8 46 8 68q0 89 -49.5 145t-140.5 56q-107 0 -196.5 -97.5t-121.5 -251.5l-113 -532h-194zM430 1178l6 30q19 93 77 144t146 51q58 0 134 -39 l38 -21q3 -1 18.5 -10t24 -13t22.5 -8.5t26 -4.5q23 0 41.5 22.5t27.5 63.5h144l-7 -31q-19 -93 -73 -144t-135 -51q-55 0 -123 35l-52 27q-64 35 -90 35q-63 0 -82 -86h-143z" />
<glyph unicode="&#xf2;" horiz-adv-x="1214" d="M127 424q0 139 45.5 257t122 196.5t178 122.5t213.5 44q196 0 318 -128t122 -328q0 -142 -45.5 -259t-122.5 -192t-176.5 -116t-208.5 -41q-195 0 -320.5 120.5t-125.5 323.5zM322 430q0 -122 72 -204.5t196 -82.5q63 0 123 29.5t109.5 84.5t79.5 143t30 194 q0 123 -72 205t-194 82q-64 0 -125 -30.5t-110 -86t-79 -143t-30 -191.5zM520 1434h205l113 -277h-133z" />
<glyph unicode="&#xf3;" horiz-adv-x="1214" d="M127 424q0 139 45.5 257t122 196.5t178 122.5t213.5 44q196 0 318 -128t122 -328q0 -142 -45.5 -259t-122.5 -192t-176.5 -116t-208.5 -41q-195 0 -320.5 120.5t-125.5 323.5zM322 430q0 -122 72 -204.5t196 -82.5q63 0 123 29.5t109.5 84.5t79.5 143t30 194 q0 123 -72 205t-194 82q-64 0 -125 -30.5t-110 -86t-79 -143t-30 -191.5zM664 1157l112 277h205l-184 -277h-133z" />
<glyph unicode="&#xf4;" horiz-adv-x="1214" d="M127 424q0 139 45.5 257t122 196.5t178 122.5t213.5 44q196 0 318 -128t122 -328q0 -142 -45.5 -259t-122.5 -192t-176.5 -116t-208.5 -41q-195 0 -320.5 120.5t-125.5 323.5zM322 430q0 -122 72 -204.5t196 -82.5q63 0 123 29.5t109.5 84.5t79.5 143t30 194 q0 123 -72 205t-194 82q-64 0 -125 -30.5t-110 -86t-79 -143t-30 -191.5zM424 1157l295 277h143l176 -277h-143l-139 113l-189 -113h-143z" />
<glyph unicode="&#xf5;" horiz-adv-x="1214" d="M127 424q0 139 45.5 257t122 196.5t178 122.5t213.5 44q196 0 318 -128t122 -328q0 -142 -45.5 -259t-122.5 -192t-176.5 -116t-208.5 -41q-195 0 -320.5 120.5t-125.5 323.5zM322 430q0 -122 72 -204.5t196 -82.5q63 0 123 29.5t109.5 84.5t79.5 143t30 194 q0 123 -72 205t-194 82q-64 0 -125 -30.5t-110 -86t-79 -143t-30 -191.5zM418 1178l6 30q19 93 77 144t146 51q57 0 133 -39l39 -21q4 -2 18.5 -10.5t23.5 -12.5t22.5 -8.5t25.5 -4.5q24 0 42.5 22.5t27.5 63.5h143l-6 -31q-19 -93 -73.5 -144t-135.5 -51q-55 0 -123 35 l-51 27q-64 35 -90 35q-63 0 -82 -86h-143z" />
<glyph unicode="&#xf6;" horiz-adv-x="1214" d="M127 424q0 139 45.5 257t122 196.5t178 122.5t213.5 44q196 0 318 -128t122 -328q0 -142 -45.5 -259t-122.5 -192t-176.5 -116t-208.5 -41q-195 0 -320.5 120.5t-125.5 323.5zM322 430q0 -122 72 -204.5t196 -82.5q63 0 123 29.5t109.5 84.5t79.5 143t30 194 q0 123 -72 205t-194 82q-64 0 -125 -30.5t-110 -86t-79 -143t-30 -191.5zM457 1198l47 215h205l-47 -215h-205zM846 1198l47 215h205l-47 -215h-205z" />
<glyph unicode="&#xf7;" horiz-adv-x="1327" d="M213 635v174h1012v-174h-1012zM612 256v236h215v-236h-215zM612 952v236h215v-236h-215z" />
<glyph unicode="&#xf8;" horiz-adv-x="1275" d="M82 63l133 127q-57 97 -57 234q0 139 45.5 257t122 196.5t178 122.5t213.5 44q177 0 291 -102l131 123l110 -104l-147 -140q55 -101 55 -233q0 -142 -45.5 -259t-122.5 -192t-176.5 -116t-208.5 -41q-174 0 -291 94l-133 -125zM352 430q0 -52 15 -98l507 483 q-72 66 -178 66q-64 0 -125 -30.5t-110 -86t-79 -143t-30 -191.5zM449 203q70 -60 172 -60q63 0 123 29.5t109.5 84.5t79.5 143t30 194q0 36 -11 86z" />
<glyph unicode="&#xf9;" horiz-adv-x="1189" d="M145 297q0 38 11 98l133 629h196l-133 -625q-8 -46 -8 -69q0 -90 52.5 -138.5t140.5 -48.5q106 0 195.5 97.5t121.5 251.5l113 532h194l-217 -1024h-192l36 172q-112 -192 -321 -192q-134 0 -228 82t-94 235zM543 1434h205l112 -277h-133z" />
<glyph unicode="&#xfa;" horiz-adv-x="1189" d="M145 297q0 38 11 98l133 629h196l-133 -625q-8 -46 -8 -69q0 -90 52.5 -138.5t140.5 -48.5q106 0 195.5 97.5t121.5 251.5l113 532h194l-217 -1024h-192l36 172q-112 -192 -321 -192q-134 0 -228 82t-94 235zM684 1157l113 277h204l-184 -277h-133z" />
<glyph unicode="&#xfb;" horiz-adv-x="1189" d="M145 297q0 38 11 98l133 629h196l-133 -625q-8 -46 -8 -69q0 -90 52.5 -138.5t140.5 -48.5q106 0 195.5 97.5t121.5 251.5l113 532h194l-217 -1024h-192l36 172q-112 -192 -321 -192q-134 0 -228 82t-94 235zM438 1157l295 277h144l176 -277h-144l-139 113l-188 -113 h-144z" />
<glyph unicode="&#xfc;" horiz-adv-x="1189" d="M145 297q0 38 11 98l133 629h196l-133 -625q-8 -46 -8 -69q0 -90 52.5 -138.5t140.5 -48.5q106 0 195.5 97.5t121.5 251.5l113 532h194l-217 -1024h-192l36 172q-112 -192 -321 -192q-134 0 -228 82t-94 235zM459 1198l47 215h205l-47 -215h-205zM848 1198l47 215h205 l-47 -215h-205z" />
<glyph unicode="&#xfd;" horiz-adv-x="1146" d="M-29 -410l37 174h244q33 0 58 20.5t34 59.5l43 203l-211 977h205l154 -727l466 727h220l-658 -989l-55 -252q-44 -193 -225 -193h-312zM629 1157l112 277h205l-184 -277h-133z" />
<glyph unicode="&#xfe;" horiz-adv-x="1239" d="M-6 -410l393 1844h195l-115 -539q56 67 142.5 108t176.5 41q164 0 266.5 -115t102.5 -306q0 -288 -144 -465.5t-360 -177.5q-119 0 -211.5 57.5t-124.5 152.5l-125 -600h-196zM377 424q0 -120 70 -200.5t178 -80.5q65 0 124 28.5t106 83.5t75 144t28 201q0 119 -63.5 202 t-171.5 83q-60 0 -120.5 -31.5t-111 -88.5t-82.5 -146.5t-32 -194.5z" />
<glyph unicode="&#xff;" horiz-adv-x="1146" d="M-29 -410l37 174h244q33 0 58 20.5t34 59.5l43 203l-211 977h205l154 -727l466 727h220l-658 -989l-55 -252q-44 -193 -225 -193h-312zM418 1198l47 215h205l-47 -215h-205zM807 1198l47 215h205l-47 -215h-205z" />
<glyph unicode="&#x152;" horiz-adv-x="2453" d="M170 588q0 200 63.5 366t169.5 274t243 167t286 59q171 0 301 -73t201 -207l55 260h1044l-39 -185h-839l-90 -420h716l-38 -184h-717l-99 -461h861l-39 -184h-1065l30 145q-186 -165 -436 -165q-272 0 -440 165t-168 443zM375 600q0 -200 116.5 -318t315.5 -118 q112 0 215.5 55t183.5 163.5t113 252.5l4 20q16 85 16 168q0 206 -112.5 326.5t-321.5 120.5q-100 0 -194 -45t-169 -127.5t-121 -212t-46 -285.5z" />
<glyph unicode="&#x153;" horiz-adv-x="1978" d="M127 424q0 139 45.5 257t122 196.5t178 122.5t213.5 44q124 0 221.5 -53.5t153.5 -150.5q76 97 187 150.5t243 53.5q113 0 202.5 -49.5t141 -145.5t47.5 -224q0 -54 -22 -144h-740v-28q0 -140 78 -225t197 -85q94 0 163 41.5t97 112.5h192q-43 -145 -165 -231t-308 -86 q-126 0 -222.5 52.5t-152.5 149.5q-77 -98 -189 -150t-237 -52q-195 0 -320.5 120.5t-125.5 323.5zM322 430q0 -122 72 -204.5t196 -82.5q63 0 123 29.5t109.5 84.5t79.5 143t30 194q0 123 -72 205t-194 82q-64 0 -125 -30.5t-110 -86t-79 -143t-30 -191.5zM1149 635h547 q2 16 2 27q6 105 -59 163t-166 58q-117 0 -202 -66t-122 -182z" />
<glyph unicode="&#x178;" horiz-adv-x="1361" d="M244 1434h227l270 -637l529 637h254l-715 -840l-127 -594h-205l127 594zM559 1577l47 225h215l-47 -225h-215zM958 1577l48 225h215l-47 -225h-216z" />
<glyph unicode="&#x2c6;" horiz-adv-x="716" d="M-41 1157l295 277h143l176 -277h-143l-139 113l-189 -113h-143z" />
<glyph unicode="&#x2dc;" horiz-adv-x="849" d="M-27 1178l7 30q19 93 77 144t146 51q57 0 133 -39l39 -21q4 -2 18.5 -10.5t23.5 -12.5t22.5 -8.5t25.5 -4.5q24 0 42.5 22.5t27.5 63.5h143l-6 -31q-19 -93 -73.5 -144t-135.5 -51q-55 0 -123 35l-51 27q-64 35 -90 35q-63 0 -82 -86h-144z" />
<glyph unicode="&#x2000;" horiz-adv-x="957" />
<glyph unicode="&#x2001;" horiz-adv-x="1915" />
<glyph unicode="&#x2002;" horiz-adv-x="957" />
<glyph unicode="&#x2003;" horiz-adv-x="1915" />
<glyph unicode="&#x2004;" horiz-adv-x="638" />
<glyph unicode="&#x2005;" horiz-adv-x="478" />
<glyph unicode="&#x2006;" horiz-adv-x="319" />
<glyph unicode="&#x2007;" horiz-adv-x="319" />
<glyph unicode="&#x2008;" horiz-adv-x="239" />
<glyph unicode="&#x2009;" horiz-adv-x="383" />
<glyph unicode="&#x200a;" horiz-adv-x="106" />
<glyph unicode="&#x2010;" horiz-adv-x="819" d="M143 532l37 175h553l-37 -175h-553z" />
<glyph unicode="&#x2011;" horiz-adv-x="819" d="M143 532l37 175h553l-37 -175h-553z" />
<glyph unicode="&#x2012;" horiz-adv-x="819" d="M143 532l37 175h553l-37 -175h-553z" />
<glyph unicode="&#x2013;" horiz-adv-x="1177" d="M164 532l37 175h921l-37 -175h-921z" />
<glyph unicode="&#x2014;" horiz-adv-x="1832" d="M164 532l37 175h1577l-37 -175h-1577z" />
<glyph unicode="&#x2018;" horiz-adv-x="520" d="M229 901l58 266q28 129 110 198t211 69h56l-29 -134h-45q-154 0 -178 -122l-9 -31h136l-54 -246h-256z" />
<glyph unicode="&#x2019;" horiz-adv-x="509" d="M160 901l28 133h45q155 0 179 123l8 31h-135l53 246h256l-57 -267q-28 -128 -110 -197t-212 -69h-55z" />
<glyph unicode="&#x201a;" horiz-adv-x="477" d="M-94 -287l28 133h46q154 0 178 123l8 31h-135l53 246h256l-57 -266q-28 -129 -110.5 -198t-211.5 -69h-55z" />
<glyph unicode="&#x201c;" horiz-adv-x="940" d="M229 901l58 266q28 129 110 198t211 69h56l-29 -134h-45q-154 0 -178 -122l-9 -31h136l-54 -246h-256zM649 901l58 266q28 129 110 198t211 69h55l-28 -134h-45q-155 0 -179 -122l-8 -31h135l-53 -246h-256z" />
<glyph unicode="&#x201d;" horiz-adv-x="858" d="M160 901l28 133h45q155 0 179 123l8 31h-135l53 246h256l-57 -267q-28 -128 -110 -197t-212 -69h-55zM580 901l28 133h45q154 0 178 123l9 31h-135l53 246h256l-58 -267q-28 -129 -110 -197.5t-211 -68.5h-55z" />
<glyph unicode="&#x201e;" horiz-adv-x="897" d="M-94 -287l28 133h46q154 0 178 123l8 31h-135l53 246h256l-57 -266q-28 -129 -110.5 -198t-211.5 -69h-55zM326 -287l28 133h45q155 0 179 123l8 31h-135l53 246h256l-58 -266q-28 -129 -110 -198t-211 -69h-55z" />
<glyph unicode="&#x2022;" horiz-adv-x="1071" d="M219 707q0 154 112.5 266t266.5 112q160 0 269.5 -111.5t109.5 -266.5t-109.5 -267t-269.5 -112q-154 0 -266.5 112.5t-112.5 266.5z" />
<glyph unicode="&#x2026;" horiz-adv-x="1589" d="M94 0l53 246h246l-53 -246h-246zM616 0l54 246h245l-53 -246h-246zM1139 0l53 246h235l-53 -246h-235z" />
<glyph unicode="&#x202f;" horiz-adv-x="383" />
<glyph unicode="&#x2039;" horiz-adv-x="696" d="M115 584l389 440h256l-412 -463l195 -418h-226z" />
<glyph unicode="&#x203a;" horiz-adv-x="704" d="M10 143l412 463l-195 418h226l202 -440l-389 -441h-256z" />
<glyph unicode="&#x205f;" horiz-adv-x="478" />
<glyph unicode="&#x20ac;" horiz-adv-x="1566" d="M102 338l41 182l172 37q0 62 11 148l-154 -33l41 186l152 33q78 257 255.5 410t395.5 153q206 0 322.5 -129.5t91.5 -318.5h-197q17 114 -47.5 194t-177.5 80h-21q-129 0 -236.5 -93t-170.5 -251l430 92l-37 -182l-447 -96q-11 -62 -14 -150l342 76l-41 -184l-287 -62 q25 -130 96 -203t173 -73h20q106 0 187 72t122 202h201q-23 -96 -65.5 -174.5t-107.5 -141t-159 -97.5t-209 -35q-169 0 -293 107t-161 300z" />
<glyph unicode="&#x2122;" horiz-adv-x="2060" d="M299 1270v164h707v-164h-267v-615h-174v615h-266zM1159 655v779h246l184 -584l174 584h246v-779h-164v553l-164 -553h-184l-174 564v-564h-164z" />
<glyph unicode="&#x25fc;" horiz-adv-x="1024" d="M0 0v1024h1024v-1024h-1024z" />
</font>
</defs>
</svg>
