<?xml version="1.0" standalone="no"?>
<!DOCTYPE svg PUBLIC "-//W3C//DTD SVG 1.1//EN" "http://www.w3.org/Graphics/SVG/1.1/DTD/svg11.dtd" >
<svg xmlns="http://www.w3.org/2000/svg">
<metadata></metadata>
<defs>
<font id="favoritheavy" horiz-adv-x="1460" >
<font-face units-per-em="2048" ascent="1638" descent="-410" />
<missing-glyph horiz-adv-x="479" />
<glyph unicode="&#xfb01;" horiz-adv-x="1341" d="M43 809v215h209v143q0 131 68 199t198 68h293v-222h-180q-69 0 -91 -21.5t-22 -90.5v-76h686v-1024h-266v809h-420v-809h-266v809h-209zM928 1157v277h286v-277h-286z" />
<glyph unicode="&#xfb02;" horiz-adv-x="1341" d="M43 809v215h209v143q0 131 68 199t198 68h686v-1434h-266v1212h-307q-69 0 -91 -21.5t-22 -90.5v-76h242v-215h-242v-809h-266v809h-209z" />
<glyph unicode="&#xfb03;" horiz-adv-x="2027" d="M43 809v215h209v143q0 131 68 199t198 68h293v-222h-180q-69 0 -91 -21.5t-22 -90.5v-76h420v143q0 131 68 199t198 68h293v-222h-180q-69 0 -91 -21.5t-22 -90.5v-76h686v-1024h-266v809h-420v-809h-266v809h-420v-809h-266v809h-209zM1614 1157v277h287v-277h-287z" />
<glyph unicode="&#xfb04;" horiz-adv-x="2027" d="M43 809v215h209v143q0 131 68 199t198 68h293v-222h-180q-69 0 -91 -21.5t-22 -90.5v-76h420v143q0 131 68 199t198 68h686v-1434h-266v1212h-307q-69 0 -91 -21.5t-22 -90.5v-76h242v-215h-242v-809h-266v809h-420v-809h-266v809h-209z" />
<glyph horiz-adv-x="0" />
<glyph horiz-adv-x="682" />
<glyph unicode=" "  horiz-adv-x="479" />
<glyph unicode="&#x09;" horiz-adv-x="479" />
<glyph unicode="&#xa0;" horiz-adv-x="479" />
<glyph unicode="!" horiz-adv-x="567" d="M147 942v492h273v-492l-64 -584h-145zM150 0v266h266v-266h-266z" />
<glyph unicode="&#x22;" horiz-adv-x="796" d="M106 1219v215h236v-215l-66 -277h-104zM455 1219v215h235v-215l-65 -277h-105z" />
<glyph unicode="#" horiz-adv-x="1454" d="M82 328v235h256l65 307h-233v236h285l69 328h246l-70 -328h226l69 328h246l-70 -328h203v-236h-254l-65 -307h231v-235h-282l-70 -328h-246l70 328h-226l-69 -328h-246l70 328h-205zM584 563h225l65 307h-225z" />
<glyph unicode="$" horiz-adv-x="1296" d="M68 481h270q10 -152 133 -221l57 352l-26 6q-363 76 -363 406q0 82 34 158t98 137.5t166.5 98t228.5 36.5h6l37 225h235l-43 -262q148 -52 229.5 -166.5t81.5 -267.5h-270q-9 117 -86 178l-55 -334q192 -39 290.5 -138.5t98.5 -268.5q0 -192 -140.5 -316t-392.5 -124 l-36 -226h-236l43 254q-173 48 -263.5 171.5t-96.5 301.5zM410 1034q0 -71 38.5 -107.5t124.5 -54.5l58 347q-100 -7 -160.5 -60.5t-60.5 -124.5zM698 215q104 4 163 56.5t59 127.5q0 68 -35.5 107.5t-126.5 58.5z" />
<glyph unicode="%" horiz-adv-x="1929" d="M66 1028q0 64 12.5 123.5t40.5 113t68.5 93t101 63t133.5 23.5t133.5 -23.5t101 -63t68.5 -93t40.5 -113t12.5 -123.5q0 -81 -21 -153t-62 -131.5t-111.5 -94.5t-161.5 -35t-161.5 35t-111.5 94.5t-62 131.5t-21 153zM287 1028q0 -108 33.5 -166.5t97.5 -58.5h8 q64 0 97.5 58.5t33.5 166.5t-33.5 167.5t-97.5 59.5h-8q-64 0 -97.5 -59.5t-33.5 -167.5zM410 0l860 1434h239l-860 -1434h-239zM1149 403q0 64 12.5 123.5t40.5 113t68.5 93t101 63t133.5 23.5q91 0 161.5 -35t112 -95t62.5 -132.5t21 -153.5t-21 -153t-62.5 -131.5 t-112 -94t-161.5 -34.5q-73 0 -133.5 23t-101 62t-68.5 92.5t-40.5 112.5t-12.5 123zM1370 403q0 -108 33.5 -166.5t97.5 -58.5h8q64 0 97.5 58.5t33.5 166.5t-33.5 168t-97.5 60h-8q-64 0 -97.5 -60t-33.5 -168z" />
<glyph unicode="&#x26;" horiz-adv-x="1361" d="M94 379q0 127 74 218t199 130q-118 43 -190.5 128.5t-72.5 209.5q0 114 58 199.5t152 127.5t208 42h309v-215h-227q-106 0 -169.5 -46t-63.5 -141q0 -96 64.5 -146t168.5 -50h230v247h266v-247h215v-215h-215v-621h-574q-114 0 -211.5 44.5t-159 132.5t-61.5 202z M360 422q0 -102 68.5 -154.5t175.5 -52.5h230v406h-230q-108 0 -176 -49t-68 -150z" />
<glyph unicode="'" horiz-adv-x="448" d="M106 1219v215h236v-215l-66 -277h-104z" />
<glyph unicode="(" horiz-adv-x="839" d="M88 717q0 202 41 372t109.5 286.5t159 198t188 119.5t198.5 38v-226q-57 -8 -112 -35t-114 -86.5t-103 -144t-72.5 -220t-28.5 -302.5t28.5 -302.5t72.5 -220.5t103 -144.5t114 -86.5t112 -35v-225q-101 0 -198.5 38t-188 119.5t-159 198t-109.5 286.5t-41 372z" />
<glyph unicode=")" horiz-adv-x="839" d="M55 -72q57 8 112 35t114 86.5t103 144.5t72.5 220.5t28.5 302.5t-28.5 302.5t-72.5 220t-103 144t-114 86.5t-112 35v226q101 0 198.5 -38t188.5 -119.5t159.5 -198t109.5 -286.5t41 -372t-41 -372t-109.5 -286.5t-159.5 -198t-188.5 -119.5t-198.5 -38v225z" />
<glyph unicode="*" horiz-adv-x="915" d="M92 1102v188h195l-109 178l172 95l109 -179l106 179l172 -95l-108 -178h194v-188h-194l108 -178l-172 -95l-106 179l-109 -179l-172 95l109 178h-195z" />
<glyph unicode="+" horiz-adv-x="1173" d="M82 410v235h369v379h272v-379h369v-235h-369v-379h-272v379h-369z" />
<glyph unicode="," horiz-adv-x="557" d="M63 -154h74q65 0 96 37.5t31 96.5v20h-133v297h297v-328q0 -110 -80.5 -193t-200.5 -83h-84v153z" />
<glyph unicode="-" horiz-adv-x="847" d="M127 512v215h594v-215h-594z" />
<glyph unicode="." horiz-adv-x="550" d="M127 0v297h297v-297h-297z" />
<glyph unicode="/" horiz-adv-x="946" d="M57 0l553 1434h277l-543 -1434h-287z" />
<glyph unicode="0" horiz-adv-x="1372" d="M102 717q0 220 68.5 386t201 258.5t314.5 92.5t314.5 -92.5t201 -258.5t68.5 -386q0 -221 -66 -386t-199 -258t-319 -93t-319 93t-199 258t-66 386zM375 717q0 -112 16 -200.5t50.5 -157.5t94.5 -106.5t142 -37.5h16q82 0 142 37.5t94.5 106.5t50.5 157.5t16 200.5 t-16 200.5t-50.5 157.5t-94.5 106.5t-142 37.5h-16q-82 0 -142 -37.5t-94.5 -106.5t-50.5 -157.5t-16 -200.5z" />
<glyph unicode="1" horiz-adv-x="821" d="M70 743v338l362 353h215v-1434h-260v1049z" />
<glyph unicode="2" horiz-adv-x="1208" d="M98 0v248l488 459q135 127 182 192.5t47 138.5q0 78 -53 129.5t-137 51.5h-21q-94 0 -155 -63t-64 -171h-272q0 216 139.5 342.5t359.5 126.5q213 0 344 -113t131 -292q0 -132 -61.5 -233t-210.5 -238l-373 -342h666v-236h-1010z" />
<glyph unicode="3" horiz-adv-x="1224" d="M88 395h272q8 -81 67 -130.5t159 -49.5h20q114 0 173 58.5t59 136.5q0 90 -69 139t-185 49h-97v236h86q117 0 186.5 54t69.5 146q0 77 -61 131t-152 54h-20q-82 0 -142 -50t-67 -135h-272q0 184 139.5 302t351.5 118q223 0 359.5 -116t136.5 -283q0 -122 -68.5 -211.5 t-183.5 -120.5q116 -31 189 -122t73 -212q0 -194 -143 -301.5t-373 -107.5q-228 0 -368 112t-140 303z" />
<glyph unicode="4" horiz-adv-x="1294" d="M59 291v268l684 875h269v-908h215v-235h-215v-291h-260v291h-693zM326 526h426v543z" />
<glyph unicode="5" horiz-adv-x="1216" d="M61 399h273q20 -86 88 -135t168 -49h12q103 0 169.5 61t66.5 166q0 104 -66 162t-170 58h-12q-60 0 -122 -24.5t-108 -74.5h-249l176 871h809v-236h-602l-82 -391q41 40 110.5 65t139.5 25q199 0 323.5 -124t124.5 -320q0 -212 -140 -342.5t-376 -130.5 q-220 0 -364.5 116t-168.5 303z" />
<glyph unicode="6" horiz-adv-x="1292" d="M102 670q0 174 50 322t137 248.5t204.5 157t251.5 56.5q183 0 309.5 -105.5t149.5 -283.5h-272q-8 67 -58.5 110.5t-140.5 43.5h-16q-62 0 -120 -25.5t-111 -78t-90.5 -147t-49.5 -220.5q47 89 145.5 141.5t219.5 52.5q126 0 230.5 -56t168.5 -165t64 -250 q0 -98 -35 -186.5t-99.5 -156.5t-165 -108t-223.5 -40q-261 0 -405 180t-144 510zM391 461q0 -107 70.5 -176.5t183.5 -69.5h17q104 0 171.5 71t67.5 175t-67.5 175t-171.5 71h-17q-109 0 -181.5 -69.5t-72.5 -176.5z" />
<glyph unicode="7" horiz-adv-x="1142" d="M51 1188v246h1034v-226q-116 -75 -205.5 -169t-161.5 -223t-110.5 -302t-38.5 -381v-133h-284v133q0 708 479 1055h-713z" />
<glyph unicode="8" horiz-adv-x="1204" d="M104 1065q0 74 32.5 143t93 124.5t157 88.5t215.5 33t215.5 -33t157 -88.5t93 -124.5t32.5 -143q0 -138 -77 -233.5t-194 -137.5q110 -38 176 -119.5t66 -205.5q0 -78 -30.5 -147.5t-88 -123.5t-148 -86t-202.5 -32t-202.5 32t-148 86t-88 123.5t-30.5 147.5 q0 124 66 205.5t176 119.5q-117 42 -194 137.5t-77 233.5zM377 1020q0 -86 63 -143.5t152 -57.5h20q89 0 152 57.5t63 143.5t-63 142.5t-152 56.5h-20q-89 0 -152 -56.5t-63 -142.5zM406 399q0 -83 53.5 -133.5t132.5 -50.5h20q79 0 133 50.5t54 133.5t-54.5 135t-132.5 52 h-20q-78 0 -132 -52t-54 -135z" />
<glyph unicode="9" horiz-adv-x="1292" d="M88 369h272q8 -67 58.5 -110.5t140.5 -43.5h16q62 0 120 25.5t111 78t90.5 147t49.5 220.5q-47 -89 -145 -141.5t-219 -52.5q-126 0 -230.5 56t-168.5 165t-64 250q0 98 34.5 186.5t99 156.5t165 108t223.5 40q261 0 405 -180t144 -510q0 -174 -50 -322t-137 -248.5 t-204.5 -157t-251.5 -56.5q-183 0 -309.5 105.5t-149.5 283.5zM391 973q0 -104 68 -175t172 -71h16q109 0 181.5 69.5t72.5 176.5t-70.5 176.5t-183.5 69.5h-16q-104 0 -172 -71t-68 -175z" />
<glyph unicode=":" horiz-adv-x="555" d="M129 0v297h297v-297h-297zM129 727v297h297v-297h-297z" />
<glyph unicode=";" horiz-adv-x="593" d="M88 -154h74q65 0 96 37.5t31 96.5v20h-133v297h297v-328q0 -110 -80.5 -193t-200.5 -83h-84v153zM154 727v297h297v-297h-297z" />
<glyph unicode="&#x3c;" horiz-adv-x="1081" d="M82 401v246l870 348v-262l-534 -201l534 -202v-277z" />
<glyph unicode="=" horiz-adv-x="1286" d="M137 205v235h1012v-235h-1012zM137 614v236h1012v-236h-1012z" />
<glyph unicode="&#x3e;" horiz-adv-x="1081" d="M129 53v260l541 205l-541 203v274l870 -348v-246z" />
<glyph unicode="?" horiz-adv-x="1005" d="M70 1198v236h446q187 0 305.5 -109t118.5 -291q0 -160 -101 -269.5t-272 -109.5q-31 0 -42 -10.5t-11 -40.5v-213h-252v316q0 77 43 120t119 43h55q191 0 191 164q0 76 -52.5 120t-138.5 44h-409zM254 0v266h266v-266h-266z" />
<glyph unicode="@" horiz-adv-x="1933" d="M92 625q0 159 49.5 298.5t135.5 243t199.5 178t246 112.5t270.5 38q228 0 420.5 -99t306 -273.5t113.5 -385.5q0 -107 -24 -197.5t-65.5 -153t-96.5 -106.5t-116.5 -64.5t-127.5 -20.5h-262v112q-36 -62 -100.5 -97.5t-147.5 -35.5q-104 0 -188 60.5t-129.5 160 t-45.5 215.5t45.5 215t129.5 159t188 60q83 0 147.5 -35.5t100.5 -97.5v113h235v-645q41 0 76.5 18t67 57t49.5 111.5t18 171.5q0 236 -164.5 389.5t-429.5 153.5q-180 0 -328 -79.5t-237.5 -230.5t-89.5 -345q0 -206 87 -355.5t238.5 -225t350.5 -75.5h522v-225h-543 q-195 0 -358 55t-285 162t-190 276.5t-68 387.5zM793 610q0 -105 45.5 -169t117.5 -64h11q77 0 120 69.5t43 163.5q0 58 -17.5 109.5t-55.5 87t-90 35.5h-11q-72 0 -117.5 -65t-45.5 -167z" />
<glyph unicode="A" d="M4 0l567 1434h324l553 -1434h-293l-129 338h-602l-129 -338h-291zM518 584h414l-207 542z" />
<glyph unicode="B" horiz-adv-x="1366" d="M168 0v1434h635q201 0 320.5 -106t119.5 -265q0 -127 -67 -215.5t-175 -120.5q119 -25 196 -115.5t77 -230.5q0 -163 -127 -272t-324 -109h-655zM444 246h338q102 0 158.5 46t56.5 136t-56.5 135t-158.5 45h-338v-362zM444 846h318q100 0 152.5 44t52.5 128 q0 170 -205 170h-318v-342z" />
<glyph unicode="C" horiz-adv-x="1456" d="M90 717q0 221 79 386t235 258t372 93q138 0 250.5 -38.5t186 -106t115.5 -155.5t50 -191h-276q-25 118 -106 181.5t-210 63.5h-20q-179 0 -289 -132t-110 -359t110 -359.5t289 -132.5h20q130 0 210.5 63t105.5 183h276q-8 -107 -50 -195.5t-116 -155t-185.5 -103.5 t-250.5 -37q-216 0 -372 93t-235 258t-79 386z" />
<glyph unicode="D" horiz-adv-x="1476" d="M168 0v1434h491q217 0 379.5 -80t255 -243t92.5 -394q0 -346 -193 -531.5t-523 -185.5h-502zM444 246h195q108 0 191 24t147.5 77t98.5 146t34 224t-34 224t-98.5 146t-147.5 77t-191 24h-195v-942z" />
<glyph unicode="E" horiz-adv-x="1353" d="M168 0v1434h1085v-246h-809v-330h686v-246h-686v-366h830v-246h-1106z" />
<glyph unicode="F" horiz-adv-x="1261" d="M168 0v1434h1044v-246h-768v-369h666v-246h-666v-573h-276z" />
<glyph unicode="G" horiz-adv-x="1525" d="M86 717q0 157 50.5 292.5t141 233.5t224 154.5t291.5 56.5q271 0 435 -142t179 -370h-277q-16 122 -98 194t-229 72h-21q-197 0 -308.5 -133t-111.5 -358t111.5 -358.5t308.5 -133.5h21q139 0 244.5 74t138.5 203h-393v246h450q85 0 129.5 -45t44.5 -130v-573h-235v139 q-148 -159 -389 -159q-158 0 -291.5 56.5t-224 154.5t-141 233.5t-50.5 292.5z" />
<glyph unicode="H" horiz-adv-x="1513" d="M168 0v1434h276v-594h625v594h277v-1434h-277v594h-625v-594h-276z" />
<glyph unicode="I" horiz-adv-x="612" d="M168 0v1434h276v-1434h-276z" />
<glyph unicode="J" horiz-adv-x="878" d="M57 0v266h262q69 0 96 27t27 96v1045h277v-1147q0 -131 -78.5 -209t-208.5 -78h-375z" />
<glyph unicode="K" horiz-adv-x="1404" d="M168 0v1434h276v-643l609 643h342l-564 -594l576 -840h-342l-432 631l-189 -199v-432h-276z" />
<glyph unicode="L" horiz-adv-x="1290" d="M168 0v1434h276v-1188h809v-246h-1085z" />
<glyph unicode="M" horiz-adv-x="1902" d="M168 0v1434h430l360 -1127l349 1127h428v-1434h-271v1130l-356 -1130h-303l-367 1133v-1133h-270z" />
<glyph unicode="N" horiz-adv-x="1533" d="M168 0v1434h358l564 -1051v1051h276v-1434h-358l-564 1055v-1055h-276z" />
<glyph unicode="O" horiz-adv-x="1568" d="M88 717q0 170 51 309t143 232.5t220.5 144.5t281.5 51t281.5 -51t220.5 -144.5t143.5 -232.5t51.5 -309t-51.5 -309t-143.5 -232.5t-220.5 -144.5t-281.5 -51t-281.5 51t-220.5 144.5t-143 232.5t-51 309zM365 717q0 -230 108.5 -361t300.5 -131h21q192 0 300.5 131 t108.5 361t-108.5 360.5t-300.5 130.5h-21q-192 0 -300.5 -130.5t-108.5 -360.5z" />
<glyph unicode="P" horiz-adv-x="1335" d="M168 0v1434h645q210 0 335.5 -119.5t125.5 -331.5t-125.5 -332.5t-335.5 -120.5h-369v-530h-276zM444 776h338q105 0 160 56t55 151t-55 150t-160 55h-338v-412z" />
<glyph unicode="Q" horiz-adv-x="1568" d="M88 717q0 170 51 309t143 232.5t220.5 144.5t281.5 51t281.5 -51t220.5 -144.5t143.5 -232.5t51.5 -309q0 -301 -152.5 -493t-408.5 -234v-62q0 -69 21.5 -90.5t90.5 -21.5h273v-226h-383q-130 0 -198.5 68t-68.5 199v133q-259 39 -413 231t-154 496zM365 717 q0 -230 108.5 -361t300.5 -131h21q192 0 300.5 131t108.5 361t-108.5 360.5t-300.5 130.5h-21q-192 0 -300.5 -130.5t-108.5 -360.5z" />
<glyph unicode="R" horiz-adv-x="1396" d="M168 0v1434h666q186 0 313 -111t127 -279q0 -271 -244 -362q223 0 223 -203v-479h-276v410q0 76 -28.5 104.5t-104.5 28.5h-400v-543h-276zM444 784h308q122 0 183.5 53t61.5 154q0 197 -245 197h-308v-404z" />
<glyph unicode="S" horiz-adv-x="1298" d="M59 481h277q8 -114 91 -185t237 -71h20q110 0 172 50.5t62 123.5q0 65 -35 102t-127 56l-256 53q-369 76 -369 414q0 82 36 158t102.5 137t172 98t232.5 37q255 0 399 -131t144 -340h-277q-7 109 -79.5 167t-186.5 58h-21q-111 0 -178 -51t-67 -123q0 -70 40.5 -106.5 t133.5 -55.5l215 -43q397 -79 397 -409q0 -191 -146.5 -315.5t-404.5 -124.5q-285 0 -430.5 134.5t-153.5 366.5z" />
<glyph unicode="T" horiz-adv-x="1343" d="M37 1188v246h1270v-246h-498v-1188h-277v1188h-495z" />
<glyph unicode="U" horiz-adv-x="1437" d="M156 502v932h276v-891q0 -166 68.5 -242t208.5 -76h20q140 0 208.5 76t68.5 242v891h276v-932q0 -252 -139 -387t-424 -135t-424 135t-139 387z" />
<glyph unicode="V" horiz-adv-x="1466" d="M8 1434h309l424 -1143l408 1143h303l-537 -1434h-358z" />
<glyph unicode="W" horiz-adv-x="1945" d="M41 1434h285l256 -1137l225 1137h338l225 -1137l248 1137h287l-355 -1434h-358l-219 1044l-221 -1044h-359z" />
<glyph unicode="X" horiz-adv-x="1314" d="M2 0l496 735l-465 699h325l304 -463l309 463h311l-465 -689l496 -745h-326l-334 508l-340 -508h-311z" />
<glyph unicode="Y" horiz-adv-x="1357" d="M8 1434h314l366 -603l361 603h303l-535 -861v-573h-276v573z" />
<glyph unicode="Z" horiz-adv-x="1300" d="M82 0v236l795 952h-775v246h1096v-236l-795 -952h816v-246h-1137z" />
<glyph unicode="[" horiz-adv-x="718" d="M162 -297v2028h491v-215h-225v-1598h225v-215h-491z" />
<glyph unicode="\" horiz-adv-x="946" d="M59 1434h277l553 -1434h-287z" />
<glyph unicode="]" horiz-adv-x="718" d="M66 -82h225v1598h-225v215h491v-2028h-491v215z" />
<glyph unicode="^" horiz-adv-x="1105" d="M68 584l358 850h254l358 -850h-284l-203 503l-203 -503h-280z" />
<glyph unicode="_" horiz-adv-x="1085" d="M61 0h963v-215h-963v215z" />
<glyph unicode="`" horiz-adv-x="399" d="M20 1434h308l51 -308h-154z" />
<glyph unicode="a" horiz-adv-x="1093" d="M74 281q0 156 105 240t270 97l258 23v25q0 70 -45.5 116.5t-120.5 46.5h-13q-72 0 -117.5 -37t-50.5 -85h-266q15 148 134 242.5t307 94.5q197 0 313.5 -96t116.5 -272v-451q0 -153 10 -225h-250q-9 44 -12 125q-47 -67 -126 -106t-177 -39q-142 0 -239 83t-97 218z M336 299q0 -47 36.5 -75.5t92.5 -28.5h10q95 0 163.5 63t68.5 160v28l-222 -22q-60 -5 -104.5 -36t-44.5 -89z" />
<glyph unicode="b" horiz-adv-x="1230" d="M137 0v1434h266v-543q34 60 114.5 106.5t180.5 46.5q108 0 196 -44t143.5 -118.5t85.5 -169.5t30 -200t-30 -200t-85.5 -169.5t-143.5 -118.5t-196 -44q-100 0 -180.5 46.5t-114.5 106.5v-133h-266zM403 512q0 -141 69 -229t165 -88h16q102 0 168 87.5t66 231.5 q0 143 -66 229t-168 86h-16q-96 0 -165 -88t-69 -229z" />
<glyph unicode="c" horiz-adv-x="1103" d="M80 512q0 241 139.5 386.5t351.5 145.5q204 0 325 -95t136 -283h-266q-26 163 -188 163h-13q-74 0 -124.5 -44t-72.5 -113.5t-22 -159.5t22 -159.5t72.5 -113.5t124.5 -44h13q162 0 188 163h266q-15 -188 -136 -283t-325 -95q-212 0 -351.5 145.5t-139.5 386.5z" />
<glyph unicode="d" horiz-adv-x="1230" d="M78 512q0 105 30 200t85.5 169.5t143 118.5t195.5 44q100 0 180.5 -46.5t114.5 -106.5v543h267v-1434h-267v133q-34 -60 -114.5 -106.5t-180.5 -46.5q-108 0 -195.5 44t-143 118.5t-85.5 169.5t-30 200zM344 514q0 -144 66 -231.5t168 -87.5h16q96 0 164.5 87.5 t68.5 229.5t-68.5 229.5t-164.5 87.5h-16q-102 0 -168 -86t-66 -229z" />
<glyph unicode="e" horiz-adv-x="1107" d="M80 512q0 235 130.5 383.5t356.5 148.5q223 0 345 -144.5t122 -375.5q0 -30 -4 -96h-692q7 -102 76 -167.5t157 -65.5h13q73 0 120.5 36.5t61.5 92.5h264q-38 -157 -157.5 -250.5t-305.5 -93.5q-97 0 -184.5 36t-155 102.5t-107.5 168.5t-40 225zM338 633h438 q-4 90 -65 143t-148 53h-12q-87 0 -148 -53t-65 -143z" />
<glyph unicode="f" horiz-adv-x="811" d="M43 809v215h209v143q0 131 68 199t198 68h293v-222h-180q-69 0 -91 -21.5t-22 -90.5v-76h242v-215h-242v-809h-266v809h-209z" />
<glyph unicode="g" horiz-adv-x="1214" d="M63 -113h267q9 -54 68.5 -87t160.5 -33h12q105 0 172.5 62.5t67.5 180.5v133q-43 -73 -120.5 -108t-168.5 -35q-89 0 -168.5 34.5t-141 99t-97 165t-35.5 223.5t35.5 223.5t97 165t141 99t168.5 34.5q91 0 168.5 -35t120.5 -108v123h266v-1047q0 -82 -34 -157.5 t-97.5 -136t-167 -96.5t-231.5 -36q-135 0 -243.5 42t-172 119t-68.5 175zM346 522q0 -142 64.5 -224.5t164.5 -82.5h17q95 0 157 82.5t62 224.5t-62 224.5t-157 82.5h-17q-100 0 -164.5 -82.5t-64.5 -224.5z" />
<glyph unicode="h" horiz-adv-x="1196" d="M137 0v1434h266v-560q46 78 129 124t181 46q177 0 266.5 -106t89.5 -283v-655h-266v625q0 99 -42.5 151.5t-119.5 52.5h-16q-92 0 -157 -76.5t-65 -183.5v-569h-266z" />
<glyph unicode="i" horiz-adv-x="540" d="M127 1157v277h287v-277h-287zM137 0v1024h266v-1024h-266z" />
<glyph unicode="j" horiz-adv-x="557" d="M-168 -184h209q62 0 87.5 25.5t25.5 86.5v1096h266v-1178q0 -123 -66.5 -189.5t-189.5 -66.5h-332v226zM141 1157v277h287v-277h-287z" />
<glyph unicode="k" horiz-adv-x="1128" d="M137 0v1434h266v-791l371 381h326l-393 -408l413 -616h-313l-285 426l-119 -121v-305h-266z" />
<glyph unicode="l" horiz-adv-x="540" d="M137 0v1434h266v-1434h-266z" />
<glyph unicode="m" horiz-adv-x="1851" d="M137 0v1024h266v-145q51 84 132.5 124.5t173.5 40.5q109 0 190 -44.5t123 -131.5q56 89 145.5 132.5t192.5 43.5q97 0 168.5 -30t113.5 -85.5t62 -126t20 -157.5v-645h-266v614q0 102 -38.5 153.5t-121.5 51.5h-12q-94 0 -157.5 -71.5t-63.5 -178.5v-569h-266v614 q0 205 -162 205h-12q-94 0 -158 -71.5t-64 -178.5v-569h-266z" />
<glyph unicode="n" horiz-adv-x="1196" d="M137 0v1024h266v-150q46 78 129 124t181 46q177 0 266.5 -106t89.5 -283v-655h-266v625q0 99 -42.5 151.5t-119.5 52.5h-16q-92 0 -157 -76.5t-65 -183.5v-569h-266z" />
<glyph unicode="o" horiz-adv-x="1179" d="M78 512q0 232 142 382t370 150t370 -150t142 -382t-142 -382t-370 -150t-370 150t-142 382zM346 512q0 -149 64 -233t172 -84h16q108 0 172 84t64 233t-64 233t-172 84h-16q-108 0 -172 -84t-64 -233z" />
<glyph unicode="p" horiz-adv-x="1230" d="M137 -410v1434h266v-133q34 60 114.5 106.5t180.5 46.5q108 0 196 -44t143.5 -118.5t85.5 -169.5t30 -200t-30 -200t-85.5 -169.5t-143.5 -118.5t-196 -44q-100 0 -180.5 46.5t-114.5 106.5v-543h-266zM403 512q0 -141 69 -229t165 -88h16q102 0 168 86t66 229 q0 144 -66 231.5t-168 87.5h-16q-96 0 -165 -88t-69 -229z" />
<glyph unicode="q" horiz-adv-x="1232" d="M80 512q0 105 30 200t85.5 169.5t143.5 118.5t196 44q100 0 180 -46.5t114 -106.5v133h267v-1434h-267v543q-34 -60 -114 -106.5t-180 -46.5q-108 0 -196 44t-143.5 118.5t-85.5 169.5t-30 200zM346 510q0 -143 66 -229t168 -86h16q96 0 164.5 87.5t68.5 229.5 t-68.5 229.5t-164.5 87.5h-16q-102 0 -168 -87.5t-66 -231.5z" />
<glyph unicode="r" horiz-adv-x="792" d="M137 0v1024h266v-205q31 102 107.5 158.5t189.5 56.5h52v-246h-93q-131 0 -193.5 -63t-62.5 -193v-532h-266z" />
<glyph unicode="s" horiz-adv-x="1017" d="M66 338h272q0 -69 47.5 -111.5t124.5 -42.5h16q62 0 99 27.5t37 73.5q0 40 -25 64.5t-80 37.5l-133 33q-164 40 -241 113t-77 196q0 140 112.5 227.5t301.5 87.5q199 0 308.5 -94.5t109.5 -263.5h-266q-8 74 -47 114t-107 40h-16q-55 0 -92 -28t-37 -73q0 -40 32.5 -64 t98.5 -40l137 -35q148 -37 217.5 -110.5t69.5 -194.5q0 -137 -110.5 -226t-309.5 -89q-207 0 -324.5 95t-117.5 263z" />
<glyph unicode="t" horiz-adv-x="833" d="M35 809v215h211v332h266v-332h229v-215h-229v-471q0 -69 22 -91t91 -22h147v-225h-260q-130 0 -198 68t-68 198v543h-211z" />
<glyph unicode="u" horiz-adv-x="1177" d="M129 369v655h266v-625q0 -99 39.5 -151.5t112.5 -52.5h16q88 0 149.5 76.5t61.5 183.5v569h266v-1024h-266v150q-47 -78 -125.5 -124t-173.5 -46q-173 0 -259.5 106t-86.5 283z" />
<glyph unicode="v" horiz-adv-x="1144" d="M25 1024h282l271 -827l268 827h274l-354 -1024h-387z" />
<glyph unicode="w" horiz-adv-x="1619" d="M29 1024h268l205 -760l166 760h284l178 -754l195 754h258l-293 -1024h-299l-180 717l-170 -717h-299z" />
<glyph unicode="x" horiz-adv-x="1075" d="M20 0l371 516l-360 508h297l213 -299l215 299h288l-360 -502l371 -522h-297l-223 313l-226 -313h-289z" />
<glyph unicode="y" horiz-adv-x="1171" d="M27 1024h299l276 -623l266 623h295l-436 -936v-235q0 -131 -68 -199t-198 -68h-373v230h272q69 0 91 21.5t22 90.5v150z" />
<glyph unicode="z" horiz-adv-x="1042" d="M80 0v205l528 583h-518v236h850v-205l-528 -583h559v-236h-891z" />
<glyph unicode="{" horiz-adv-x="747" d="M74 573v287h51q61 0 81.5 27.5t20.5 105.5v420q0 318 277 318h176v-215h-64q-74 0 -98 -33t-24 -121v-436q0 -95 -45 -141t-119 -46v-45q74 0 119 -45.5t45 -140.5v-436q0 -88 24 -121t98 -33h64v-215h-176q-277 0 -277 317v420q0 78 -20.5 105.5t-81.5 27.5h-51z" />
<glyph unicode="|" horiz-adv-x="595" d="M162 -174v1782h272v-1782h-272z" />
<glyph unicode="}" horiz-adv-x="747" d="M68 -82h63q74 0 98.5 33t24.5 121v436q0 95 45 140.5t119 45.5v45q-74 0 -119 46t-45 141v436q0 88 -24.5 121t-98.5 33h-63v215h176q276 0 276 -318v-420q0 -77 21 -105t82 -28h51v-287h-51q-61 0 -82 -28t-21 -105v-420q0 -317 -276 -317h-176v215z" />
<glyph unicode="~" horiz-adv-x="1030" d="M139 717v53q0 96 67 165t163 69q35 0 66 -7t45 -13.5t42 -20.5l37 -21q6 -3 30 -16.5t39.5 -19t30.5 -5.5q31 0 46.5 22.5t15.5 59.5h194v-53q0 -102 -56.5 -168t-168.5 -66q-73 0 -164 49l-37 21q-60 33 -92 33q-31 3 -47 -20.5t-16 -61.5h-195z" />
<glyph unicode="&#xa1;" horiz-adv-x="546" d="M137 82l64 584h145l64 -584v-492h-273v492zM139 758v266h267v-266h-267z" />
<glyph unicode="&#xa2;" horiz-adv-x="1110" d="M82 512q0 224 127 372t350 160l39 226h211l-43 -252q115 -40 185.5 -131.5t82.5 -220.5h-264q-9 58 -47 96l-92 -549q56 9 93 48.5t46 96.5h264q-17 -174 -136 -276t-304 -102h-2l-39 -226h-211l45 262q-146 56 -225.5 188.5t-79.5 307.5zM348 512q0 -151 82 -236l90 527 q-83 -25 -127.5 -106t-44.5 -185z" />
<glyph unicode="&#xa3;" horiz-adv-x="1214" d="M90 0v236h88q65 0 94.5 30t34.5 96l12 179l-229 -56v226l248 59l16 234q15 209 129.5 319.5t325.5 110.5h235v-236h-241q-90 0 -130.5 -44t-49.5 -161l-13 -157l228 53v-225l-244 -58l-16 -203q-5 -59 -24 -97t-67 -70h660v-236h-1057z" />
<glyph unicode="&#xa4;" horiz-adv-x="1517" d="M98 174l178 170q-75 131 -75 281q0 148 69 268l-172 172l185 184l176 -170q137 78 295 78q168 0 301 -82l180 174l184 -184l-180 -180q68 -120 68 -260q0 -147 -72 -275l184 -176l-184 -184l-182 174q-138 -82 -299 -82q-158 0 -293 80l-178 -172zM473 625 q0 -137 75.5 -222.5t196.5 -85.5h17q121 0 196.5 85.5t75.5 222.5q0 132 -75.5 214.5t-196.5 82.5h-17q-121 0 -196.5 -82.5t-75.5 -214.5z" />
<glyph unicode="&#xa5;" horiz-adv-x="1415" d="M55 1434h293l367 -600l360 600h287l-330 -539l150 33v-226l-310 -67l-28 -47v-88l276 61v-225l-276 -62v-274h-273v215l-272 -61v225l272 61v127l-333 -73v225l225 49z" />
<glyph unicode="&#xa6;" horiz-adv-x="591" d="M160 -174v778h272v-778h-272zM160 850v758h272v-758h-272z" />
<glyph unicode="&#xa7;" horiz-adv-x="1107" d="M80 659q2 76 50.5 143.5t135.5 112.5q-108 77 -108 226q0 145 93 220t273 75l385 -2v-215h-368q-55 0 -86 -21t-31 -61q0 -35 20 -57.5t68 -37.5l186 -61q83 -28 137.5 -52.5t102.5 -61t71 -85t23 -112.5q0 -86 -51 -160t-139 -117q119 -93 119 -221q0 -59 -21 -110.5 t-63.5 -93.5t-116 -66.5t-170.5 -24.5h-428v215h420q106 0 106 84q0 33 -21 55.5t-71 40.5l-285 107q-121 45 -176.5 111.5t-54.5 168.5zM352 676q0 -30 18.5 -52t40 -32.5t62.5 -26.5l180 -67q52 19 79.5 58t27.5 75q0 87 -127 125l-178 57q-103 -44 -103 -137z" />
<glyph unicode="&#xa8;" horiz-adv-x="696" d="M20 1157v266h246v-266h-246zM430 1157v266h246v-266h-246z" />
<glyph unicode="&#xa9;" horiz-adv-x="1781" d="M92 719q0 162 63.5 310t171 255t255.5 170.5t309 63.5q162 0 310 -63.5t255 -170.5t170.5 -255t63.5 -310q0 -161 -63.5 -309t-170.5 -255.5t-255 -171t-310 -63.5q-161 0 -309 63.5t-255.5 171t-171 255.5t-63.5 309zM281 719q0 -167 82 -310.5t222.5 -227t305.5 -83.5 t305.5 83.5t222.5 227t82 310.5t-82 310t-222.5 226.5t-305.5 83.5t-305.5 -83.5t-222.5 -226.5t-82 -310zM532 719q0 64 12.5 123.5t41 113t69.5 93t101.5 63t134.5 23.5q171 0 256.5 -86t85.5 -220h-221q-15 117 -117 117h-8q-66 0 -98.5 -53.5t-32.5 -173.5t32.5 -173.5 t98.5 -53.5h8q104 0 119 122h219q0 -65 -20 -120t-60.5 -98.5t-107.5 -68t-154 -24.5q-74 0 -134.5 23.5t-101.5 63t-69.5 93t-41 113t-12.5 123.5z" />
<glyph unicode="&#xaa;" horiz-adv-x="778" d="M96 1018q0 150 221 176l134 16v19q0 31 -17.5 49t-48.5 18h-8q-60 0 -70 -45h-190q5 89 74 141t194 52q118 0 190 -56.5t72 -146.5v-262q0 -74 8 -129h-182q-5 19 -8 74q-66 -84 -178 -84q-83 0 -137 49t-54 129zM293 1036q0 -49 57 -49h8q38 0 67.5 26.5t29.5 73.5v21 l-113 -21q-49 -10 -49 -51z" />
<glyph unicode="&#xab;" horiz-adv-x="1232" d="M66 584l296 440h308l-297 -440l297 -441h-308zM557 584l297 440h307l-297 -440l297 -441h-307z" />
<glyph unicode="&#xac;" horiz-adv-x="1263" d="M131 512v236h987v-512h-272v276h-715z" />
<glyph unicode="&#xad;" horiz-adv-x="847" d="M127 512v215h594v-215h-594z" />
<glyph unicode="&#xae;" horiz-adv-x="1781" d="M92 719q0 162 63.5 310t171 255t255.5 170.5t309 63.5q162 0 310 -63.5t255 -170.5t170.5 -255t63.5 -310q0 -161 -63.5 -309t-170.5 -255.5t-255 -171t-310 -63.5q-161 0 -309 63.5t-255.5 171t-171 255.5t-63.5 309zM281 719q0 -167 82 -310.5t222.5 -227t305.5 -83.5 t305.5 83.5t222.5 227t82 310.5t-82 310t-222.5 226.5t-305.5 83.5t-305.5 -83.5t-222.5 -226.5t-82 -310zM590 324v790h381q126 0 193 -60.5t67 -156.5q0 -87 -46 -139t-120 -68q79 0 117.5 -28.5t38.5 -94.5v-243h-213v202q0 41 -15 56.5t-57 15.5h-133v-274h-213z M803 774h129q86 0 86 80q0 78 -90 78h-125v-158z" />
<glyph unicode="&#xaf;" horiz-adv-x="665" d="M20 1157v215h625v-215h-625z" />
<glyph unicode="&#xb0;" horiz-adv-x="917" d="M80 1075q0 161 109 270t270 109t270 -109t109 -270t-109 -270t-270 -109t-270 109t-109 270zM313 1075q0 -67 42 -112t104 -45t103.5 45t41.5 112q0 63 -41.5 105.5t-103.5 42.5t-104 -42.5t-42 -105.5z" />
<glyph unicode="&#xb1;" horiz-adv-x="1269" d="M129 0v233h1012v-233h-1012zM129 563v236h369v225h272v-225h371v-236h-371v-215h-272v215h-369z" />
<glyph unicode="&#xb2;" horiz-adv-x="765" d="M74 1401q7 121 96.5 194.5t222.5 73.5q129 0 209 -73t80 -166q0 -66 -30.5 -115t-88.5 -103l-194 -178h315v-184h-606v172l305 276q25 22 38 35.5t26.5 36.5t13.5 45q0 31 -21.5 52.5t-54.5 21.5h-8q-33 0 -57.5 -26t-26.5 -62h-219z" />
<glyph unicode="&#xb3;" horiz-adv-x="774" d="M66 1079h221q1 -27 26.5 -44t59.5 -17h10q39 0 64.5 22.5t25.5 57.5q0 34 -25 53.5t-63 19.5h-76v172h76q37 0 59.5 20t22.5 54q0 32 -21 53t-57 21h-10q-30 0 -52.5 -16.5t-25.5 -40.5h-221q0 111 87.5 173t217.5 62q81 0 148.5 -26t111 -79.5t43.5 -125.5 q0 -129 -113 -178q58 -27 88.5 -77.5t30.5 -113.5q0 -109 -94 -169t-225 -60t-220 63.5t-89 175.5z" />
<glyph unicode="&#xb4;" horiz-adv-x="399" d="M20 1126l52 308h307l-205 -308h-154z" />
<glyph unicode="&#xb5;" horiz-adv-x="1185" d="M137 -410v1434h266v-625q0 -99 39.5 -151.5t112.5 -52.5h16q88 0 149.5 76.5t61.5 183.5v569h267v-1024h-267v150q-47 -78 -125.5 -124t-173.5 -46q-43 0 -80 6v-396h-266z" />
<glyph unicode="&#xb6;" horiz-adv-x="1398" d="M57 997q0 180 128.5 308.5t308.5 128.5h809v-215h-144v-1629h-266v1629h-133v-1629h-266v971q-180 0 -308.5 128t-128.5 308z" />
<glyph unicode="&#xb7;" horiz-adv-x="550" d="M127 565v297h297v-297h-297z" />
<glyph unicode="&#xb8;" horiz-adv-x="491" d="M41 -348h174q82 0 82 61q0 26 -18 44t-54 18h-112v256h143v-123q82 0 138.5 -50t56.5 -145q0 -98 -68.5 -156.5t-177.5 -58.5h-164v154z" />
<glyph unicode="&#xb9;" horiz-adv-x="616" d="M61 1190v258l256 211h183v-809h-215v524z" />
<glyph unicode="&#xba;" horiz-adv-x="802" d="M86 1141q0 131 85.5 217t229.5 86t230 -86t86 -217t-85.5 -216t-230.5 -85q-144 0 -229.5 85t-85.5 216zM295 1141q0 -65 27 -101t75 -36h9q48 0 75 36t27 101q0 66 -27 102.5t-75 36.5h-9q-48 0 -75 -36.5t-27 -102.5z" />
<glyph unicode="&#xbb;" horiz-adv-x="1232" d="M72 143l297 441l-297 440h307l297 -440l-297 -441h-307zM563 143l297 441l-297 440h307l297 -440l-297 -441h-307z" />
<glyph unicode="&#xbc;" horiz-adv-x="1863" d="M66 965v258l256 211h182v-809h-215v524zM365 0l860 1434h239l-860 -1434h-239zM1090 127v223l356 459h244v-510h108v-172h-108v-127h-199v127h-401zM1276 299h215v281z" />
<glyph unicode="&#xbd;" horiz-adv-x="1906" d="M66 965v258l256 211h182v-809h-215v524zM365 0l860 1434h239l-860 -1434h-239zM1214 551q7 121 97 194.5t223 73.5q129 0 209 -73t80 -166q0 -66 -30.5 -115t-88.5 -103l-195 -178h316v-184h-606v172l305 277q26 23 38.5 35.5t26 35.5t13.5 45q0 31 -21.5 52.5 t-54.5 21.5h-8q-33 0 -57.5 -26t-26.5 -62h-220z" />
<glyph unicode="&#xbe;" horiz-adv-x="1968" d="M70 854h221q1 -27 26.5 -44t59.5 -17h10q39 0 64.5 22t25.5 57q0 34 -25 54t-63 20h-76v172h76q37 0 59.5 20t22.5 54q0 32 -21 53t-57 21h-10q-30 0 -52.5 -17t-25.5 -41h-221q0 111 88 173.5t217 62.5q81 0 148.5 -26t111 -80t43.5 -126q0 -129 -112 -178 q57 -27 87.5 -77t30.5 -113q0 -109 -94 -169.5t-225 -60.5t-220 64t-89 176zM467 0l860 1434h240l-860 -1434h-240zM1194 127v223l356 459h244v-510h109v-172h-109v-127h-199v127h-401zM1380 299h215v281z" />
<glyph unicode="&#xbf;" horiz-adv-x="993" d="M59 -10q0 160 101 269.5t272 109.5q31 0 42 10.5t11 40.5v213h252v-316q0 -77 -43 -120t-119 -43h-55q-190 0 -190 -164q0 -76 52 -120t138 -44h410v-236h-447q-187 0 -305.5 109t-118.5 291zM479 758v266h266v-266h-266z" />
<glyph unicode="&#xc0;" d="M4 0l567 1434h324l553 -1434h-293l-129 338h-602l-129 -338h-291zM442 1823h318l82 -297h-185zM518 584h414l-207 542z" />
<glyph unicode="&#xc1;" d="M4 0l567 1434h324l553 -1434h-293l-129 338h-602l-129 -338h-291zM518 584h414l-207 542zM627 1526l82 297h317l-215 -297h-184z" />
<glyph unicode="&#xc2;" d="M4 0l567 1434h324l553 -1434h-293l-129 338h-602l-129 -338h-291zM336 1526l246 297h286l246 -297h-225l-164 119l-164 -119h-225zM518 584h414l-207 542z" />
<glyph unicode="&#xc3;" d="M4 0l567 1434h324l553 -1434h-293l-129 338h-602l-129 -338h-291zM338 1556v54q0 96 66.5 164.5t162.5 68.5q35 0 66.5 -7t46 -13.5t41.5 -20.5l37 -20q6 -3 30 -16.5t39.5 -19t30.5 -5.5q31 0 46.5 22.5t15.5 59.5h194v-54q0 -102 -56.5 -167.5t-168.5 -65.5 q-73 0 -164 49l-37 21q-59 32 -92 32q-31 3 -47.5 -20.5t-16.5 -61.5h-194zM518 584h414l-207 542z" />
<glyph unicode="&#xc4;" d="M4 0l567 1434h324l553 -1434h-293l-129 338h-602l-129 -338h-291zM399 1567v245h256v-245h-256zM518 584h414l-207 542zM799 1567v245h256v-245h-256z" />
<glyph unicode="&#xc5;" d="M4 0l567 1434h324l553 -1434h-293l-129 338h-602l-129 -338h-291zM504 1720q0 88 68.5 157t156.5 69q95 0 160 -68t65 -158q0 -97 -64 -161t-161 -64q-90 0 -157.5 65t-67.5 160zM518 584h414l-207 542zM647 1720q0 -32 25 -57t57 -25t56 25t24 57t-24 57t-56 25t-57 -25 t-25 -57z" />
<glyph unicode="&#xc6;" horiz-adv-x="2029" d="M-10 0l747 1434h1123v-246h-703l49 -330h592v-246h-561l53 -366h692v-246h-931l-50 338h-540l-170 -338h-301zM586 584h381l-84 587z" />
<glyph unicode="&#xc7;" horiz-adv-x="1456" d="M90 717q0 221 79 386t235 258t372 93q138 0 250.5 -38.5t186 -106t115.5 -155.5t50 -191h-276q-25 118 -106 181.5t-210 63.5h-20q-179 0 -289 -132t-110 -359t110 -359.5t289 -132.5h20q130 0 210.5 63t105.5 183h276q-16 -212 -162.5 -347t-404.5 -144v-72 q82 0 138.5 -50t56.5 -145q0 -98 -68.5 -156.5t-177.5 -58.5h-164v154h174q82 0 82 61q0 26 -18 44t-54 18h-112v211q-276 33 -427 228.5t-151 502.5z" />
<glyph unicode="&#xc8;" horiz-adv-x="1353" d="M168 0v1434h1085v-246h-809v-330h686v-246h-686v-366h830v-246h-1106zM455 1823h317l82 -297h-184z" />
<glyph unicode="&#xc9;" horiz-adv-x="1353" d="M168 0v1434h1085v-246h-809v-330h686v-246h-686v-366h830v-246h-1106zM598 1526l82 297h317l-215 -297h-184z" />
<glyph unicode="&#xca;" horiz-adv-x="1353" d="M168 0v1434h1085v-246h-809v-330h686v-246h-686v-366h830v-246h-1106zM324 1526l245 297h287l246 -297h-225l-164 119l-164 -119h-225z" />
<glyph unicode="&#xcb;" horiz-adv-x="1353" d="M168 0v1434h1085v-246h-809v-330h686v-246h-686v-366h830v-246h-1106zM387 1567v245h256v-245h-256zM786 1567v245h256v-245h-256z" />
<glyph unicode="&#xcc;" horiz-adv-x="612" d="M8 1823h318l82 -297h-185zM168 0v1434h276v-1434h-276z" />
<glyph unicode="&#xcd;" horiz-adv-x="612" d="M168 0v1434h276v-1434h-276zM215 1526l82 297h317l-215 -297h-184z" />
<glyph unicode="&#xce;" horiz-adv-x="612" d="M-82 1526l246 297h287l245 -297h-225l-164 119l-164 -119h-225zM168 0v1434h276v-1434h-276z" />
<glyph unicode="&#xcf;" horiz-adv-x="612" d="M-20 1567v245h256v-245h-256zM168 0v1434h276v-1434h-276zM379 1567v245h256v-245h-256z" />
<glyph unicode="&#xd0;" horiz-adv-x="1540" d="M27 594v246h204v594h492q217 0 379.5 -80t255 -243t92.5 -394t-90 -394t-250 -243t-377 -80h-502v594h-204zM508 246h194q108 0 191 24t148 77t99 146t34 224t-34 224t-99 146t-148 77t-191 24h-194v-348h256v-246h-256v-348z" />
<glyph unicode="&#xd1;" horiz-adv-x="1533" d="M168 0v1434h358l564 -1051v1051h276v-1434h-358l-564 1055v-1055h-276zM403 1556v54q0 96 67 164.5t163 68.5q35 0 66 -7t45 -13.5t42 -20.5l37 -20q5 -3 30 -16.5t40.5 -19t30.5 -5.5q61 0 61 82h195v-54q0 -102 -56.5 -167.5t-169.5 -65.5q-72 0 -163 49l-37 21 q-59 32 -92 32q-31 3 -47.5 -20.5t-16.5 -61.5h-195z" />
<glyph unicode="&#xd2;" horiz-adv-x="1568" d="M88 717q0 170 51 309t143 232.5t220.5 144.5t281.5 51t281.5 -51t220.5 -144.5t143.5 -232.5t51.5 -309t-51.5 -309t-143.5 -232.5t-220.5 -144.5t-281.5 -51t-281.5 51t-220.5 144.5t-143 232.5t-51 309zM365 717q0 -230 108.5 -361t300.5 -131h21q192 0 300.5 131 t108.5 361t-108.5 360.5t-300.5 130.5h-21q-192 0 -300.5 -130.5t-108.5 -360.5zM496 1823h317l82 -297h-184z" />
<glyph unicode="&#xd3;" horiz-adv-x="1568" d="M88 717q0 170 51 309t143 232.5t220.5 144.5t281.5 51t281.5 -51t220.5 -144.5t143.5 -232.5t51.5 -309t-51.5 -309t-143.5 -232.5t-220.5 -144.5t-281.5 -51t-281.5 51t-220.5 144.5t-143 232.5t-51 309zM365 717q0 -230 108.5 -361t300.5 -131h21q192 0 300.5 131 t108.5 361t-108.5 360.5t-300.5 130.5h-21q-192 0 -300.5 -130.5t-108.5 -360.5zM696 1526l82 297h318l-215 -297h-185z" />
<glyph unicode="&#xd4;" horiz-adv-x="1568" d="M88 717q0 170 51 309t143 232.5t220.5 144.5t281.5 51t281.5 -51t220.5 -144.5t143.5 -232.5t51.5 -309t-51.5 -309t-143.5 -232.5t-220.5 -144.5t-281.5 -51t-281.5 51t-220.5 144.5t-143 232.5t-51 309zM365 717q0 -230 108.5 -361t300.5 -131h21q192 0 300.5 131 t108.5 361t-108.5 360.5t-300.5 130.5h-21q-192 0 -300.5 -130.5t-108.5 -360.5zM395 1526l246 297h287l246 -297h-226l-164 119l-163 -119h-226z" />
<glyph unicode="&#xd5;" horiz-adv-x="1568" d="M88 717q0 170 51 309t143 232.5t220.5 144.5t281.5 51t281.5 -51t220.5 -144.5t143.5 -232.5t51.5 -309t-51.5 -309t-143.5 -232.5t-220.5 -144.5t-281.5 -51t-281.5 51t-220.5 144.5t-143 232.5t-51 309zM365 717q0 -230 108.5 -361t300.5 -131h21q192 0 300.5 131 t108.5 361t-108.5 360.5t-300.5 130.5h-21q-192 0 -300.5 -130.5t-108.5 -360.5zM397 1556v54q0 96 67 164.5t163 68.5q35 0 66 -7t45 -13.5t42 -20.5l37 -20q5 -3 30 -16.5t40.5 -19t30.5 -5.5q61 0 61 82h195v-54q0 -102 -56.5 -167.5t-169.5 -65.5q-73 0 -164 49l-36 21 q-59 32 -93 32q-31 3 -47 -20.5t-16 -61.5h-195z" />
<glyph unicode="&#xd6;" horiz-adv-x="1568" d="M88 717q0 170 51 309t143 232.5t220.5 144.5t281.5 51t281.5 -51t220.5 -144.5t143.5 -232.5t51.5 -309t-51.5 -309t-143.5 -232.5t-220.5 -144.5t-281.5 -51t-281.5 51t-220.5 144.5t-143 232.5t-51 309zM365 717q0 -230 108.5 -361t300.5 -131h21q192 0 300.5 131 t108.5 361t-108.5 360.5t-300.5 130.5h-21q-192 0 -300.5 -130.5t-108.5 -360.5zM457 1567v245h256v-245h-256zM856 1567v245h256v-245h-256z" />
<glyph unicode="&#xd7;" horiz-adv-x="1122" d="M96 823l170 170l297 -297l295 295l166 -168l-293 -293l295 -297l-170 -170l-295 297l-297 -297l-166 168l295 295z" />
<glyph unicode="&#xd8;" horiz-adv-x="1574" d="M90 717q0 170 51 309t143 232.5t220.5 144.5t281.5 51q193 0 347 -80l127 160l215 -168l-134 -170q142 -191 142 -479q0 -170 -51.5 -309t-143.5 -232.5t-220.5 -144.5t-281.5 -51q-193 0 -344 77l-125 -157l-215 168l131 168q-143 192 -143 481zM367 717q0 -144 45 -256 l563 710q-78 37 -178 37h-21q-192 0 -300.5 -130.5t-108.5 -360.5zM602 260q78 -35 174 -35h21q192 0 300.5 131t108.5 361q0 143 -45 252z" />
<glyph unicode="&#xd9;" horiz-adv-x="1437" d="M156 502v932h276v-891q0 -166 68.5 -242t208.5 -76h20q140 0 208.5 76t68.5 242v891h276v-932q0 -252 -139 -387t-424 -135t-424 135t-139 387zM428 1823h317l82 -297h-184z" />
<glyph unicode="&#xda;" horiz-adv-x="1437" d="M156 502v932h276v-891q0 -166 68.5 -242t208.5 -76h20q140 0 208.5 76t68.5 242v891h276v-932q0 -252 -139 -387t-424 -135t-424 135t-139 387zM612 1526l82 297h318l-215 -297h-185z" />
<glyph unicode="&#xdb;" horiz-adv-x="1437" d="M156 502v932h276v-891q0 -166 68.5 -242t208.5 -76h20q140 0 208.5 76t68.5 242v891h276v-932q0 -252 -139 -387t-424 -135t-424 135t-139 387zM330 1526l245 297h287l246 -297h-225l-164 119l-164 -119h-225z" />
<glyph unicode="&#xdc;" horiz-adv-x="1437" d="M156 502v932h276v-891q0 -166 68.5 -242t208.5 -76h20q140 0 208.5 76t68.5 242v891h276v-932q0 -252 -139 -387t-424 -135t-424 135t-139 387zM391 1567v245h256v-245h-256zM791 1567v245h256v-245h-256z" />
<glyph unicode="&#xdd;" horiz-adv-x="1357" d="M8 1434h314l366 -603l361 603h303l-535 -861v-573h-276v573zM573 1526l82 297h318l-215 -297h-185z" />
<glyph unicode="&#xde;" horiz-adv-x="1335" d="M168 0v1434h276v-256h359q211 0 341 -122.5t130 -338.5t-130 -338.5t-341 -122.5h-359v-256h-276zM444 502h338q104 0 159.5 58.5t55.5 156.5q0 99 -55 157t-160 58h-338v-430z" />
<glyph unicode="&#xdf;" horiz-adv-x="1134" d="M137 -379v1409q0 193 119 308.5t324 115.5q189 0 308.5 -106t119.5 -263q0 -235 -238 -331q120 -21 204.5 -117.5t84.5 -230.5q0 -188 -130.5 -297t-334.5 -109h-98v215h36q124 0 192.5 57.5t68.5 163.5q0 102 -73 152.5t-188 50.5h-36v215h36q91 0 155.5 53t64.5 148 q0 89 -46.5 136.5t-119.5 47.5h-13q-74 0 -122 -55t-48 -164v-1399h-266z" />
<glyph unicode="&#xe0;" horiz-adv-x="1093" d="M74 281q0 156 105 240t270 97l258 23v25q0 70 -45.5 116.5t-120.5 46.5h-13q-72 0 -117.5 -37t-50.5 -85h-266q15 148 134 242.5t307 94.5q197 0 313.5 -96t116.5 -272v-451q0 -153 10 -225h-250q-9 44 -12 125q-47 -67 -126 -106t-177 -39q-142 0 -239 83t-97 218z M272 1434h308l51 -308h-154zM336 299q0 -47 36.5 -75.5t92.5 -28.5h10q95 0 163.5 63t68.5 160v28l-222 -22q-60 -5 -104.5 -36t-44.5 -89z" />
<glyph unicode="&#xe1;" horiz-adv-x="1093" d="M74 281q0 156 105 240t270 97l258 23v25q0 70 -45.5 116.5t-120.5 46.5h-13q-72 0 -117.5 -37t-50.5 -85h-266q15 148 134 242.5t307 94.5q197 0 313.5 -96t116.5 -272v-451q0 -153 10 -225h-250q-9 44 -12 125q-47 -67 -126 -106t-177 -39q-142 0 -239 83t-97 218z M336 299q0 -47 36.5 -75.5t92.5 -28.5h10q95 0 163.5 63t68.5 160v28l-222 -22q-60 -5 -104.5 -36t-44.5 -89zM446 1126l52 308h307l-205 -308h-154z" />
<glyph unicode="&#xe2;" horiz-adv-x="1093" d="M74 281q0 156 105 240t270 97l258 23v25q0 70 -45.5 116.5t-120.5 46.5h-13q-72 0 -117.5 -37t-50.5 -85h-266q15 148 134 242.5t307 94.5q197 0 313.5 -96t116.5 -272v-451q0 -153 10 -225h-250q-9 44 -12 125q-47 -67 -126 -106t-177 -39q-142 0 -239 83t-97 218z M166 1126l205 308h327l205 -308h-164l-204 148l-205 -148h-164zM336 299q0 -47 36.5 -75.5t92.5 -28.5h10q95 0 163.5 63t68.5 160v28l-222 -22q-60 -5 -104.5 -36t-44.5 -89z" />
<glyph unicode="&#xe3;" horiz-adv-x="1093" d="M74 281q0 156 105 240t270 97l258 23v25q0 70 -45.5 116.5t-120.5 46.5h-13q-72 0 -117.5 -37t-50.5 -85h-266q15 148 134 242.5t307 94.5q197 0 313.5 -96t116.5 -272v-451q0 -153 10 -225h-250q-9 44 -12 125q-47 -67 -126 -106t-177 -39q-142 0 -239 83t-97 218z M162 1157v53q0 96 66.5 165t162.5 69q35 0 66.5 -7t46 -13.5t41.5 -20.5l37 -21q6 -3 30 -16.5t39.5 -19t30.5 -5.5q26 0 43.5 23.5t17.5 58.5h195v-53q0 -95 -67 -164t-158 -69q-73 0 -164 49l-37 20q-5 3 -15 8.5t-15 8l-13 6.5t-13.5 5.5t-13.5 3t-16 1.5 q-27 0 -48.5 -24t-21.5 -58h-194zM336 299q0 -47 36.5 -75.5t92.5 -28.5h10q95 0 163.5 63t68.5 160v28l-222 -22q-60 -5 -104.5 -36t-44.5 -89z" />
<glyph unicode="&#xe4;" horiz-adv-x="1093" d="M74 281q0 156 105 240t270 97l258 23v25q0 70 -45.5 116.5t-120.5 46.5h-13q-72 0 -117.5 -37t-50.5 -85h-266q15 148 134 242.5t307 94.5q197 0 313.5 -96t116.5 -272v-451q0 -153 10 -225h-250q-9 44 -12 125q-47 -67 -126 -106t-177 -39q-142 0 -239 83t-97 218z M205 1157v266h246v-266h-246zM336 299q0 -47 36.5 -75.5t92.5 -28.5h10q95 0 163.5 63t68.5 160v28l-222 -22q-60 -5 -104.5 -36t-44.5 -89zM614 1157v266h246v-266h-246z" />
<glyph unicode="&#xe5;" horiz-adv-x="1093" d="M74 281q0 156 105 240t270 97l258 23v25q0 70 -45.5 116.5t-120.5 46.5h-13q-72 0 -117.5 -37t-50.5 -85h-266q15 148 134 242.5t307 94.5q197 0 313.5 -96t116.5 -272v-451q0 -153 10 -225h-250q-9 44 -12 125q-47 -67 -126 -106t-177 -39q-142 0 -239 83t-97 218z M334 1321q0 85 65 150t150 65q91 0 153 -64t62 -151q0 -92 -61.5 -153.5t-153.5 -61.5q-87 0 -151 62t-64 153zM336 299q0 -47 36.5 -75.5t92.5 -28.5h10q95 0 163.5 63t68.5 160v28l-222 -22q-60 -5 -104.5 -36t-44.5 -89zM459 1321q0 -37 26.5 -63.5t63.5 -26.5t62.5 26.5 t25.5 63.5t-25.5 63.5t-62.5 26.5t-63.5 -26.5t-26.5 -63.5z" />
<glyph unicode="&#xe6;" horiz-adv-x="1732" d="M74 281q0 156 105 240t270 97l258 23v25q0 70 -45.5 116.5t-120.5 46.5h-13q-72 0 -117.5 -37t-50.5 -85h-266q15 148 134 242.5t307 94.5q219 0 333 -114q130 114 324 114q223 0 345 -144.5t122 -375.5q0 -30 -4 -96h-690v-18q13 -95 80.5 -155t150.5 -60h12 q73 0 121 36.5t62 92.5h264q-38 -157 -157.5 -250.5t-305.5 -93.5q-116 0 -217.5 50t-169.5 144q-51 -86 -152.5 -140t-222.5 -54q-156 0 -256 82.5t-100 218.5zM336 299q0 -47 36.5 -75.5t92.5 -28.5h10q95 0 163.5 63t68.5 160v28l-222 -22q-60 -5 -104.5 -36t-44.5 -89z M965 633h436q-4 90 -65 143t-148 53h-12q-82 0 -140.5 -47.5t-70.5 -128.5v-20z" />
<glyph unicode="&#xe7;" horiz-adv-x="1103" d="M80 512q0 241 139.5 386.5t351.5 145.5q204 0 325 -95t136 -283h-266q-26 163 -188 163h-13q-74 0 -124.5 -44t-72.5 -113.5t-22 -159.5t22 -159.5t72.5 -113.5t124.5 -44h13q162 0 188 163h266q-13 -171 -116 -266t-277 -110v-74q82 0 138.5 -50t56.5 -145 q0 -98 -68.5 -156.5t-177.5 -58.5h-164v154h174q82 0 82 61q0 26 -18 44t-54 18h-112v211q-184 25 -300 166.5t-116 359.5z" />
<glyph unicode="&#xe8;" horiz-adv-x="1107" d="M80 512q0 235 130.5 383.5t356.5 148.5q223 0 345 -144.5t122 -375.5q0 -30 -4 -96h-692q7 -102 76 -167.5t157 -65.5h13q73 0 120.5 36.5t61.5 92.5h264q-38 -157 -157.5 -250.5t-305.5 -93.5q-97 0 -184.5 36t-155 102.5t-107.5 168.5t-40 225zM287 1434h307l51 -308 h-153zM338 633h438q-4 90 -65 143t-148 53h-12q-87 0 -148 -53t-65 -143z" />
<glyph unicode="&#xe9;" horiz-adv-x="1107" d="M80 512q0 235 130.5 383.5t356.5 148.5q223 0 345 -144.5t122 -375.5q0 -30 -4 -96h-692q7 -102 76 -167.5t157 -65.5h13q73 0 120.5 36.5t61.5 92.5h264q-38 -157 -157.5 -250.5t-305.5 -93.5q-97 0 -184.5 36t-155 102.5t-107.5 168.5t-40 225zM338 633h438 q-4 90 -65 143t-148 53h-12q-87 0 -148 -53t-65 -143zM465 1126l51 308h307l-205 -308h-153z" />
<glyph unicode="&#xea;" horiz-adv-x="1107" d="M80 512q0 235 130.5 383.5t356.5 148.5q223 0 345 -144.5t122 -375.5q0 -30 -4 -96h-692q7 -102 76 -167.5t157 -65.5h13q73 0 120.5 36.5t61.5 92.5h264q-38 -157 -157.5 -250.5t-305.5 -93.5q-97 0 -184.5 36t-155 102.5t-107.5 168.5t-40 225zM190 1126l205 308h328 l205 -308h-164l-205 148l-205 -148h-164zM338 633h438q-4 90 -65 143t-148 53h-12q-87 0 -148 -53t-65 -143z" />
<glyph unicode="&#xeb;" horiz-adv-x="1107" d="M80 512q0 235 130.5 383.5t356.5 148.5q223 0 345 -144.5t122 -375.5q0 -30 -4 -96h-692q7 -102 76 -167.5t157 -65.5h13q73 0 120.5 36.5t61.5 92.5h264q-38 -157 -157.5 -250.5t-305.5 -93.5q-97 0 -184.5 36t-155 102.5t-107.5 168.5t-40 225zM221 1157v266h246v-266 h-246zM338 633h438q-4 90 -65 143t-148 53h-12q-87 0 -148 -53t-65 -143zM631 1157v266h246v-266h-246z" />
<glyph unicode="&#xec;" horiz-adv-x="540" d="M-6 1434h307l51 -308h-153zM137 0v1024h266v-1024h-266z" />
<glyph unicode="&#xed;" horiz-adv-x="540" d="M137 0v1024h266v-1024h-266zM188 1126l52 308h307l-205 -308h-154z" />
<glyph unicode="&#xee;" horiz-adv-x="540" d="M-104 1126l204 308h328l205 -308h-164l-205 148l-205 -148h-163zM137 0v1024h266v-1024h-266z" />
<glyph unicode="&#xef;" horiz-adv-x="540" d="M-57 1157v266h245v-266h-245zM137 0v1024h266v-1024h-266zM352 1157v266h246v-266h-246z" />
<glyph unicode="&#xf0;" horiz-adv-x="1187" d="M78 494q0 205 129 342t342 137q132 0 252 -92q-21 125 -92 202l-131 -88l-115 162l51 35q-75 16 -156 16v226q247 0 392 -82l155 104l115 -162l-115 -77q92 -114 139.5 -273.5t47.5 -345.5q0 -127 -32 -237t-93.5 -196t-161 -135.5t-225.5 -49.5q-225 0 -363.5 145.5 t-138.5 368.5zM344 494q0 -130 60 -214.5t171 -84.5h17q114 0 179 85t65 212q0 113 -66.5 189.5t-181.5 76.5h-17q-106 0 -166.5 -76t-60.5 -188z" />
<glyph unicode="&#xf1;" horiz-adv-x="1196" d="M137 0v1024h266v-150q46 78 129 124t181 46q177 0 266.5 -106t89.5 -283v-655h-266v625q0 99 -42.5 151.5t-119.5 52.5h-16q-92 0 -157 -76.5t-65 -183.5v-569h-266zM217 1157v53q0 96 66.5 165t162.5 69q35 0 66.5 -7t46 -13.5t41.5 -20.5l37 -21q6 -3 30 -16.5 t39.5 -19t30.5 -5.5q26 0 44 23.5t18 58.5h194v-53q0 -95 -67 -164t-158 -69q-73 0 -164 49l-37 20q-5 3 -15 8.5t-15 8l-13 6.5t-13.5 5.5t-13.5 3t-16 1.5q-27 0 -48 -24t-21 -58h-195z" />
<glyph unicode="&#xf2;" horiz-adv-x="1179" d="M78 512q0 232 142 382t370 150t370 -150t142 -382t-142 -382t-370 -150t-370 150t-142 382zM328 1434h307l51 -308h-154zM346 512q0 -149 64 -233t172 -84h16q108 0 172 84t64 233t-64 233t-172 84h-16q-108 0 -172 -84t-64 -233z" />
<glyph unicode="&#xf3;" horiz-adv-x="1179" d="M78 512q0 232 142 382t370 150t370 -150t142 -382t-142 -382t-370 -150t-370 150t-142 382zM346 512q0 -149 64 -233t172 -84h16q108 0 172 84t64 233t-64 233t-172 84h-16q-108 0 -172 -84t-64 -233zM496 1126l51 308h307l-205 -308h-153z" />
<glyph unicode="&#xf4;" horiz-adv-x="1179" d="M78 512q0 232 142 382t370 150t370 -150t142 -382t-142 -382t-370 -150t-370 150t-142 382zM221 1126l205 308h328l204 -308h-163l-205 148l-205 -148h-164zM346 512q0 -149 64 -233t172 -84h16q108 0 172 84t64 233t-64 233t-172 84h-16q-108 0 -172 -84t-64 -233z" />
<glyph unicode="&#xf5;" horiz-adv-x="1179" d="M78 512q0 232 142 382t370 150t370 -150t142 -382t-142 -382t-370 -150t-370 150t-142 382zM211 1157v53q0 96 66.5 165t162.5 69q35 0 66.5 -7t46 -13.5t41.5 -20.5l37 -21q6 -3 30 -16.5t39.5 -19t30.5 -5.5q26 0 44 23.5t18 58.5h194v-53q0 -95 -67 -164t-158 -69 q-73 0 -164 49l-37 20q-5 3 -15 8.5t-15 8l-13 6.5t-13.5 5.5t-13.5 3t-16 1.5q-27 0 -48 -24t-21 -58h-195zM346 512q0 -149 64 -233t172 -84h16q108 0 172 84t64 233t-64 233t-172 84h-16q-108 0 -172 -84t-64 -233z" />
<glyph unicode="&#xf6;" horiz-adv-x="1179" d="M78 512q0 232 142 382t370 150t370 -150t142 -382t-142 -382t-370 -150t-370 150t-142 382zM262 1157v266h246v-266h-246zM346 512q0 -149 64 -233t172 -84h16q108 0 172 84t64 233t-64 233t-172 84h-16q-108 0 -172 -84t-64 -233zM672 1157v266h246v-266h-246z" />
<glyph unicode="&#xf7;" horiz-adv-x="1212" d="M100 410v235h1012v-235h-1012zM463 41v276h287v-276h-287zM463 737v277h287v-277h-287z" />
<glyph unicode="&#xf8;" horiz-adv-x="1183" d="M80 512q0 232 142 382t370 150q128 0 229 -49l99 129l182 -135l-105 -135q107 -145 107 -342q0 -232 -142 -382t-370 -150q-129 0 -230 49l-102 -133l-172 143l100 131q-108 139 -108 342zM348 512q0 -64 12 -117l322 420q-35 14 -82 14h-16q-108 0 -172 -84t-64 -233z M502 209q35 -14 82 -14h16q108 0 172 84t64 233q0 61 -13 115z" />
<glyph unicode="&#xf9;" horiz-adv-x="1177" d="M129 369v655h266v-625q0 -99 39.5 -151.5t112.5 -52.5h16q88 0 149.5 76.5t61.5 183.5v569h266v-1024h-266v150q-47 -78 -125.5 -124t-173.5 -46q-173 0 -259.5 106t-86.5 283zM309 1434h307l52 -308h-154z" />
<glyph unicode="&#xfa;" horiz-adv-x="1177" d="M129 369v655h266v-625q0 -99 39.5 -151.5t112.5 -52.5h16q88 0 149.5 76.5t61.5 183.5v569h266v-1024h-266v150q-47 -78 -125.5 -124t-173.5 -46q-173 0 -259.5 106t-86.5 283zM498 1126l51 308h307l-205 -308h-153z" />
<glyph unicode="&#xfb;" horiz-adv-x="1177" d="M129 369v655h266v-625q0 -99 39.5 -151.5t112.5 -52.5h16q88 0 149.5 76.5t61.5 183.5v569h266v-1024h-266v150q-47 -78 -125.5 -124t-173.5 -46q-173 0 -259.5 106t-86.5 283zM213 1126l205 308h327l205 -308h-164l-204 148l-205 -148h-164z" />
<glyph unicode="&#xfc;" horiz-adv-x="1177" d="M129 369v655h266v-625q0 -99 39.5 -151.5t112.5 -52.5h16q88 0 149.5 76.5t61.5 183.5v569h266v-1024h-266v150q-47 -78 -125.5 -124t-173.5 -46q-173 0 -259.5 106t-86.5 283zM254 1157v266h246v-266h-246zM664 1157v266h245v-266h-245z" />
<glyph unicode="&#xfd;" horiz-adv-x="1171" d="M27 1024h299l276 -623l266 623h295l-436 -936v-235q0 -131 -68 -199t-198 -68h-373v230h272q69 0 91 21.5t22 90.5v150zM496 1126l51 308h307l-205 -308h-153z" />
<glyph unicode="&#xfe;" horiz-adv-x="1230" d="M137 -410v1844h266v-543q34 60 114.5 106.5t180.5 46.5q108 0 196 -44t143.5 -118.5t85.5 -169.5t30 -200t-30 -200t-85.5 -169.5t-143.5 -118.5t-196 -44q-100 0 -180.5 46.5t-114.5 106.5v-543h-266zM403 512q0 -141 69 -229t165 -88h16q102 0 168 86t66 229 q0 144 -66 231.5t-168 87.5h-16q-96 0 -165 -88t-69 -229z" />
<glyph unicode="&#xff;" horiz-adv-x="1171" d="M27 1024h299l276 -623l266 623h295l-436 -936v-235q0 -131 -68 -199t-198 -68h-373v230h272q69 0 91 21.5t22 90.5v150zM258 1157v266h246v-266h-246zM668 1157v266h245v-266h-245z" />
<glyph unicode="&#x152;" horiz-adv-x="2390" d="M88 717q0 170 51 309t143 232.5t220.5 144.5t281.5 51q251 0 420 -164v144h1086v-246h-809v-330h686v-246h-686v-366h829v-246h-1106v143q-168 -163 -420 -163q-153 0 -281.5 51t-220.5 144.5t-143 232.5t-51 309zM365 717q0 -230 108.5 -361t300.5 -131h21 q192 0 300.5 131t108.5 361t-108.5 360.5t-300.5 130.5h-21q-192 0 -300.5 -130.5t-108.5 -360.5z" />
<glyph unicode="&#x153;" horiz-adv-x="1865" d="M78 512q0 232 142 382t370 150q232 0 375 -153q131 153 360 153q223 0 345 -144.5t122 -375.5q0 -30 -4 -96h-692v-4q9 -101 77.5 -165t155.5 -64h12q73 0 121 36.5t62 92.5h264q-38 -157 -157.5 -250.5t-305.5 -93.5q-104 0 -196.5 40.5t-159.5 116.5 q-144 -157 -379 -157q-228 0 -370 150t-142 382zM346 512q0 -149 64 -233t172 -84h16q108 0 172 84t64 233t-64 233t-172 84h-16q-108 0 -172 -84t-64 -233zM1096 633h438q-4 90 -65 143t-148 53h-12q-87 0 -148 -53t-65 -143z" />
<glyph unicode="&#x178;" horiz-adv-x="1357" d="M8 1434h314l366 -603l361 603h303l-535 -861v-573h-276v573zM358 1567v245h256v-245h-256zM758 1567v245h256v-245h-256z" />
<glyph unicode="&#x2c6;" horiz-adv-x="778" d="M20 1126l205 308h328l205 -308h-164l-205 148l-205 -148h-164z" />
<glyph unicode="&#x2dc;" horiz-adv-x="817" d="M20 1157v53q0 96 67 165t163 69q35 0 66 -7t45 -13.5t42 -20.5l37 -21q5 -3 30 -16.5t40.5 -19t30.5 -5.5q26 0 43.5 23.5t17.5 58.5h195v-53q0 -95 -67.5 -164t-158.5 -69q-72 0 -163 49l-37 20q-5 3 -15 8.5t-15 8l-13 6.5t-13.5 5.5t-13.5 3t-16 1.5q-27 0 -48.5 -24 t-21.5 -58h-195z" />
<glyph unicode="&#x2000;" horiz-adv-x="973" />
<glyph unicode="&#x2001;" horiz-adv-x="1946" />
<glyph unicode="&#x2002;" horiz-adv-x="973" />
<glyph unicode="&#x2003;" horiz-adv-x="1946" />
<glyph unicode="&#x2004;" horiz-adv-x="648" />
<glyph unicode="&#x2005;" horiz-adv-x="486" />
<glyph unicode="&#x2006;" horiz-adv-x="324" />
<glyph unicode="&#x2007;" horiz-adv-x="324" />
<glyph unicode="&#x2008;" horiz-adv-x="243" />
<glyph unicode="&#x2009;" horiz-adv-x="389" />
<glyph unicode="&#x200a;" horiz-adv-x="108" />
<glyph unicode="&#x2010;" horiz-adv-x="847" d="M127 512v215h594v-215h-594z" />
<glyph unicode="&#x2011;" horiz-adv-x="847" d="M127 512v215h594v-215h-594z" />
<glyph unicode="&#x2012;" horiz-adv-x="847" d="M127 512v215h594v-215h-594z" />
<glyph unicode="&#x2013;" horiz-adv-x="1216" d="M127 512v215h963v-215h-963z" />
<glyph unicode="&#x2014;" horiz-adv-x="1871" d="M127 512v215h1618v-215h-1618z" />
<glyph unicode="&#x2018;" horiz-adv-x="579" d="M121 829v328q0 111 80 194t200 83h84v-154h-73q-65 0 -96 -37t-31 -96v-21h133v-297h-297z" />
<glyph unicode="&#x2019;" horiz-adv-x="573" d="M104 829v154h74q65 0 96 37t31 96v21h-133v297h297v-328q0 -111 -80.5 -194t-200.5 -83h-84z" />
<glyph unicode="&#x201a;" horiz-adv-x="557" d="M63 -154h74q65 0 96 37.5t31 96.5v20h-133v297h297v-328q0 -110 -80.5 -193t-200.5 -83h-84v153z" />
<glyph unicode="&#x201c;" horiz-adv-x="999" d="M121 827v328q0 111 80 194t200 83h84v-154h-73q-65 0 -96 -37t-31 -96v-21h133v-297h-297zM541 827v328q0 111 80 194t200 83h84v-154h-74q-65 0 -95.5 -37t-30.5 -96v-21h133v-297h-297z" />
<glyph unicode="&#x201d;" horiz-adv-x="993" d="M104 829v154h74q65 0 96 37t31 96v21h-133v297h297v-328q0 -111 -80.5 -194t-200.5 -83h-84zM524 829v154h74q65 0 96 37t31 96v21h-133v297h297v-328q0 -111 -80.5 -194t-200.5 -83h-84z" />
<glyph unicode="&#x201e;" horiz-adv-x="976" d="M63 -154h74q65 0 96 37.5t31 96.5v20h-133v297h297v-328q0 -110 -80.5 -193t-200.5 -83h-84v153zM483 -154h74q65 0 96 37.5t31 96.5v20h-133v297h297v-328q0 -110 -80.5 -193t-200.5 -83h-84v153z" />
<glyph unicode="&#x2022;" horiz-adv-x="1122" d="M141 717q0 173 123.5 296.5t296.5 123.5t296.5 -123.5t123.5 -296.5t-123.5 -296.5t-296.5 -123.5t-296.5 123.5t-123.5 296.5z" />
<glyph unicode="&#x2026;" horiz-adv-x="1595" d="M127 0v297h297v-297h-297zM649 0v297h297v-297h-297zM1171 0v297h297v-297h-297z" />
<glyph unicode="&#x202f;" horiz-adv-x="389" />
<glyph unicode="&#x2039;" horiz-adv-x="741" d="M66 584l296 440h308l-297 -440l297 -441h-308z" />
<glyph unicode="&#x203a;" horiz-adv-x="741" d="M72 143l297 441l-297 440h307l297 -440l-297 -441h-307z" />
<glyph unicode="&#x205f;" horiz-adv-x="486" />
<glyph unicode="&#x20ac;" horiz-adv-x="1439" d="M92 285v225l180 41q-8 75 -10 125l-170 -37v225l184 41q42 254 187 401.5t362 147.5q206 0 348 -128.5t173 -342.5h-273q-18 106 -81.5 171t-157.5 65h-17q-94 0 -159.5 -65t-96.5 -185l352 78v-226l-381 -84v-20q0 -21 5 -109l290 66v-225l-241 -54q74 -180 231 -180h17 q94 0 157.5 65t81.5 171h273q-26 -214 -169.5 -342.5t-351.5 -128.5q-177 0 -304 94t-193 264z" />
<glyph unicode="&#x2122;" horiz-adv-x="1994" d="M74 1229v205h747v-205h-256v-574h-235v574h-256zM932 655v779h311l148 -396l143 396h311v-779h-231v414l-156 -414h-131l-164 428v-428h-231z" />
<glyph unicode="&#x25fc;" horiz-adv-x="1024" d="M0 0v1024h1024v-1024h-1024z" />
</font>
</defs>
</svg>
