<?xml version="1.0" encoding="UTF-8" standalone="no"?>
<!DOCTYPE svg  PUBLIC '-//W3C//DTD SVG 1.1//EN'  'http://www.w3.org/Graphics/SVG/1.1/DTD/svg11.dtd'>
<svg version="1.1" xmlns="http://www.w3.org/2000/svg">
<defs>
<font id="KingsCaslon-BoldItalic" horiz-adv-x="350">
<font-face font-family="Kings Caslon" panose-1="2 0 8 3 0 0 0 9 0 3" ascent="800" units-per-em="1000" underline-position="-150" font-style="italic" bbox="-225 -289 1105 915" x-height="446" slope="-19" cap-height="673" unicode-range="U+0020-FB04" descent="-200" underline-thickness="50" font-weight="700"/>
<missing-glyph d="M50 700h460v-700h-460v700zM115 54h330v592h-330v-592z" horiz-adv-x="560"/>
<glyph glyph-name="ff" d="M128 379h-82l18 52h78q16 50 38 99.5t55 88.5t78.5 63.5t107.5 24.5q37 0 74.5 -13t54.5 -34q25 21 56.5 34t72.5 13q57 0 88 -19.5t31 -53.5q0 -20 -12.5 -35.5t-41.5 -15.5t-41 13.5t-18 30t-10.5 30t-18.5 13.5q-8 0 -15.5 -6.5t-16.5 -22.5t-19 -43.5t-23 -70.5 l-29 -96h98l-18 -52h-96l-41 -143q-11 -38 -24 -82.5t-29.5 -89.5t-36 -88.5t-42.5 -80.5q-11 -18 -27.5 -36.5t-38 -33.5t-48 -24.5t-58.5 -9.5q-51 0 -76.5 18t-25.5 48q0 19 12.5 35.5t40.5 16.5q22 0 33.5 -11.5t18.5 -25t13 -25t18 -11.5t24.5 20t23.5 49t21 60.5 t17 55.5l105 358h-169l-41 -143q-11 -38 -24 -82.5t-29.5 -89.5t-36 -88.5t-42.5 -80.5q-11 -18 -27.5 -36.5t-38 -33.5t-48 -24.5t-58.5 -9.5q-51 0 -76.5 18t-25.5 47q0 19 12.5 35t40.5 16q22 0 33.5 -11t19 -24.5t14 -24.5t19.5 -11q10 0 22 20t23 49t21 60.5t17 55.5z M431 431q11 35 25 77.5t37 81.5q-19 4 -29 17t-18.5 27t-18.5 25t-28 11q-11 0 -24.5 -6.5t-27 -22.5t-27.5 -43.5t-27 -70.5l-29 -96h167z" unicode="ff" horiz-adv-x="595"/>
<glyph glyph-name="fi" d="M128 379h-82l18 52h78q14 46 33 94.5t48 89t72 66.5t105 26q72 0 109.5 -23.5t37.5 -54.5q0 -20 -13 -33.5t-39 -13.5q-24 0 -37.5 13.5t-23.5 30t-21 30.5t-31 14q-10 0 -20 -6.5t-21.5 -22.5t-23 -43.5t-24.5 -70.5l-29 -96h200q32 0 44.5 -15t12.5 -35t-10.5 -48 t-25.5 -63l-76 -181q-5 -11 -3.5 -16.5t6.5 -5.5q6 0 16 7t21.5 18t23.5 24t23 26l27 -20q-12 -16 -30.5 -37.5t-41.5 -41t-51 -33t-60 -13.5t-41.5 15t-9.5 34q0 12 4 25.5t12 30.5l103 249q5 12 2.5 20t-10.5 8h-152l-41 -143q-11 -38 -24 -82.5t-29.5 -89.5t-36 -88.5 t-42.5 -80.5q-11 -18 -27.5 -36.5t-38 -33.5t-48 -24.5t-58.5 -9.5q-51 0 -76.5 18t-25.5 47q0 19 12.5 35t40.5 16q22 0 33.5 -11t19 -24.5t14 -24.5t19.5 -11q10 0 22 20t23 49t21 60.5t17 55.5z" unicode="fi" horiz-adv-x="551"/>
<glyph glyph-name="fl" d="M128 379h-82l18 52h78q16 48 36.5 97t52.5 89t79.5 65t117.5 25q30 0 64.5 -8.5t58.5 -22.5l111 13l5 -11l-242 -578q-11 -26 0 -26q7 0 30.5 17.5t68.5 70.5l28 -22q-15 -21 -38 -46t-50 -46.5t-57.5 -36t-61.5 -14.5q-29 0 -41 12t-12 32q0 21 12 48l119 290h-175 l-41 -143q-11 -38 -24 -82.5t-29.5 -89.5t-36 -88.5t-42.5 -80.5q-11 -18 -27.5 -36.5t-38 -33.5t-48 -24.5t-58.5 -9.5q-51 0 -76.5 18t-25.5 47q0 19 12.5 35t40.5 16q22 0 33.5 -11t19 -24.5t14 -24.5t19.5 -11q10 0 22 20t23 49t21 60.5t17 55.5zM445 431l65 158 q-8 12 -18.5 25.5t-23 25t-27.5 19t-32 7.5q-16 0 -31.5 -5.5t-30 -21t-28 -42.5t-26.5 -70l-29 -96h181z" unicode="fl" horiz-adv-x="574"/>
<glyph glyph-name="ffi" d="M128 379h-82l18 52h78q16 50 38 99.5t55 88.5t78.5 63.5t107.5 24.5q19 0 39 -4t38 -10.5t32.5 -16t21.5 -20.5q26 23 60.5 37t79.5 14q72 0 109.5 -23.5t37.5 -54.5q0 -20 -13 -33.5t-39 -13.5q-24 0 -37.5 13.5t-23.5 30t-21 30.5t-31 14q-10 0 -20 -6.5t-21.5 -22.5 t-23 -43.5t-24.5 -70.5l-29 -96h200q32 0 44.5 -15t12.5 -35t-10.5 -48t-25.5 -63l-76 -181q-5 -11 -3.5 -16.5t6.5 -5.5q6 0 16 7t21.5 18t23.5 24t23 26l27 -20q-12 -16 -30.5 -37.5t-41.5 -41t-51 -33t-60 -13.5t-41.5 15t-9.5 34q0 12 4 25.5t12 30.5l103 249 q5 12 2.5 20t-10.5 8h-152l-41 -143q-11 -38 -24 -82.5t-29.5 -89.5t-36 -88.5t-42.5 -80.5q-11 -18 -27.5 -36.5t-38 -33.5t-48 -24.5t-58.5 -9.5q-51 0 -76.5 18t-25.5 47q0 19 12.5 35t40.5 16q22 0 33.5 -11t19 -24.5t14 -24.5t19.5 -11q10 0 22 20t23 49t21 60.5 t17 55.5l105 358h-172l-41 -143q-11 -38 -24 -82.5t-29.5 -89.5t-36 -88.5t-42.5 -80.5q-11 -18 -27.5 -36.5t-38 -33.5t-48 -24.5t-58.5 -9.5q-51 0 -76.5 18t-25.5 47q0 19 12.5 35t40.5 16q22 0 33.5 -11t19 -24.5t14 -24.5t19.5 -11q10 0 22 20t23 49t21 60.5t17 55.5z M434 431q12 39 27 80t37 78q-21 3 -32 16t-19.5 27.5t-18.5 26t-29 11.5q-11 0 -24.5 -6.5t-27 -22.5t-27.5 -43.5t-27 -70.5l-29 -96h170z" unicode="ffi" horiz-adv-x="843"/>
<glyph glyph-name="ffl" d="M128 379h-82l18 52h78q16 50 38 99.5t55 88.5t78.5 63.5t107.5 24.5q19 0 40 -4t39.5 -11t32.5 -16.5t21 -21.5q29 24 68 38.5t92 14.5q30 0 64.5 -8.5t58.5 -22.5l111 13l5 -11l-242 -578q-11 -26 0 -26q7 0 30.5 17.5t68.5 70.5l28 -22q-15 -21 -38 -46t-50 -46.5 t-57.5 -36t-61.5 -14.5q-29 0 -41 12t-12 32q0 21 12 48l119 290h-175l-41 -143q-11 -38 -24 -82.5t-29.5 -89.5t-36 -88.5t-42.5 -80.5q-11 -18 -27.5 -36.5t-38 -33.5t-48 -24.5t-58.5 -9.5q-51 0 -76.5 18t-25.5 47q0 19 12.5 35t40.5 16q22 0 33.5 -11t19 -24.5 t14 -24.5t19.5 -11q10 0 22 20t23 49t21 60.5t17 55.5l105 358h-166l-41 -143q-11 -38 -24 -82.5t-29.5 -89.5t-36 -88.5t-42.5 -80.5q-11 -18 -27.5 -36.5t-38 -33.5t-48 -24.5t-58.5 -9.5q-51 0 -76.5 18t-25.5 47q0 19 12.5 35t40.5 16q22 0 33.5 -11t19 -24.5t14 -24.5 t19.5 -11q10 0 22 20t23 49t21 60.5t17 55.5zM731 431l65 158q-8 12 -18.5 25.5t-23 25t-27.5 19t-32 7.5q-16 0 -31.5 -5.5t-30 -21t-28 -42.5t-26.5 -70l-29 -96h181zM428 431q13 40 29 81t40 77q-20 3 -31 16t-19.5 27.5t-18.5 26t-29 11.5q-11 0 -24.5 -6.5t-27 -22.5 t-27.5 -43.5t-27 -70.5l-29 -96h164z" unicode="ffl" horiz-adv-x="860"/>
<glyph glyph-name=".notdef" d="M50 700h460v-700h-460v700zM115 54h330v592h-330v-592z" horiz-adv-x="560"/>
<glyph glyph-name=".null" horiz-adv-x="0"/>
<glyph glyph-name="nonmarkingreturn" horiz-adv-x="460"/>
<glyph glyph-name="space" unicode=" " horiz-adv-x="184"/>
<glyph glyph-name="exclam" d="M94 193q21 91 42.5 199t48.5 236q8 37 33 49t50 12q35 0 48 -17t13 -34q0 -7 -2 -15q-4 -17 -21.5 -54.5t-48.5 -110.5q-17 -39 -33.5 -77.5l-31.5 -73.5t-28 -64t-22 -50h-48zM25 52q0 30 21 53.5t56 23.5q28 0 44.5 -16.5t16.5 -42.5q0 -30 -22 -54.5t-55 -24.5 q-30 0 -45.5 18t-15.5 43z" unicode="!" horiz-adv-x="257"/>
<glyph glyph-name="quotedbl" d="M157 424q1 6 4 23.5t7 39.5t8.5 47t8.5 47t6.5 38.5t3.5 22.5q3 21 11.5 33.5t19 19t21.5 9t21 2.5q29 0 41.5 -13.5t12.5 -27.5t-7 -31q-4 -9 -18.5 -38t-32.5 -63t-34.5 -65t-23.5 -44h-49zM341 424q1 6 4 23.5t7 39.5t8.5 47t8.5 47t6.5 38.5t3.5 22.5q3 21 11.5 33.5 t19 19t21.5 9t21 2.5q29 0 41.5 -13.5t12.5 -27.5t-7 -31q-4 -9 -18.5 -38t-32.5 -63t-34.5 -65t-23.5 -44h-49z" unicode='&quot;' horiz-adv-x="412"/>
<glyph glyph-name="numbersign" d="M127 226h-96l14 52h98l46 148h-113l14 52h115l37 122h55l-38 -122h129l37 122h55l-38 -122h105l-15 -52h-106l-45 -148h121l-15 -52h-122l-44 -143h-54l43 143h-128l-44 -143h-54zM326 278l46 148h-129l-45 -148h128z" unicode="#" horiz-adv-x="518"/>
<glyph glyph-name="dollar" d="M98 -118l36 107q-19 2 -35 6q-43 10 -70 25t-39 33.5t-12 36.5q0 7 2.5 16t9 17t18.5 13.5t30 5.5q26 0 41 -17t31 -38t39 -38q2 -2 5 -3l86 254q-8 7 -16 16q-43 42 -68.5 85.5t-25.5 88.5q0 42 16.5 76t46.5 58t71 36.5t91 12.5h11l25 71h55l-26 -77q5 -1 10 -3 q33 -8 56.5 -22t36 -32t12.5 -37q0 -18 -12.5 -33.5t-41.5 -15.5t-44.5 16.5t-28.5 35.5q-6 9 -13 18l-68 -200l13 -12q18 -19 37 -40.5t35 -46.5t26 -52t10 -56q0 -42 -16 -78.5t-47.5 -64t-77 -43.5t-103.5 -16h-16l-35 -103h-55zM204 32h11q45 0 75.5 32.5t30.5 91.5 q0 16 -4 32.5t-15 34.5q-9 15 -22 32zM351 628q-5 1 -10 1q-43 0 -68.5 -29t-25.5 -77q0 -15 4.5 -28.5t14.5 -29.5q8 -13 21 -28z" unicode="$" horiz-adv-x="518"/>
<glyph glyph-name="percent" d="M668 673h87l-498 -690h-87zM96 448q0 42 16 82.5t44.5 72t66.5 51t83 19.5q64 0 103 -31.5t39 -94.5q0 -44 -16.5 -85.5t-45.5 -74t-68 -52.5t-85 -20q-65 0 -101 35.5t-36 97.5zM235 355q24 0 43 23t31.5 57.5t19.5 73t7 70.5q0 9 -1 18t-5 16.5t-10.5 12t-18.5 4.5 q-15 0 -28 -12.5t-24 -32.5t-19 -44.5t-14 -49t-9 -45.5t-3 -34q0 -8 0.5 -18t3.5 -18.5t9 -14.5t18 -6zM477 124q0 42 16 82.5t44.5 72t66.5 51t83 19.5q64 0 103 -31.5t39 -94.5q0 -44 -16.5 -85.5t-45.5 -74t-68 -52.5t-85 -20q-65 0 -101 35.5t-36 97.5zM616 31 q24 0 43 23t31.5 57.5t19.5 73t7 70.5q0 9 -1 18t-5 16.5t-10.5 12t-18.5 4.5q-15 0 -28 -12.5t-24 -32.5t-19 -44.5t-14 -49t-9 -45.5t-3 -34q0 -8 0.5 -18t3.5 -18.5t9 -14.5t18 -6z" unicode="%" horiz-adv-x="866"/>
<glyph glyph-name="ampersand" d="M408 595q-14 -4 -22.5 -16.5t-8.5 -26.5q0 -18 10.5 -30t31.5 -12q31 0 45 18.5t14 47.5q0 20 -7.5 36.5t-20 28.5t-29 19t-34.5 7q-35 0 -60 -15.5t-41 -39.5t-23.5 -54t-7.5 -59q0 -16 3 -35q21 6 41 6q45 0 66.5 -22.5t21.5 -53.5q0 -29 -23.5 -50t-57.5 -21 q-30 0 -58 13q-19 10 -35 23q-1 -2 -1 -3q-10 -29 -10 -74q0 -53 23.5 -93t61.5 -66.5t86.5 -39.5t99.5 -13q43 0 83 11t71 33t49.5 55t18.5 76q0 27 -8 52t-24.5 44.5t-41 31.5t-57.5 12q-29 0 -50 -9.5t-35 -25t-21 -34.5t-7 -37q0 -40 20 -68.5t66 -28.5q12 0 24.5 3 t23 10.5t17.5 20t7 30.5q0 28 -14 41t-34 13q-24 0 -31 -14q23 -2 27.5 -13.5t4.5 -19.5q0 -14 -8.5 -23t-24.5 -9q-18 0 -29.5 12.5t-11.5 29.5q0 24 20.5 46t55.5 22q38 0 60 -25t22 -57q0 -20 -7.5 -38.5t-22 -33t-35.5 -23.5t-48 -9q-60 0 -98.5 37t-38.5 102 q0 60 27.5 100.5t70.5 60.5q35 16 75 24.5t80 16.5q24 5 51 12t49.5 20t37 33.5t14.5 53.5q0 26 -16 46t-51 20q-22 0 -43.5 -13t-25.5 -40q11 8 27 8q17 0 28 -11t11 -28q0 -23 -14.5 -34.5t-34.5 -11.5q-30 0 -43 20t-13 42q0 20 8 38t23 32t35.5 22.5t45.5 8.5 q53 0 86 -33t33 -96q0 -41 -16 -72.5t-42 -54.5t-59 -37t-67 -20q13 -10 25 -23t21.5 -31t15 -42t5.5 -54q0 -59 -24.5 -107t-68 -82t-102.5 -52.5t-128 -18.5q-70 0 -129 16.5t-102 50.5t-67 84t-24 118q0 48 19 88.5t49 69.5q4 4 8 7l-6 14q-12 32 -12 70q0 49 19.5 87.5 t50 64.5t68 39.5t74.5 13.5q34 0 62 -9t48.5 -26.5t32 -41.5t11.5 -54q0 -21 -8 -39.5t-21.5 -33t-32.5 -22.5t-41 -8q-35 0 -57 21.5t-22 51.5q0 32 19.5 51t39.5 24zM296 434q-11 0 -27 -6q7 -16 18 -27t27 -11q8 0 14.5 4t6.5 15q0 13 -12.5 19t-26.5 6z" unicode="&amp;" horiz-adv-x="807"/>
<glyph glyph-name="quotesingle" d="M157 424q1 6 4 23.5t7 39.5t8.5 47t8.5 47t6.5 38.5t3.5 22.5q3 21 11.5 33.5t19 19t21.5 9t21 2.5q29 0 41.5 -13.5t12.5 -27.5t-7 -31q-4 -9 -18.5 -38t-32.5 -63t-34.5 -65t-23.5 -44h-49z" unicode="&apos;" horiz-adv-x="228"/>
<glyph glyph-name="parenleft" d="M202 -142q-14 17 -37.5 45.5t-45.5 68.5t-38 91.5t-16 115.5q0 69 14 129.5t38 113t55 97.5t65 83q45 49 89.5 86.5t82.5 63.5l25 -36q-50 -45 -95.5 -108t-80.5 -136.5t-55.5 -154.5t-20.5 -163q0 -51 7.5 -95.5t17.5 -79.5t20 -59.5t15 -36.5z" unicode="(" horiz-adv-x="317"/>
<glyph glyph-name="parenright" d="M-26 -106q50 45 95.5 108t80.5 136.5t55.5 154.5t20.5 163q0 51 -7.5 95.5t-17.5 79.5t-20 59.5t-15 36.5l40 25q14 -17 37.5 -45.5t45.5 -68.5t38 -91.5t16 -115.5q0 -69 -14 -129.5t-38 -113t-55 -97.5t-65 -83q-45 -49 -89.5 -86.5t-82.5 -63.5z" unicode=")" horiz-adv-x="353"/>
<glyph glyph-name="asterisk" d="M300 513l-20 -13q-21 -12 -35.5 -23t-25.5 -20t-21 -14t-21 -5q-16 0 -25 12.5t-9 26.5q0 11 5.5 21t19.5 16q12 5 22.5 6.5t22 2.5t25 3t31.5 8l22 8l-20 11q-15 8 -31 12.5t-30 10t-23 12.5t-9 21q0 17 14 32.5t34 15.5q14 0 22 -7.5t14.5 -18.5t13.5 -24t21 -25 l16 -14l3 22q2 28 0.5 45t-1.5 37t11.5 36t36.5 16q15 0 26.5 -9.5t11.5 -24.5q0 -14 -5.5 -26.5t-13.5 -24.5t-16.5 -25t-14.5 -29l-8 -17l23 14q19 11 33.5 23.5t26 22.5t22 16.5t21.5 6.5q16 0 25 -14t9 -28q0 -21 -14 -30t-35 -13t-45.5 -7.5t-45.5 -12.5l-9 -4l17 -8 q14 -8 26 -12t22 -7t19.5 -5.5t18.5 -7.5q15 -8 15 -26q0 -17 -14.5 -34.5t-33.5 -17.5q-15 0 -22 6.5t-14 17.5t-16 25.5t-27 30.5l-14 10l-2 -24q-3 -25 -1 -41.5t2 -34.5q0 -24 -11.5 -39t-35.5 -15q-16 0 -26.5 9t-10.5 24q0 14 5 25t12 21.5t14.5 21.5t13.5 26z" unicode="*" horiz-adv-x="426"/>
<glyph glyph-name="plus" d="M100 356h153v153h64v-153h151v-60h-151v-153h-64v153h-153v60z" unicode="+" horiz-adv-x="518"/>
<glyph glyph-name="comma" d="M-34 -161q16 13 34.5 28.5t34 33t25.5 37t10 39.5q0 17 -8.5 22.5t-15.5 7.5q-23 8 -40 22t-17 48q0 38 23 57t58 19q42 0 65 -30t23 -73q0 -42 -13 -77.5t-34.5 -66t-50 -56.5t-59.5 -50z" unicode="," horiz-adv-x="260"/>
<glyph glyph-name="hyphen" d="M72 298h247l-34 -90h-247z" unicode="-" horiz-adv-x="342"/>
<glyph glyph-name="period" d="M1 61q0 36 24.5 63.5t66.5 27.5q31 0 50.5 -19.5t19.5 -49.5q0 -17 -7 -33.5t-19 -29.5t-29 -21t-36 -8q-34 0 -52 20.5t-18 49.5z" unicode="." horiz-adv-x="260"/>
<glyph glyph-name="slash" d="M467 732h89l-537 -817h-89z" unicode="/" horiz-adv-x="426"/>
<glyph glyph-name="zero" d="M186 -17q-36 0 -65 9.5t-49.5 31.5t-32 58.5t-11.5 90.5q0 49 10.5 104.5t31.5 111t51.5 107t70.5 91t89.5 63t107.5 23.5q36 0 65.5 -11t50.5 -34.5t32.5 -60.5t11.5 -90t-11 -110t-32 -112t-52 -104.5t-71.5 -86.5t-89.5 -59t-107 -22zM205 25q32 0 61 29.5t53 76 t43 104.5t32 115t20 107t7 82q0 46 -11.5 69t-38.5 23q-33 0 -62.5 -29t-53.5 -75t-42.5 -103.5t-31.5 -115t-19.5 -108.5t-6.5 -85q0 -45 10.5 -67.5t39.5 -22.5z" unicode="0" horiz-adv-x="518"/>
<glyph glyph-name="one" d="M16 38l79 8q23 2 35 12.5t19 30.5l149 432q8 24 8 31q0 8 -8 8q-5 0 -13.5 -2.5t-19.5 -5.5l-94 -27l-12 43q63 19 108.5 37.5t76.5 34.5t48 27.5t22 16.5h70l-186 -542q-7 -20 -11.5 -37.5t-4 -30.5t8 -21t25.5 -9l80 -6l-13 -38h-378z" unicode="1" horiz-adv-x="518"/>
<glyph glyph-name="two" d="M335 95q14 0 21.5 3.5t12.5 10.5l45 52h47l-70 -161h-398q17 58 43 105.5t59.5 89t73 79t83.5 76.5q34 30 61.5 55.5t47 48.5t29.5 47t10 51q0 28 -16 44.5t-43 16.5q-30 0 -58 -13.5t-52 -32t-42.5 -38t-28.5 -31.5l-36 26q14 19 37 44.5t56 49t76 39.5t98 16 q64 0 106 -30t42 -89q0 -35 -11.5 -63.5t-35 -55.5t-60 -55t-86.5 -62q-49 -33 -85.5 -59t-65 -51.5t-51 -52t-41.5 -60.5h232z" unicode="2" horiz-adv-x="518"/>
<glyph glyph-name="three" d="M167 343q50 15 92.5 33.5t73 43.5t47.5 56.5t17 72.5q0 28 -13.5 46t-44.5 18q-20 0 -41.5 -9t-44 -24t-45 -35t-43.5 -43l-32 26q8 10 30 33.5t55 48.5t74.5 44t89.5 19q75 0 109.5 -31t34.5 -85q0 -31 -13.5 -57t-36.5 -47.5t-52.5 -40.5t-62.5 -37q48 -14 77 -45.5 t29 -87.5q0 -50 -25 -97t-67 -83t-97 -57.5t-115 -21.5q-30 0 -60 4.5t-54.5 15t-39.5 27t-15 40.5q0 20 14 36.5t43 16.5q20 0 32 -7t20 -18t14.5 -23t14 -23t19 -18t30.5 -7q27 0 53 12t47 35.5t33.5 58t12.5 78.5q0 50 -16 77t-51 27q-20 0 -38.5 -3.5t-43.5 -8.5z" unicode="3" horiz-adv-x="518"/>
<glyph glyph-name="four" d="M266 178h-241l16 54l400 441h117l-146 -418h86l-25 -77h-86l-60 -178h-124zM292 255l107 294l-266 -294h159z" unicode="4" horiz-adv-x="518"/>
<glyph glyph-name="five" d="M213 649h218q18 0 29 3t18.5 9t12 15.5t9.5 21.5h49l-35 -115q-6 -20 -18 -25.5t-29 -5.5h-226l-53 -149q23 8 50 12.5t65 4.5q27 0 55.5 -7.5t52 -26.5t38.5 -51.5t15 -81.5q0 -51 -22.5 -100t-62 -86.5t-93.5 -60.5t-116 -23q-44 0 -74.5 7.5t-49 19.5t-27 27t-8.5 30 q0 21 13 38.5t46 17.5q29 0 42 -15t22 -33t21.5 -33t39.5 -15q31 0 57 17.5t44.5 46t28.5 64t10 70.5q0 57 -25.5 80.5t-64.5 23.5q-23 0 -40 -3.5t-30.5 -7.5t-25.5 -7.5t-24 -3.5q-18 0 -21 12t6 38z" unicode="5" horiz-adv-x="518"/>
<glyph glyph-name="six" d="M547 652q-38 -15 -79 -37t-80.5 -52t-76.5 -68t-67 -84q26 16 55.5 22t54.5 6q75 0 109 -39t34 -112q0 -54 -24.5 -108t-65 -98t-93 -71.5t-107.5 -27.5q-91 0 -129.5 47t-38.5 131q0 97 40 181t107.5 152t157 118.5t188.5 80.5zM204 23q32 0 61.5 29.5t52 73t35.5 93.5 t13 91q0 43 -14 62.5t-44 19.5q-37 0 -66 -27t-48.5 -67.5t-29.5 -87t-10 -84.5q0 -59 13.5 -81t36.5 -22z" unicode="6" horiz-adv-x="518"/>
<glyph glyph-name="seven" d="M214 689h45q-4 -18 1 -29.5t31 -11.5h281l10 -23q-57 -72 -109 -148t-95.5 -150.5t-75.5 -144.5t-50 -131q-11 -38 -25.5 -57t-48.5 -19q-33 0 -43.5 18t-10.5 36q0 17 7 39t20 45q31 56 75.5 122t89.5 128t84 112.5t59 76.5h-200q-18 0 -29.5 -2.5t-19.5 -8t-14.5 -14.5 t-13.5 -23h-55z" unicode="7" horiz-adv-x="518"/>
<glyph glyph-name="eight" d="M212 382q-6 7 -15.5 19t-18.5 28.5t-15.5 36.5t-6.5 41q0 40 18 71t47.5 52t68 32t79.5 11q81 0 124 -33t43 -87q0 -32 -15 -59t-39 -49.5t-54 -40.5t-59 -31l27 -33q13 -15 25.5 -33t22.5 -37t16.5 -39t6.5 -39q0 -54 -20 -93.5t-53 -65t-76 -38t-88 -12.5 q-57 0 -97 13.5t-66 36t-38 51.5t-12 60q0 42 20.5 76t51.5 60.5t68.5 46t72.5 33.5zM260 320q-24 -14 -44.5 -30t-35.5 -36.5t-24 -46.5t-9 -58q0 -25 5.5 -47t17 -38t29 -25.5t41.5 -9.5q46 0 75 33t29 90q0 35 -11.5 62.5t-30.5 51.5zM333 410q39 26 66.5 61t27.5 84 q0 32 -15 53.5t-47 21.5q-37 0 -62 -27t-25 -71q0 -39 17.5 -69t37.5 -53z" unicode="8" horiz-adv-x="518"/>
<glyph glyph-name="nine" d="M29 4q38 15 79 37t80.5 52t76.5 68t67 84q-26 -16 -55.5 -22t-54.5 -6q-75 0 -109 38t-34 106q0 56 24.5 112t65 100.5t92.5 72t108 27.5q91 0 129.5 -47t38.5 -131q0 -97 -40 -181t-107.5 -152t-157 -118.5t-188.5 -80.5zM268 264q37 0 66 27t48.5 67.5t29.5 87t10 84.5 q0 59 -13.5 81t-36.5 22q-32 0 -61.5 -29.5t-52 -73t-35.5 -93.5t-13 -91q0 -43 14 -62.5t44 -19.5z" unicode="9" horiz-adv-x="518"/>
<glyph glyph-name="colon" d="M1 61q0 36 24.5 63.5t66.5 27.5q31 0 50.5 -19.5t19.5 -49.5q0 -17 -7 -33.5t-19 -29.5t-29 -21t-36 -8q-34 0 -52 20.5t-18 49.5zM84 341q0 36 24.5 63.5t66.5 27.5q31 0 50.5 -19.5t19.5 -49.5q0 -17 -7 -33.5t-19 -29.5t-29 -21t-36 -8q-34 0 -52 20.5t-18 49.5z" unicode=":" horiz-adv-x="260"/>
<glyph glyph-name="semicolon" d="M74 341q0 36 24.5 63.5t66.5 27.5q31 0 50.5 -19.5t19.5 -49.5q0 -17 -7 -33.5t-19 -29.5t-29 -21t-36 -8q-34 0 -52 20.5t-18 49.5zM-32 -161q16 13 34.5 28.5t34 33t25.5 37t10 39.5q0 17 -8.5 22.5t-15.5 7.5q-23 8 -40 22t-17 48q0 38 23 57t58 19q42 0 65 -30 t23 -73q0 -42 -13 -77.5t-34.5 -66t-50 -56.5t-59.5 -50z" unicode=";" horiz-adv-x="260"/>
<glyph glyph-name="less" d="M80 342l379 178v-72l-284 -129l284 -132v-72l-379 177v50z" unicode="&lt;" horiz-adv-x="518"/>
<glyph glyph-name="equal" d="M100 417h366v-63h-366v63zM100 286h366v-63h-366v63z" unicode="=" horiz-adv-x="518"/>
<glyph glyph-name="greater" d="M93 187l284 129l-284 132v72l379 -177v-50l-379 -178v72z" unicode="&gt;" horiz-adv-x="518"/>
<glyph glyph-name="question" d="M283 165q-71 11 -104 40t-33 71q0 25 9.5 46.5t26 41.5t38.5 38.5t46 36.5q19 15 39 31.5t35.5 35t25.5 39.5t10 45q0 37 -14 48.5t-30 11.5q-21 0 -32 -13.5t-20 -30t-20.5 -30t-32.5 -13.5q-29 0 -40.5 15.5t-11.5 29.5q0 18 11 32.5t30.5 25.5t46 17t58.5 6 q81 0 122 -35t41 -98q0 -30 -10 -54t-28 -46t-43.5 -43.5t-57.5 -45.5q-17 -13 -34.5 -26t-32 -27.5t-23.5 -30t-9 -33.5q0 -14 8.5 -26t40.5 -22zM115 52q0 30 21 53.5t56 23.5q28 0 44.5 -16.5t16.5 -42.5q0 -30 -22 -54.5t-55 -24.5q-30 0 -45.5 18t-15.5 43z" unicode="?" horiz-adv-x="404"/>
<glyph glyph-name="at" d="M605 -106q-46 -30 -102.5 -41t-105.5 -11q-63 0 -126.5 19t-115 57.5t-83.5 97t-32 138.5q0 89 36 162.5t94.5 125.5t133 80.5t150.5 28.5q77 0 135 -23t97 -61t59 -86.5t20 -98.5q0 -53 -17 -101t-47 -84t-71 -57.5t-89 -21.5q-43 0 -68 19.5t-30 48.5 q-30 -30 -63 -43.5t-70 -13.5q-14 0 -32.5 4t-35.5 16t-28.5 33.5t-11.5 56.5q0 42 19 87.5t51 82.5t74 61t89 24q32 0 48 -11t24 -25l12 36h102l-75 -254q-5 -15 -5 -34q0 -14 6.5 -25t26.5 -11q21 0 43.5 13.5t41 40t31 65.5t12.5 89q0 54 -18 96.5t-51 71.5t-79 44.5 t-101 15.5q-71 0 -130.5 -29.5t-102.5 -77.5t-67 -110.5t-24 -128.5q0 -53 16 -102t51.5 -87t92.5 -61t139 -23q49 0 91.5 12t70.5 29zM349 77q20 0 47 23.5t50 75.5q3 6 8 20.5t10.5 33t9 38.5t3.5 38t-5.5 29.5t-20.5 11.5q-21 0 -44 -21.5t-43 -54.5t-33 -73.5t-13 -77.5 q0 -43 31 -43z" unicode="@" horiz-adv-x="800"/>
<glyph glyph-name="A" d="M-42 38l26 2q27 3 56.5 21t53.5 53l369 534l123 31l-41 -565q-3 -40 5 -56t34 -18l22 -2l-12 -38h-302l12 38l21 2q20 2 36.5 6.5t28.5 14t19.5 25t9.5 40.5l6 70h-207l-53 -80q-21 -32 -25 -53t26 -23l32 -2l-12 -38h-240zM430 247l28 304l-206 -304h178z" unicode="A" horiz-adv-x="676"/>
<glyph glyph-name="B" d="M-29 38l32 2q26 2 39 12.5t24 41.5l163 485q11 31 4.5 41.5t-32.5 12.5l-32 2l13 38h229q67 0 112.5 -11.5t74 -32t41 -48.5t12.5 -61q0 -37 -15.5 -67.5t-42 -53t-62 -38t-75.5 -22.5q67 -20 98.5 -59.5t31.5 -91.5q0 -55 -24.5 -91t-65 -57.5t-93 -30.5t-109.5 -9h-336 zM264 45q84 0 128.5 46.5t44.5 125.5q0 44 -25.5 74.5t-74.5 30.5h-54l-65 -189q-6 -19 -9.5 -33.5t-3.5 -25.5q0 -16 8 -22.5t28 -6.5h23zM350 370q34 0 63 10t50.5 30t34 50t12.5 71q0 42 -21 70t-69 28q-21 0 -29.5 -9t-15.5 -28l-76 -222h51z" unicode="B" horiz-adv-x="637"/>
<glyph glyph-name="C" d="M471 51q-50 -41 -99.5 -54.5t-100.5 -13.5q-64 0 -105.5 19.5t-66 50t-34 68t-9.5 73.5q0 103 40 193.5t105 157.5t146.5 106t164.5 39q37 0 60.5 -5.5t38.5 -11.5t23.5 -11.5t15.5 -5.5q10 0 15.5 6t14.5 20h46l-81 -223h-45q2 19 3 35t1 31q0 63 -21 93t-74 30 q-50 0 -104.5 -38t-100.5 -101t-75.5 -144.5t-29.5 -169.5q0 -76 25.5 -119.5t79.5 -43.5q41 0 78 19.5t68.5 51.5t57 72.5t45.5 82.5h50l-78 -258h-49z" unicode="C" horiz-adv-x="646"/>
<glyph glyph-name="D" d="M-31 38l32 2q26 2 39 12.5t24 41.5l163 485q11 31 4.5 41.5t-32.5 12.5l-32 2l13 38h242q64 0 118.5 -18.5t95 -53.5t63.5 -86t23 -117q0 -57 -14.5 -111t-43.5 -100.5t-72.5 -84t-101.5 -60.5t-112.5 -32.5t-119.5 -9.5h-302zM212 121q-14 -44 -4 -60t57 -16 q55 0 111 24.5t100 72t72 117t28 159.5q0 37 -9.5 74.5t-29.5 67.5t-51 49t-74 19q-13 0 -20.5 -2.5t-12.5 -8.5t-8.5 -15t-7.5 -21z" unicode="D" horiz-adv-x="723"/>
<glyph glyph-name="E" d="M-31 38l32 2q26 2 39 12.5t24 41.5l163 485q11 31 4.5 41.5t-32.5 12.5l-32 2l13 38h457l19 -167h-40l-62 97q-11 19 -23 22.5t-36 3.5h-113l-88 -264h47q49 0 81 19q23 14 37.5 37t27.5 53h41l-91 -270h-42q4 14 5.5 28t1.5 25q0 35 -19 47.5t-54 12.5h-51l-67 -203 q-5 -17 -7 -29.5t2.5 -21.5t15.5 -13.5t31 -4.5h156q20 0 31 4.5t22 18.5l94 117h40l-48 -185h-592z" unicode="E" horiz-adv-x="662"/>
<glyph glyph-name="F" d="M-31 38l32 2q26 2 39 12.5t24 41.5l163 485q11 31 4.5 41.5t-32.5 12.5l-32 2l13 38h467l19 -167h-40l-62 97q-11 19 -23 22.5t-36 3.5h-123l-85 -254h47q49 0 81 19q23 14 37.5 37t27.5 53h41l-93 -288h-42q2 7 3.5 17t3 20.5t2 19.5t0.5 14q0 35 -19 47.5t-54 12.5h-51 l-74 -225q-11 -33 -2 -44.5t38 -14.5l53 -5l-7 -38h-333z" unicode="F" horiz-adv-x="586"/>
<glyph glyph-name="G" d="M490 231q5 13 1 22.5t-18 11.5l-58 6l13 38h289l-14 -40l-47 -6q-14 -2 -22 -11t-14 -27l-58 -178q-10 -7 -30 -17.5t-49 -20.5t-67 -17.5t-83 -7.5q-122 0 -192 58t-70 182q0 72 18.5 134.5t49.5 114.5t73 92.5t88.5 68t96 42t96.5 14.5q43 0 72 -7.5t48 -17t30 -17 t18 -7.5q10 0 17 11t15 25h46l-55 -238h-42q-4 100 -36 154.5t-108 54.5q-55 0 -105 -37t-88.5 -97.5t-61 -138t-22.5 -158.5q0 -32 5.5 -65t18.5 -60.5t35 -45t55 -17.5q20 0 37.5 4.5t34 18.5t31.5 40.5t30 70.5z" unicode="G" horiz-adv-x="689"/>
<glyph glyph-name="H" d="M-31 38l32 2q13 1 22.5 4t17 9t13 16t10.5 25l163 485q11 31 4.5 41.5t-32.5 12.5l-32 2l13 38h299l-13 -38l-35 -2q-27 -2 -40 -12.5t-24 -41.5l-72 -213h235l72 213q11 31 4.5 41.5t-32.5 12.5l-35 2l13 38h297l-13 -38l-30 -2q-27 -2 -40 -12.5t-24 -41.5l-163 -485 q-11 -31 -4.5 -41.5t32.5 -12.5l42 -2l-13 -38h-304l13 38l31 2q27 2 39.5 12.5t23.5 41.5l73 216h-235l-73 -216q-11 -31 -4.5 -41.5t32.5 -12.5l45 -2l-13 -38h-308z" unicode="H" horiz-adv-x="725"/>
<glyph glyph-name="I" d="M-29 38l30 2q13 1 23 4t17.5 9t13 16t10.5 25l163 485q11 31 4.5 41.5t-32.5 12.5l-39 2l13 38h303l-13 -38l-32 -2q-27 -2 -40.5 -12.5t-23.5 -41.5l-163 -485q-11 -31 -4.5 -41.5t32.5 -12.5l46 -3l-13 -37h-308z" unicode="I" horiz-adv-x="362"/>
<glyph glyph-name="J" d="M347 579q11 31 4.5 41t-32.5 12l-39 3l13 38h301l-13 -38l-30 -2q-27 -2 -40.5 -12.5t-23.5 -41.5l-140 -419q-12 -36 -27 -68.5t-39 -56.5t-60 -38t-90 -14q-42 0 -70.5 9t-46.5 23.5t-26 33t-8 36.5q0 30 21.5 53.5t59.5 23.5q25 0 44 -13t19 -42q0 -14 -5 -23 t-11 -15.5t-11 -12.5t-5 -14q0 -11 8 -16t18 -5q26 0 40 18.5t31 67.5z" unicode="J" horiz-adv-x="464"/>
<glyph glyph-name="K" d="M-31 38l30 2q13 1 23 4t17.5 9t13 16t10.5 25l163 485q11 31 4.5 41.5t-32.5 12.5l-39 2l13 38h288l-13 -38l-27 -2q-14 -1 -22 -4t-13.5 -9t-9.5 -16t-9 -25l-68 -202l223 187q17 15 26 26t9 24t-13 17t-34 4l13 38h264l-13 -38q-22 -2 -42 -6.5t-40.5 -13.5 t-42.5 -23.5t-47 -35.5l-151 -125l93 -308q11 -39 37.5 -62t74.5 -23l-11 -38h-318l13 38l40 3q14 1 21 13.5t-4 51.5l-65 226l-66 -55l-62 -183q-11 -31 -4.5 -41t32.5 -12l46 -3l-13 -38h-308z" unicode="K" horiz-adv-x="706"/>
<glyph glyph-name="L" d="M-31 38l30 2q13 1 23 4t17.5 9t13 16t10.5 25l163 485q11 31 4.5 41.5t-32.5 12.5l-39 2l13 38h313l-13 -38l-42 -2q-27 -2 -40.5 -12.5t-23.5 -41.5l-145 -437q-7 -20 -11.5 -36.5t-4.5 -28.5q0 -13 7.5 -22.5t29.5 -9.5h153q19 0 29.5 4.5t21.5 18.5l102 134h40 l-52 -202h-580z" unicode="L" horiz-adv-x="628"/>
<glyph glyph-name="M" d="M-58 37q29 2 51.5 6.5t41.5 17.5t35 36t33 62l195 455q-17 11 -40 15.5t-44 5.5l12 38h237l-24 -509l345 509h237l-12 -36l-50 -5q-15 -2 -24 -12t-16 -31l-152 -448q-11 -33 -13 -52.5t2.5 -30t15 -14t25.5 -4.5l47 -3l-14 -37h-325l12 37l41 3q44 3 61 53l158 461 l-379 -549h-92l30 551l-153 -367q-11 -27 -18.5 -45t-11.5 -31t-5.5 -21.5t-1.5 -15.5q0 -38 82 -38l-13 -38h-285z" unicode="M" horiz-adv-x="907"/>
<glyph glyph-name="N" d="M-53 37q28 1 51 6t41.5 17.5t33.5 36.5t28 63l154 456q-16 9 -38 14t-48 6l12 37h202l129 -507l118 354q6 17 10 35t4 30q0 24 -17 36.5t-62 13.5l13 38h263l-12 -37q-29 -3 -49.5 -8.5t-36 -18.5t-28 -36t-25.5 -60l-174 -521h-84l-138 545l-134 -395q-10 -29 -13 -48.5 t4.5 -31.5t27 -17.5t54.5 -6.5l-12 -38h-286z" unicode="N" horiz-adv-x="696"/>
<glyph glyph-name="O" d="M63 199q0 56 13 114.5t37.5 113t60 102.5t80.5 83.5t99.5 56.5t116.5 21q105 0 158.5 -58.5t53.5 -164.5q0 -55 -13 -112t-37.5 -111t-59.5 -101.5t-79.5 -83t-97.5 -56t-113 -20.5q-109 0 -164 51.5t-55 164.5zM282 26q42 0 78.5 26.5t65.5 69t51.5 96.5t37.5 109 t22.5 105.5t7.5 87.5q0 20 -3.5 42.5t-12.5 41.5t-25 31.5t-41 12.5q-40 0 -75 -26.5t-64 -69.5t-52 -97t-38.5 -109t-23.5 -106t-8 -87t5.5 -60.5t16 -39.5t25.5 -21t33 -6z" unicode="O" horiz-adv-x="672"/>
<glyph glyph-name="P" d="M-31 38l32 2q26 2 39 12.5t24 41.5l163 485q11 31 4.5 41.5t-32.5 12.5l-32 2l13 38h235q122 0 179 -45t57 -119q0 -42 -16 -78t-45 -64t-71.5 -46.5t-94.5 -25.5q-29 -4 -66.5 -4.5t-67.5 -0.5h-21l-62 -188q-11 -33 -2 -45t38 -14l63 -5l-10 -38h-340zM321 339 q37 0 71 9.5t59.5 31t41 55.5t15.5 83q0 51 -26.5 80.5t-74.5 29.5q-14 0 -21 -7.5t-12 -22.5l-87 -259h34z" unicode="P" horiz-adv-x="601"/>
<glyph glyph-name="Q" d="M233 -14q-85 11 -127.5 62t-42.5 151q0 56 13 114.5t37.5 113t60 102.5t80.5 83.5t99.5 56.5t116.5 21q105 0 158.5 -58.5t53.5 -164.5q0 -73 -22.5 -149.5t-64.5 -142.5t-101.5 -115t-133.5 -67l-215 -77q24 -9 78 -16.5t130 -7.5q36 0 59.5 4t39.5 11t25.5 17.5 t18.5 23.5h37q-6 -27 -19 -55.5t-35.5 -51.5t-56.5 -37.5t-83 -14.5q-50 0 -87.5 16t-66.5 35.5t-51 35.5t-39 16q-8 0 -8 -4.5t3 -11t7 -15.5t4 -18q0 -17 -13 -30t-39 -13q-31 0 -42.5 16.5t-11.5 32.5q0 23 15 42t64 37zM282 26q42 0 78.5 26.5t65.5 69t51.5 96.5 t37.5 109t22.5 105.5t7.5 87.5q0 20 -3.5 42.5t-12.5 41.5t-25 31.5t-41 12.5q-40 0 -75 -26.5t-64 -69.5t-52 -97t-38.5 -109t-23.5 -106t-8 -87t5.5 -60.5t16 -39.5t25.5 -21t33 -6z" unicode="Q" horiz-adv-x="672"/>
<glyph glyph-name="R" d="M-31 38l32 2q26 2 39 12.5t24 41.5l163 485q11 31 4.5 41.5t-32.5 12.5l-32 2l13 38h239q64 0 108 -12t70 -32.5t37.5 -48.5t11.5 -61q0 -43 -15 -78t-42.5 -61t-65.5 -43.5t-84 -24.5l66 -163q14 -35 29 -56.5t32.5 -33.5t39 -16.5t49.5 -4.5l-13 -38h-225 q-8 31 -38 105l-83 201h-21l-68 -204q-11 -33 -2 -45t38 -15l50 -4l-10 -38h-327zM331 352q33 0 64 7.5t55 27t38.5 53t14.5 84.5q0 48 -22 76.5t-69 28.5q-17 0 -26 -8.5t-17 -31.5l-79 -237h41z" unicode="R" horiz-adv-x="705"/>
<glyph glyph-name="S" d="M78 242h44q-2 -12 -3 -25t-1 -29q0 -30 7.5 -59.5t23.5 -52.5t41.5 -37.5t60.5 -14.5q49 0 75 29t26 86q0 26 -7 47.5t-18.5 39.5t-26 33.5t-29.5 30.5q-22 22 -43.5 44.5t-38.5 47t-27.5 53t-10.5 62.5q0 90 59.5 141.5t160.5 51.5q34 0 58.5 -6t43 -13.5t31 -13.5 t22.5 -6q20 0 31 31h41l-73 -235h-43q3 30 3 59q0 30 -5 56t-17.5 45.5t-33.5 30.5t-54 11q-42 0 -67.5 -27t-25.5 -81q0 -23 7 -43t19.5 -38t29 -35.5t35.5 -36.5q22 -23 42.5 -46.5t36 -50t24.5 -55t9 -59.5q0 -44 -15 -79.5t-44.5 -61t-73 -39.5t-99.5 -14q-39 0 -68.5 8 t-51 17t-35.5 17t-23 8t-16 -8.5t-14 -19.5h-45z" unicode="S" horiz-adv-x="547"/>
<glyph glyph-name="T" d="M107 37l47 3q28 2 43 16t24 40l178 533h-93q-13 0 -20.5 -4t-13.5 -12l-99 -125h-48l68 185h572l-60 -185h-40l-11 124q-3 17 -19 17h-98l-161 -486q-7 -22 -11 -38t-4 -28q0 -33 40 -36l60 -5l-14 -36h-352z" unicode="T" horiz-adv-x="650"/>
<glyph glyph-name="U" d="M212 554q11 33 11 51q0 24 -23 27l-51 5l14 36h305l-12 -36l-45 -6q-20 -3 -29 -12.5t-16 -29.5l-119 -354q-8 -22 -13.5 -48t-5.5 -54q0 -46 24 -68t75 -22q64 0 97 31.5t56 99.5l122 357q5 15 9.5 33t4.5 28q0 23 -17 33t-62 10l13 38h260l-12 -37q-26 -2 -45.5 -6.5 t-34.5 -17t-28 -36.5t-27 -63l-126 -356q-15 -42 -32.5 -74.5t-44 -54.5t-64 -33.5t-91.5 -11.5q-44 0 -82.5 8t-67 27t-45.5 50.5t-17 79.5q0 26 7 59.5t19 68.5z" unicode="U" horiz-adv-x="670"/>
<glyph glyph-name="V" d="M221 543q1 33 -4 51.5t-14.5 27.5t-24.5 11t-34 2l13 38h323l-13 -38q-30 0 -50 -4.5t-32 -14.5t-17 -24.5t-6 -35.5l-19 -392l241 354q20 29 29.5 48t9.5 36q0 19 -17.5 25t-52.5 8l12 38h278l-12 -37q-23 -1 -44 -5.5t-42 -16.5t-43 -34.5t-48 -60.5l-375 -536h-72z " unicode="V" horiz-adv-x="699"/>
<glyph glyph-name="W" d="M219 561q-1 44 -20 59t-55 15l13 38h288l-13 -38q-26 0 -42 -5t-25 -15.5t-12 -25.5t-4 -34l-17 -395l183 292l5 117q2 40 -9 53t-49 13l13 38h284l-13 -38q-30 0 -49.5 -5t-31 -15t-16 -25t-5.5 -36l-16 -390l221 354q19 31 28 50t9 37q0 17 -14.5 23.5t-44.5 6.5l13 38 h262l-12 -37q-23 -1 -42.5 -4.5t-39 -14.5t-40.5 -33t-46 -60l-345 -541h-81l13 355l-228 -355h-83z" unicode="W" horiz-adv-x="958"/>
<glyph glyph-name="X" d="M-55 0l12 37q23 1 46 6.5t47.5 18t51.5 34t59 54.5l162 166l-78 242q-8 23 -17 37.5t-21 23.5t-28.5 12.5t-38.5 3.5l12 38h301l-13 -38q-35 0 -48.5 -7.5t-13.5 -22.5q0 -10 3 -22t7 -24l43 -133l113 115q22 23 30 38t8 27q0 17 -16.5 23t-47.5 6l13 38h285l-11 -37 q-23 -1 -45.5 -7t-46.5 -18.5t-50.5 -34t-57.5 -53.5l-154 -157l83 -251q8 -25 19.5 -40t26 -23.5t32 -11t37.5 -2.5l-13 -38h-311l13 38q34 0 47.5 7.5t13.5 22.5q0 10 -3 22t-7 24l-46 141l-122 -125q-20 -20 -28 -34.5t-8 -28.5q0 -17 18.5 -23t48.5 -6l-13 -38h-294z " unicode="X" horiz-adv-x="706"/>
<glyph glyph-name="Y" d="M162 0l12 36l44 5q22 2 32 12.5t17 30.5l77 227l-88 247q-17 47 -44.5 62t-67.5 15l13 38h306l-13 -38q-35 0 -48 -8t-13 -23q0 -10 3 -22t7 -24l57 -175l149 160q20 21 27.5 36t7.5 28q0 17 -16.5 22.5t-47.5 5.5l13 38h280l-12 -36q-23 -2 -44 -6t-43 -15t-47 -31.5 t-56 -53.5l-175 -190l-64 -200q-15 -47 -15 -69q0 -17 8 -23.5t27 -8.5l46 -3l-14 -37h-318z" unicode="Y" horiz-adv-x="725"/>
<glyph glyph-name="Z" d="M9 47l495 580h-184q-17 0 -25.5 -5.5t-19.5 -17.5l-106 -116h-51l86 185h476l-9 -47l-495 -579h249q17 0 26 5.5t20 17.5l106 115h51l-86 -185h-547z" unicode="Z" horiz-adv-x="650"/>
<glyph glyph-name="bracketleft" d="M278 746h229l-12 -37l-81 -3q-14 -1 -24.5 -8.5t-16.5 -24.5l-247 -716q-3 -9 -3 -15q0 -17 21 -18l80 -3l-13 -37h-229z" unicode="[" horiz-adv-x="347"/>
<glyph glyph-name="backslash" d="M330 -85l-150 817h83l149 -817h-82z" unicode="\" horiz-adv-x="502"/>
<glyph glyph-name="bracketright" d="M-98 -79l81 3q14 1 24.5 8.5t16.5 24.5l247 716q3 9 3 15q0 16 -21 18l-80 3l13 37h229l-296 -862h-229z" unicode="]" horiz-adv-x="325"/>
<glyph glyph-name="asciicircum" d="M311 711h36l185 -379h-87l-115 250l-116 -250h-87z" unicode="^" horiz-adv-x="524"/>
<glyph glyph-name="underscore" d="M0 -119h500v-55h-500v55z" unicode="_" horiz-adv-x="500"/>
<glyph glyph-name="grave" d="M191 607q-8 8 -12.5 17t-4.5 15q0 20 14.5 34.5t37.5 14.5q8 0 15 -3t14 -14l98 -170l-29 -20z" unicode="`" horiz-adv-x="500"/>
<glyph glyph-name="a" d="M375 392q-7 8 -15.5 13t-20.5 5q-21 0 -45 -17.5t-48 -46t-45.5 -64t-38.5 -71.5t-27 -69t-10 -56q0 -35 23 -35q19 0 40.5 19t42.5 47.5t40 63t34 66.5zM285 124q-52 -72 -98 -102.5t-86 -30.5q-48 0 -71.5 19.5t-23.5 63.5q0 38 12 81t34 85t52 80.5t66 67.5t76.5 46.5 t83.5 17.5q27 0 39.5 -8t23.5 -19l10 19h113l-145 -331q-9 -21 -10 -30t10 -9q10 0 30.5 14t56.5 53l24 -22q-14 -19 -32.5 -40.5t-41.5 -40t-48.5 -30.5t-52.5 -12q-24 0 -37 9t-13 30q0 15 9.5 38t22.5 48z" unicode="a" horiz-adv-x="517"/>
<glyph glyph-name="b" d="M240 623q5 11 1.5 17t-10.5 8l-43 8l11 33h173l5 -11l-143 -309l3 -2q42 43 81 64t79 21q18 0 35 -4t30 -14t21 -27t8 -44q0 -58 -24.5 -123.5t-69 -120.5t-107 -91.5t-139.5 -36.5q-36 0 -60 8.5t-38 23t-19.5 33.5t-5.5 41q0 19 8.5 51.5t27.5 74.5zM170 37 q19 0 41 17.5t44 45.5t43 64t36.5 72t25 69.5t9.5 57.5q0 19 -6 26t-17 7q-14 0 -35 -15.5t-44 -41t-46 -59.5t-42 -70q-21 -42 -31 -74.5t-10 -55.5q0 -27 9 -35t23 -8z" unicode="b" horiz-adv-x="497"/>
<glyph glyph-name="c" d="M360 134q-12 -20 -32.5 -45t-48 -46.5t-62 -36.5t-75.5 -15q-27 0 -50 6.5t-40 20t-27 35t-10 52.5q0 44 13.5 89.5t37.5 87t57.5 76.5t74.5 59q31 18 60.5 26.5t71.5 8.5q18 0 37 -4.5t34.5 -14t25 -25t9.5 -36.5q0 -24 -15 -41.5t-46 -17.5q-32 0 -45.5 15.5 t-13.5 34.5q0 9 1.5 18t2 16.5t-1.5 12.5t-9 5q-20 0 -40.5 -16.5t-39.5 -43.5t-36 -61.5t-29.5 -69.5t-20 -68.5t-7.5 -58.5t10.5 -35.5t30.5 -10.5q28 0 66.5 24t82.5 81z" unicode="c" horiz-adv-x="408"/>
<glyph glyph-name="d" d="M284 124q-49 -71 -91.5 -102t-91.5 -31q-48 0 -71.5 20t-23.5 67q0 37 12 79.5t33.5 84t51.5 79.5t66 67t76 46.5t83 17.5q27 0 40.5 -8t24.5 -19l84 197q5 11 1.5 17.5t-10.5 8.5l-43 8l11 33h173l5 -11l-243 -565q-9 -21 -10 -30t10 -9q10 0 30.5 14t56.5 53l26 -20 q-14 -19 -33 -41t-42 -40.5t-49 -31t-53 -12.5q-24 0 -37 9t-13 30q0 15 9.5 38t22.5 48zM375 392q-7 8 -15.5 13t-20.5 5q-21 0 -45 -17.5t-48 -46t-45.5 -64t-38.5 -71.5t-27 -69t-10 -56q0 -35 23 -35q19 0 40.5 19t42.5 47.5t40 63t34 66.5z" unicode="d" horiz-adv-x="514"/>
<glyph glyph-name="e" d="M339 119q-17 -23 -37.5 -45.5t-47 -41t-58 -30t-70.5 -11.5q-33 0 -55 8t-35.5 22t-19 33t-5.5 41q0 65 24.5 129t66.5 114.5t97.5 82t117.5 31.5q54 0 78.5 -21t24.5 -58q0 -35 -20.5 -67t-57 -58.5t-87 -46.5t-111.5 -32q-4 -13 -8 -34.5t-4 -45.5q0 -20 6.5 -31.5 t25.5 -11.5q25 0 58.5 21t82.5 77zM156 218q44 12 76.5 31t54 41.5t32 47t10.5 47.5q0 16 -6.5 21.5t-15.5 5.5q-32 0 -74 -51t-77 -143z" unicode="e" horiz-adv-x="410"/>
<glyph glyph-name="f" d="M128 379h-82l18 52h78q8 26 17.5 56.5t23.5 61t32.5 59t43.5 50.5t57 35.5t74 13.5q57 0 88 -19.5t31 -53.5q0 -20 -12.5 -35.5t-41.5 -15.5t-41 13.5t-18 30t-10.5 30t-18.5 13.5q-8 0 -15.5 -6.5t-16.5 -22.5t-19 -43.5t-23 -70.5l-29 -96h98l-18 -52h-96l-41 -143 q-11 -38 -24 -82.5t-29.5 -89.5t-36 -88.5t-42.5 -80.5q-11 -18 -27.5 -36.5t-38 -33.5t-48 -24.5t-58.5 -9.5q-51 0 -76.5 18t-25.5 48q0 19 12.5 35.5t40.5 16.5q22 0 33.5 -11.5t18.5 -25t13 -25t18 -11.5t24.5 20t23.5 49t21 60.5t17 55.5z" unicode="f" horiz-adv-x="306"/>
<glyph glyph-name="g" d="M27 -13q-22 8 -30.5 22t-8.5 29q0 13 5.5 24t17.5 23t31.5 27.5t48.5 36.5q-22 14 -36 37.5t-14 61.5q0 43 17.5 80.5t47.5 65.5t71.5 44t89.5 16q29 0 55 -7t50 -29q20 15 44 26t50 11q30 0 42 -12.5t12 -27.5q-1 -17 -10.5 -30t-32.5 -13q-12 0 -20.5 3t-15 6.5 t-13.5 6.5t-16 3q-4 0 -14 -2q7 -11 9 -24t2 -27q0 -40 -15 -76.5t-43.5 -65t-70 -45.5t-94.5 -17q-17 0 -31.5 1t-21.5 2q-14 -11 -27.5 -23t-13.5 -23q0 -17 34 -25t96 -21q40 -8 67 -19t42.5 -25t22 -31t6.5 -38q0 -40 -22.5 -66.5t-56.5 -42.5t-75 -22.5t-78 -6.5 q-38 0 -76 5t-68 16t-48.5 28.5t-18.5 42.5q0 35 32.5 59.5t77.5 41.5zM187 170q22 0 43 20.5t37 51.5t26 66t10 65q0 44 -32 44q-20 0 -40.5 -16t-38 -43.5t-28.5 -65t-11 -79.5q0 -21 7.5 -32t26.5 -11zM75 -27q-8 -3 -18.5 -9t-20 -15.5t-17 -23t-7.5 -31.5t11 -29.5 t28.5 -18t39.5 -9t43 -2.5q56 0 81.5 20t26.5 49q0 21 -14 31t-43 17z" unicode="g" horiz-adv-x="455"/>
<glyph glyph-name="h" d="M247 618q5 14 2.5 21t-10.5 9l-43 8l11 33h173l5 -11l-129 -292q-11 -23 -24.5 -51t-29.5 -51l5 -4q21 27 46.5 57t53 55.5t58 42.5t62.5 17q38 0 58 -17t20 -43q0 -19 -4 -38.5t-16 -46.5l-99 -215q-9 -21 2 -21q6 0 17.5 8t24 19.5t24.5 24.5t20 23l25 -23 q-16 -21 -37.5 -43.5t-47.5 -40.5t-54.5 -30t-58.5 -12q-28 0 -36 14.5t-8 29.5q0 16 5 30.5t13 31.5l105 236q8 17 5 28.5t-18 11.5t-42.5 -26t-57.5 -64t-58.5 -81.5t-45.5 -77.5l-63 -130h-109z" unicode="h" horiz-adv-x="538"/>
<glyph glyph-name="i" d="M160 351q6 14 4 19.5t-8 5.5t-17 -10t-23.5 -24.5t-26 -31.5t-23.5 -31l-28 20q18 26 39.5 53t45 49.5t49 36.5t52.5 14q32 0 45 -15t13 -35t-9.5 -48t-26.5 -63l-97 -202q-5 -11 -3.5 -16.5t6.5 -5.5q6 0 16 7t21.5 18t23.5 24t23 26l27 -20q-12 -16 -30.5 -37.5 t-41.5 -41t-51 -33t-60 -13.5t-41.5 15t-9.5 34q0 12 4 25.5t12 30.5zM196 634q0 30 21 51.5t50 21.5q30 0 51.5 -21.5t21.5 -51.5q0 -29 -21.5 -50t-51.5 -21q-29 0 -50 21t-21 50z" unicode="i" horiz-adv-x="301"/>
<glyph glyph-name="j" d="M155 351q6 14 4 19.5t-8 5.5t-17 -10t-23.5 -24.5t-26 -31.5t-23.5 -31l-28 20q18 26 39.5 53t45 49.5t49 36.5t52.5 14q32 0 44 -15t12 -35t-9.5 -48t-23.5 -63l-128 -307q-40 -96 -96 -138.5t-123 -42.5q-47 0 -75.5 16.5t-28.5 49.5q0 22 13.5 36.5t36.5 14.5 q22 0 32.5 -11.5t16.5 -26t11.5 -26t17.5 -11.5q11 0 29 26t43 86zM197 634q0 30 21 51.5t50 21.5q30 0 51.5 -21.5t21.5 -51.5q0 -29 -21.5 -50t-51.5 -21q-29 0 -50 21t-21 50z" unicode="j" horiz-adv-x="271"/>
<glyph glyph-name="k" d="M200 230q40 4 77 17.5t65.5 32.5t45.5 41.5t17 45.5q0 13 -7.5 18.5t-17.5 5.5q-22 0 -48.5 -18.5t-52 -44t-46.5 -53t-33 -45.5zM249 618q6 14 3 21t-11 9l-43 8l11 33h173l5 -11l-162 -351l5 -2q55 72 103.5 99.5t98.5 27.5q85 0 85 -71q0 -39 -23.5 -68.5t-59 -50.5 t-76.5 -34.5t-77 -19.5l31 -91q8 -23 16 -31t17 -8q7 0 19 5t25 13.5t26 19t24 22.5l26 -23q-12 -16 -32 -36.5t-44 -38.5t-50.5 -30t-51.5 -12q-33 0 -47 19.5t-27 57.5l-33 97l-72 -172h-117z" unicode="k" horiz-adv-x="507"/>
<glyph glyph-name="l" d="M235 618q6 14 2.5 21t-11.5 9l-43 8l11 33h181l5 -11l-252 -578q-11 -26 0 -26q7 0 30.5 17.5t68.5 70.5l28 -22q-15 -21 -38 -46t-50 -46.5t-57.5 -36t-61.5 -14.5q-29 0 -41 12t-12 32q0 21 12 48z" unicode="l" horiz-adv-x="280"/>
<glyph glyph-name="m" d="M156 340q6 14 3.5 19.5t-7.5 5.5t-15 -9.5t-21 -23t-22 -28.5t-19 -26l-29 20q16 25 36 52.5t43.5 50t49 37t54.5 14.5q41 0 41 -40q0 -10 -4.5 -24.5t-11 -31.5t-15 -35.5t-16.5 -35.5l5 -3q20 26 43.5 56t50 55.5t54.5 42t58 16.5q32 0 47.5 -13t15.5 -42 q0 -21 -11.5 -53.5t-29.5 -67.5l6 -2q24 35 47.5 67.5t48.5 57t51.5 39t55.5 14.5q30 0 50 -17t20 -46q0 -34 -17 -71l-105 -229q-9 -22 3 -22q5 0 15.5 7.5t23.5 19t26 25t23 25.5l28 -21q-14 -18 -34.5 -40t-46 -41t-55 -32t-61.5 -13q-31 0 -40 15t-9 34q0 12 3.5 25.5 t11.5 30.5l112 245q7 15 4.5 23.5t-11.5 8.5q-8 0 -23 -13t-33.5 -34.5t-39 -49.5t-40.5 -57t-37.5 -57t-29.5 -51l-61 -117h-106l156 347q5 12 2.5 22t-13.5 10q-10 0 -26 -12.5t-34 -33t-37.5 -46t-37.5 -52.5t-33 -52t-24 -44l-68 -139h-111z" unicode="m" horiz-adv-x="769"/>
<glyph glyph-name="n" d="M156 340q6 14 3.5 19.5t-7.5 5.5t-15 -9.5t-21 -23t-22 -28.5t-19 -26l-29 20q16 25 36 52.5t43.5 50t49 37t54.5 14.5q41 0 41 -40q0 -10 -4.5 -24.5t-11 -31.5t-15 -35.5t-16.5 -35.5l5 -3q20 26 44 56t51 55.5t57.5 42t63.5 16.5q32 0 53 -17t21 -46q0 -34 -17 -71 l-105 -229q-9 -22 3 -22q5 0 15.5 7.5t23.5 19t26 25t23 25.5l28 -21q-14 -18 -34.5 -40t-46 -41t-55 -32t-61.5 -13q-31 0 -40 15t-9 34q0 12 3.5 25.5t11.5 30.5l112 245q5 12 3.5 22t-15.5 10q-10 0 -25.5 -12.5t-34 -33t-38.5 -46t-38.5 -52.5t-34 -52t-24.5 -44 l-68 -139h-111z" unicode="n" horiz-adv-x="552"/>
<glyph glyph-name="o" d="M17 141q0 56 21 111.5t59 100t90.5 72t115.5 27.5q69 0 110.5 -32.5t41.5 -108.5q0 -55 -19.5 -112t-56 -103t-88.5 -75.5t-116 -29.5q-75 0 -116.5 34t-41.5 116zM170 33q21 0 41.5 16.5t39.5 44t35 62t28 71t18.5 71.5t6.5 62q0 20 -7.5 34.5t-28.5 14.5 q-26 0 -55.5 -28.5t-55 -73.5t-42.5 -101t-17 -111q0 -26 6.5 -44t30.5 -18z" unicode="o" horiz-adv-x="473"/>
<glyph glyph-name="p" d="M-117 -161l46 6q33 5 47 40l194 514q-15 -7 -29.5 -18.5t-28 -25t-26 -27.5t-24.5 -27l-29 22q21 27 40 47t37.5 35t37.5 26t40 19l26 70l113 38l14 -16l-33 -87q46 -3 78.5 -18t53.5 -38t30.5 -53t9.5 -63q0 -54 -16.5 -106.5t-51 -94t-86.5 -66.5t-124 -25 q-18 0 -34.5 2t-29.5 4l-35 -99q-9 -26 -4 -38.5t22 -14.5l61 -7l-9 -35h-298zM158 50q7 -6 18.5 -11.5t27.5 -5.5q33 0 61 25.5t48.5 64.5t32 84.5t11.5 86.5q0 95 -64 118z" unicode="p" horiz-adv-x="507"/>
<glyph glyph-name="q" d="M48 -161l66 8q16 2 28.5 10t22.5 34l46 118q-17 -9 -33 -13.5t-36 -4.5q-19 0 -41 3t-41 14.5t-31.5 33t-12.5 58.5q0 56 20.5 118t58.5 114t92 86t121 34q29 0 45 -9t28 -21l11 21h109l-214 -548q-9 -24 -3.5 -36t22.5 -14l55 -7l-9 -35h-312zM356 382q-4 11 -13 18.5 t-25 7.5q-22 0 -44 -17.5t-42.5 -45.5t-38 -63.5t-31 -71t-21 -69t-7.5 -56.5q0 -24 9 -34t25 -10q24 0 41.5 12.5t28.5 26.5z" unicode="q" horiz-adv-x="476"/>
<glyph glyph-name="r" d="M156 340q6 14 3.5 19.5t-7.5 5.5t-15 -9.5t-21 -23t-22 -28.5t-19 -26l-29 20q16 25 36 52.5t43.5 50t49 37t54.5 14.5q41 0 41 -40q0 -10 -4 -24t-10.5 -30.5t-15 -34.5t-16.5 -35l5 -3q21 32 41 62t42.5 53.5t47.5 37.5t55 14q38 0 61 -19.5t23 -54.5 q0 -28 -16.5 -46.5t-45.5 -18.5q-32 0 -42.5 14.5t-10.5 32.5q0 14 3.5 25t-8.5 11q-17 0 -42 -26.5t-52 -66.5t-53.5 -86t-45.5 -85l-65 -132h-111z" unicode="r" horiz-adv-x="469"/>
<glyph glyph-name="s" d="M-35 71q0 18 13.5 33t36.5 15t34.5 -14t21.5 -31t23.5 -31t39.5 -14q9 0 18.5 2.5t17 8.5t12.5 16t5 26q0 31 -14 50.5t-34 45.5q-22 29 -39.5 60.5t-17.5 66.5q0 29 12.5 55.5t36.5 47t58.5 32.5t77.5 12q16 0 36.5 -2.5t37.5 -10t29 -20.5t12 -33q0 -15 -11 -30.5 t-38 -15.5q-24 0 -35.5 10.5t-20 23.5t-17.5 23.5t-27 10.5q-21 0 -34.5 -15.5t-13.5 -44.5q0 -26 17 -53t34 -49q23 -30 41 -60.5t18 -65.5q0 -26 -11 -49.5t-33.5 -41t-55.5 -28t-76 -10.5q-72 0 -113 22t-41 58z" unicode="s" horiz-adv-x="349"/>
<glyph glyph-name="t" d="M144 379h-63l20 52h66l39 95l109 35l18 -18l-48 -112h94l-18 -52h-98l-122 -278q-13 -31 1 -31q7 0 21 8t29.5 19t31.5 24t27 23l27 -27q-16 -16 -39.5 -37t-52 -39.5t-61 -31.5t-66.5 -13q-32 0 -42.5 12.5t-10.5 32.5q0 19 11 46z" unicode="t" horiz-adv-x="329"/>
<glyph glyph-name="u" d="M145 344q9 22 -3 22q-5 0 -14.5 -7.5t-20.5 -19.5t-23 -26.5t-22 -27.5l-28 21q14 21 35 45.5t46 45.5t53.5 35t57.5 14q31 0 40 -15t9 -34q0 -22 -15 -56l-101 -245q-5 -12 -5.5 -22t13.5 -10q10 0 25.5 12.5t34 33t38.5 46t38 52.5t33.5 52t24.5 44l68 139h111 l-151 -352q-11 -25 2 -25q7 0 18 8.5t23.5 22t25 28.5t22.5 29l29 -20q-17 -24 -37.5 -49.5t-44.5 -46t-51 -34t-55 -13.5q-41 0 -41 40q0 10 4 24.5t11 31.5t15.5 35.5t16.5 35.5l-5 3q-20 -27 -44 -57t-51 -55t-57.5 -41.5t-63.5 -16.5q-32 0 -50.5 17t-18.5 46 q0 31 17 71z" unicode="u" horiz-adv-x="550"/>
<glyph glyph-name="v" d="M128 352q-32 0 -45 -13.5t-13 -27.5q0 -11 3 -17.5t8 -6.5q4 0 6.5 3.5t6 8t9 8.5t15.5 4q14 0 22 -9t8 -24q0 -17 -14 -30t-42 -13q-26 0 -41.5 16t-15.5 44t13.5 54.5t39 47.5t61 33.5t79.5 12.5h164l7 -11q-14 -16 -25.5 -30t-23.5 -28t-26 -30.5t-32 -38.5 q-43 -50 -60 -85.5t-17 -70.5q0 -12 3.5 -23.5t11.5 -21t22.5 -15t35.5 -5.5q51 0 89 26t64 62t39 74.5t13 64.5q0 22 -8.5 33t-18.5 19t-18.5 16.5t-8.5 26.5q0 24 16 38t42 14q19 0 31.5 -7t20 -19t10.5 -27t3 -31q0 -34 -10.5 -75t-31 -83.5t-49.5 -83t-66 -72 t-81.5 -50.5t-94.5 -19q-38 0 -63 10t-39.5 25t-20.5 33.5t-6 35.5q0 33 14.5 62.5t43.5 67.5q12 16 23 29t23 27t28 30.5t39 40.5h-143z" unicode="v" horiz-adv-x="567"/>
<glyph glyph-name="w" d="M128 360q-32 0 -45 -13.5t-13 -27.5q0 -11 3 -17.5t8 -6.5q4 0 6.5 3.5t6 8t9 8.5t15.5 4q14 0 22 -9t8 -24q0 -17 -14 -30t-42 -13q-26 0 -41.5 16t-15.5 44t14.5 53t39.5 44.5t58.5 31t72.5 11.5h164l7 -11q-26 -32 -48 -57.5t-49 -56.5q-15 -18 -31.5 -40.5t-30 -46 t-22.5 -47t-9 -43.5q0 -26 13 -43t54 -17q16 0 33.5 5t35.5 13q-3 22 -3 49q0 61 16.5 114t43.5 92t61 61.5t69 22.5q29 0 44 -18t15 -51q0 -29 -11 -61.5t-30.5 -65.5t-45.5 -65t-57 -62q10 -14 24 -23.5t41 -9.5q36 0 68.5 20.5t57.5 52.5t39.5 69.5t14.5 72.5q0 27 -9 40 t-19.5 22t-19.5 19t-9 32q0 15 12 31.5t43 16.5q20 0 33.5 -9t22 -23.5t12 -33t3.5 -38.5q0 -54 -23 -117.5t-63.5 -118t-95.5 -91t-120 -36.5q-38 0 -61 13.5t-37 41.5q-18 -11 -35.5 -21t-35.5 -17.5t-38.5 -12t-45.5 -4.5q-35 0 -56.5 11t-33.5 26.5t-16.5 33.5t-4.5 32 q0 21 5 39.5t15.5 37t26 38.5t36.5 44q17 20 46.5 49t58.5 58h-147zM425 165q37 39 61 90t24 109q0 19 -5 26t-14 7q-8 0 -20 -11t-23 -33.5t-18.5 -58t-7.5 -83.5q0 -25 3 -46z" unicode="w" horiz-adv-x="758"/>
<glyph glyph-name="x" d="M41 157q-7 -17 -11 -33t-4 -35q0 -11 3 -18.5t13 -7.5q26 0 64 39.5t86 107.5l-30 140q-2 9 -5 17t-11 8q-13 0 -27 -28.5t-30 -67.5l-34 8q10 30 23 59.5t29.5 53t38 38t49.5 14.5q33 0 46 -17t19 -44l20 -96q32 42 56 71.5t44 48.5t39 28t40 9q29 0 40 -16.5t11 -42.5 q0 -14 -5 -32.5t-11.5 -36t-12.5 -31t-8 -16.5l-33 11q1 2 4 10t6 17.5t5 20.5t2 19q0 27 -20 27q-9 0 -19.5 -5t-26.5 -20.5t-39.5 -43.5t-57.5 -74l33 -146q3 -14 7.5 -20.5t14.5 -6.5q8 0 18 9.5t20.5 23t19 29t13.5 26.5l33 -13q-6 -15 -19 -40.5t-32.5 -50t-45.5 -42 t-59 -17.5q-38 0 -52.5 20.5t-21.5 55.5l-17 79q-27 -35 -49.5 -63.5t-44 -48.5t-42 -31.5t-42.5 -11.5q-32 0 -42.5 17t-10.5 41q0 21 10 52.5t24 63.5z" unicode="x" horiz-adv-x="490"/>
<glyph glyph-name="y" d="M35 279q11 33 23.5 64.5t30 55.5t40.5 38.5t54 14.5q43 0 60.5 -23t25.5 -65q6 -30 10.5 -68t7.5 -78t4.5 -78.5t1.5 -68.5q19 26 36.5 59.5t31 66.5t21.5 62.5t8 47.5q0 16 -5 28.5t-11.5 23t-11.5 21t-5 22.5q0 20 15 37t44 17q18 0 30 -6.5t18.5 -16t9 -21.5t2.5 -24 q0 -24 -10.5 -61t-29.5 -81.5t-45 -93.5t-57.5 -97t-67.5 -93.5t-74 -81.5q-19 -18 -37.5 -34t-38.5 -27.5t-43 -18t-51 -6.5q-29 0 -46 6t-26 15.5t-12 20t-3 19.5q0 19 14 34t38 15q22 0 33 -9.5t17 -21.5t11.5 -21.5t17.5 -9.5q11 0 26.5 9t32.5 24t33.5 33.5t30.5 37.5 q0 42 -3 95.5t-7.5 107t-10 101t-10.5 79.5q-6 32 -11 40.5t-12 8.5t-14.5 -10t-15 -25.5t-15.5 -35.5t-15 -40z" unicode="y" horiz-adv-x="476"/>
<glyph glyph-name="z" d="M300 319q-21 8 -37.5 19t-31.5 21.5t-32 18t-39 7.5q-27 0 -44.5 -11t-17.5 -31q0 -21 11 -21q8 0 14 7t22 7q11 0 22 -8t11 -28t-14.5 -35t-43.5 -15q-36 0 -52 21.5t-16 46.5q0 26 13 48.5t36.5 39t54.5 26t67 9.5q34 0 59 -7t45 -15.5t37 -15.5t35 -7q17 0 23.5 9.5 t11.5 21.5t14 21.5t31 9.5q20 0 28 -10.5t8 -24.5q0 -23 -27 -39q-21 -13 -42 -25.5t-38 -26.5l-223 -185q18 -6 36.5 -19t38.5 -27t41 -24.5t45 -10.5q29 0 44.5 11t15.5 40q0 23 -17 23q-6 0 -10 -3.5t-8.5 -8t-10.5 -8t-17 -3.5q-21 0 -30.5 13t-9.5 30q0 22 17 36t42 14 q38 0 59 -25.5t21 -61.5q0 -30 -14 -54.5t-37.5 -41.5t-54.5 -26.5t-65 -9.5q-35 0 -61.5 13t-48 28t-40.5 28t-38 13q-13 0 -21.5 -10.5t-16.5 -37.5q-10 -34 -51 -34q-20 0 -29.5 9.5t-9.5 22.5q0 14 6.5 26t27.5 26q16 10 42.5 26.5t55.5 39.5z" unicode="z" horiz-adv-x="485"/>
<glyph glyph-name="braceleft" d="M184 -105q-1 -1 -9 -3.5t-21 -5.5t-29 -5.5t-34 -2.5q-53 0 -74.5 20.5t-21.5 50.5q0 21 9 47q8 24 20 54.5t25 62t24.5 61.5t19.5 52q10 29 10 49q0 21 -9 37.5t-44 22.5l12 36q20 2 36.5 5t30.5 12.5t25.5 28t22.5 53.5l52 170q17 56 53 77t83 21q16 0 31.5 -3.5t28 -8 t21 -9t10.5 -7.5l-15 -37q-31 11 -49 11q-20 0 -32.5 -12.5t-21.5 -41.5l-57 -181q-11 -33 -22.5 -53t-24.5 -31t-27 -16t-29 -9q15 -7 26 -21t11 -40q0 -20 -12 -56q-8 -25 -20.5 -56t-25.5 -63t-25 -61.5t-19 -51.5q-3 -10 -5 -18.5t-2 -15.5q0 -30 35 -30q8 0 16.5 1 t19.5 4z" unicode="{" horiz-adv-x="316"/>
<glyph glyph-name="bar" d="M321 812h84l-333 -970h-84z" unicode="|" horiz-adv-x="323"/>
<glyph glyph-name="braceright" d="M-90 -57q31 -11 49 -11q20 0 32.5 12.5t21.5 41.5l69 217q10 33 22 53t25 31t27 16t29 9q-15 7 -26 21t-11 40q0 20 12 56q17 50 40 101t38 95q3 10 5 18.5t2 15.5q0 30 -35 30q-8 0 -16.5 -1t-19.5 -4l-7 37q1 1 9 3.5t21 5.5t29 5.5t34 2.5q53 0 74.5 -20.5t21.5 -50.5 q0 -22 -9 -47q-16 -48 -39 -98.5t-38 -95.5q-10 -29 -10 -49q0 -21 9 -37.5t44 -22.5l-12 -36q-20 -2 -36.5 -5t-30.5 -12.5t-26 -28.5t-22 -53l-64 -206q-17 -56 -53 -77t-83 -21q-17 0 -32 3.5t-27.5 8t-21 9t-10.5 7.5z" unicode="}" horiz-adv-x="316"/>
<glyph glyph-name="asciitilde" d="M95 274q0 25 6.5 51.5t20 48.5t36 35.5t55.5 13.5q30 0 69 -12t78.5 -26.5t75 -26.5t57.5 -12q18 0 26.5 11t13.5 36h43q0 -23 -5.5 -47.5t-17.5 -44.5t-30.5 -32.5t-45.5 -12.5q-33 0 -73 12t-79.5 27t-74.5 27t-57 12q-29 0 -39.5 -14t-15.5 -46h-43z" unicode="~" horiz-adv-x="595"/>
<glyph glyph-name="uni00A0" unicode=" " horiz-adv-x="0"/>
<glyph glyph-name="exclamdown" d="M161 250q-21 -91 -42.5 -199t-48.5 -236q-8 -37 -33 -49t-50 -12q-33 0 -47 17t-14 32q0 9 2 17q4 17 21.5 54.5t48.5 110.5q16 39 33 77.5t32 73.5t28 64t22 50h48zM92 373q0 30 22 54.5t55 24.5q30 0 45.5 -18t15.5 -43q0 -30 -21 -53.5t-56 -23.5q-28 0 -44.5 16.5 t-16.5 42.5z" unicode="¡" horiz-adv-x="235"/>
<glyph glyph-name="cent" d="M203 50q-25 1 -46.5 6.5t-38 18.5t-26 34.5t-9.5 54.5q0 44 13.5 89.5t37.5 87t57.5 76.5t74.5 59q25 14 48.5 22.5t52.5 11.5l37 103h48l-37 -102q17 -2 34.5 -7t31 -14.5t22 -24t8.5 -34.5q0 -24 -15 -41.5t-46 -17.5q-32 0 -45.5 15.5t-13.5 34.5q0 12 2.5 23.5 t0.5 19.5l-125 -351q23 9 50 32.5t60 65.5l34 -22q-11 -17 -26 -37.5t-35 -40t-44.5 -35t-54.5 -23.5l-36 -100h-48zM356 465q-18 -10 -36.5 -31t-35 -48t-31 -58.5t-25.5 -62.5t-17 -59.5t-6 -50.5q0 -38 24 -45z" unicode="¢" horiz-adv-x="518"/>
<glyph glyph-name="sterling" d="M72 328h84l14.5 58t16.5 63q30 114 90 172.5t156 58.5q34 0 62.5 -7t49 -21.5t32 -36.5t11.5 -51q0 -23 -7.5 -45t-22.5 -39.5t-38 -28.5t-54 -11q-23 0 -39.5 7t-28 19t-17 27t-6.5 30l33 12q3 -14 9 -25q5 -10 14 -17.5t24 -7.5q25 0 38 21t13 56q0 38 -20.5 56 t-48.5 18q-30 0 -49.5 -16t-33 -40.5t-22 -55t-15.5 -60.5q-9 -37 -18 -71t-19 -65h163l-14 -48h-164q-18 -57 -37 -102t-40 -80q38 -8 73.5 -13.5t62.5 -5.5q32 0 51.5 5.5t32.5 16t21 24.5t16 32h45q-6 -32 -16.5 -63.5t-30 -56.5t-48.5 -40t-72 -15q-58 0 -102 17t-79 38 q-52 -55 -120 -55q-15 0 -29.5 3.5t-26.5 11.5t-19 20.5t-7 30.5q0 35 25.5 56t66.5 21q12 0 30 -2.5t39 -7.5q11 32 21.5 73t22.5 92h-90zM85 72q-29 18 -48 18q-21 0 -31.5 -11.5t-10.5 -29.5q0 -11 7.5 -20.5t23.5 -9.5q34 0 59 53z" unicode="£" horiz-adv-x="518"/>
<glyph glyph-name="currency" d="M80 164l61 61q-14 24 -24 56.5t-10 64.5q0 69 38 124l-65 64l58 58l64 -64q26 17 57 27.5t64 10.5t64 -10.5t57 -27.5l64 64l57 -59l-63 -64q17 -27 27 -58t10 -65q0 -32 -10 -64t-26 -56l62 -62l-57 -57l-62 60q-26 -19 -57.5 -29t-65.5 -10q-72 0 -125 38l-60 -59z M223 248q18 -19 43 -30t55 -11t55.5 11t43.5 30t28.5 44t10.5 54t-10 54.5t-28 44.5t-43 30t-56 11t-56 -11t-42.5 -30t-27 -44.5t-9.5 -54.5q0 -59 36 -98z" unicode="¤" horiz-adv-x="603"/>
<glyph glyph-name="yen" d="M35 0l12 36l44 5q22 2 32 12.5t17 30.5l31 90h-112l16 49h112l25 74h-119l16 49h98l-51 195q-8 24 -16 39t-18.5 23.5t-24 11.5t-33.5 3l13 38h283l-13 -38q-35 0 -48 -8t-13 -23q0 -10 2.5 -22t4.5 -24l35 -155l104 140q17 23 23.5 37t6.5 27q0 17 -15 22.5t-46 5.5 l13 38h255l-12 -36q-23 -2 -40.5 -5t-35 -13.5t-37.5 -31t-47 -56.5l-128 -168h114l-16 -49h-116l-24 -74h122l-16 -49h-121l-11 -33q-15 -47 -15 -69q0 -17 8 -23.5t27 -8.5l46 -3l-14 -37h-318z" unicode="¥" horiz-adv-x="518"/>
<glyph glyph-name="brokenbar" d="M321 812h84l-111 -324h-84zM99 165h84l-111 -323h-84z" unicode="¦" horiz-adv-x="323"/>
<glyph glyph-name="section" d="M200 485q-9 25 -9 58t14.5 63t42 52t67.5 35t91 13q44 0 75.5 -10.5t51.5 -25.5t29.5 -33t9.5 -33q0 -20 -12 -33.5t-40 -13.5q-23 0 -35 8t-19 20t-11 26t-10.5 26t-17.5 20t-32 8q-36 0 -58.5 -24t-22.5 -62q0 -20 7 -37.5t19 -34t27 -32t30 -31.5t28.5 -32.5 t24.5 -35.5t17.5 -40.5t6.5 -46.5q0 -27 -9.5 -51t-25.5 -46.5t-37 -43t-43 -39.5q5 -12 7.5 -26.5t2.5 -30.5q0 -35 -13.5 -65t-40.5 -51.5t-66.5 -34t-90.5 -12.5q-44 0 -76 8t-52.5 21.5t-30.5 31t-10 35.5q0 23 14.5 38t39.5 15q20 0 32 -8t19 -20t12 -26t12 -26 t18.5 -20t32.5 -8q36 0 55.5 24t19.5 62q0 40 -25.5 71.5t-56.5 63.5q-14 15 -28 31t-24.5 34.5t-17 39.5t-6.5 46q0 27 9.5 51.5t25.5 47.5t36.5 44t42.5 40zM331 150q14 16 23.5 39.5t9.5 51.5q0 21 -7.5 39t-18.5 34.5t-25.5 32.5t-27.5 32l-53 63q-14 -16 -24.5 -38 t-10.5 -51q0 -18 8 -36.5t20 -36.5t26.5 -35t28.5 -33z" unicode="§" horiz-adv-x="525"/>
<glyph glyph-name="dieresis" d="M288 589q0 26 17.5 45t46.5 19q21 0 34.5 -14t13.5 -34q0 -25 -18 -44.5t-45 -19.5q-23 0 -36 14t-13 34zM99 589q0 26 17 45t47 19q20 0 34 -14t14 -34q0 -25 -18.5 -44.5t-45.5 -19.5q-23 0 -35.5 14t-12.5 34z" unicode="¨" horiz-adv-x="500"/>
<glyph glyph-name="copyright" d="M91 340q0 75 28.5 140.5t78 114.5t115.5 77.5t141 28.5t140.5 -28.5t114.5 -77.5t77.5 -114.5t28.5 -140.5t-28.5 -140.5t-77.5 -114t-114.5 -77t-140.5 -28.5t-141 28.5t-115.5 77t-78 114t-28.5 140.5zM454 23q64 0 121 25.5t100 68.5t67.5 100.5t24.5 122.5 q0 64 -24.5 122t-67.5 101.5t-100 69t-121 25.5q-65 0 -121.5 -25.5t-99 -69t-67 -101.5t-24.5 -122q0 -65 24.5 -122.5t67 -100.5t99 -68.5t121.5 -25.5zM584 181q-2 6 -8 6q-5 0 -12 -5q-6 -5 -32 -16.5t-69 -11.5q-40 0 -77 11t-65.5 34t-46 59.5t-17.5 86.5 q0 46 17.5 82.5t47 62t66.5 39t76 13.5q31 0 48 -5.5t31 -12.5q10 -5 16.5 -8.5t12.5 -3.5q5 0 6 2l2 4l5 15h21l4 -126h-21q-3 12 -10 30.5t-20.5 36t-35.5 30t-55 12.5q-30 0 -49.5 -14t-31.5 -37.5t-17 -54.5t-5 -65q0 -30 5 -59.5t17 -53t32 -38t50 -14.5q43 0 74 20.5 t45 78.5h21v-118h-19z" unicode="©" horiz-adv-x="843"/>
<glyph glyph-name="ordfeminine" d="M393 633q-3 8 -11 15t-21 7q-15 0 -33 -12.5t-36.5 -32.5t-36 -46t-31 -52t-21.5 -51t-8 -43q0 -12 4 -18.5t15 -6.5q16 0 36 14.5t39.5 37.5t37 50t28.5 53zM323 437q-12 -17 -29 -35t-37 -33t-42 -24.5t-44 -9.5q-13 0 -25.5 3t-22.5 10t-16.5 19.5t-6.5 32.5 q0 46 22.5 97.5t59.5 95t84 72.5t96 29q24 0 36 -7t19 -15l8 17h76l-107 -249q-16 -36 -2 -36q23 0 68 50l23 -20q-11 -15 -28 -32t-37.5 -31t-42 -23t-40.5 -9q-32 0 -32 27q0 14 6.5 31.5t15.5 38.5z" unicode="ª" horiz-adv-x="417"/>
<glyph glyph-name="guillemotleft" d="M16 212q-4 8 -6 14t-2 11q0 12 19 27l187 138l33 -33l-125 -141l27 -169l-49 -16zM216 212q-4 8 -6 14t-2 11q0 12 19 27l187 138l33 -33l-125 -141l27 -169l-49 -16z" unicode="«" horiz-adv-x="433"/>
<glyph glyph-name="logicalnot" d="M73 356h400v-189h-67v129h-333v60z" unicode="¬" horiz-adv-x="518"/>
<glyph glyph-name="uni00AD" d="M65 279h247l-25 -66h-247z" unicode="­" horiz-adv-x="342"/>
<glyph glyph-name="registered" d="M91 340q0 75 28.5 140.5t78 114.5t115.5 77.5t141 28.5t140.5 -28.5t114.5 -77.5t77.5 -114.5t28.5 -140.5t-28.5 -140.5t-77.5 -114t-114.5 -77t-140.5 -28.5t-141 28.5t-115.5 77t-78 114t-28.5 140.5zM454 23q64 0 121 25.5t100 68.5t67.5 100.5t24.5 122.5 q0 64 -24.5 122t-67.5 101.5t-100 69t-121 25.5q-65 0 -121.5 -25.5t-99 -69t-67 -101.5t-24.5 -122q0 -65 24.5 -122.5t67 -100.5t99 -68.5t121.5 -25.5zM422 344q16 0 33.5 4.5t32.5 15t25 27t10 40.5q0 45 -24.5 63.5t-70.5 18.5h-25v-169h19zM275 181l18 1 q14 2 19.5 7.5t5.5 22.5v271q0 17 -5.5 23t-19.5 7l-18 1v21h195q24 0 49 -5t45.5 -16.5t33.5 -31t13 -48.5q0 -25 -13 -43t-29.5 -30t-32.5 -18.5t-22 -8.5q15 -9 28 -25t34 -49q16 -24 21.5 -35t12.5 -19q13 -15 21.5 -20t22.5 -6l11 -2v-18h-117l-56 91q-9 14 -15.5 26.5 t-15 22t-19.5 15t-28 5.5h-11v-108q0 -17 5.5 -22.5t19.5 -7.5l20 -1v-21h-173v21z" unicode="®" horiz-adv-x="843"/>
<glyph glyph-name="macron" d="M140 625h247l-23 -66h-247z" unicode="¯" horiz-adv-x="500"/>
<glyph glyph-name="degree" d="M154 586q0 -31 21 -52.5t54 -21.5q29 0 48.5 21.5t19.5 52.5q0 30 -19.5 51.5t-48.5 21.5q-33 0 -54 -21.5t-21 -51.5zM105 586q0 25 9.5 47t26 38t39 25.5t49.5 9.5q24 0 45.5 -9.5t37.5 -25.5t25.5 -38t9.5 -47q0 -26 -9.5 -48t-25.5 -38t-37.5 -25.5t-45.5 -9.5 q-27 0 -49.5 9.5t-39 25.5t-26 38t-9.5 48z" unicode="°" horiz-adv-x="280"/>
<glyph glyph-name="plusminus" d="M100 356h153v153h64v-153h151v-60h-151v-153h-64v153h-153v60zM103 60h366v-60h-366v60z" unicode="±" horiz-adv-x="518"/>
<glyph glyph-name="twosuperior" d="M286 368l31 35h48l-56 -104h-257q10 34 29 62.5t43 53.5t51 46.5t54 41.5q37 26 58 47t21 47q0 30 -31 30q-32 0 -62 -19.5t-61 -51.5l-30 29q12 13 28.5 28.5t38 28.5t48.5 21.5t59 8.5q51 0 79 -19.5t28 -54.5q0 -21 -7 -36.5t-21.5 -29t-36.5 -27t-53 -31.5 t-53.5 -32.5t-38.5 -26.5t-27 -23.5t-18 -23.5h136z" unicode="²"/>
<glyph glyph-name="threesuperior" d="M166 492q29 8 55.5 17.5t46 21.5t31 27t11.5 34q0 15 -9.5 24t-23.5 9q-23 0 -48 -15t-58 -46l-30 27q13 13 30 27.5t37.5 26.5t45 19.5t52.5 7.5q43 0 67 -19t24 -51t-25 -56t-62 -41q23 -5 38.5 -23.5t15.5 -45.5q0 -30 -15 -56.5t-41 -45.5t-62 -30t-79 -11 q-17 0 -36 2.5t-35 9t-26 17t-10 26.5q0 11 9.5 22t29.5 11q17 0 26.5 -8.5t14.5 -17.5q6 -10 14.5 -19t29.5 -9q41 0 63 25t22 67q0 24 -11 36.5t-28 12.5q-11 0 -22.5 -2.5t-32.5 -9.5z" unicode="³"/>
<glyph glyph-name="acute" d="M291 671q6 11 13.5 14t15.5 3q23 0 37.5 -14.5t14.5 -34.5q0 -6 -4.5 -15t-12.5 -17l-133 -126l-29 20z" unicode="´" horiz-adv-x="500"/>
<glyph glyph-name="mu" d="M144 443h125l-93 -287q-14 -44 -2.5 -62.5t43.5 -18.5q25 0 49 11.5t38 27.5l106 329h126l-105 -323q-8 -23 -8 -37t16 -14q8 0 16.5 2.5t15.5 6.5q8 4 14 9l18 -33q-10 -8 -24 -17.5t-30.5 -17.5t-35.5 -13.5t-40 -5.5q-33 0 -54 12t-26 46q-28 -26 -60 -46.5t-77 -20.5 q-35 0 -56.5 12.5t-32.5 31.5q-5 -24 -6.5 -47.5t-3 -46.5t-5 -46t-10.5 -48q-9 -29 -25 -45.5t-41 -16.5q-23 0 -34.5 14t-11.5 38q0 22 8 45q8 27 21 55.5t27.5 59t29 62.5t25.5 65z" unicode="µ" horiz-adv-x="556"/>
<glyph glyph-name="paragraph" d="M367 306h-67q-37 0 -65.5 11.5t-48 31t-29.5 46t-10 57.5q0 55 22.5 96.5t61.5 69.5t91 41.5t110 13.5h196l-12 -37l-43 -4q-35 -4 -49 -45l-178 -516q-16 -47 -33 -80.5t-38 -54.5t-49 -30.5t-66 -9.5q-30 0 -57 7t-48 20t-33 31t-12 40q0 21 14 35.5t39 14.5 q24 0 35.5 -12.5t16.5 -35.5t17.5 -43t41.5 -20q24 0 40 8.5t27.5 25t21.5 42t22 60.5z" unicode="¶" horiz-adv-x="544"/>
<glyph glyph-name="periodcentered" d="M93 340q0 36 24.5 63.5t66.5 27.5q31 0 50.5 -19.5t19.5 -49.5q0 -17 -7 -33.5t-19 -29.5t-29 -21t-36 -8q-34 0 -52 20.5t-18 49.5z" unicode="·" horiz-adv-x="260"/>
<glyph glyph-name="cedilla" d="M151 -157q28 -16 56 -16q24 0 38.5 9t14.5 30q0 17 -11 24.5t-26 7.5q-11 0 -21 -2t-22 -6l-10 10l55 101h45l-38 -63q5 1 13.5 1.5t14.5 0.5q31 0 52.5 -15t21.5 -50q0 -25 -10.5 -42t-27.5 -27.5t-38.5 -15.5t-43.5 -5t-46.5 7.5t-37.5 18.5z" unicode="¸" horiz-adv-x="500"/>
<glyph glyph-name="onesuperior" d="M92 333l39 3q29 3 42 36l72 194q2 7 1 13.5t-9 4.5l-59 -14l-9 38q103 28 147 64h55l-111 -294q-6 -16 -3.5 -28t22.5 -14l38 -3l-10 -34h-227z" unicode="¹"/>
<glyph glyph-name="ordmasculine" d="M136 438q0 39 16.5 83.5t47 83t73.5 64t96 25.5q23 0 43.5 -4t35.5 -15.5t23.5 -31.5t8.5 -52q0 -40 -17 -85t-47.5 -83t-73 -63t-94.5 -25q-23 0 -43 4.5t-35.5 16t-24.5 31.5t-9 51zM253 369q17 0 33.5 14.5t32 37.5t29 51.5t23.5 56t15.5 51.5t5.5 39t-3.5 28 t-20.5 13q-23 0 -48 -25.5t-46 -63t-34.5 -80.5t-13.5 -78q0 -22 6 -33t21 -11z" unicode="º" horiz-adv-x="409"/>
<glyph glyph-name="guillemotright" d="M103 217l-27 169l49 16l84 -169q4 -8 6 -14t2 -11q0 -12 -19 -27l-187 -138l-33 33zM303 217l-27 169l49 16l84 -169q4 -8 6 -14t2 -11q0 -12 -19 -27l-187 -138l-33 33z" unicode="»" horiz-adv-x="433"/>
<glyph glyph-name="onequarter" d="M92 333l39 3q29 3 42 36l72 194q2 7 1 13.5t-9 4.5l-59 -14l-9 38q103 28 147 64h55l-111 -294q-6 -16 -3.5 -28t22.5 -14l38 -3l-10 -34h-227zM681 673h75l-500 -690h-75zM506 135l250 237h78l-87 -233h46l-20 -50h-43l-32 -88h-82l33 88h-161zM665 139l57 144 l-153 -144h96z" unicode="¼" horiz-adv-x="880"/>
<glyph glyph-name="onehalf" d="M73 333l39 3q29 3 42 36l72 194q2 7 1 13.5t-9 4.5l-59 -14l-9 38q103 28 147 64h55l-111 -294q-6 -16 -3.5 -28t22.5 -14l38 -3l-10 -34h-227zM661 673h75l-500 -690h-75zM726 70l31 35h48l-56 -104h-257q10 34 29 62.5t43 53.5t51 46.5t54 41.5q37 26 58 47t21 47 q0 30 -31 30q-32 0 -62 -19.5t-61 -51.5l-30 29q12 13 28.5 28.5t38 28.5t48.5 21.5t59 8.5q51 0 79 -19.5t28 -54.5q0 -21 -7 -36.5t-21.5 -29t-36.5 -27t-53 -31.5t-53.5 -32.5t-38.5 -26.5t-27 -23.5t-18 -23.5h136z" unicode="½" horiz-adv-x="880"/>
<glyph glyph-name="threequarters" d="M186 492q29 8 55.5 17.5t46 21.5t31 27t11.5 34q0 15 -9.5 24t-23.5 9q-23 0 -48 -15t-58 -46l-30 27q13 13 30 27.5t37.5 26.5t45 19.5t52.5 7.5q43 0 67 -19t24 -51t-25 -56t-62 -41q23 -5 38.5 -23.5t15.5 -45.5q0 -30 -15 -56.5t-41 -45.5t-62 -30t-79 -11 q-17 0 -36 2.5t-35 9t-26 17t-10 26.5q0 11 9.5 22t29.5 11q17 0 26.5 -8.5t14.5 -17.5q6 -10 14.5 -19t29.5 -9q41 0 63 25t22 67q0 24 -11 36.5t-28 12.5q-11 0 -22.5 -2.5t-32.5 -9.5zM701 673h75l-500 -690h-75zM522 135l250 237h78l-87 -233h46l-20 -50h-43l-32 -88 h-82l33 88h-161zM681 139l57 144l-153 -144h96z" unicode="¾" horiz-adv-x="880"/>
<glyph glyph-name="questiondown" d="M159 278q71 -11 104 -40t33 -71q0 -25 -9.5 -46.5t-26 -41.5t-38.5 -38.5t-46 -36.5q-20 -15 -39.5 -31.5t-35 -35t-25.5 -39.5t-10 -45q0 -37 14 -48.5t30 -11.5q21 0 32 13.5t20 30t20.5 30t32.5 13.5q29 0 40.5 -15.5t11.5 -29.5q0 -18 -11 -32.5t-30.5 -25.5 t-46.5 -17t-58 -6q-81 0 -122 35t-41 98q0 30 10 54t28 46t43.5 43.5t57.5 45.5q17 13 34.5 26t32 27.5t23.5 30t9 33.5q0 14 -8.5 26t-40.5 22zM189 373q0 30 22 54.5t55 24.5q30 0 45.5 -18t15.5 -43q0 -30 -21 -53.5t-56 -23.5q-28 0 -44.5 16.5t-16.5 42.5z" unicode="¿" horiz-adv-x="375"/>
<glyph glyph-name="Agrave" d="M-42 38l26 2q27 3 56.5 21t53.5 53l369 534l123 31l-41 -565q-3 -40 5 -56t34 -18l22 -2l-12 -38h-302l12 38l21 2q20 2 36.5 6.5t28.5 14t19.5 25t9.5 40.5l6 70h-207l-53 -80q-21 -32 -25 -53t26 -23l32 -2l-12 -38h-240zM430 247l28 304l-206 -304h178zM375 818 q-24 14 -24 38q0 21 14.5 35.5t32.5 14.5q11 0 18 -5t13 -11l128 -139l-22 -24z" unicode="À" horiz-adv-x="676"/>
<glyph glyph-name="Aacute" d="M-42 38l26 2q27 3 56.5 21t53.5 53l369 534l123 31l-41 -565q-3 -40 5 -56t34 -18l22 -2l-12 -38h-302l12 38l21 2q20 2 36.5 6.5t28.5 14t19.5 25t9.5 40.5l6 70h-207l-53 -80q-21 -32 -25 -53t26 -23l32 -2l-12 -38h-240zM430 247l28 304l-206 -304h178zM477 751 l128 139q6 6 13 11t18 5q18 0 32.5 -14.5t14.5 -35.5q0 -24 -24 -38l-160 -91z" unicode="Á" horiz-adv-x="676"/>
<glyph glyph-name="Acircumflex" d="M-42 38l26 2q27 3 56.5 21t53.5 53l369 534l123 31l-41 -565q-3 -40 5 -56t34 -18l22 -2l-12 -38h-302l12 38l21 2q20 2 36.5 6.5t28.5 14t19.5 25t9.5 40.5l6 70h-207l-53 -80q-21 -32 -25 -53t26 -23l32 -2l-12 -38h-240zM430 247l28 304l-206 -304h178zM395 756 l105 108q14 15 27 26t30 11t27 -9t19 -29l53 -114l-34 -16l-78 83l-116 -84z" unicode="Â" horiz-adv-x="676"/>
<glyph glyph-name="Atilde" d="M-42 38l26 2q27 3 56.5 21t53.5 53l369 534l123 31l-41 -565q-3 -40 5 -56t34 -18l22 -2l-12 -38h-302l12 38l21 2q20 2 36.5 6.5t28.5 14t19.5 25t9.5 40.5l6 70h-207l-53 -80q-21 -32 -25 -53t26 -23l32 -2l-12 -38h-240zM430 247l28 304l-206 -304h178zM344 768 q21 51 46 73t60 22q22 0 43 -6.5t40.5 -14t38 -13.5t35.5 -6q22 0 33.5 12.5t18.5 31.5l34 -11q-17 -48 -39.5 -75t-61.5 -27q-23 0 -44.5 6t-41.5 13.5t-38.5 14t-34.5 6.5q-20 0 -31 -11t-22 -29z" unicode="Ã" horiz-adv-x="676"/>
<glyph glyph-name="Adieresis" d="M-42 38l26 2q27 3 56.5 21t53.5 53l369 534l123 31l-41 -565q-3 -40 5 -56t34 -18l22 -2l-12 -38h-302l12 38l21 2q20 2 36.5 6.5t28.5 14t19.5 25t9.5 40.5l6 70h-207l-53 -80q-21 -32 -25 -53t26 -23l32 -2l-12 -38h-240zM430 247l28 304l-206 -304h178zM569 804 q0 26 17.5 45t46.5 19q21 0 34.5 -14t13.5 -34q0 -25 -18 -44.5t-45 -19.5q-23 0 -36 14t-13 34zM380 804q0 26 17 45t47 19q20 0 34 -14t14 -34q0 -25 -18.5 -44.5t-45.5 -19.5q-23 0 -35.5 14t-12.5 34z" unicode="Ä" horiz-adv-x="676"/>
<glyph glyph-name="Aring" d="M-42 38l26 2q27 3 56.5 21t53.5 53l369 534l123 31l-41 -565q-3 -40 5 -56t34 -18l22 -2l-12 -38h-302l12 38l21 2q20 2 36.5 6.5t28.5 14t19.5 25t9.5 40.5l6 70h-207l-53 -80q-21 -32 -25 -53t26 -23l32 -2l-12 -38h-240zM430 247l28 304l-206 -304h178zM446 814 q0 37 26 63t63 26t63 -26t26 -63t-26 -63t-63 -26t-63 26t-26 63zM535 764q22 0 34 14t12 36t-12 35.5t-34 13.5t-34.5 -13.5t-12.5 -35.5t12.5 -36t34.5 -14z" unicode="Å" horiz-adv-x="676"/>
<glyph glyph-name="AE" d="M-41 38q22 1 46.5 6.5t51.5 20.5t57 42.5t63 72.5l296 405q13 17 13 29t-10 15t-26 5l-32 3l14 36h571l19 -167h-40l-62 97q-11 19 -23 22.5t-36 3.5h-113l-88 -264h47q49 0 81 19q23 14 37.5 37t27.5 53h41l-91 -270h-42q4 14 5.5 28t1.5 25q0 35 -19 47.5t-54 12.5h-51 l-67 -203q-5 -17 -7 -29.5t2.5 -21.5t15.5 -13.5t31 -4.5h156q20 0 31 4.5t22 18.5l94 117h40l-48 -185h-592l13 38l32 2q26 2 39 12.5t24 41.5l74 223h-153l-89 -125q-19 -27 -32 -45.5t-21.5 -32.5t-12.5 -24t-4 -20q0 -18 18.5 -25t41.5 -7l-13 -38h-293zM521 365l88 262 h-37l-187 -262h136z" unicode="Æ" horiz-adv-x="1028"/>
<glyph glyph-name="Ccedilla" d="M184 -157q28 -16 56 -16q24 0 38.5 9t14.5 30q0 17 -11 24.5t-26 7.5q-11 0 -21 -2t-22 -6l-10 10l45 84q-57 4 -94 24t-59 50t-30.5 65.5t-8.5 70.5q0 103 40 193.5t105 157.5t146.5 106t164.5 39q37 0 60.5 -5.5t38.5 -11.5t23.5 -11.5t15.5 -5.5q10 0 15.5 6t14.5 20 h46l-81 -223h-45q2 19 3 35t1 31q0 63 -21 93t-74 30q-50 0 -104.5 -38t-100.5 -101t-75.5 -144.5t-29.5 -169.5q0 -76 25.5 -119.5t79.5 -43.5q41 0 78 19.5t68.5 51.5t57 72.5t45.5 82.5h50l-78 -258h-49l-5 51q-45 -37 -89 -51t-90 -16l-27 -46q5 1 13.5 1.5t14.5 0.5 q31 0 52.5 -15t21.5 -50q0 -25 -10.5 -42t-27.5 -27.5t-38.5 -15.5t-43.5 -5t-46.5 7.5t-37.5 18.5z" unicode="Ç" horiz-adv-x="646"/>
<glyph glyph-name="Egrave" d="M-31 38l32 2q26 2 39 12.5t24 41.5l163 485q11 31 4.5 41.5t-32.5 12.5l-32 2l13 38h457l19 -167h-40l-62 97q-11 19 -23 22.5t-36 3.5h-113l-88 -264h47q49 0 81 19q23 14 37.5 37t27.5 53h41l-91 -270h-42q4 14 5.5 28t1.5 25q0 35 -19 47.5t-54 12.5h-51l-67 -203 q-5 -17 -7 -29.5t2.5 -21.5t15.5 -13.5t31 -4.5h156q20 0 31 4.5t22 18.5l94 117h40l-48 -185h-592zM288 818q-24 14 -24 38q0 21 14.5 35.5t32.5 14.5q11 0 18 -5t13 -11l128 -139l-22 -24z" unicode="È" horiz-adv-x="662"/>
<glyph glyph-name="Eacute" d="M-31 38l32 2q26 2 39 12.5t24 41.5l163 485q11 31 4.5 41.5t-32.5 12.5l-32 2l13 38h457l19 -167h-40l-62 97q-11 19 -23 22.5t-36 3.5h-113l-88 -264h47q49 0 81 19q23 14 37.5 37t27.5 53h41l-91 -270h-42q4 14 5.5 28t1.5 25q0 35 -19 47.5t-54 12.5h-51l-67 -203 q-5 -17 -7 -29.5t2.5 -21.5t15.5 -13.5t31 -4.5h156q20 0 31 4.5t22 18.5l94 117h40l-48 -185h-592zM369 751l128 139q6 6 13 11t18 5q18 0 32.5 -14.5t14.5 -35.5q0 -24 -24 -38l-160 -91z" unicode="É" horiz-adv-x="662"/>
<glyph glyph-name="Ecircumflex" d="M-31 38l32 2q26 2 39 12.5t24 41.5l163 485q11 31 4.5 41.5t-32.5 12.5l-32 2l13 38h457l19 -167h-40l-62 97q-11 19 -23 22.5t-36 3.5h-113l-88 -264h47q49 0 81 19q23 14 37.5 37t27.5 53h41l-91 -270h-42q4 14 5.5 28t1.5 25q0 35 -19 47.5t-54 12.5h-51l-67 -203 q-5 -17 -7 -29.5t2.5 -21.5t15.5 -13.5t31 -4.5h156q20 0 31 4.5t22 18.5l94 117h40l-48 -185h-592zM297 757l105 108q14 15 27 26t30 11t27 -9t19 -29l53 -114l-34 -16l-78 83l-116 -84z" unicode="Ê" horiz-adv-x="662"/>
<glyph glyph-name="Edieresis" d="M-31 38l32 2q26 2 39 12.5t24 41.5l163 485q11 31 4.5 41.5t-32.5 12.5l-32 2l13 38h457l19 -167h-40l-62 97q-11 19 -23 22.5t-36 3.5h-113l-88 -264h47q49 0 81 19q23 14 37.5 37t27.5 53h41l-91 -270h-42q4 14 5.5 28t1.5 25q0 35 -19 47.5t-54 12.5h-51l-67 -203 q-5 -17 -7 -29.5t2.5 -21.5t15.5 -13.5t31 -4.5h156q20 0 31 4.5t22 18.5l94 117h40l-48 -185h-592zM473 804q0 26 17.5 45t46.5 19q21 0 34.5 -14t13.5 -34q0 -25 -18 -44.5t-45 -19.5q-23 0 -36 14t-13 34zM284 804q0 26 17 45t47 19q20 0 34 -14t14 -34 q0 -25 -18.5 -44.5t-45.5 -19.5q-23 0 -35.5 14t-12.5 34z" unicode="Ë" horiz-adv-x="662"/>
<glyph glyph-name="Igrave" d="M-29 38l30 2q13 1 23 4t17.5 9t13 16t10.5 25l163 485q11 31 4.5 41.5t-32.5 12.5l-39 2l13 38h303l-13 -38l-32 -2q-27 -2 -40.5 -12.5t-23.5 -41.5l-163 -485q-11 -31 -4.5 -41.5t32.5 -12.5l46 -3l-13 -37h-308zM191 818q-24 14 -24 38q0 21 14.5 35.5t32.5 14.5 q11 0 18 -5t13 -11l128 -139l-22 -24z" unicode="Ì" horiz-adv-x="362"/>
<glyph glyph-name="Iacute" d="M-29 38l30 2q13 1 23 4t17.5 9t13 16t10.5 25l163 485q11 31 4.5 41.5t-32.5 12.5l-39 2l13 38h303l-13 -38l-32 -2q-27 -2 -40.5 -12.5t-23.5 -41.5l-163 -485q-11 -31 -4.5 -41.5t32.5 -12.5l46 -3l-13 -37h-308zM277 751l128 139q6 6 13 11t18 5q18 0 32.5 -14.5 t14.5 -35.5q0 -24 -24 -38l-160 -91z" unicode="Í" horiz-adv-x="362"/>
<glyph glyph-name="Icircumflex" d="M-29 38l30 2q13 1 23 4t17.5 9t13 16t10.5 25l163 485q11 31 4.5 41.5t-32.5 12.5l-39 2l13 38h303l-13 -38l-32 -2q-27 -2 -40.5 -12.5t-23.5 -41.5l-163 -485q-11 -31 -4.5 -41.5t32.5 -12.5l46 -3l-13 -37h-308zM207 757l105 108q14 15 27 26t30 11t27 -9t19 -29 l53 -114l-34 -16l-78 83l-116 -84z" unicode="Î" horiz-adv-x="362"/>
<glyph glyph-name="Idieresis" d="M-29 38l30 2q13 1 23 4t17.5 9t13 16t10.5 25l163 485q11 31 4.5 41.5t-32.5 12.5l-39 2l13 38h303l-13 -38l-32 -2q-27 -2 -40.5 -12.5t-23.5 -41.5l-163 -485q-11 -31 -4.5 -41.5t32.5 -12.5l46 -3l-13 -37h-308zM387 804q0 26 17.5 45t46.5 19q21 0 34.5 -14t13.5 -34 q0 -25 -18 -44.5t-45 -19.5q-23 0 -36 14t-13 34zM198 804q0 26 17 45t47 19q20 0 34 -14t14 -34q0 -25 -18.5 -44.5t-45.5 -19.5q-23 0 -35.5 14t-12.5 34z" unicode="Ï" horiz-adv-x="362"/>
<glyph glyph-name="Eth" d="M-31 38l32 2q26 2 39 12.5t24 41.5l74 221h-77l18 54h77l71 210q11 31 4.5 41.5t-32.5 12.5l-32 2l13 38h242q64 0 118.5 -18.5t95 -53.5t63.5 -86t23 -117q0 -57 -14.5 -111t-43.5 -100.5t-72.5 -84t-101.5 -60.5t-112.5 -32.5t-119.5 -9.5h-302zM212 121 q-14 -44 -4 -60t57 -16q55 0 111 24.5t100 72t72 117t28 159.5q0 37 -9.5 74.5t-29.5 67.5t-51 49t-74 19q-13 0 -20.5 -2.5t-12.5 -8.5t-8.5 -15t-7.5 -21l-70 -212h142l-18 -54h-142z" unicode="Ð" horiz-adv-x="723"/>
<glyph glyph-name="Ntilde" d="M-53 37q28 1 51 6t41.5 17.5t33.5 36.5t28 63l154 456q-16 9 -38 14t-48 6l12 37h202l129 -507l118 354q6 17 10 35t4 30q0 24 -17 36.5t-62 13.5l13 38h263l-12 -37q-29 -3 -49.5 -8.5t-36 -18.5t-28 -36t-25.5 -60l-174 -521h-84l-138 545l-134 -395q-10 -29 -13 -48.5 t4.5 -31.5t27 -17.5t54.5 -6.5l-12 -38h-286zM361 768q21 51 46 73t60 22q22 0 43 -6.5t40.5 -14t38 -13.5t35.5 -6q22 0 33.5 12.5t18.5 31.5l34 -11q-17 -48 -39.5 -75t-61.5 -27q-23 0 -44.5 6t-41.5 13.5t-38.5 14t-34.5 6.5q-20 0 -31 -11t-22 -29z" unicode="Ñ" horiz-adv-x="696"/>
<glyph glyph-name="Ograve" d="M63 199q0 56 13 114.5t37.5 113t60 102.5t80.5 83.5t99.5 56.5t116.5 21q105 0 158.5 -58.5t53.5 -164.5q0 -55 -13 -112t-37.5 -111t-59.5 -101.5t-79.5 -83t-97.5 -56t-113 -20.5q-109 0 -164 51.5t-55 164.5zM282 26q42 0 78.5 26.5t65.5 69t51.5 96.5t37.5 109 t22.5 105.5t7.5 87.5q0 20 -3.5 42.5t-12.5 41.5t-25 31.5t-41 12.5q-40 0 -75 -26.5t-64 -69.5t-52 -97t-38.5 -109t-23.5 -106t-8 -87t5.5 -60.5t16 -39.5t25.5 -21t33 -6zM323 818q-24 14 -24 38q0 21 14.5 35.5t32.5 14.5q11 0 18 -5t13 -11l128 -139l-22 -24z" unicode="Ò" horiz-adv-x="672"/>
<glyph glyph-name="Oacute" d="M63 199q0 56 13 114.5t37.5 113t60 102.5t80.5 83.5t99.5 56.5t116.5 21q105 0 158.5 -58.5t53.5 -164.5q0 -55 -13 -112t-37.5 -111t-59.5 -101.5t-79.5 -83t-97.5 -56t-113 -20.5q-109 0 -164 51.5t-55 164.5zM282 26q42 0 78.5 26.5t65.5 69t51.5 96.5t37.5 109 t22.5 105.5t7.5 87.5q0 20 -3.5 42.5t-12.5 41.5t-25 31.5t-41 12.5q-40 0 -75 -26.5t-64 -69.5t-52 -97t-38.5 -109t-23.5 -106t-8 -87t5.5 -60.5t16 -39.5t25.5 -21t33 -6zM428 751l128 139q6 6 13 11t18 5q18 0 32.5 -14.5t14.5 -35.5q0 -24 -24 -38l-160 -91z" unicode="Ó" horiz-adv-x="672"/>
<glyph glyph-name="Ocircumflex" d="M63 199q0 56 13 114.5t37.5 113t60 102.5t80.5 83.5t99.5 56.5t116.5 21q105 0 158.5 -58.5t53.5 -164.5q0 -55 -13 -112t-37.5 -111t-59.5 -101.5t-79.5 -83t-97.5 -56t-113 -20.5q-109 0 -164 51.5t-55 164.5zM282 26q42 0 78.5 26.5t65.5 69t51.5 96.5t37.5 109 t22.5 105.5t7.5 87.5q0 20 -3.5 42.5t-12.5 41.5t-25 31.5t-41 12.5q-40 0 -75 -26.5t-64 -69.5t-52 -97t-38.5 -109t-23.5 -106t-8 -87t5.5 -60.5t16 -39.5t25.5 -21t33 -6zM346 757l105 108q14 15 27 26t30 11t27 -9t19 -29l53 -114l-34 -16l-78 83l-116 -84z" unicode="Ô" horiz-adv-x="672"/>
<glyph glyph-name="Otilde" d="M63 199q0 56 13 114.5t37.5 113t60 102.5t80.5 83.5t99.5 56.5t116.5 21q105 0 158.5 -58.5t53.5 -164.5q0 -55 -13 -112t-37.5 -111t-59.5 -101.5t-79.5 -83t-97.5 -56t-113 -20.5q-109 0 -164 51.5t-55 164.5zM282 26q42 0 78.5 26.5t65.5 69t51.5 96.5t37.5 109 t22.5 105.5t7.5 87.5q0 20 -3.5 42.5t-12.5 41.5t-25 31.5t-41 12.5q-40 0 -75 -26.5t-64 -69.5t-52 -97t-38.5 -109t-23.5 -106t-8 -87t5.5 -60.5t16 -39.5t25.5 -21t33 -6zM315 768q21 51 46 73t60 22q22 0 43 -6.5t40.5 -14t38 -13.5t35.5 -6q22 0 33.5 12.5t18.5 31.5 l34 -11q-17 -48 -39.5 -75t-61.5 -27q-23 0 -44.5 6t-41.5 13.5t-38.5 14t-34.5 6.5q-20 0 -31 -11t-22 -29z" unicode="Õ" horiz-adv-x="672"/>
<glyph glyph-name="Odieresis" d="M63 199q0 56 13 114.5t37.5 113t60 102.5t80.5 83.5t99.5 56.5t116.5 21q105 0 158.5 -58.5t53.5 -164.5q0 -55 -13 -112t-37.5 -111t-59.5 -101.5t-79.5 -83t-97.5 -56t-113 -20.5q-109 0 -164 51.5t-55 164.5zM282 26q42 0 78.5 26.5t65.5 69t51.5 96.5t37.5 109 t22.5 105.5t7.5 87.5q0 20 -3.5 42.5t-12.5 41.5t-25 31.5t-41 12.5q-40 0 -75 -26.5t-64 -69.5t-52 -97t-38.5 -109t-23.5 -106t-8 -87t5.5 -60.5t16 -39.5t25.5 -21t33 -6zM528 804q0 26 17.5 45t46.5 19q21 0 34.5 -14t13.5 -34q0 -25 -18 -44.5t-45 -19.5q-23 0 -36 14 t-13 34zM339 804q0 26 17 45t47 19q20 0 34 -14t14 -34q0 -25 -18.5 -44.5t-45.5 -19.5q-23 0 -35.5 14t-12.5 34z" unicode="Ö" horiz-adv-x="672"/>
<glyph glyph-name="multiply" d="M175 177l-38 38l108 108l-110 111l44 44l110 -111l108 108l38 -38l-108 -108l111 -110l-44 -44l-111 110z" unicode="×" horiz-adv-x="518"/>
<glyph glyph-name="Oslash" d="M149 12q-86 48 -86 187q0 56 13 114.5t37.5 113t60 102.5t80.5 83.5t99.5 56.5t116.5 21q31 0 58 -6l44 77l43 -23l-39 -69q53 -25 79.5 -76.5t26.5 -125.5q0 -55 -13 -112t-37.5 -111t-59.5 -101.5t-79.5 -83t-97.5 -56t-113 -20.5q-51 0 -88 10l-45 -81l-43 23zM226 49 q11 -13 25 -18t31 -5q42 0 78.5 26.5t65.5 69t51.5 96.5t37.5 109t22.5 105.5t7.5 87.5q0 17 -2.5 36.5t-9.5 36.5zM502 637q-17 11 -39 11q-40 0 -75 -26.5t-64 -69.5t-52 -97t-38.5 -109t-23.5 -106t-8 -87q0 -13 0.5 -23.5t1.5 -20.5z" unicode="Ø" horiz-adv-x="672"/>
<glyph glyph-name="Ugrave" d="M212 554q11 33 11 51q0 24 -23 27l-51 5l14 36h305l-12 -36l-45 -6q-20 -3 -29 -12.5t-16 -29.5l-119 -354q-8 -22 -13.5 -48t-5.5 -54q0 -46 24 -68t75 -22q64 0 97 31.5t56 99.5l122 357q5 15 9.5 33t4.5 28q0 23 -17 33t-62 10l13 38h260l-12 -37q-26 -2 -45.5 -6.5 t-34.5 -17t-28 -36.5t-27 -63l-126 -356q-15 -42 -32.5 -74.5t-44 -54.5t-64 -33.5t-91.5 -11.5q-44 0 -82.5 8t-67 27t-45.5 50.5t-17 79.5q0 26 7 59.5t19 68.5zM372 818q-24 14 -24 38q0 21 14.5 35.5t32.5 14.5q11 0 18 -5t13 -11l128 -139l-22 -24z" unicode="Ù" horiz-adv-x="670"/>
<glyph glyph-name="Uacute" d="M212 554q11 33 11 51q0 24 -23 27l-51 5l14 36h305l-12 -36l-45 -6q-20 -3 -29 -12.5t-16 -29.5l-119 -354q-8 -22 -13.5 -48t-5.5 -54q0 -46 24 -68t75 -22q64 0 97 31.5t56 99.5l122 357q5 15 9.5 33t4.5 28q0 23 -17 33t-62 10l13 38h260l-12 -37q-26 -2 -45.5 -6.5 t-34.5 -17t-28 -36.5t-27 -63l-126 -356q-15 -42 -32.5 -74.5t-44 -54.5t-64 -33.5t-91.5 -11.5q-44 0 -82.5 8t-67 27t-45.5 50.5t-17 79.5q0 26 7 59.5t19 68.5zM440 751l128 139q6 6 13 11t18 5q18 0 32.5 -14.5t14.5 -35.5q0 -24 -24 -38l-160 -91z" unicode="Ú" horiz-adv-x="670"/>
<glyph glyph-name="Ucircumflex" d="M212 554q11 33 11 51q0 24 -23 27l-51 5l14 36h305l-12 -36l-45 -6q-20 -3 -29 -12.5t-16 -29.5l-119 -354q-8 -22 -13.5 -48t-5.5 -54q0 -46 24 -68t75 -22q64 0 97 31.5t56 99.5l122 357q5 15 9.5 33t4.5 28q0 23 -17 33t-62 10l13 38h260l-12 -37q-26 -2 -45.5 -6.5 t-34.5 -17t-28 -36.5t-27 -63l-126 -356q-15 -42 -32.5 -74.5t-44 -54.5t-64 -33.5t-91.5 -11.5q-44 0 -82.5 8t-67 27t-45.5 50.5t-17 79.5q0 26 7 59.5t19 68.5zM390 757l105 108q14 15 27 26t30 11t27 -9t19 -29l53 -114l-34 -16l-78 83l-116 -84z" unicode="Û" horiz-adv-x="670"/>
<glyph glyph-name="Udieresis" d="M212 554q11 33 11 51q0 24 -23 27l-51 5l14 36h305l-12 -36l-45 -6q-20 -3 -29 -12.5t-16 -29.5l-119 -354q-8 -22 -13.5 -48t-5.5 -54q0 -46 24 -68t75 -22q64 0 97 31.5t56 99.5l122 357q5 15 9.5 33t4.5 28q0 23 -17 33t-62 10l13 38h260l-12 -37q-26 -2 -45.5 -6.5 t-34.5 -17t-28 -36.5t-27 -63l-126 -356q-15 -42 -32.5 -74.5t-44 -54.5t-64 -33.5t-91.5 -11.5q-44 0 -82.5 8t-67 27t-45.5 50.5t-17 79.5q0 26 7 59.5t19 68.5zM566 804q0 26 17.5 45t46.5 19q21 0 34.5 -14t13.5 -34q0 -25 -18 -44.5t-45 -19.5q-23 0 -36 14t-13 34z M377 804q0 26 17 45t47 19q20 0 34 -14t14 -34q0 -25 -18.5 -44.5t-45.5 -19.5q-23 0 -35.5 14t-12.5 34z" unicode="Ü" horiz-adv-x="670"/>
<glyph glyph-name="Yacute" d="M162 0l12 36l44 5q22 2 32 12.5t17 30.5l77 227l-88 247q-17 47 -44.5 62t-67.5 15l13 38h306l-13 -38q-35 0 -48 -8t-13 -23q0 -10 3 -22t7 -24l57 -175l149 160q20 21 27.5 36t7.5 28q0 17 -16.5 22.5t-47.5 5.5l13 38h280l-12 -36q-23 -2 -44 -6t-43 -15t-47 -31.5 t-56 -53.5l-175 -190l-64 -200q-15 -47 -15 -69q0 -17 8 -23.5t27 -8.5l46 -3l-14 -37h-318zM485 751l128 139q6 6 13 11t18 5q18 0 32.5 -14.5t14.5 -35.5q0 -24 -24 -38l-160 -91z" unicode="Ý" horiz-adv-x="725"/>
<glyph glyph-name="Thorn" d="M-31 38l32 2q26 2 39 12.5t24 41.5l163 486q11 30 4 40.5t-32 12.5l-39 2l13 38h303l-13 -38l-32 -2q-27 -2 -40.5 -12.5t-23.5 -41.5l-12 -37h17q122 0 179 -45t57 -119q0 -42 -16 -78t-45 -64t-71.5 -46.5t-94.5 -25.5q-29 -4 -66.5 -4.5t-67.5 -0.5h-21l-19 -57 q-11 -33 -2 -45t38 -14l63 -5l-10 -38h-340zM278 208q37 0 71 9.5t59.5 31t41 55.5t15.5 83q0 51 -26.5 80.5t-74.5 29.5q-14 0 -21 -7.5t-12 -22.5l-87 -259h34z" unicode="Þ" horiz-adv-x="601"/>
<glyph glyph-name="germandbls" d="M154 463q15 51 37.5 95.5t56 77t79.5 51t109 18.5q40 0 68 -8.5t45 -22.5t25 -31.5t8 -35.5q0 -32 -13.5 -55t-33.5 -42t-43.5 -35t-43.5 -33t-33.5 -37t-13.5 -47t15 -55.5t32.5 -57.5t32.5 -60t15 -63q0 -29 -12 -53t-34 -41t-53 -27t-68 -10q-73 0 -103.5 19.5 t-30.5 48.5q0 17 12.5 31.5t39.5 14.5q22 0 33.5 -12t20.5 -26t19.5 -26t30.5 -12q17 0 25.5 14.5t8.5 40.5q0 33 -15 61t-33.5 55.5t-33.5 56.5t-15 64t13.5 60t34.5 45t44.5 36.5t44.5 34.5t34.5 40t13.5 53q0 32 -14 50t-45 18q-45 0 -75 -39t-55 -124l-76 -259 q-11 -38 -24.5 -82.5t-30 -89.5t-36 -88.5t-42.5 -80.5q-11 -18 -27.5 -36.5t-38 -33.5t-48 -24.5t-58.5 -9.5q-51 0 -76.5 18t-25.5 47q0 19 12.5 35t40.5 16q22 0 33.5 -11t19 -24.5t14 -24.5t19.5 -11q10 0 22 20t23 49t21 60.5t17 55.5z" unicode="ß" horiz-adv-x="547"/>
<glyph glyph-name="agrave" d="M375 392q-7 8 -15.5 13t-20.5 5q-21 0 -45 -17.5t-48 -46t-45.5 -64t-38.5 -71.5t-27 -69t-10 -56q0 -35 23 -35q19 0 40.5 19t42.5 47.5t40 63t34 66.5zM285 124q-52 -72 -98 -102.5t-86 -30.5q-48 0 -71.5 19.5t-23.5 63.5q0 38 12 81t34 85t52 80.5t66 67.5t76.5 46.5 t83.5 17.5q27 0 39.5 -8t23.5 -19l10 19h113l-145 -331q-9 -21 -10 -30t10 -9q10 0 30.5 14t56.5 53l24 -22q-14 -19 -32.5 -40.5t-41.5 -40t-48.5 -30.5t-52.5 -12q-24 0 -37 9t-13 30q0 15 9.5 38t22.5 48zM245 607q-8 8 -12.5 17t-4.5 15q0 20 14.5 34.5t37.5 14.5 q8 0 15 -3t14 -14l98 -170l-29 -20z" unicode="à" horiz-adv-x="517"/>
<glyph glyph-name="aacute" d="M375 392q-7 8 -15.5 13t-20.5 5q-21 0 -45 -17.5t-48 -46t-45.5 -64t-38.5 -71.5t-27 -69t-10 -56q0 -35 23 -35q19 0 40.5 19t42.5 47.5t40 63t34 66.5zM285 124q-52 -72 -98 -102.5t-86 -30.5q-48 0 -71.5 19.5t-23.5 63.5q0 38 12 81t34 85t52 80.5t66 67.5t76.5 46.5 t83.5 17.5q27 0 39.5 -8t23.5 -19l10 19h113l-145 -331q-9 -21 -10 -30t10 -9q10 0 30.5 14t56.5 53l24 -22q-14 -19 -32.5 -40.5t-41.5 -40t-48.5 -30.5t-52.5 -12q-24 0 -37 9t-13 30q0 15 9.5 38t22.5 48zM428 671q6 11 13.5 14t15.5 3q23 0 37.5 -14.5t14.5 -34.5 q0 -6 -4.5 -15t-12.5 -17l-133 -126l-29 20z" unicode="á" horiz-adv-x="517"/>
<glyph glyph-name="acircumflex" d="M375 392q-7 8 -15.5 13t-20.5 5q-21 0 -45 -17.5t-48 -46t-45.5 -64t-38.5 -71.5t-27 -69t-10 -56q0 -35 23 -35q19 0 40.5 19t42.5 47.5t40 63t34 66.5zM285 124q-52 -72 -98 -102.5t-86 -30.5q-48 0 -71.5 19.5t-23.5 63.5q0 38 12 81t34 85t52 80.5t66 67.5t76.5 46.5 t83.5 17.5q27 0 39.5 -8t23.5 -19l10 19h113l-145 -331q-9 -21 -10 -30t10 -9q10 0 30.5 14t56.5 53l24 -22q-14 -19 -32.5 -40.5t-41.5 -40t-48.5 -30.5t-52.5 -12q-24 0 -37 9t-13 30q0 15 9.5 38t22.5 48zM253 511l125 156q13 17 24.5 24t29.5 7q12 0 25.5 -8t16.5 -30 l23 -169l-38 -9l-48 126l-125 -120z" unicode="â" horiz-adv-x="517"/>
<glyph glyph-name="atilde" d="M375 392q-7 8 -15.5 13t-20.5 5q-21 0 -45 -17.5t-48 -46t-45.5 -64t-38.5 -71.5t-27 -69t-10 -56q0 -35 23 -35q19 0 40.5 19t42.5 47.5t40 63t34 66.5zM285 124q-52 -72 -98 -102.5t-86 -30.5q-48 0 -71.5 19.5t-23.5 63.5q0 38 12 81t34 85t52 80.5t66 67.5t76.5 46.5 t83.5 17.5q27 0 39.5 -8t23.5 -19l10 19h113l-145 -331q-9 -21 -10 -30t10 -9q10 0 30.5 14t56.5 53l24 -22q-14 -19 -32.5 -40.5t-41.5 -40t-48.5 -30.5t-52.5 -12q-24 0 -37 9t-13 30q0 15 9.5 38t22.5 48zM197 545q21 51 46 73t60 22q22 0 42.5 -6t39.5 -13.5t37 -13.5 t35 -6q19 0 31 12.5t19 31.5l39 -12q-17 -48 -39.5 -75t-61.5 -27q-23 0 -44.5 6t-41.5 13.5t-38.5 14t-34.5 6.5q-19 0 -28.5 -11.5t-20.5 -29.5z" unicode="ã" horiz-adv-x="517"/>
<glyph glyph-name="adieresis" d="M375 392q-7 8 -15.5 13t-20.5 5q-21 0 -45 -17.5t-48 -46t-45.5 -64t-38.5 -71.5t-27 -69t-10 -56q0 -35 23 -35q19 0 40.5 19t42.5 47.5t40 63t34 66.5zM285 124q-52 -72 -98 -102.5t-86 -30.5q-48 0 -71.5 19.5t-23.5 63.5q0 38 12 81t34 85t52 80.5t66 67.5t76.5 46.5 t83.5 17.5q27 0 39.5 -8t23.5 -19l10 19h113l-145 -331q-9 -21 -10 -30t10 -9q10 0 30.5 14t56.5 53l24 -22q-14 -19 -32.5 -40.5t-41.5 -40t-48.5 -30.5t-52.5 -12q-24 0 -37 9t-13 30q0 15 9.5 38t22.5 48zM418 589q0 26 17.5 45t46.5 19q21 0 34.5 -14t13.5 -34 q0 -25 -18 -44.5t-45 -19.5q-23 0 -36 14t-13 34zM229 589q0 26 17 45t47 19q20 0 34 -14t14 -34q0 -25 -18.5 -44.5t-45.5 -19.5q-23 0 -35.5 14t-12.5 34z" unicode="ä" horiz-adv-x="517"/>
<glyph glyph-name="aring" d="M375 392q-7 8 -15.5 13t-20.5 5q-21 0 -45 -17.5t-48 -46t-45.5 -64t-38.5 -71.5t-27 -69t-10 -56q0 -35 23 -35q19 0 40.5 19t42.5 47.5t40 63t34 66.5zM285 124q-52 -72 -98 -102.5t-86 -30.5q-48 0 -71.5 19.5t-23.5 63.5q0 38 12 81t34 85t52 80.5t66 67.5t76.5 46.5 t83.5 17.5q27 0 39.5 -8t23.5 -19l10 19h113l-145 -331q-9 -21 -10 -30t10 -9q10 0 30.5 14t56.5 53l24 -22q-14 -19 -32.5 -40.5t-41.5 -40t-48.5 -30.5t-52.5 -12q-24 0 -37 9t-13 30q0 15 9.5 38t22.5 48zM290 606q0 37 26 63t63 26t63 -26t26 -63t-26 -63t-63 -26 t-63 26t-26 63zM379 556q22 0 34 14t12 36t-12 35.5t-34 13.5t-34.5 -13.5t-12.5 -35.5t12.5 -36t34.5 -14z" unicode="å" horiz-adv-x="517"/>
<glyph glyph-name="ae" d="M277 113q-50 -66 -94 -94t-82 -28q-48 0 -71.5 19.5t-23.5 63.5q0 38 12 81t34 85t52 80.5t66 67.5t76.5 46.5t83.5 17.5q27 0 39.5 -8t23.5 -19l10 19h75l-16 -38q23 20 54 33t62 13q54 0 76.5 -21t22.5 -58q0 -35 -20.5 -67t-57 -58.5t-87 -46.5t-111.5 -32 q-4 -13 -8 -34.5t-4 -45.5q0 -20 6.5 -31.5t25.5 -11.5q25 0 58.5 21t82.5 77l34 -25q-17 -23 -37.5 -45.5t-47 -41t-58 -30t-70.5 -11.5q-33 0 -53.5 8t-32 22t-16 33t-4.5 41v18zM375 392q-7 8 -15.5 13t-20.5 5q-21 0 -45 -17.5t-48 -46t-45.5 -64t-38.5 -71.5t-27 -69 t-10 -56q0 -35 23 -35q19 0 40.5 19t42.5 47.5t40 63t34 66.5zM413 218q44 12 76.5 31t54 41.5t32 47t10.5 47.5q0 16 -6.5 21.5t-15.5 5.5q-32 0 -74 -51t-77 -143z" unicode="æ" horiz-adv-x="667"/>
<glyph glyph-name="ccedilla" d="M32 -157q28 -16 56 -16q24 0 38.5 9t14.5 30q0 17 -11 24.5t-26 7.5q-11 0 -21 -2t-22 -6l-10 10l51 95q-38 8 -62.5 34t-24.5 76q0 44 13.5 89.5t37.5 87t57.5 76.5t74.5 59q31 18 60.5 26.5t71.5 8.5q18 0 37 -4.5t34.5 -14t25 -25t9.5 -36.5q0 -24 -15 -41.5 t-46 -17.5q-32 0 -45.5 15.5t-13.5 34.5q0 9 1.5 18t2 16.5t-1.5 12.5t-9 5q-20 0 -40.5 -16.5t-39.5 -43.5t-36 -61.5t-29.5 -69.5t-20 -68.5t-7.5 -58.5t10.5 -35.5t30.5 -10.5q28 0 66.5 24t82.5 81l34 -22q-12 -20 -32.5 -44.5t-47.5 -46t-61 -36.5t-74 -16l-32 -53 q5 1 13.5 1.5t14.5 0.5q31 0 52.5 -15t21.5 -50q0 -25 -10.5 -42t-27.5 -27.5t-38.5 -15.5t-43.5 -5t-46.5 7.5t-37.5 18.5z" unicode="ç" horiz-adv-x="408"/>
<glyph glyph-name="egrave" d="M339 119q-17 -23 -37.5 -45.5t-47 -41t-58 -30t-70.5 -11.5q-33 0 -55 8t-35.5 22t-19 33t-5.5 41q0 65 24.5 129t66.5 114.5t97.5 82t117.5 31.5q54 0 78.5 -21t24.5 -58q0 -35 -20.5 -67t-57 -58.5t-87 -46.5t-111.5 -32q-4 -13 -8 -34.5t-4 -45.5q0 -20 6.5 -31.5 t25.5 -11.5q25 0 58.5 21t82.5 77zM156 218q44 12 76.5 31t54 41.5t32 47t10.5 47.5q0 16 -6.5 21.5t-15.5 5.5q-32 0 -74 -51t-77 -143zM191 607q-8 8 -12.5 17t-4.5 15q0 20 14.5 34.5t37.5 14.5q8 0 15 -3t14 -14l98 -170l-29 -20z" unicode="è" horiz-adv-x="410"/>
<glyph glyph-name="eacute" d="M339 119q-17 -23 -37.5 -45.5t-47 -41t-58 -30t-70.5 -11.5q-33 0 -55 8t-35.5 22t-19 33t-5.5 41q0 65 24.5 129t66.5 114.5t97.5 82t117.5 31.5q54 0 78.5 -21t24.5 -58q0 -35 -20.5 -67t-57 -58.5t-87 -46.5t-111.5 -32q-4 -13 -8 -34.5t-4 -45.5q0 -20 6.5 -31.5 t25.5 -11.5q25 0 58.5 21t82.5 77zM156 218q44 12 76.5 31t54 41.5t32 47t10.5 47.5q0 16 -6.5 21.5t-15.5 5.5q-32 0 -74 -51t-77 -143zM350 671q6 11 13.5 14t15.5 3q23 0 37.5 -14.5t14.5 -34.5q0 -6 -4.5 -15t-12.5 -17l-133 -126l-29 20z" unicode="é" horiz-adv-x="410"/>
<glyph glyph-name="ecircumflex" d="M339 119q-17 -23 -37.5 -45.5t-47 -41t-58 -30t-70.5 -11.5q-33 0 -55 8t-35.5 22t-19 33t-5.5 41q0 65 24.5 129t66.5 114.5t97.5 82t117.5 31.5q54 0 78.5 -21t24.5 -58q0 -35 -20.5 -67t-57 -58.5t-87 -46.5t-111.5 -32q-4 -13 -8 -34.5t-4 -45.5q0 -20 6.5 -31.5 t25.5 -11.5q25 0 58.5 21t82.5 77zM156 218q44 12 76.5 31t54 41.5t32 47t10.5 47.5q0 16 -6.5 21.5t-15.5 5.5q-32 0 -74 -51t-77 -143zM206 511l125 156q13 17 24.5 24t29.5 7q12 0 25.5 -8t16.5 -30l23 -169l-38 -9l-48 126l-125 -120z" unicode="ê" horiz-adv-x="410"/>
<glyph glyph-name="edieresis" d="M339 119q-17 -23 -37.5 -45.5t-47 -41t-58 -30t-70.5 -11.5q-33 0 -55 8t-35.5 22t-19 33t-5.5 41q0 65 24.5 129t66.5 114.5t97.5 82t117.5 31.5q54 0 78.5 -21t24.5 -58q0 -35 -20.5 -67t-57 -58.5t-87 -46.5t-111.5 -32q-4 -13 -8 -34.5t-4 -45.5q0 -20 6.5 -31.5 t25.5 -11.5q25 0 58.5 21t82.5 77zM156 218q44 12 76.5 31t54 41.5t32 47t10.5 47.5q0 16 -6.5 21.5t-15.5 5.5q-32 0 -74 -51t-77 -143zM375 589q0 26 17.5 45t46.5 19q21 0 34.5 -14t13.5 -34q0 -25 -18 -44.5t-45 -19.5q-23 0 -36 14t-13 34zM186 589q0 26 17 45t47 19 q20 0 34 -14t14 -34q0 -25 -18.5 -44.5t-45.5 -19.5q-23 0 -35.5 14t-12.5 34z" unicode="ë" horiz-adv-x="410"/>
<glyph glyph-name="igrave" d="M160 351q6 14 4 19.5t-8 5.5t-17 -10t-23.5 -24.5t-26 -31.5t-23.5 -31l-28 20q18 26 39.5 53t45 49.5t49 36.5t52.5 14q32 0 45 -15t13 -35t-9.5 -48t-26.5 -63l-97 -202q-5 -11 -3.5 -16.5t6.5 -5.5q6 0 16 7t21.5 18t23.5 24t23 26l27 -20q-12 -16 -30.5 -37.5 t-41.5 -41t-51 -33t-60 -13.5t-41.5 15t-9.5 34q0 12 4 25.5t12 30.5zM100 607q-8 8 -12.5 17t-4.5 15q0 20 14.5 34.5t37.5 14.5q8 0 15 -3t14 -14l98 -170l-29 -20z" unicode="ì" horiz-adv-x="301"/>
<glyph glyph-name="iacute" d="M160 351q6 14 4 19.5t-8 5.5t-17 -10t-23.5 -24.5t-26 -31.5t-23.5 -31l-28 20q18 26 39.5 53t45 49.5t49 36.5t52.5 14q32 0 45 -15t13 -35t-9.5 -48t-26.5 -63l-97 -202q-5 -11 -3.5 -16.5t6.5 -5.5q6 0 16 7t21.5 18t23.5 24t23 26l27 -20q-12 -16 -30.5 -37.5 t-41.5 -41t-51 -33t-60 -13.5t-41.5 15t-9.5 34q0 12 4 25.5t12 30.5zM274 671q6 11 13.5 14t15.5 3q23 0 37.5 -14.5t14.5 -34.5q0 -6 -4.5 -15t-12.5 -17l-133 -126l-29 20z" unicode="í" horiz-adv-x="301"/>
<glyph glyph-name="icircumflex" d="M160 351q6 14 4 19.5t-8 5.5t-17 -10t-23.5 -24.5t-26 -31.5t-23.5 -31l-28 20q18 26 39.5 53t45 49.5t49 36.5t52.5 14q32 0 45 -15t13 -35t-9.5 -48t-26.5 -63l-97 -202q-5 -11 -3.5 -16.5t6.5 -5.5q6 0 16 7t21.5 18t23.5 24t23 26l27 -20q-12 -16 -30.5 -37.5 t-41.5 -41t-51 -33t-60 -13.5t-41.5 15t-9.5 34q0 12 4 25.5t12 30.5zM116 511l125 156q13 17 24.5 24t29.5 7q12 0 25.5 -8t16.5 -30l23 -169l-38 -9l-48 126l-125 -120z" unicode="î" horiz-adv-x="301"/>
<glyph glyph-name="idieresis" d="M160 351q6 14 4 19.5t-8 5.5t-17 -10t-23.5 -24.5t-26 -31.5t-23.5 -31l-28 20q18 26 39.5 53t45 49.5t49 36.5t52.5 14q32 0 45 -15t13 -35t-9.5 -48t-26.5 -63l-97 -202q-5 -11 -3.5 -16.5t6.5 -5.5q6 0 16 7t21.5 18t23.5 24t23 26l27 -20q-12 -16 -30.5 -37.5 t-41.5 -41t-51 -33t-60 -13.5t-41.5 15t-9.5 34q0 12 4 25.5t12 30.5zM288 589q0 26 17.5 45t46.5 19q21 0 34.5 -14t13.5 -34q0 -25 -18 -44.5t-45 -19.5q-23 0 -36 14t-13 34zM99 589q0 26 17 45t47 19q20 0 34 -14t14 -34q0 -25 -18.5 -44.5t-45.5 -19.5q-23 0 -35.5 14 t-12.5 34z" unicode="ï" horiz-adv-x="301"/>
<glyph glyph-name="eth" d="M182 523l111 71q-30 43 -95 79l18 35q42 -17 75.5 -34.5t61.5 -44.5l103 66l26 -39l-98 -63q15 -20 28.5 -43t24 -51.5t17 -65t6.5 -83.5q0 -59 -20 -122.5t-58 -116t-94 -86.5t-129 -34q-32 0 -58 6.5t-44.5 21.5t-29 40.5t-10.5 64.5q0 59 20.5 116t58 101.5t89.5 71.5 t116 27q28 0 56 -11q-2 30 -12.5 66t-24.5 61l-112 -72zM165 33q20 0 40.5 17t40 45t37 62.5t30.5 70.5t20.5 69t7.5 57q0 26 -7 34.5t-21 8.5q-25 0 -56 -28t-58.5 -72t-46.5 -99t-19 -109q0 -56 32 -56z" unicode="ð" horiz-adv-x="473"/>
<glyph glyph-name="ntilde" d="M156 340q6 14 3.5 19.5t-7.5 5.5t-15 -9.5t-21 -23t-22 -28.5t-19 -26l-29 20q16 25 36 52.5t43.5 50t49 37t54.5 14.5q41 0 41 -40q0 -10 -4.5 -24.5t-11 -31.5t-15 -35.5t-16.5 -35.5l5 -3q20 26 44 56t51 55.5t57.5 42t63.5 16.5q32 0 53 -17t21 -46q0 -34 -17 -71 l-105 -229q-9 -22 3 -22q5 0 15.5 7.5t23.5 19t26 25t23 25.5l28 -21q-14 -18 -34.5 -40t-46 -41t-55 -32t-61.5 -13q-31 0 -40 15t-9 34q0 12 3.5 25.5t11.5 30.5l112 245q5 12 3.5 22t-15.5 10q-10 0 -25.5 -12.5t-34 -33t-38.5 -46t-38.5 -52.5t-34 -52t-24.5 -44 l-68 -139h-111zM211 545q21 51 46 73t60 22q22 0 42.5 -6t39.5 -13.5t37 -13.5t35 -6q19 0 31 12.5t19 31.5l39 -12q-17 -48 -39.5 -75t-61.5 -27q-23 0 -44.5 6t-41.5 13.5t-38.5 14t-34.5 6.5q-19 0 -28.5 -11.5t-20.5 -29.5z" unicode="ñ" horiz-adv-x="552"/>
<glyph glyph-name="ograve" d="M17 141q0 56 21 111.5t59 100t90.5 72t115.5 27.5q69 0 110.5 -32.5t41.5 -108.5q0 -55 -19.5 -112t-56 -103t-88.5 -75.5t-116 -29.5q-75 0 -116.5 34t-41.5 116zM170 33q21 0 41.5 16.5t39.5 44t35 62t28 71t18.5 71.5t6.5 62q0 20 -7.5 34.5t-28.5 14.5 q-26 0 -55.5 -28.5t-55 -73.5t-42.5 -101t-17 -111q0 -26 6.5 -44t30.5 -18zM222 607q-8 8 -12.5 17t-4.5 15q0 20 14.5 34.5t37.5 14.5q8 0 15 -3t14 -14l98 -170l-29 -20z" unicode="ò" horiz-adv-x="473"/>
<glyph glyph-name="oacute" d="M17 141q0 56 21 111.5t59 100t90.5 72t115.5 27.5q69 0 110.5 -32.5t41.5 -108.5q0 -55 -19.5 -112t-56 -103t-88.5 -75.5t-116 -29.5q-75 0 -116.5 34t-41.5 116zM170 33q21 0 41.5 16.5t39.5 44t35 62t28 71t18.5 71.5t6.5 62q0 20 -7.5 34.5t-28.5 14.5 q-26 0 -55.5 -28.5t-55 -73.5t-42.5 -101t-17 -111q0 -26 6.5 -44t30.5 -18zM384 671q6 11 13.5 14t15.5 3q23 0 37.5 -14.5t14.5 -34.5q0 -6 -4.5 -15t-12.5 -17l-133 -126l-29 20z" unicode="ó" horiz-adv-x="473"/>
<glyph glyph-name="ocircumflex" d="M17 141q0 56 21 111.5t59 100t90.5 72t115.5 27.5q69 0 110.5 -32.5t41.5 -108.5q0 -55 -19.5 -112t-56 -103t-88.5 -75.5t-116 -29.5q-75 0 -116.5 34t-41.5 116zM170 33q21 0 41.5 16.5t39.5 44t35 62t28 71t18.5 71.5t6.5 62q0 20 -7.5 34.5t-28.5 14.5 q-26 0 -55.5 -28.5t-55 -73.5t-42.5 -101t-17 -111q0 -26 6.5 -44t30.5 -18zM216 511l125 156q13 17 24.5 24t29.5 7q12 0 25.5 -8t16.5 -30l23 -169l-38 -9l-48 126l-125 -120z" unicode="ô" horiz-adv-x="473"/>
<glyph glyph-name="otilde" d="M17 141q0 56 21 111.5t59 100t90.5 72t115.5 27.5q69 0 110.5 -32.5t41.5 -108.5q0 -55 -19.5 -112t-56 -103t-88.5 -75.5t-116 -29.5q-75 0 -116.5 34t-41.5 116zM170 33q21 0 41.5 16.5t39.5 44t35 62t28 71t18.5 71.5t6.5 62q0 20 -7.5 34.5t-28.5 14.5 q-26 0 -55.5 -28.5t-55 -73.5t-42.5 -101t-17 -111q0 -26 6.5 -44t30.5 -18zM173 545q21 51 46 73t60 22q22 0 42.5 -6t39.5 -13.5t37 -13.5t35 -6q19 0 31 12.5t19 31.5l39 -12q-17 -48 -39.5 -75t-61.5 -27q-23 0 -44.5 6t-41.5 13.5t-38.5 14t-34.5 6.5 q-19 0 -28.5 -11.5t-20.5 -29.5z" unicode="õ" horiz-adv-x="473"/>
<glyph glyph-name="odieresis" d="M17 141q0 56 21 111.5t59 100t90.5 72t115.5 27.5q69 0 110.5 -32.5t41.5 -108.5q0 -55 -19.5 -112t-56 -103t-88.5 -75.5t-116 -29.5q-75 0 -116.5 34t-41.5 116zM170 33q21 0 41.5 16.5t39.5 44t35 62t28 71t18.5 71.5t6.5 62q0 20 -7.5 34.5t-28.5 14.5 q-26 0 -55.5 -28.5t-55 -73.5t-42.5 -101t-17 -111q0 -26 6.5 -44t30.5 -18zM384 587q0 26 17.5 45t46.5 19q21 0 34.5 -14t13.5 -34q0 -25 -18 -44.5t-45 -19.5q-23 0 -36 14t-13 34zM195 587q0 26 17 45t47 19q20 0 34 -14t14 -34q0 -25 -18.5 -44.5t-45.5 -19.5 q-23 0 -35.5 14t-12.5 34z" unicode="ö" horiz-adv-x="473"/>
<glyph glyph-name="divide" d="M104 355h366v-60h-366v60zM230 449q0 23 16 39.5t39 16.5t39.5 -16.5t16.5 -39.5t-16.5 -39t-39.5 -16t-39 16t-16 39zM230 198q0 23 16 39.5t39 16.5t39.5 -16.5t16.5 -39.5t-16.5 -39t-39.5 -16t-39 16t-16 39z" unicode="÷" horiz-adv-x="518"/>
<glyph glyph-name="oslash" d="M68 18q-25 17 -38 47t-13 76q0 56 21 111.5t59 100t90.5 72t115.5 27.5q15 0 29 -2t27 -5l46 70l42 -26l-42 -64q50 -34 50 -114q0 -55 -19.5 -112t-56 -103t-88.5 -75.5t-116 -29.5q-33 0 -58 6l-50 -76l-44 28zM328 398q-8 11 -25 11q-26 0 -55.5 -28.5t-55 -73.5 t-42.5 -101t-17 -111v-2zM146 41q8 -8 24 -8q20 0 39.5 15t38 40.5t34 58t27.5 67t19.5 68.5t9.5 62z" unicode="ø" horiz-adv-x="473"/>
<glyph glyph-name="ugrave" d="M145 344q9 22 -3 22q-5 0 -14.5 -7.5t-20.5 -19.5t-23 -26.5t-22 -27.5l-28 21q14 21 35 45.5t46 45.5t53.5 35t57.5 14q31 0 40 -15t9 -34q0 -22 -15 -56l-101 -245q-5 -12 -5.5 -22t13.5 -10q10 0 25.5 12.5t34 33t38.5 46t38 52.5t33.5 52t24.5 44l68 139h111 l-151 -352q-11 -25 2 -25q7 0 18 8.5t23.5 22t25 28.5t22.5 29l29 -20q-17 -24 -37.5 -49.5t-44.5 -46t-51 -34t-55 -13.5q-41 0 -41 40q0 10 4 24.5t11 31.5t15.5 35.5t16.5 35.5l-5 3q-20 -27 -44 -57t-51 -55t-57.5 -41.5t-63.5 -16.5q-32 0 -50.5 17t-18.5 46 q0 31 17 71zM241 607q-8 8 -12.5 17t-4.5 15q0 20 14.5 34.5t37.5 14.5q8 0 15 -3t14 -14l98 -170l-29 -20z" unicode="ù" horiz-adv-x="550"/>
<glyph glyph-name="uacute" d="M145 344q9 22 -3 22q-5 0 -14.5 -7.5t-20.5 -19.5t-23 -26.5t-22 -27.5l-28 21q14 21 35 45.5t46 45.5t53.5 35t57.5 14q31 0 40 -15t9 -34q0 -22 -15 -56l-101 -245q-5 -12 -5.5 -22t13.5 -10q10 0 25.5 12.5t34 33t38.5 46t38 52.5t33.5 52t24.5 44l68 139h111 l-151 -352q-11 -25 2 -25q7 0 18 8.5t23.5 22t25 28.5t22.5 29l29 -20q-17 -24 -37.5 -49.5t-44.5 -46t-51 -34t-55 -13.5q-41 0 -41 40q0 10 4 24.5t11 31.5t15.5 35.5t16.5 35.5l-5 3q-20 -27 -44 -57t-51 -55t-57.5 -41.5t-63.5 -16.5q-32 0 -50.5 17t-18.5 46 q0 31 17 71zM423 671q6 11 13.5 14t15.5 3q23 0 37.5 -14.5t14.5 -34.5q0 -6 -4.5 -15t-12.5 -17l-133 -126l-29 20z" unicode="ú" horiz-adv-x="550"/>
<glyph glyph-name="ucircumflex" d="M145 344q9 22 -3 22q-5 0 -14.5 -7.5t-20.5 -19.5t-23 -26.5t-22 -27.5l-28 21q14 21 35 45.5t46 45.5t53.5 35t57.5 14q31 0 40 -15t9 -34q0 -22 -15 -56l-101 -245q-5 -12 -5.5 -22t13.5 -10q10 0 25.5 12.5t34 33t38.5 46t38 52.5t33.5 52t24.5 44l68 139h111 l-151 -352q-11 -25 2 -25q7 0 18 8.5t23.5 22t25 28.5t22.5 29l29 -20q-17 -24 -37.5 -49.5t-44.5 -46t-51 -34t-55 -13.5q-41 0 -41 40q0 10 4 24.5t11 31.5t15.5 35.5t16.5 35.5l-5 3q-20 -27 -44 -57t-51 -55t-57.5 -41.5t-63.5 -16.5q-32 0 -50.5 17t-18.5 46 q0 31 17 71zM236 511l125 156q13 17 24.5 24t29.5 7q12 0 25.5 -8t16.5 -30l23 -169l-38 -9l-48 126l-125 -120z" unicode="û" horiz-adv-x="550"/>
<glyph glyph-name="udieresis" d="M145 344q9 22 -3 22q-5 0 -14.5 -7.5t-20.5 -19.5t-23 -26.5t-22 -27.5l-28 21q14 21 35 45.5t46 45.5t53.5 35t57.5 14q31 0 40 -15t9 -34q0 -22 -15 -56l-101 -245q-5 -12 -5.5 -22t13.5 -10q10 0 25.5 12.5t34 33t38.5 46t38 52.5t33.5 52t24.5 44l68 139h111 l-151 -352q-11 -25 2 -25q7 0 18 8.5t23.5 22t25 28.5t22.5 29l29 -20q-17 -24 -37.5 -49.5t-44.5 -46t-51 -34t-55 -13.5q-41 0 -41 40q0 10 4 24.5t11 31.5t15.5 35.5t16.5 35.5l-5 3q-20 -27 -44 -57t-51 -55t-57.5 -41.5t-63.5 -16.5q-32 0 -50.5 17t-18.5 46 q0 31 17 71zM419 589q0 26 17.5 45t46.5 19q21 0 34.5 -14t13.5 -34q0 -25 -18 -44.5t-45 -19.5q-23 0 -36 14t-13 34zM230 589q0 26 17 45t47 19q20 0 34 -14t14 -34q0 -25 -18.5 -44.5t-45.5 -19.5q-23 0 -35.5 14t-12.5 34z" unicode="ü" horiz-adv-x="550"/>
<glyph glyph-name="yacute" d="M35 279q11 33 23.5 64.5t30 55.5t40.5 38.5t54 14.5q43 0 60.5 -23t25.5 -65q6 -30 10.5 -68t7.5 -78t4.5 -78.5t1.5 -68.5q19 26 36.5 59.5t31 66.5t21.5 62.5t8 47.5q0 16 -5 28.5t-11.5 23t-11.5 21t-5 22.5q0 20 15 37t44 17q18 0 30 -6.5t18.5 -16t9 -21.5t2.5 -24 q0 -24 -10.5 -61t-29.5 -81.5t-45 -93.5t-57.5 -97t-67.5 -93.5t-74 -81.5q-19 -18 -37.5 -34t-38.5 -27.5t-43 -18t-51 -6.5q-29 0 -46 6t-26 15.5t-12 20t-3 19.5q0 19 14 34t38 15q22 0 33 -9.5t17 -21.5t11.5 -21.5t17.5 -9.5q11 0 26.5 9t32.5 24t33.5 33.5t30.5 37.5 q0 42 -3 95.5t-7.5 107t-10 101t-10.5 79.5q-6 32 -11 40.5t-12 8.5t-14.5 -10t-15 -25.5t-15.5 -35.5t-15 -40zM390 671q6 11 13.5 14t15.5 3q23 0 37.5 -14.5t14.5 -34.5q0 -6 -4.5 -15t-12.5 -17l-133 -126l-29 20z" unicode="ý" horiz-adv-x="476"/>
<glyph glyph-name="thorn" d="M-117 -161l46 6q33 5 47 40l273 737q5 11 1.5 17.5t-10.5 8.5l-43 8l11 33h180l5 -11l-86 -223q46 -3 78.5 -18t53.5 -38t31 -53t10 -63q0 -54 -16.5 -106.5t-51 -94t-86.5 -66.5t-124 -25q-18 0 -34.5 2t-29.5 4l-35 -99q-9 -26 -4 -38.5t22 -14.5l61 -7l-9 -35h-298z M158 50q7 -6 18.5 -11.5t27.5 -5.5q33 0 61 25.5t48.5 64.5t32 84.5t11.5 86.5q0 95 -64 118z" unicode="þ" horiz-adv-x="507"/>
<glyph glyph-name="ydieresis" d="M35 279q11 33 23.5 64.5t30 55.5t40.5 38.5t54 14.5q43 0 60.5 -23t25.5 -65q6 -30 10.5 -68t7.5 -78t4.5 -78.5t1.5 -68.5q19 26 36.5 59.5t31 66.5t21.5 62.5t8 47.5q0 16 -5 28.5t-11.5 23t-11.5 21t-5 22.5q0 20 15 37t44 17q18 0 30 -6.5t18.5 -16t9 -21.5t2.5 -24 q0 -24 -10.5 -61t-29.5 -81.5t-45 -93.5t-57.5 -97t-67.5 -93.5t-74 -81.5q-19 -18 -37.5 -34t-38.5 -27.5t-43 -18t-51 -6.5q-29 0 -46 6t-26 15.5t-12 20t-3 19.5q0 19 14 34t38 15q22 0 33 -9.5t17 -21.5t11.5 -21.5t17.5 -9.5q11 0 26.5 9t32.5 24t33.5 33.5t30.5 37.5 q0 42 -3 95.5t-7.5 107t-10 101t-10.5 79.5q-6 32 -11 40.5t-12 8.5t-14.5 -10t-15 -25.5t-15.5 -35.5t-15 -40zM356 589q0 26 17.5 45t46.5 19q21 0 34.5 -14t13.5 -34q0 -25 -18 -44.5t-45 -19.5q-23 0 -36 14t-13 34zM167 589q0 26 17 45t47 19q20 0 34 -14t14 -34 q0 -25 -18.5 -44.5t-45.5 -19.5q-23 0 -35.5 14t-12.5 34z" unicode="ÿ" horiz-adv-x="476"/>
<glyph glyph-name="Amacron" d="M-42 38l26 2q27 3 56.5 21t53.5 53l369 534l123 31l-41 -565q-3 -40 5 -56t34 -18l22 -2l-12 -38h-302l12 38l21 2q20 2 36.5 6.5t28.5 14t19.5 25t9.5 40.5l6 70h-207l-53 -80q-21 -32 -25 -53t26 -23l32 -2l-12 -38h-240zM430 247l28 304l-206 -304h178zM423 824h247 l-23 -66h-247z" unicode="Ā" horiz-adv-x="676"/>
<glyph glyph-name="amacron" d="M375 392q-7 8 -15.5 13t-20.5 5q-21 0 -45 -17.5t-48 -46t-45.5 -64t-38.5 -71.5t-27 -69t-10 -56q0 -35 23 -35q19 0 40.5 19t42.5 47.5t40 63t34 66.5zM285 124q-52 -72 -98 -102.5t-86 -30.5q-48 0 -71.5 19.5t-23.5 63.5q0 38 12 81t34 85t52 80.5t66 67.5t76.5 46.5 t83.5 17.5q27 0 39.5 -8t23.5 -19l10 19h113l-145 -331q-9 -21 -10 -30t10 -9q10 0 30.5 14t56.5 53l24 -22q-14 -19 -32.5 -40.5t-41.5 -40t-48.5 -30.5t-52.5 -12q-24 0 -37 9t-13 30q0 15 9.5 38t22.5 48zM292 625h247l-23 -66h-247z" unicode="ā" horiz-adv-x="517"/>
<glyph glyph-name="Abreve" d="M-42 38l26 2q27 3 56.5 21t53.5 53l369 534l123 31l-41 -565q-3 -40 5 -56t34 -18l22 -2l-12 -38h-302l12 38l21 2q20 2 36.5 6.5t28.5 14t19.5 25t9.5 40.5l6 70h-207l-53 -80q-21 -32 -25 -53t26 -23l32 -2l-12 -38h-240zM430 247l28 304l-206 -304h178zM467 903 q-1 -40 17.5 -63.5t60.5 -23.5q45 0 74 24t51 67l42 -8q-13 -39 -33 -67t-43.5 -47t-49 -28t-50.5 -9q-60 0 -91 37t-21 118h43z" unicode="Ă" horiz-adv-x="676"/>
<glyph glyph-name="abreve" d="M375 392q-7 8 -15.5 13t-20.5 5q-21 0 -45 -17.5t-48 -46t-45.5 -64t-38.5 -71.5t-27 -69t-10 -56q0 -35 23 -35q19 0 40.5 19t42.5 47.5t40 63t34 66.5zM285 124q-52 -72 -98 -102.5t-86 -30.5q-48 0 -71.5 19.5t-23.5 63.5q0 38 12 81t34 85t52 80.5t66 67.5t76.5 46.5 t83.5 17.5q27 0 39.5 -8t23.5 -19l10 19h113l-145 -331q-9 -21 -10 -30t10 -9q10 0 30.5 14t56.5 53l24 -22q-14 -19 -32.5 -40.5t-41.5 -40t-48.5 -30.5t-52.5 -12q-24 0 -37 9t-13 30q0 15 9.5 38t22.5 48zM308 672q-1 -40 16 -62.5t59 -22.5q45 0 72.5 24t49.5 67l45 -10 q-13 -39 -33 -67t-43.5 -47t-49 -28t-50.5 -9q-60 0 -91 37t-21 118h46z" unicode="ă" horiz-adv-x="517"/>
<glyph glyph-name="Aogonek" d="M-54 0l12 38l26 2q27 3 56.5 21t53.5 53l369 534l123 31l-41 -565q-3 -40 5 -56t34 -18l22 -2l-12 -38h-82q-28 -28 -50 -58.5t-22 -61.5q0 -21 9 -29.5t25 -8.5t28.5 7t27.5 21l26 -20q-22 -30 -50 -49t-68 -19q-34 0 -58.5 17.5t-24.5 56.5q0 23 10 44.5t25 40t32 33.5 t32 26h-162l12 38l21 2q20 2 36.5 6.5t28.5 14t19.5 25t9.5 40.5l6 70h-207l-53 -80q-21 -32 -25 -53t26 -23l32 -2l-12 -38h-240zM252 247h178l28 304z" unicode="Ą" horiz-adv-x="676"/>
<glyph glyph-name="aogonek" d="M397 -150q-22 -30 -50 -49t-68 -19q-34 0 -58.5 17.5t-24.5 56.5q0 22 9.5 43t23.5 39t30.5 33t31.5 26q-34 5 -34 38q0 15 9.5 38t22.5 48l-4 3q-52 -72 -98 -102.5t-86 -30.5q-48 0 -71.5 19.5t-23.5 63.5q0 38 12 81t34 85t52 80.5t66 67.5t76.5 46.5t83.5 17.5 q27 0 39.5 -8t23.5 -19l10 19h113l-145 -331q-9 -21 -10 -30t10 -9q10 0 30.5 14t56.5 53l24 -22q-20 -28 -50.5 -59.5t-67.5 -49.5q-15 -15 -30 -30.5t-26.5 -32t-19 -33.5t-7.5 -34q0 -21 9 -29.5t25 -8.5t28.5 7t27.5 21zM375 392q-7 8 -15.5 13t-20.5 5q-21 0 -45 -17.5 t-48 -46t-45.5 -64t-38.5 -71.5t-27 -69t-10 -56q0 -35 23 -35q19 0 40.5 19t42.5 47.5t40 63t34 66.5z" unicode="ą" horiz-adv-x="517"/>
<glyph glyph-name="Cacute" d="M471 51q-50 -41 -99.5 -54.5t-100.5 -13.5q-64 0 -105.5 19.5t-66 50t-34 68t-9.5 73.5q0 103 40 193.5t105 157.5t146.5 106t164.5 39q37 0 60.5 -5.5t38.5 -11.5t23.5 -11.5t15.5 -5.5q10 0 15.5 6t14.5 20h46l-81 -223h-45q2 19 3 35t1 31q0 63 -21 93t-74 30 q-50 0 -104.5 -38t-100.5 -101t-75.5 -144.5t-29.5 -169.5q0 -76 25.5 -119.5t79.5 -43.5q41 0 78 19.5t68.5 51.5t57 72.5t45.5 82.5h50l-78 -258h-49zM482 751l128 139q6 6 13 11t18 5q18 0 32.5 -14.5t14.5 -35.5q0 -24 -24 -38l-160 -91z" unicode="Ć" horiz-adv-x="646"/>
<glyph glyph-name="cacute" d="M360 134q-12 -20 -32.5 -45t-48 -46.5t-62 -36.5t-75.5 -15q-27 0 -50 6.5t-40 20t-27 35t-10 52.5q0 44 13.5 89.5t37.5 87t57.5 76.5t74.5 59q31 18 60.5 26.5t71.5 8.5q18 0 37 -4.5t34.5 -14t25 -25t9.5 -36.5q0 -24 -15 -41.5t-46 -17.5q-32 0 -45.5 15.5 t-13.5 34.5q0 9 1.5 18t2 16.5t-1.5 12.5t-9 5q-20 0 -40.5 -16.5t-39.5 -43.5t-36 -61.5t-29.5 -69.5t-20 -68.5t-7.5 -58.5t10.5 -35.5t30.5 -10.5q28 0 66.5 24t82.5 81zM367 671q6 11 13.5 14t15.5 3q23 0 37.5 -14.5t14.5 -34.5q0 -6 -4.5 -15t-12.5 -17l-133 -126 l-29 20z" unicode="ć" horiz-adv-x="408"/>
<glyph glyph-name="Ccircumflex" d="M471 51q-50 -41 -99.5 -54.5t-100.5 -13.5q-64 0 -105.5 19.5t-66 50t-34 68t-9.5 73.5q0 103 40 193.5t105 157.5t146.5 106t164.5 39q37 0 60.5 -5.5t38.5 -11.5t23.5 -11.5t15.5 -5.5q10 0 15.5 6t14.5 20h46l-81 -223h-45q2 19 3 35t1 31q0 63 -21 93t-74 30 q-50 0 -104.5 -38t-100.5 -101t-75.5 -144.5t-29.5 -169.5q0 -76 25.5 -119.5t79.5 -43.5q41 0 78 19.5t68.5 51.5t57 72.5t45.5 82.5h50l-78 -258h-49zM400 757l105 108q14 15 27 26t30 11t27 -9t19 -29l53 -114l-34 -16l-78 83l-116 -84z" unicode="Ĉ" horiz-adv-x="646"/>
<glyph glyph-name="ccircumflex" d="M360 134q-12 -20 -32.5 -45t-48 -46.5t-62 -36.5t-75.5 -15q-27 0 -50 6.5t-40 20t-27 35t-10 52.5q0 44 13.5 89.5t37.5 87t57.5 76.5t74.5 59q31 18 60.5 26.5t71.5 8.5q18 0 37 -4.5t34.5 -14t25 -25t9.5 -36.5q0 -24 -15 -41.5t-46 -17.5q-32 0 -45.5 15.5 t-13.5 34.5q0 9 1.5 18t2 16.5t-1.5 12.5t-9 5q-20 0 -40.5 -16.5t-39.5 -43.5t-36 -61.5t-29.5 -69.5t-20 -68.5t-7.5 -58.5t10.5 -35.5t30.5 -10.5q28 0 66.5 24t82.5 81zM211 511l125 156q13 17 24.5 24t29.5 7q12 0 25.5 -8t16.5 -30l23 -169l-38 -9l-48 126l-125 -120z " unicode="ĉ" horiz-adv-x="408"/>
<glyph glyph-name="Cdotaccent" d="M471 51q-50 -41 -99.5 -54.5t-100.5 -13.5q-64 0 -105.5 19.5t-66 50t-34 68t-9.5 73.5q0 103 40 193.5t105 157.5t146.5 106t164.5 39q37 0 60.5 -5.5t38.5 -11.5t23.5 -11.5t15.5 -5.5q10 0 15.5 6t14.5 20h46l-81 -223h-45q2 19 3 35t1 31q0 63 -21 93t-74 30 q-50 0 -104.5 -38t-100.5 -101t-75.5 -144.5t-29.5 -169.5q0 -76 25.5 -119.5t79.5 -43.5q41 0 78 19.5t68.5 51.5t57 72.5t45.5 82.5h50l-78 -258h-49zM484 809q0 29 20 51.5t54 22.5q24 0 40 -16t16 -39q0 -14 -5.5 -27.5t-15.5 -24t-23.5 -17t-29.5 -6.5 q-27 0 -41.5 16.5t-14.5 39.5z" unicode="Ċ" horiz-adv-x="646"/>
<glyph glyph-name="cdotaccent" d="M360 134q-12 -20 -32.5 -45t-48 -46.5t-62 -36.5t-75.5 -15q-27 0 -50 6.5t-40 20t-27 35t-10 52.5q0 44 13.5 89.5t37.5 87t57.5 76.5t74.5 59q31 18 60.5 26.5t71.5 8.5q18 0 37 -4.5t34.5 -14t25 -25t9.5 -36.5q0 -24 -15 -41.5t-46 -17.5q-32 0 -45.5 15.5 t-13.5 34.5q0 9 1.5 18t2 16.5t-1.5 12.5t-9 5q-20 0 -40.5 -16.5t-39.5 -43.5t-36 -61.5t-29.5 -69.5t-20 -68.5t-7.5 -58.5t10.5 -35.5t30.5 -10.5q28 0 66.5 24t82.5 81zM280 576q0 29 20 51.5t54 22.5q24 0 40 -16t16 -39q0 -14 -5.5 -27.5t-15.5 -24t-23.5 -17 t-29.5 -6.5q-27 0 -41.5 16.5t-14.5 39.5z" unicode="ċ" horiz-adv-x="408"/>
<glyph glyph-name="Ccaron" d="M471 51q-50 -41 -99.5 -54.5t-100.5 -13.5q-64 0 -105.5 19.5t-66 50t-34 68t-9.5 73.5q0 103 40 193.5t105 157.5t146.5 106t164.5 39q37 0 60.5 -5.5t38.5 -11.5t23.5 -11.5t15.5 -5.5q10 0 15.5 6t14.5 20h46l-81 -223h-45q2 19 3 35t1 31q0 63 -21 93t-74 30 q-50 0 -104.5 -38t-100.5 -101t-75.5 -144.5t-29.5 -169.5q0 -76 25.5 -119.5t79.5 -43.5q41 0 78 19.5t68.5 51.5t57 72.5t45.5 82.5h50l-78 -258h-49zM439 886l34 16l78 -83l119 83l30 -23l-105 -108q-14 -15 -27 -26t-30 -11t-27 9t-19 29z" unicode="Č" horiz-adv-x="646"/>
<glyph glyph-name="ccaron" d="M360 134q-12 -20 -32.5 -45t-48 -46.5t-62 -36.5t-75.5 -15q-27 0 -50 6.5t-40 20t-27 35t-10 52.5q0 44 13.5 89.5t37.5 87t57.5 76.5t74.5 59q31 18 60.5 26.5t71.5 8.5q18 0 37 -4.5t34.5 -14t25 -25t9.5 -36.5q0 -24 -15 -41.5t-46 -17.5q-32 0 -45.5 15.5 t-13.5 34.5q0 9 1.5 18t2 16.5t-1.5 12.5t-9 5q-20 0 -40.5 -16.5t-39.5 -43.5t-36 -61.5t-29.5 -69.5t-20 -68.5t-7.5 -58.5t10.5 -35.5t30.5 -10.5q28 0 66.5 24t82.5 81zM394 513q-13 -17 -24.5 -24t-29.5 -7q-12 0 -25.5 8t-16.5 30l-23 169l38 9l48 -126l125 120 l33 -23z" unicode="č" horiz-adv-x="408"/>
<glyph glyph-name="Dcaron" d="M-31 38l32 2q26 2 39 12.5t24 41.5l163 485q11 31 4.5 41.5t-32.5 12.5l-32 2l13 38h242q64 0 118.5 -18.5t95 -53.5t63.5 -86t23 -117q0 -57 -14.5 -111t-43.5 -100.5t-72.5 -84t-101.5 -60.5t-112.5 -32.5t-119.5 -9.5h-302zM212 121q-14 -44 -4 -60t57 -16 q55 0 111 24.5t100 72t72 117t28 159.5q0 37 -9.5 74.5t-29.5 67.5t-51 49t-74 19q-13 0 -20.5 -2.5t-12.5 -8.5t-8.5 -15t-7.5 -21zM346 886l34 16l78 -83l119 83l30 -23l-105 -108q-14 -15 -27 -26t-30 -11t-27 9t-19 29z" unicode="Ď" horiz-adv-x="723"/>
<glyph glyph-name="dcaron" d="M284 124q-49 -71 -91.5 -102t-91.5 -31q-48 0 -71.5 20t-23.5 67q0 37 12 79.5t33.5 84t51.5 79.5t66 67t76 46.5t83 17.5q27 0 40.5 -8t24.5 -19l84 197q5 11 1.5 17.5t-10.5 8.5l-43 8l11 33h173l5 -11l-243 -565q-9 -21 -10 -30t10 -9q10 0 30.5 14t56.5 53l26 -20 q-14 -19 -33 -41t-42 -40.5t-49 -31t-53 -12.5q-24 0 -37 9t-13 30q0 15 9.5 38t22.5 48zM375 392q-7 8 -15.5 13t-20.5 5q-21 0 -45 -17.5t-48 -46t-45.5 -64t-38.5 -71.5t-27 -69t-10 -56q0 -35 23 -35q19 0 40.5 19t42.5 47.5t40 63t34 66.5zM607 483q5 15 12.5 38.5 t15.5 48t15 46.5t11 35q8 24 19 33.5t32 9.5q15 0 25.5 -5.5t16 -14.5t5.5 -19.5t-6 -20.5q-9 -14 -25.5 -39t-34 -50.5t-32.5 -46.5l-20 -28z" unicode="ď" horiz-adv-x="539"/>
<glyph glyph-name="Dcroat" d="M-31 38l32 2q26 2 39 12.5t24 41.5l74 221h-77l18 54h77l71 210q11 31 4.5 41.5t-32.5 12.5l-32 2l13 38h242q64 0 118.5 -18.5t95 -53.5t63.5 -86t23 -117q0 -57 -14.5 -111t-43.5 -100.5t-72.5 -84t-101.5 -60.5t-112.5 -32.5t-119.5 -9.5h-302zM212 121 q-14 -44 -4 -60t57 -16q55 0 111 24.5t100 72t72 117t28 159.5q0 37 -9.5 74.5t-29.5 67.5t-51 49t-74 19q-13 0 -20.5 -2.5t-12.5 -8.5t-8.5 -15t-7.5 -21l-70 -212h142l-18 -54h-142z" unicode="Đ" horiz-adv-x="723"/>
<glyph glyph-name="dcroat" d="M284 124q-49 -71 -91.5 -102t-91.5 -31q-48 0 -71.5 20t-23.5 67q0 37 12 79.5t33.5 84t51.5 79.5t66 67t76 46.5t83 17.5q27 0 40.5 -8t24.5 -19l41 96h-159l23 52h158l21 49q5 11 1.5 17.5t-10.5 8.5l-43 8l11 33h173l5 -11l-45 -105h63l-23 -52h-63l-175 -408 q-9 -21 -10 -30t10 -9q10 0 30.5 14t56.5 53l26 -20q-14 -19 -33 -41t-42 -40.5t-49 -31t-53 -12.5q-24 0 -37 9t-13 30q0 15 9.5 38t22.5 48zM375 392q-7 8 -15.5 13t-20.5 5q-21 0 -45 -17.5t-48 -46t-45.5 -64t-38.5 -71.5t-27 -69t-10 -56q0 -35 23 -35q19 0 40.5 19 t42.5 47.5t40 63t34 66.5z" unicode="đ" horiz-adv-x="514"/>
<glyph glyph-name="Emacron" d="M-31 38l32 2q26 2 39 12.5t24 41.5l163 485q11 31 4.5 41.5t-32.5 12.5l-32 2l13 38h457l19 -167h-40l-62 97q-11 19 -23 22.5t-36 3.5h-113l-88 -264h47q49 0 81 19q23 14 37.5 37t27.5 53h41l-91 -270h-42q4 14 5.5 28t1.5 25q0 35 -19 47.5t-54 12.5h-51l-67 -203 q-5 -17 -7 -29.5t2.5 -21.5t15.5 -13.5t31 -4.5h156q20 0 31 4.5t22 18.5l94 117h40l-48 -185h-592zM328 824h247l-23 -66h-247z" unicode="Ē" horiz-adv-x="662"/>
<glyph glyph-name="emacron" d="M339 119q-17 -23 -37.5 -45.5t-47 -41t-58 -30t-70.5 -11.5q-33 0 -55 8t-35.5 22t-19 33t-5.5 41q0 65 24.5 129t66.5 114.5t97.5 82t117.5 31.5q54 0 78.5 -21t24.5 -58q0 -35 -20.5 -67t-57 -58.5t-87 -46.5t-111.5 -32q-4 -13 -8 -34.5t-4 -45.5q0 -20 6.5 -31.5 t25.5 -11.5q25 0 58.5 21t82.5 77zM156 218q44 12 76.5 31t54 41.5t32 47t10.5 47.5q0 16 -6.5 21.5t-15.5 5.5q-32 0 -74 -51t-77 -143zM229 625h247l-23 -66h-247z" unicode="ē" horiz-adv-x="410"/>
<glyph glyph-name="Ebreve" d="M-31 38l32 2q26 2 39 12.5t24 41.5l163 485q11 31 4.5 41.5t-32.5 12.5l-32 2l13 38h457l19 -167h-40l-62 97q-11 19 -23 22.5t-36 3.5h-113l-88 -264h47q49 0 81 19q23 14 37.5 37t27.5 53h41l-91 -270h-42q4 14 5.5 28t1.5 25q0 35 -19 47.5t-54 12.5h-51l-67 -203 q-5 -17 -7 -29.5t2.5 -21.5t15.5 -13.5t31 -4.5h156q20 0 31 4.5t22 18.5l94 117h40l-48 -185h-592zM371 903q-1 -40 17.5 -63.5t60.5 -23.5q45 0 74 24t51 67l42 -8q-13 -39 -33 -67t-43.5 -47t-49 -28t-50.5 -9q-60 0 -91 37t-21 118h43z" unicode="Ĕ" horiz-adv-x="662"/>
<glyph glyph-name="ebreve" d="M339 119q-17 -23 -37.5 -45.5t-47 -41t-58 -30t-70.5 -11.5q-33 0 -55 8t-35.5 22t-19 33t-5.5 41q0 65 24.5 129t66.5 114.5t97.5 82t117.5 31.5q54 0 78.5 -21t24.5 -58q0 -35 -20.5 -67t-57 -58.5t-87 -46.5t-111.5 -32q-4 -13 -8 -34.5t-4 -45.5q0 -20 6.5 -31.5 t25.5 -11.5q25 0 58.5 21t82.5 77zM156 218q44 12 76.5 31t54 41.5t32 47t10.5 47.5q0 16 -6.5 21.5t-15.5 5.5q-32 0 -74 -51t-77 -143zM262 672q-1 -40 16 -62.5t59 -22.5q45 0 72.5 24t49.5 67l45 -10q-13 -39 -33 -67t-43.5 -47t-49 -28t-50.5 -9q-60 0 -91 37t-21 118 h46z" unicode="ĕ" horiz-adv-x="410"/>
<glyph glyph-name="Edotaccent" d="M-31 38l32 2q26 2 39 12.5t24 41.5l163 485q11 31 4.5 41.5t-32.5 12.5l-32 2l13 38h457l19 -167h-40l-62 97q-11 19 -23 22.5t-36 3.5h-113l-88 -264h47q49 0 81 19q23 14 37.5 37t27.5 53h41l-91 -270h-42q4 14 5.5 28t1.5 25q0 35 -19 47.5t-54 12.5h-51l-67 -203 q-5 -17 -7 -29.5t2.5 -21.5t15.5 -13.5t31 -4.5h156q20 0 31 4.5t22 18.5l94 117h40l-48 -185h-592zM381 809q0 29 20 51.5t54 22.5q24 0 40 -16t16 -39q0 -14 -5.5 -27.5t-15.5 -24t-23.5 -17t-29.5 -6.5q-27 0 -41.5 16.5t-14.5 39.5z" unicode="Ė" horiz-adv-x="662"/>
<glyph glyph-name="edotaccent" d="M339 119q-17 -23 -37.5 -45.5t-47 -41t-58 -30t-70.5 -11.5q-33 0 -55 8t-35.5 22t-19 33t-5.5 41q0 65 24.5 129t66.5 114.5t97.5 82t117.5 31.5q54 0 78.5 -21t24.5 -58q0 -35 -20.5 -67t-57 -58.5t-87 -46.5t-111.5 -32q-4 -13 -8 -34.5t-4 -45.5q0 -20 6.5 -31.5 t25.5 -11.5q25 0 58.5 21t82.5 77zM156 218q44 12 76.5 31t54 41.5t32 47t10.5 47.5q0 16 -6.5 21.5t-15.5 5.5q-32 0 -74 -51t-77 -143zM275 576q0 29 20 51.5t54 22.5q24 0 40 -16t16 -39q0 -14 -5.5 -27.5t-15.5 -24t-23.5 -17t-29.5 -6.5q-27 0 -41.5 16.5t-14.5 39.5z " unicode="ė" horiz-adv-x="410"/>
<glyph glyph-name="Eogonek" d="M-44 0l13 38l32 2q26 2 39 12.5t24 41.5l163 485q11 31 4.5 41.5t-32.5 12.5l-32 2l13 38h457l19 -167h-40l-62 97q-11 19 -23 22.5t-36 3.5h-113l-88 -264h47q49 0 81 19q23 14 37.5 37t27.5 53h41l-91 -270h-42q4 14 5.5 28t1.5 25q0 35 -19 47.5t-54 12.5h-51 l-67 -203q-5 -17 -7 -29.5t2.5 -21.5t15.5 -13.5t31 -4.5h156q20 0 31 4.5t22 18.5l94 117h40l-48 -185h-86q-28 -28 -50 -58.5t-22 -61.5q0 -21 9 -29.5t25 -8.5t28.5 7t27.5 21l26 -20q-22 -30 -50 -49t-68 -19q-34 0 -58.5 17.5t-24.5 56.5q0 23 10 44.5t25 40t32 33.5 t32 26h-448z" unicode="Ę" horiz-adv-x="662"/>
<glyph glyph-name="eogonek" d="M250 -150q-22 -30 -50 -49t-68 -19q-34 0 -58.5 17.5t-24.5 56.5q0 21 8 40.5t21 36.5t28.5 32t29.5 26h-10q-33 0 -55 8t-35.5 22t-19 33t-5.5 41q0 65 24.5 129t66.5 114.5t97.5 82t117.5 31.5q54 0 78.5 -21t24.5 -58q0 -35 -20.5 -67t-57 -58.5t-87 -46.5t-111.5 -32 q-4 -13 -8 -34.5t-4 -45.5q0 -20 6.5 -31.5t25.5 -11.5q25 0 58.5 21t82.5 77l34 -25q-22 -30 -51.5 -59.5t-69.5 -48.5q-15 -15 -30 -31t-27 -32.5t-19.5 -33.5t-7.5 -34q0 -21 9 -29.5t25 -8.5t28.5 7t27.5 21zM156 218q44 12 76.5 31t54 41.5t32 47t10.5 47.5 q0 16 -6.5 21.5t-15.5 5.5q-32 0 -74 -51t-77 -143z" unicode="ę" horiz-adv-x="410"/>
<glyph glyph-name="Ecaron" d="M-31 38l32 2q26 2 39 12.5t24 41.5l163 485q11 31 4.5 41.5t-32.5 12.5l-32 2l13 38h457l19 -167h-40l-62 97q-11 19 -23 22.5t-36 3.5h-113l-88 -264h47q49 0 81 19q23 14 37.5 37t27.5 53h41l-91 -270h-42q4 14 5.5 28t1.5 25q0 35 -19 47.5t-54 12.5h-51l-67 -203 q-5 -17 -7 -29.5t2.5 -21.5t15.5 -13.5t31 -4.5h156q20 0 31 4.5t22 18.5l94 117h40l-48 -185h-592zM326 886l34 16l78 -83l119 83l30 -23l-105 -108q-14 -15 -27 -26t-30 -11t-27 9t-19 29z" unicode="Ě" horiz-adv-x="662"/>
<glyph glyph-name="ecaron" d="M339 119q-17 -23 -37.5 -45.5t-47 -41t-58 -30t-70.5 -11.5q-33 0 -55 8t-35.5 22t-19 33t-5.5 41q0 65 24.5 129t66.5 114.5t97.5 82t117.5 31.5q54 0 78.5 -21t24.5 -58q0 -35 -20.5 -67t-57 -58.5t-87 -46.5t-111.5 -32q-4 -13 -8 -34.5t-4 -45.5q0 -20 6.5 -31.5 t25.5 -11.5q25 0 58.5 21t82.5 77zM156 218q44 12 76.5 31t54 41.5t32 47t10.5 47.5q0 16 -6.5 21.5t-15.5 5.5q-32 0 -74 -51t-77 -143zM394 513q-13 -17 -24.5 -24t-29.5 -7q-12 0 -25.5 8t-16.5 30l-23 169l38 9l48 -126l125 120l33 -23z" unicode="ě" horiz-adv-x="410"/>
<glyph glyph-name="Gcircumflex" d="M490 231q5 13 1 22.5t-18 11.5l-58 6l13 38h289l-14 -40l-47 -6q-14 -2 -22 -11t-14 -27l-58 -178q-10 -7 -30 -17.5t-49 -20.5t-67 -17.5t-83 -7.5q-122 0 -192 58t-70 182q0 72 18.5 134.5t49.5 114.5t73 92.5t88.5 68t96 42t96.5 14.5q43 0 72 -7.5t48 -17t30 -17 t18 -7.5q10 0 17 11t15 25h46l-55 -238h-42q-4 100 -36 154.5t-108 54.5q-55 0 -105 -37t-88.5 -97.5t-61 -138t-22.5 -158.5q0 -32 5.5 -65t18.5 -60.5t35 -45t55 -17.5q20 0 37.5 4.5t34 18.5t31.5 40.5t30 70.5zM381 757l105 108q14 15 27 26t30 11t27 -9t19 -29l53 -114 l-34 -16l-78 83l-116 -84z" unicode="Ĝ" horiz-adv-x="689"/>
<glyph glyph-name="gcircumflex" d="M27 -13q-22 8 -30.5 22t-8.5 29q0 13 5.5 24t17.5 23t31.5 27.5t48.5 36.5q-22 14 -36 37.5t-14 61.5q0 43 17.5 80.5t47.5 65.5t71.5 44t89.5 16q29 0 55 -7t50 -29q20 15 44 26t50 11q30 0 42 -12.5t12 -27.5q-1 -17 -10.5 -30t-32.5 -13q-12 0 -20.5 3t-15 6.5 t-13.5 6.5t-16 3q-4 0 -14 -2q7 -11 9 -24t2 -27q0 -40 -15 -76.5t-43.5 -65t-70 -45.5t-94.5 -17q-17 0 -31.5 1t-21.5 2q-14 -11 -27.5 -23t-13.5 -23q0 -17 34 -25t96 -21q40 -8 67 -19t42.5 -25t22 -31t6.5 -38q0 -40 -22.5 -66.5t-56.5 -42.5t-75 -22.5t-78 -6.5 q-38 0 -76 5t-68 16t-48.5 28.5t-18.5 42.5q0 35 32.5 59.5t77.5 41.5zM187 170q22 0 43 20.5t37 51.5t26 66t10 65q0 44 -32 44q-20 0 -40.5 -16t-38 -43.5t-28.5 -65t-11 -79.5q0 -21 7.5 -32t26.5 -11zM75 -27q-8 -3 -18.5 -9t-20 -15.5t-17 -23t-7.5 -31.5t11 -29.5 t28.5 -18t39.5 -9t43 -2.5q56 0 81.5 20t26.5 49q0 21 -14 31t-43 17zM151 511l125 156q13 17 24.5 24t29.5 7q12 0 25.5 -8t16.5 -30l23 -169l-38 -9l-48 126l-125 -120z" unicode="ĝ" horiz-adv-x="455"/>
<glyph glyph-name="Gbreve" d="M490 231q5 13 1 22.5t-18 11.5l-58 6l13 38h289l-14 -40l-47 -6q-14 -2 -22 -11t-14 -27l-58 -178q-10 -7 -30 -17.5t-49 -20.5t-67 -17.5t-83 -7.5q-122 0 -192 58t-70 182q0 72 18.5 134.5t49.5 114.5t73 92.5t88.5 68t96 42t96.5 14.5q43 0 72 -7.5t48 -17t30 -17 t18 -7.5q10 0 17 11t15 25h46l-55 -238h-42q-4 100 -36 154.5t-108 54.5q-55 0 -105 -37t-88.5 -97.5t-61 -138t-22.5 -158.5q0 -32 5.5 -65t18.5 -60.5t35 -45t55 -17.5q20 0 37.5 4.5t34 18.5t31.5 40.5t30 70.5zM464 903q-1 -40 17.5 -63.5t60.5 -23.5q45 0 74 24t51 67 l42 -8q-13 -39 -33 -67t-43.5 -47t-49 -28t-50.5 -9q-60 0 -91 37t-21 118h43z" unicode="Ğ" horiz-adv-x="689"/>
<glyph glyph-name="gbreve" d="M27 -13q-22 8 -30.5 22t-8.5 29q0 13 5.5 24t17.5 23t31.5 27.5t48.5 36.5q-22 14 -36 37.5t-14 61.5q0 43 17.5 80.5t47.5 65.5t71.5 44t89.5 16q29 0 55 -7t50 -29q20 15 44 26t50 11q30 0 42 -12.5t12 -27.5q-1 -17 -10.5 -30t-32.5 -13q-12 0 -20.5 3t-15 6.5 t-13.5 6.5t-16 3q-4 0 -14 -2q7 -11 9 -24t2 -27q0 -40 -15 -76.5t-43.5 -65t-70 -45.5t-94.5 -17q-17 0 -31.5 1t-21.5 2q-14 -11 -27.5 -23t-13.5 -23q0 -17 34 -25t96 -21q40 -8 67 -19t42.5 -25t22 -31t6.5 -38q0 -40 -22.5 -66.5t-56.5 -42.5t-75 -22.5t-78 -6.5 q-38 0 -76 5t-68 16t-48.5 28.5t-18.5 42.5q0 35 32.5 59.5t77.5 41.5zM187 170q22 0 43 20.5t37 51.5t26 66t10 65q0 44 -32 44q-20 0 -40.5 -16t-38 -43.5t-28.5 -65t-11 -79.5q0 -21 7.5 -32t26.5 -11zM75 -27q-8 -3 -18.5 -9t-20 -15.5t-17 -23t-7.5 -31.5t11 -29.5 t28.5 -18t39.5 -9t43 -2.5q56 0 81.5 20t26.5 49q0 21 -14 31t-43 17zM231 672q-1 -40 16 -62.5t59 -22.5q45 0 72.5 24t49.5 67l45 -10q-13 -39 -33 -67t-43.5 -47t-49 -28t-50.5 -9q-60 0 -91 37t-21 118h46z" unicode="ğ" horiz-adv-x="455"/>
<glyph glyph-name="Gdotaccent" d="M490 231q5 13 1 22.5t-18 11.5l-58 6l13 38h289l-14 -40l-47 -6q-14 -2 -22 -11t-14 -27l-58 -178q-10 -7 -30 -17.5t-49 -20.5t-67 -17.5t-83 -7.5q-122 0 -192 58t-70 182q0 72 18.5 134.5t49.5 114.5t73 92.5t88.5 68t96 42t96.5 14.5q43 0 72 -7.5t48 -17t30 -17 t18 -7.5q10 0 17 11t15 25h46l-55 -238h-42q-4 100 -36 154.5t-108 54.5q-55 0 -105 -37t-88.5 -97.5t-61 -138t-22.5 -158.5q0 -32 5.5 -65t18.5 -60.5t35 -45t55 -17.5q20 0 37.5 4.5t34 18.5t31.5 40.5t30 70.5zM473 809q0 29 20 51.5t54 22.5q24 0 40 -16t16 -39 q0 -14 -5.5 -27.5t-15.5 -24t-23.5 -17t-29.5 -6.5q-27 0 -41.5 16.5t-14.5 39.5z" unicode="Ġ" horiz-adv-x="689"/>
<glyph glyph-name="gdotaccent" d="M27 -13q-22 8 -30.5 22t-8.5 29q0 13 5.5 24t17.5 23t31.5 27.5t48.5 36.5q-22 14 -36 37.5t-14 61.5q0 43 17.5 80.5t47.5 65.5t71.5 44t89.5 16q29 0 55 -7t50 -29q20 15 44 26t50 11q30 0 42 -12.5t12 -27.5q-1 -17 -10.5 -30t-32.5 -13q-12 0 -20.5 3t-15 6.5 t-13.5 6.5t-16 3q-4 0 -14 -2q7 -11 9 -24t2 -27q0 -40 -15 -76.5t-43.5 -65t-70 -45.5t-94.5 -17q-17 0 -31.5 1t-21.5 2q-14 -11 -27.5 -23t-13.5 -23q0 -17 34 -25t96 -21q40 -8 67 -19t42.5 -25t22 -31t6.5 -38q0 -40 -22.5 -66.5t-56.5 -42.5t-75 -22.5t-78 -6.5 q-38 0 -76 5t-68 16t-48.5 28.5t-18.5 42.5q0 35 32.5 59.5t77.5 41.5zM187 170q22 0 43 20.5t37 51.5t26 66t10 65q0 44 -32 44q-20 0 -40.5 -16t-38 -43.5t-28.5 -65t-11 -79.5q0 -21 7.5 -32t26.5 -11zM75 -27q-8 -3 -18.5 -9t-20 -15.5t-17 -23t-7.5 -31.5t11 -29.5 t28.5 -18t39.5 -9t43 -2.5q56 0 81.5 20t26.5 49q0 21 -14 31t-43 17zM229 576q0 29 20 51.5t54 22.5q24 0 40 -16t16 -39q0 -14 -5.5 -27.5t-15.5 -24t-23.5 -17t-29.5 -6.5q-27 0 -41.5 16.5t-14.5 39.5z" unicode="ġ" horiz-adv-x="455"/>
<glyph glyph-name="Gcommaaccent" d="M490 231q5 13 1 22.5t-18 11.5l-58 6l13 38h289l-14 -40l-47 -6q-14 -2 -22 -11t-14 -27l-58 -178q-10 -7 -30 -17.5t-49 -20.5t-67 -17.5t-83 -7.5q-122 0 -192 58t-70 182q0 72 18.5 134.5t49.5 114.5t73 92.5t88.5 68t96 42t96.5 14.5q43 0 72 -7.5t48 -17t30 -17 t18 -7.5q10 0 17 11t15 25h46l-55 -238h-42q-4 100 -36 154.5t-108 54.5q-55 0 -105 -37t-88.5 -97.5t-61 -138t-22.5 -158.5q0 -32 5.5 -65t18.5 -60.5t35 -45t55 -17.5q20 0 37.5 4.5t34 18.5t31.5 40.5t30 70.5zM236 -259q13 10 26.5 20t24 20.5t17 21.5t6.5 23 q0 13 -8 18t-17.5 10t-17.5 14t-8 30q0 23 16 37t39 14q32 0 47.5 -20t15.5 -51q0 -29 -9.5 -53t-25 -44t-36.5 -37.5t-45 -32.5z" unicode="Ģ" horiz-adv-x="689"/>
<glyph glyph-name="gcommaaccent" d="M27 -13q-22 8 -30.5 22t-8.5 29q0 13 5.5 24t17.5 23t31.5 27.5t48.5 36.5q-22 14 -36 37.5t-14 61.5q0 43 17.5 80.5t47.5 65.5t71.5 44t89.5 16q29 0 55 -7t50 -29q20 15 44 26t50 11q30 0 42 -12.5t12 -27.5q-1 -17 -10.5 -30t-32.5 -13q-12 0 -20.5 3t-15 6.5 t-13.5 6.5t-16 3q-4 0 -14 -2q7 -11 9 -24t2 -27q0 -40 -15 -76.5t-43.5 -65t-70 -45.5t-94.5 -17q-17 0 -31.5 1t-21.5 2q-14 -11 -27.5 -23t-13.5 -23q0 -17 34 -25t96 -21q40 -8 67 -19t42.5 -25t22 -31t6.5 -38q0 -40 -22.5 -66.5t-56.5 -42.5t-75 -22.5t-78 -6.5 q-38 0 -76 5t-68 16t-48.5 28.5t-18.5 42.5q0 35 32.5 59.5t77.5 41.5zM187 170q22 0 43 20.5t37 51.5t26 66t10 65q0 44 -32 44q-20 0 -40.5 -16t-38 -43.5t-28.5 -65t-11 -79.5q0 -21 7.5 -32t26.5 -11zM75 -27q-8 -3 -18.5 -9t-20 -15.5t-17 -23t-7.5 -31.5t11 -29.5 t28.5 -18t39.5 -9t43 -2.5q56 0 81.5 20t26.5 49q0 21 -14 31t-43 17zM359 715q-13 -10 -26.5 -20t-24 -20.5t-17 -21.5t-6.5 -23q0 -13 8 -18t17.5 -10t17.5 -14t8 -30q0 -23 -16 -37t-39 -14q-32 0 -47.5 20t-15.5 51q0 29 9.5 53t25 44t36.5 37.5t45 32.5z" unicode="ģ" horiz-adv-x="455"/>
<glyph glyph-name="Hcircumflex" d="M-31 38l32 2q13 1 22.5 4t17 9t13 16t10.5 25l163 485q11 31 4.5 41.5t-32.5 12.5l-32 2l13 38h299l-13 -38l-35 -2q-27 -2 -40 -12.5t-24 -41.5l-72 -213h235l72 213q11 31 4.5 41.5t-32.5 12.5l-35 2l13 38h297l-13 -38l-30 -2q-27 -2 -40 -12.5t-24 -41.5l-163 -485 q-11 -31 -4.5 -41.5t32.5 -12.5l42 -2l-13 -38h-304l13 38l31 2q27 2 39.5 12.5t23.5 41.5l73 216h-235l-73 -216q-11 -31 -4.5 -41.5t32.5 -12.5l45 -2l-13 -38h-308zM396 757l105 108q14 15 27 26t30 11t27 -9t19 -29l53 -114l-34 -16l-78 83l-116 -84z" unicode="Ĥ" horiz-adv-x="725"/>
<glyph glyph-name="hcircumflex" d="M247 618q5 14 2.5 21t-10.5 9l-43 8l11 33h173l5 -11l-129 -292q-11 -23 -24.5 -51t-29.5 -51l5 -4q21 27 46.5 57t53 55.5t58 42.5t62.5 17q38 0 58 -17t20 -43q0 -19 -4 -38.5t-16 -46.5l-99 -215q-9 -21 2 -21q6 0 17.5 8t24 19.5t24.5 24.5t20 23l25 -23 q-16 -21 -37.5 -43.5t-47.5 -40.5t-54.5 -30t-58.5 -12q-28 0 -36 14.5t-8 29.5q0 16 5 30.5t13 31.5l105 236q8 17 5 28.5t-18 11.5t-42.5 -26t-57.5 -64t-58.5 -81.5t-45.5 -77.5l-63 -130h-109zM187 757l105 108q14 15 27 26t30 11t27 -9t19 -29l53 -114l-34 -16l-78 83 l-116 -84z" unicode="ĥ" horiz-adv-x="538"/>
<glyph glyph-name="Hbar" d="M-31 38l32 2q13 1 22.5 4t17 9t13 16t10.5 25l135 402h-68l20 54h66l10 29q11 31 4.5 41.5t-32.5 12.5l-32 2l13 38h299l-13 -38l-35 -2q-27 -2 -40 -12.5t-24 -41.5l-10 -29h235l10 29q11 31 4.5 41.5t-32.5 12.5l-35 2l13 38h297l-13 -38l-30 -2q-27 -2 -40 -12.5 t-24 -41.5l-10 -29h84l-20 -54h-82l-135 -402q-11 -31 -4.5 -41.5t32.5 -12.5l42 -2l-13 -38h-304l13 38l31 2q27 2 39.5 12.5t23.5 41.5l73 216h-235l-73 -216q-11 -31 -4.5 -41.5t32.5 -12.5l45 -2l-13 -38h-308zM530 366l44 130h-235l-44 -130h235z" unicode="Ħ" horiz-adv-x="725"/>
<glyph glyph-name="hbar" d="M207 521h-93l23 52h91l19 45q5 14 2.5 21t-10.5 9l-43 8l11 33h173l5 -11l-47 -105h133l-23 -52h-133l-59 -135q-11 -23 -24.5 -51t-29.5 -51l5 -4q21 27 46.5 57t53 55.5t58 42.5t62.5 17q38 0 58 -17t20 -43q0 -19 -4 -38.5t-16 -46.5l-99 -215q-9 -21 2 -21 q6 0 17.5 8t24 19.5t24.5 24.5t20 23l25 -23q-16 -21 -37.5 -43.5t-47.5 -40.5t-54.5 -30t-58.5 -12q-28 0 -36 14.5t-8 29.5q0 16 5 30.5t13 31.5l105 236q8 17 5 28.5t-18 11.5t-42.5 -26t-57.5 -64t-58.5 -81.5t-45.5 -77.5l-63 -130h-109z" unicode="ħ" horiz-adv-x="538"/>
<glyph glyph-name="Itilde" d="M-29 38l30 2q13 1 23 4t17.5 9t13 16t10.5 25l163 485q11 31 4.5 41.5t-32.5 12.5l-39 2l13 38h303l-13 -38l-32 -2q-27 -2 -40.5 -12.5t-23.5 -41.5l-163 -485q-11 -31 -4.5 -41.5t32.5 -12.5l46 -3l-13 -37h-308zM175 768q21 51 46 73t60 22q22 0 43 -6.5t40.5 -14 t38 -13.5t35.5 -6q22 0 33.5 12.5t18.5 31.5l34 -11q-17 -48 -39.5 -75t-61.5 -27q-23 0 -44.5 6t-41.5 13.5t-38.5 14t-34.5 6.5q-20 0 -31 -11t-22 -29z" unicode="Ĩ" horiz-adv-x="362"/>
<glyph glyph-name="itilde" d="M160 351q6 14 4 19.5t-8 5.5t-17 -10t-23.5 -24.5t-26 -31.5t-23.5 -31l-28 20q18 26 39.5 53t45 49.5t49 36.5t52.5 14q32 0 45 -15t13 -35t-9.5 -48t-26.5 -63l-97 -202q-5 -11 -3.5 -16.5t6.5 -5.5q6 0 16 7t21.5 18t23.5 24t23 26l27 -20q-12 -16 -30.5 -37.5 t-41.5 -41t-51 -33t-60 -13.5t-41.5 15t-9.5 34q0 12 4 25.5t12 30.5zM76 545q21 51 46 73t60 22q22 0 42.5 -6t39.5 -13.5t37 -13.5t35 -6q19 0 31 12.5t19 31.5l39 -12q-17 -48 -39.5 -75t-61.5 -27q-23 0 -44.5 6t-41.5 13.5t-38.5 14t-34.5 6.5q-19 0 -28.5 -11.5 t-20.5 -29.5z" unicode="ĩ" horiz-adv-x="301"/>
<glyph glyph-name="Imacron" d="M-29 38l30 2q13 1 23 4t17.5 9t13 16t10.5 25l163 485q11 31 4.5 41.5t-32.5 12.5l-39 2l13 38h303l-13 -38l-32 -2q-27 -2 -40.5 -12.5t-23.5 -41.5l-163 -485q-11 -31 -4.5 -41.5t32.5 -12.5l46 -3l-13 -37h-308zM238 824h247l-23 -66h-247z" unicode="Ī" horiz-adv-x="362"/>
<glyph glyph-name="imacron" d="M160 351q6 14 4 19.5t-8 5.5t-17 -10t-23.5 -24.5t-26 -31.5t-23.5 -31l-28 20q18 26 39.5 53t45 49.5t49 36.5t52.5 14q32 0 45 -15t13 -35t-9.5 -48t-26.5 -63l-97 -202q-5 -11 -3.5 -16.5t6.5 -5.5q6 0 16 7t21.5 18t23.5 24t23 26l27 -20q-12 -16 -30.5 -37.5 t-41.5 -41t-51 -33t-60 -13.5t-41.5 15t-9.5 34q0 12 4 25.5t12 30.5zM145 625h247l-23 -66h-247z" unicode="ī" horiz-adv-x="301"/>
<glyph glyph-name="Ibreve" d="M-29 38l30 2q13 1 23 4t17.5 9t13 16t10.5 25l163 485q11 31 4.5 41.5t-32.5 12.5l-39 2l13 38h303l-13 -38l-32 -2q-27 -2 -40.5 -12.5t-23.5 -41.5l-163 -485q-11 -31 -4.5 -41.5t32.5 -12.5l46 -3l-13 -37h-308zM270 903q-1 -40 17.5 -63.5t60.5 -23.5q45 0 74 24 t51 67l42 -8q-13 -39 -33 -67t-43.5 -47t-49 -28t-50.5 -9q-60 0 -91 37t-21 118h43z" unicode="Ĭ" horiz-adv-x="362"/>
<glyph glyph-name="ibreve" d="M160 351q6 14 4 19.5t-8 5.5t-17 -10t-23.5 -24.5t-26 -31.5t-23.5 -31l-28 20q18 26 39.5 53t45 49.5t49 36.5t52.5 14q32 0 45 -15t13 -35t-9.5 -48t-26.5 -63l-97 -202q-5 -11 -3.5 -16.5t6.5 -5.5q6 0 16 7t21.5 18t23.5 24t23 26l27 -20q-12 -16 -30.5 -37.5 t-41.5 -41t-51 -33t-60 -13.5t-41.5 15t-9.5 34q0 12 4 25.5t12 30.5zM191 672q-1 -40 16 -62.5t59 -22.5q45 0 72.5 24t49.5 67l45 -10q-13 -39 -33 -67t-43.5 -47t-49 -28t-50.5 -9q-60 0 -91 37t-21 118h46z" unicode="ĭ" horiz-adv-x="301"/>
<glyph glyph-name="Iogonek" d="M-42 0l13 38l30 2q13 1 23 4t17.5 9t13 16t10.5 25l163 485q11 31 4.5 41.5t-32.5 12.5l-39 2l13 38h303l-13 -38l-32 -2q-27 -2 -40.5 -12.5t-23.5 -41.5l-163 -485q-11 -31 -4.5 -41.5t32.5 -12.5l46 -3l-13 -37h-123q-28 -28 -50 -58.5t-22 -61.5q0 -21 9 -29.5 t25 -8.5t28.5 7t27.5 21l26 -20q-22 -30 -50 -49t-68 -19q-34 0 -58.5 17.5t-24.5 56.5q0 23 10 44.5t25 40t32 33.5t32 26h-127z" unicode="Į" horiz-adv-x="362"/>
<glyph glyph-name="iogonek" d="M173 -150q-22 -30 -50 -49t-68 -19q-34 0 -58.5 17.5t-24.5 56.5q0 23 9.5 44t24 39t31 33t31.5 26q-24 3 -31.5 17t-7.5 31q0 12 4 25.5t12 30.5l115 249q6 14 4 19.5t-8 5.5t-17 -10t-23.5 -24.5t-26 -31.5t-23.5 -31l-28 20q18 26 39.5 53t45 49.5t49 36.5t52.5 14 q32 0 45 -15t13 -35t-9.5 -48t-26.5 -63l-97 -202q-5 -11 -3.5 -16.5t6.5 -5.5q6 0 16 7t21.5 18t23.5 24t23 26l27 -20q-9 -12 -21.5 -27.5t-28 -31t-33.5 -29.5t-39 -23q-15 -15 -30 -31t-27 -32.5t-19.5 -33.5t-7.5 -34q0 -21 9 -29.5t25 -8.5t28.5 7t27.5 21zM267 563 q-29 0 -50 21t-21 50q0 30 21 51.5t50 21.5q30 0 51.5 -21.5t21.5 -51.5q0 -29 -21.5 -50t-51.5 -21z" unicode="į" horiz-adv-x="301"/>
<glyph glyph-name="Idotaccent" d="M-29 38l30 2q13 1 23 4t17.5 9t13 16t10.5 25l163 485q11 31 4.5 41.5t-32.5 12.5l-39 2l13 38h303l-13 -38l-32 -2q-27 -2 -40.5 -12.5t-23.5 -41.5l-163 -485q-11 -31 -4.5 -41.5t32.5 -12.5l46 -3l-13 -37h-308zM282 809q0 29 20 51.5t54 22.5q24 0 40 -16t16 -39 q0 -14 -5.5 -27.5t-15.5 -24t-23.5 -17t-29.5 -6.5q-27 0 -41.5 16.5t-14.5 39.5z" unicode="İ" horiz-adv-x="362"/>
<glyph glyph-name="dotlessi" d="M160 351q6 14 4 19.5t-8 5.5t-17 -10t-23.5 -24.5t-26 -31.5t-23.5 -31l-28 20q18 26 39.5 53t45 49.5t49 36.5t52.5 14q32 0 45 -15t13 -35t-9.5 -48t-26.5 -63l-97 -202q-5 -11 -3.5 -16.5t6.5 -5.5q6 0 16 7t21.5 18t23.5 24t23 26l27 -20q-12 -16 -30.5 -37.5 t-41.5 -41t-51 -33t-60 -13.5t-41.5 15t-9.5 34q0 12 4 25.5t12 30.5z" unicode="ı" horiz-adv-x="301"/>
<glyph glyph-name="IJ" d="M-29 38l30 2q13 1 23 4t17.5 9t13 16t10.5 25l163 485q11 31 4.5 41.5t-32.5 12.5l-39 2l13 38h303l-13 -38l-32 -2q-27 -2 -40.5 -12.5t-23.5 -41.5l-163 -485q-11 -31 -4.5 -41.5t32.5 -12.5l46 -3l-13 -37h-308zM686 579q11 31 4.5 41t-32.5 12l-39 3l13 38h301 l-13 -38l-30 -2q-27 -2 -40.5 -12.5t-23.5 -41.5l-140 -419q-12 -36 -27 -68.5t-39 -56.5t-60 -38t-90 -14q-42 0 -70.5 9t-46.5 23.5t-26 33t-8 36.5q0 30 21.5 53.5t59.5 23.5q25 0 44 -13t19 -42q0 -14 -5 -23t-11 -15.5t-11 -12.5t-5 -14q0 -11 8 -16t18 -5 q26 0 40 18.5t31 67.5z" unicode="Ĳ" horiz-adv-x="803"/>
<glyph glyph-name="ij" d="M160 351q6 14 4 19.5t-8 5.5t-17 -10t-23.5 -24.5t-26 -31.5t-23.5 -31l-28 20q18 26 39.5 53t45 49.5t49 36.5t52.5 14q32 0 45 -15t13 -35t-9.5 -48t-26.5 -63l-97 -202q-5 -11 -3.5 -16.5t6.5 -5.5q6 0 16 7t21.5 18t23.5 24t23 26l27 -20q-12 -16 -30.5 -37.5 t-41.5 -41t-51 -33t-60 -13.5t-41.5 15t-9.5 34q0 12 4 25.5t12 30.5zM196 634q0 30 21 51.5t50 21.5q30 0 51.5 -21.5t21.5 -51.5q0 -29 -21.5 -50t-51.5 -21q-29 0 -50 21t-21 50zM440 351q6 14 4 19.5t-8 5.5t-17 -10t-23.5 -24.5t-26 -31.5t-23.5 -31l-28 20 q18 26 39.5 53t45 49.5t49 36.5t52.5 14q32 0 44 -15t12 -35t-9.5 -48t-23.5 -63l-128 -307q-40 -96 -96 -138.5t-123 -42.5q-47 0 -75.5 16.5t-28.5 49.5q0 22 13.5 36.5t36.5 14.5q22 0 32.5 -11.5t16.5 -26t11.5 -26t17.5 -11.5q11 0 29 26t43 86zM482 634q0 30 21 51.5 t50 21.5q30 0 51.5 -21.5t21.5 -51.5q0 -29 -21.5 -50t-51.5 -21q-29 0 -50 21t-21 50z" unicode="ĳ" horiz-adv-x="556"/>
<glyph glyph-name="Jcircumflex" d="M347 579q11 31 4.5 41t-32.5 12l-39 3l13 38h301l-13 -38l-30 -2q-27 -2 -40.5 -12.5t-23.5 -41.5l-140 -419q-12 -36 -27 -68.5t-39 -56.5t-60 -38t-90 -14q-42 0 -70.5 9t-46.5 23.5t-26 33t-8 36.5q0 30 21.5 53.5t59.5 23.5q25 0 44 -13t19 -42q0 -14 -5 -23 t-11 -15.5t-11 -12.5t-5 -14q0 -11 8 -16t18 -5q26 0 40 18.5t31 67.5zM321 757l105 108q14 15 27 26t30 11t27 -9t19 -29l53 -114l-34 -16l-78 83l-116 -84z" unicode="Ĵ" horiz-adv-x="464"/>
<glyph glyph-name="jcircumflex" d="M155 351q6 14 4 19.5t-8 5.5t-17 -10t-23.5 -24.5t-26 -31.5t-23.5 -31l-28 20q18 26 39.5 53t45 49.5t49 36.5t52.5 14q32 0 44 -15t12 -35t-9.5 -48t-23.5 -63l-128 -307q-40 -96 -96 -138.5t-123 -42.5q-47 0 -75.5 16.5t-28.5 49.5q0 22 13.5 36.5t36.5 14.5 q22 0 32.5 -11.5t16.5 -26t11.5 -26t17.5 -11.5q11 0 29 26t43 86zM103 511l125 156q13 17 24.5 24t29.5 7q12 0 25.5 -8t16.5 -30l23 -169l-38 -9l-48 126l-125 -120z" unicode="ĵ" horiz-adv-x="271"/>
<glyph glyph-name="Kcommaaccent" d="M-31 38l30 2q13 1 23 4t17.5 9t13 16t10.5 25l163 485q11 31 4.5 41.5t-32.5 12.5l-39 2l13 38h288l-13 -38l-27 -2q-14 -1 -22 -4t-13.5 -9t-9.5 -16t-9 -25l-68 -202l223 187q17 15 26 26t9 24t-13 17t-34 4l13 38h264l-13 -38q-22 -2 -42 -6.5t-40.5 -13.5 t-42.5 -23.5t-47 -35.5l-151 -125l93 -308q11 -39 37.5 -62t74.5 -23l-11 -38h-318l13 38l40 3q14 1 21 13.5t-4 51.5l-65 226l-66 -55l-62 -183q-11 -31 -4.5 -41t32.5 -12l46 -3l-13 -38h-308zM213 -259q13 10 26.5 20t24 20.5t17 21.5t6.5 23q0 13 -8 18t-17.5 10 t-17.5 14t-8 30q0 23 16 37t39 14q32 0 47.5 -20t15.5 -51q0 -29 -9.5 -53t-25 -44t-36.5 -37.5t-45 -32.5z" unicode="Ķ" horiz-adv-x="706"/>
<glyph glyph-name="kcommaaccent" d="M200 230q40 4 77 17.5t65.5 32.5t45.5 41.5t17 45.5q0 13 -7.5 18.5t-17.5 5.5q-22 0 -48.5 -18.5t-52 -44t-46.5 -53t-33 -45.5zM249 618q6 14 3 21t-11 9l-43 8l11 33h173l5 -11l-162 -351l5 -2q55 72 103.5 99.5t98.5 27.5q85 0 85 -71q0 -39 -23.5 -68.5t-59 -50.5 t-76.5 -34.5t-77 -19.5l31 -91q8 -23 16 -31t17 -8q7 0 19 5t25 13.5t26 19t24 22.5l26 -23q-12 -16 -32 -36.5t-44 -38.5t-50.5 -30t-51.5 -12q-33 0 -47 19.5t-27 57.5l-33 97l-72 -172h-117zM75 -259q13 10 26.5 20t24 20.5t17 21.5t6.5 23q0 13 -8 18t-17.5 10t-17.5 14 t-8 30q0 23 16 37t39 14q32 0 47.5 -20t15.5 -51q0 -29 -9.5 -53t-25 -44t-36.5 -37.5t-45 -32.5z" unicode="ķ" horiz-adv-x="507"/>
<glyph glyph-name="kgreenlandic" d="M196 218q40 4 77 17.5t65.5 32.5t45.5 41.5t17 45.5q0 13 -7.5 18.5t-17.5 5.5q-22 0 -48.5 -18.5t-52 -44t-46.5 -53t-33 -45.5zM147 374q6 14 3 21t-11 9l-43 8l11 33h173l5 -11l-60 -107l5 -2q54 60 101 87.5t97 27.5q85 0 85 -71q0 -39 -23.5 -68.5t-59 -50.5 t-76.5 -34.5t-77 -19.5l31 -79q9 -23 18.5 -31t18.5 -8q7 0 19 5t25 13.5t26 19t24 22.5l26 -23q-12 -16 -32 -36.5t-44 -38.5t-50.5 -30t-51.5 -12q-33 0 -48.5 20t-29.5 57l-33 85l-68 -160h-117z" unicode="ĸ" horiz-adv-x="507"/>
<glyph glyph-name="Lacute" d="M-31 38l30 2q13 1 23 4t17.5 9t13 16t10.5 25l163 485q11 31 4.5 41.5t-32.5 12.5l-39 2l13 38h313l-13 -38l-42 -2q-27 -2 -40.5 -12.5t-23.5 -41.5l-145 -437q-7 -20 -11.5 -36.5t-4.5 -28.5q0 -13 7.5 -22.5t29.5 -9.5h153q19 0 29.5 4.5t21.5 18.5l102 134h40 l-52 -202h-580zM273 751l128 139q6 6 13 11t18 5q18 0 32.5 -14.5t14.5 -35.5q0 -24 -24 -38l-160 -91z" unicode="Ĺ" horiz-adv-x="628"/>
<glyph glyph-name="lacute" d="M235 618q6 14 2.5 21t-11.5 9l-43 8l11 33h181l5 -11l-252 -578q-11 -26 0 -26q7 0 30.5 17.5t68.5 70.5l28 -22q-15 -21 -38 -46t-50 -46.5t-57.5 -36t-61.5 -14.5q-29 0 -41 12t-12 32q0 21 12 48zM230 751l128 139q6 6 13 11t18 5q18 0 32.5 -14.5t14.5 -35.5 q0 -24 -24 -38l-160 -91z" unicode="ĺ" horiz-adv-x="280"/>
<glyph glyph-name="Lcommaaccent" d="M-31 38l30 2q13 1 23 4t17.5 9t13 16t10.5 25l163 485q11 31 4.5 41.5t-32.5 12.5l-39 2l13 38h313l-13 -38l-42 -2q-27 -2 -40.5 -12.5t-23.5 -41.5l-145 -437q-7 -20 -11.5 -36.5t-4.5 -28.5q0 -13 7.5 -22.5t29.5 -9.5h153q19 0 29.5 4.5t21.5 18.5l102 134h40 l-52 -202h-580zM146 -259q13 10 26.5 20t24 20.5t17 21.5t6.5 23q0 13 -8 18t-17.5 10t-17.5 14t-8 30q0 23 16 37t39 14q32 0 47.5 -20t15.5 -51q0 -29 -9.5 -53t-25 -44t-36.5 -37.5t-45 -32.5z" unicode="Ļ" horiz-adv-x="628"/>
<glyph glyph-name="lcommaaccent" d="M235 618q6 14 2.5 21t-11.5 9l-43 8l11 33h181l5 -11l-252 -578q-11 -26 0 -26q7 0 30.5 17.5t68.5 70.5l28 -22q-15 -21 -38 -46t-50 -46.5t-57.5 -36t-61.5 -14.5q-29 0 -41 12t-12 32q0 21 12 48zM-49 -259q13 10 26.5 20t24 20.5t17 21.5t6.5 23q0 13 -8 18t-17.5 10 t-17.5 14t-8 30q0 23 16 37t39 14q32 0 47.5 -20t15.5 -51q0 -29 -9.5 -53t-25 -44t-36.5 -37.5t-45 -32.5z" unicode="ļ" horiz-adv-x="280"/>
<glyph glyph-name="Lcaron" d="M-31 38l30 2q13 1 23 4t17.5 9t13 16t10.5 25l163 485q11 31 4.5 41.5t-32.5 12.5l-39 2l13 38h313l-13 -38l-42 -2q-27 -2 -40.5 -12.5t-23.5 -41.5l-145 -437q-7 -20 -11.5 -36.5t-4.5 -28.5q0 -13 7.5 -22.5t29.5 -9.5h153q19 0 29.5 4.5t21.5 18.5l102 134h40 l-52 -202h-580zM522 464q5 15 12.5 38.5t15.5 48t15 46.5t11 35q8 24 19 33.5t32 9.5q15 0 25.5 -5.5t16 -14.5t5.5 -19.5t-6 -20.5q-9 -14 -25.5 -39t-34 -50.5t-32.5 -46.5l-20 -28z" unicode="Ľ" horiz-adv-x="628"/>
<glyph glyph-name="lcaron" d="M235 618q6 14 2.5 21t-11.5 9l-43 8l11 33h181l5 -11l-252 -578q-11 -26 0 -26q7 0 30.5 17.5t68.5 70.5l28 -22q-15 -21 -38 -46t-50 -46.5t-57.5 -36t-61.5 -14.5q-29 0 -41 12t-12 32q0 21 12 48zM382 483q5 15 12.5 38.5t15.5 48t15 46.5t11 35q8 24 19 33.5t32 9.5 q15 0 25.5 -5.5t16 -14.5t5.5 -19.5t-6 -20.5q-9 -14 -25.5 -39t-34 -50.5t-32.5 -46.5l-20 -28z" unicode="ľ" horiz-adv-x="314"/>
<glyph glyph-name="Ldot" d="M-31 38l30 2q13 1 23 4t17.5 9t13 16t10.5 25l163 485q11 31 4.5 41.5t-32.5 12.5l-39 2l13 38h313l-13 -38l-42 -2q-27 -2 -40.5 -12.5t-23.5 -41.5l-145 -437q-7 -20 -11.5 -36.5t-4.5 -28.5q0 -13 7.5 -22.5t29.5 -9.5h153q19 0 29.5 4.5t21.5 18.5l102 134h40 l-52 -202h-580zM410 350q0 29 20 51.5t54 22.5q24 0 40 -16t16 -39q0 -14 -5.5 -27.5t-15.5 -24t-23.5 -17t-29.5 -6.5q-27 0 -41.5 16.5t-14.5 39.5z" unicode="Ŀ" horiz-adv-x="628"/>
<glyph glyph-name="ldot" d="M255 618q6 14 2.5 21t-11.5 9l-43 8l11 33h181l5 -11l-252 -578q-11 -26 0 -26q7 0 30.5 17.5t68.5 70.5l28 -22q-15 -21 -38 -46t-50 -46.5t-57.5 -36t-61.5 -14.5q-29 0 -41 12t-12 32q0 21 12 48zM317 353q0 29 20 51.5t54 22.5q24 0 40 -16t16 -39q0 -14 -5.5 -27.5 t-15.5 -24t-23.5 -17t-29.5 -6.5q-27 0 -41.5 16.5t-14.5 39.5z" unicode="ŀ" horiz-adv-x="380"/>
<glyph glyph-name="Lslash" d="M-31 38l30 2q13 1 23 4t17.5 9t13 16t10.5 25l65 193l-91 -29l-14 49l125 39l78 233q11 31 4.5 41.5t-32.5 12.5l-39 2l13 38h313l-13 -38l-42 -2q-27 -2 -40.5 -12.5t-23.5 -41.5l-61 -183l172 55l14 -49l-206 -65l-64 -195q-7 -20 -11.5 -36.5t-4.5 -28.5 q0 -13 7.5 -22.5t29.5 -9.5h153q19 0 29.5 4.5t21.5 18.5l102 134h40l-52 -202h-580z" unicode="Ł" horiz-adv-x="628"/>
<glyph glyph-name="lslash" d="M98 301l-62 -22l-17 43l104 37l112 259q6 14 2.5 21t-11.5 9l-43 8l11 33h181l5 -11l-117 -269l71 26l17 -43l-114 -41l-109 -251q-11 -26 0 -26q7 0 30.5 17.5t68.5 70.5l28 -22q-15 -21 -38 -46t-50 -46.5t-57.5 -36t-61.5 -14.5q-29 0 -41 12t-12 32q0 21 12 48z" unicode="ł" horiz-adv-x="280"/>
<glyph glyph-name="Nacute" d="M-53 37q28 1 51 6t41.5 17.5t33.5 36.5t28 63l154 456q-16 9 -38 14t-48 6l12 37h202l129 -507l118 354q6 17 10 35t4 30q0 24 -17 36.5t-62 13.5l13 38h263l-12 -37q-29 -3 -49.5 -8.5t-36 -18.5t-28 -36t-25.5 -60l-174 -521h-84l-138 545l-134 -395q-10 -29 -13 -48.5 t4.5 -31.5t27 -17.5t54.5 -6.5l-12 -38h-286zM467 751l128 139q6 6 13 11t18 5q18 0 32.5 -14.5t14.5 -35.5q0 -24 -24 -38l-160 -91z" unicode="Ń" horiz-adv-x="696"/>
<glyph glyph-name="nacute" d="M156 340q6 14 3.5 19.5t-7.5 5.5t-15 -9.5t-21 -23t-22 -28.5t-19 -26l-29 20q16 25 36 52.5t43.5 50t49 37t54.5 14.5q41 0 41 -40q0 -10 -4.5 -24.5t-11 -31.5t-15 -35.5t-16.5 -35.5l5 -3q20 26 44 56t51 55.5t57.5 42t63.5 16.5q32 0 53 -17t21 -46q0 -34 -17 -71 l-105 -229q-9 -22 3 -22q5 0 15.5 7.5t23.5 19t26 25t23 25.5l28 -21q-14 -18 -34.5 -40t-46 -41t-55 -32t-61.5 -13q-31 0 -40 15t-9 34q0 12 3.5 25.5t11.5 30.5l112 245q5 12 3.5 22t-15.5 10q-10 0 -25.5 -12.5t-34 -33t-38.5 -46t-38.5 -52.5t-34 -52t-24.5 -44 l-68 -139h-111zM447 671q6 11 13.5 14t15.5 3q23 0 37.5 -14.5t14.5 -34.5q0 -6 -4.5 -15t-12.5 -17l-133 -126l-29 20z" unicode="ń" horiz-adv-x="552"/>
<glyph glyph-name="Ncommaaccent" d="M-53 37q28 1 51 6t41.5 17.5t33.5 36.5t28 63l154 456q-16 9 -38 14t-48 6l12 37h202l129 -507l118 354q6 17 10 35t4 30q0 24 -17 36.5t-62 13.5l13 38h263l-12 -37q-29 -3 -49.5 -8.5t-36 -18.5t-28 -36t-25.5 -60l-174 -521h-84l-138 545l-134 -395q-10 -29 -13 -48.5 t4.5 -31.5t27 -17.5t54.5 -6.5l-12 -38h-286zM210 -259q13 10 26.5 20t24 20.5t17 21.5t6.5 23q0 13 -8 18t-17.5 10t-17.5 14t-8 30q0 23 16 37t39 14q32 0 47.5 -20t15.5 -51q0 -29 -9.5 -53t-25 -44t-36.5 -37.5t-45 -32.5z" unicode="Ņ" horiz-adv-x="696"/>
<glyph glyph-name="ncommaaccent" d="M156 340q6 14 3.5 19.5t-7.5 5.5t-15 -9.5t-21 -23t-22 -28.5t-19 -26l-29 20q16 25 36 52.5t43.5 50t49 37t54.5 14.5q41 0 41 -40q0 -10 -4.5 -24.5t-11 -31.5t-15 -35.5t-16.5 -35.5l5 -3q20 26 44 56t51 55.5t57.5 42t63.5 16.5q32 0 53 -17t21 -46q0 -34 -17 -71 l-105 -229q-9 -22 3 -22q5 0 15.5 7.5t23.5 19t26 25t23 25.5l28 -21q-14 -18 -34.5 -40t-46 -41t-55 -32t-61.5 -13q-31 0 -40 15t-9 34q0 12 3.5 25.5t11.5 30.5l112 245q5 12 3.5 22t-15.5 10q-10 0 -25.5 -12.5t-34 -33t-38.5 -46t-38.5 -52.5t-34 -52t-24.5 -44 l-68 -139h-111zM99 -259q13 10 26.5 20t24 20.5t17 21.5t6.5 23q0 13 -8 18t-17.5 10t-17.5 14t-8 30q0 23 16 37t39 14q32 0 47.5 -20t15.5 -51q0 -29 -9.5 -53t-25 -44t-36.5 -37.5t-45 -32.5z" unicode="ņ" horiz-adv-x="552"/>
<glyph glyph-name="Ncaron" d="M-53 37q28 1 51 6t41.5 17.5t33.5 36.5t28 63l154 456q-16 9 -38 14t-48 6l12 37h202l129 -507l118 354q6 17 10 35t4 30q0 24 -17 36.5t-62 13.5l13 38h263l-12 -37q-29 -3 -49.5 -8.5t-36 -18.5t-28 -36t-25.5 -60l-174 -521h-84l-138 545l-134 -395q-10 -29 -13 -48.5 t4.5 -31.5t27 -17.5t54.5 -6.5l-12 -38h-286zM404 886l34 16l78 -83l119 83l30 -23l-105 -108q-14 -15 -27 -26t-30 -11t-27 9t-19 29z" unicode="Ň" horiz-adv-x="696"/>
<glyph glyph-name="ncaron" d="M156 340q6 14 3.5 19.5t-7.5 5.5t-15 -9.5t-21 -23t-22 -28.5t-19 -26l-29 20q16 25 36 52.5t43.5 50t49 37t54.5 14.5q41 0 41 -40q0 -10 -4.5 -24.5t-11 -31.5t-15 -35.5t-16.5 -35.5l5 -3q20 26 44 56t51 55.5t57.5 42t63.5 16.5q32 0 53 -17t21 -46q0 -34 -17 -71 l-105 -229q-9 -22 3 -22q5 0 15.5 7.5t23.5 19t26 25t23 25.5l28 -21q-14 -18 -34.5 -40t-46 -41t-55 -32t-61.5 -13q-31 0 -40 15t-9 34q0 12 3.5 25.5t11.5 30.5l112 245q5 12 3.5 22t-15.5 10q-10 0 -25.5 -12.5t-34 -33t-38.5 -46t-38.5 -52.5t-34 -52t-24.5 -44 l-68 -139h-111zM417 513q-13 -17 -24.5 -24t-29.5 -7q-12 0 -25.5 8t-16.5 30l-23 169l38 9l48 -126l125 120l33 -23z" unicode="ň" horiz-adv-x="552"/>
<glyph glyph-name="napostrophe" d="M156 340q6 14 3.5 19.5t-7.5 5.5t-15 -9.5t-21 -23t-22 -28.5t-19 -26l-29 20q16 25 36 52.5t43.5 50t49 37t54.5 14.5q41 0 41 -40q0 -10 -4.5 -24.5t-11 -31.5t-15 -35.5t-16.5 -35.5l5 -3q20 26 44 56t51 55.5t57.5 42t63.5 16.5q32 0 53 -17t21 -46q0 -34 -17 -71 l-105 -229q-9 -22 3 -22q5 0 15.5 7.5t23.5 19t26 25t23 25.5l28 -21q-14 -18 -34.5 -40t-46 -41t-55 -32t-61.5 -13q-31 0 -40 15t-9 34q0 12 3.5 25.5t11.5 30.5l112 245q5 12 3.5 22t-15.5 10q-10 0 -25.5 -12.5t-34 -33t-38.5 -46t-38.5 -52.5t-34 -52t-24.5 -44 l-68 -139h-111zM29 452q13 10 26.5 20t24 20.5t17 21.5t6.5 23q0 13 -8 18t-17.5 10t-17.5 14t-8 30q0 23 16 37t39 14q32 0 47.5 -20t15.5 -51q0 -29 -9.5 -53t-25 -44t-36.5 -37.5t-45 -32.5z" unicode="ŉ" horiz-adv-x="552"/>
<glyph glyph-name="Eng" d="M-70 37q28 1 51 6t41.5 17.5t33.5 36.5t28 63l154 456q-16 9 -38 14t-48 6l12 37h202l127 -500l115 347q6 17 10 35t4 30q0 24 -17 36.5t-62 13.5l13 38h268l-12 -37q-29 -3 -49.5 -8.5t-36 -18.5t-28 -36t-25.5 -60l-177 -529q-17 -49 -40.5 -83.5t-52 -56t-61 -31.5 t-65.5 -10q-47 0 -75.5 16.5t-28.5 49.5q0 22 13.5 36.5t36.5 14.5q22 0 32.5 -11.5t16.5 -26t11.5 -26t17.5 -11.5q11 0 31 26t43 86l29 75l-126 495l-128 -385q-10 -29 -13 -48.5t4.5 -31.5t27 -17.5t54.5 -6.5l-12 -38h-293z" unicode="Ŋ" horiz-adv-x="679"/>
<glyph glyph-name="eng" d="M156 340q6 14 3.5 19.5t-7.5 5.5t-15 -9.5t-21 -23t-22 -28.5t-19 -26l-29 20q16 25 36 52.5t43.5 50t49 37t54.5 14.5q41 0 41 -40q0 -10 -4.5 -24.5t-11 -31.5t-15 -35.5t-16.5 -35.5l5 -3q20 26 44 56t51 55.5t57.5 42t63.5 16.5q32 0 53 -17t21 -46q0 -31 -17 -71 l-143 -334q-41 -95 -97.5 -138t-123.5 -43q-47 0 -75.5 16.5t-28.5 49.5q0 22 13.5 36.5t36.5 14.5q22 0 32.5 -11.5t16.5 -26t11.5 -26t17.5 -11.5q11 0 29 26t43 86l163 390q5 12 3.5 22t-15.5 10q-10 0 -25.5 -12.5t-34 -33t-38.5 -46t-38.5 -52.5t-34 -52t-24.5 -44 l-68 -139h-111z" unicode="ŋ" horiz-adv-x="518"/>
<glyph glyph-name="Omacron" d="M63 199q0 56 13 114.5t37.5 113t60 102.5t80.5 83.5t99.5 56.5t116.5 21q105 0 158.5 -58.5t53.5 -164.5q0 -55 -13 -112t-37.5 -111t-59.5 -101.5t-79.5 -83t-97.5 -56t-113 -20.5q-109 0 -164 51.5t-55 164.5zM282 26q42 0 78.5 26.5t65.5 69t51.5 96.5t37.5 109 t22.5 105.5t7.5 87.5q0 20 -3.5 42.5t-12.5 41.5t-25 31.5t-41 12.5q-40 0 -75 -26.5t-64 -69.5t-52 -97t-38.5 -109t-23.5 -106t-8 -87t5.5 -60.5t16 -39.5t25.5 -21t33 -6zM366 824h247l-23 -66h-247z" unicode="Ō" horiz-adv-x="672"/>
<glyph glyph-name="omacron" d="M17 141q0 56 21 111.5t59 100t90.5 72t115.5 27.5q69 0 110.5 -32.5t41.5 -108.5q0 -55 -19.5 -112t-56 -103t-88.5 -75.5t-116 -29.5q-75 0 -116.5 34t-41.5 116zM170 33q21 0 41.5 16.5t39.5 44t35 62t28 71t18.5 71.5t6.5 62q0 20 -7.5 34.5t-28.5 14.5 q-26 0 -55.5 -28.5t-55 -73.5t-42.5 -101t-17 -111q0 -26 6.5 -44t30.5 -18zM272 625h247l-23 -66h-247z" unicode="ō" horiz-adv-x="473"/>
<glyph glyph-name="Obreve" d="M63 199q0 56 13 114.5t37.5 113t60 102.5t80.5 83.5t99.5 56.5t116.5 21q105 0 158.5 -58.5t53.5 -164.5q0 -55 -13 -112t-37.5 -111t-59.5 -101.5t-79.5 -83t-97.5 -56t-113 -20.5q-109 0 -164 51.5t-55 164.5zM282 26q42 0 78.5 26.5t65.5 69t51.5 96.5t37.5 109 t22.5 105.5t7.5 87.5q0 20 -3.5 42.5t-12.5 41.5t-25 31.5t-41 12.5q-40 0 -75 -26.5t-64 -69.5t-52 -97t-38.5 -109t-23.5 -106t-8 -87t5.5 -60.5t16 -39.5t25.5 -21t33 -6zM431 903q-1 -40 17.5 -63.5t60.5 -23.5q45 0 74 24t51 67l42 -8q-13 -39 -33 -67t-43.5 -47 t-49 -28t-50.5 -9q-60 0 -91 37t-21 118h43z" unicode="Ŏ" horiz-adv-x="672"/>
<glyph glyph-name="obreve" d="M17 141q0 56 21 111.5t59 100t90.5 72t115.5 27.5q69 0 110.5 -32.5t41.5 -108.5q0 -55 -19.5 -112t-56 -103t-88.5 -75.5t-116 -29.5q-75 0 -116.5 34t-41.5 116zM170 33q21 0 41.5 16.5t39.5 44t35 62t28 71t18.5 71.5t6.5 62q0 20 -7.5 34.5t-28.5 14.5 q-26 0 -55.5 -28.5t-55 -73.5t-42.5 -101t-17 -111q0 -26 6.5 -44t30.5 -18zM295 672q-1 -40 16 -62.5t59 -22.5q45 0 72.5 24t49.5 67l45 -10q-13 -39 -33 -67t-43.5 -47t-49 -28t-50.5 -9q-60 0 -91 37t-21 118h46z" unicode="ŏ" horiz-adv-x="473"/>
<glyph glyph-name="Ohungarumlaut" d="M63 199q0 56 13 114.5t37.5 113t60 102.5t80.5 83.5t99.5 56.5t116.5 21q105 0 158.5 -58.5t53.5 -164.5q0 -55 -13 -112t-37.5 -111t-59.5 -101.5t-79.5 -83t-97.5 -56t-113 -20.5q-109 0 -164 51.5t-55 164.5zM282 26q42 0 78.5 26.5t65.5 69t51.5 96.5t37.5 109 t22.5 105.5t7.5 87.5q0 20 -3.5 42.5t-12.5 41.5t-25 31.5t-41 12.5q-40 0 -75 -26.5t-64 -69.5t-52 -97t-38.5 -109t-23.5 -106t-8 -87t5.5 -60.5t16 -39.5t25.5 -21t33 -6zM523 751l128 139q6 6 13 11t18 5q18 0 32.5 -14.5t14.5 -35.5q0 -24 -24 -38l-160 -91zM355 751 l128 139q6 6 13 11t18 5q18 0 32.5 -14.5t14.5 -35.5q0 -24 -24 -38l-160 -91z" unicode="Ő" horiz-adv-x="672"/>
<glyph glyph-name="ohungarumlaut" d="M17 141q0 56 21 111.5t59 100t90.5 72t115.5 27.5q69 0 110.5 -32.5t41.5 -108.5q0 -55 -19.5 -112t-56 -103t-88.5 -75.5t-116 -29.5q-75 0 -116.5 34t-41.5 116zM170 33q21 0 41.5 16.5t39.5 44t35 62t28 71t18.5 71.5t6.5 62q0 20 -7.5 34.5t-28.5 14.5 q-26 0 -55.5 -28.5t-55 -73.5t-42.5 -101t-17 -111q0 -26 6.5 -44t30.5 -18zM481 671q6 11 13.5 14t15.5 3q23 0 37.5 -14.5t14.5 -34.5q0 -6 -4.5 -15t-12.5 -17l-133 -126l-29 20zM328 671q6 11 13.5 14t15.5 3q23 0 37.5 -14.5t14.5 -34.5q0 -6 -4.5 -15t-12.5 -17 l-133 -126l-29 20z" unicode="ő" horiz-adv-x="473"/>
<glyph glyph-name="OE" d="M761 45q20 0 31 4.5t22 18.5l94 117h40l-48 -185h-483q-5 -1 -18 -2t-30.5 -2t-37 -2t-38.5 -1q-120 0 -175 61.5t-55 186.5q0 81 27 159.5t78 140.5t124.5 100.5t166.5 38.5q15 0 32 -1t31.5 -2t25.5 -2t16 -2h425l19 -167h-40l-62 97q-11 19 -23 22.5t-36 3.5h-113 l-88 -264h47q49 0 81 19q23 14 37.5 37t27.5 53h41l-91 -270h-42q4 14 5.5 28t1.5 25q0 35 -19 47.5t-54 12.5h-51l-67 -203q-5 -17 -7 -29.5t2.5 -21.5t15.5 -13.5t31 -4.5h156zM555 504q5 13 9 29.5t4 28.5q2 36 -24 55.5t-80 19.5q-46 0 -83 -24t-66 -62t-50.5 -86.5 t-35.5 -97.5t-20.5 -94.5t-6.5 -77.5q0 -46 6.5 -76.5t19.5 -49t32.5 -26t45.5 -7.5q39 0 68 15.5t43 53.5z" unicode="Œ" horiz-adv-x="1014"/>
<glyph glyph-name="oe" d="M605 119q-17 -23 -37 -45.5t-45.5 -41t-57 -30t-70.5 -11.5q-42 0 -65 17.5t-32 42.5q-29 -25 -66.5 -42.5t-80.5 -17.5q-32 0 -57 6.5t-42 21.5t-26.5 40.5t-9.5 64.5q0 60 21 118.5t60 105t94 75.5t122 29q43 0 69 -18.5t38 -50.5q36 32 77 50.5t86 18.5q54 0 78.5 -21 t24.5 -58q0 -35 -20.5 -67t-57 -58.5t-87 -46.5t-111.5 -32q-4 -13 -8 -34.5t-4 -45.5q0 -20 6.5 -31.5t25.5 -11.5q25 0 58.5 21t82.5 77zM164 33q20 0 41 18t40.5 47t37.5 65.5t31 73.5t21 71t8 58q0 26 -7 34.5t-21 8.5q-25 0 -56.5 -30t-59.5 -76.5t-47.5 -103 t-19.5 -110.5q0 -56 32 -56zM422 218q44 12 76.5 31t54 41.5t32 47t10.5 47.5q0 16 -6.5 21.5t-15.5 5.5q-32 0 -74 -51t-77 -143z" unicode="œ" horiz-adv-x="676"/>
<glyph glyph-name="Racute" d="M-31 38l32 2q26 2 39 12.5t24 41.5l163 485q11 31 4.5 41.5t-32.5 12.5l-32 2l13 38h239q64 0 108 -12t70 -32.5t37.5 -48.5t11.5 -61q0 -43 -15 -78t-42.5 -61t-65.5 -43.5t-84 -24.5l66 -163q14 -35 29 -56.5t32.5 -33.5t39 -16.5t49.5 -4.5l-13 -38h-225 q-8 31 -38 105l-83 201h-21l-68 -204q-11 -33 -2 -45t38 -15l50 -4l-10 -38h-327zM331 352q33 0 64 7.5t55 27t38.5 53t14.5 84.5q0 48 -22 76.5t-69 28.5q-17 0 -26 -8.5t-17 -31.5l-79 -237h41zM350 751l128 139q6 6 13 11t18 5q18 0 32.5 -14.5t14.5 -35.5q0 -24 -24 -38 l-160 -91z" unicode="Ŕ" horiz-adv-x="705"/>
<glyph glyph-name="racute" d="M156 340q6 14 3.5 19.5t-7.5 5.5t-15 -9.5t-21 -23t-22 -28.5t-19 -26l-29 20q16 25 36 52.5t43.5 50t49 37t54.5 14.5q41 0 41 -40q0 -10 -4 -24t-10.5 -30.5t-15 -34.5t-16.5 -35l5 -3q21 32 41 62t42.5 53.5t47.5 37.5t55 14q38 0 61 -19.5t23 -54.5 q0 -28 -16.5 -46.5t-45.5 -18.5q-32 0 -42.5 14.5t-10.5 32.5q0 14 3.5 25t-8.5 11q-17 0 -42 -26.5t-52 -66.5t-53.5 -86t-45.5 -85l-65 -132h-111zM417 671q6 11 13.5 14t15.5 3q23 0 37.5 -14.5t14.5 -34.5q0 -6 -4.5 -15t-12.5 -17l-133 -126l-29 20z" unicode="ŕ" horiz-adv-x="479"/>
<glyph glyph-name="Rcommaaccent" d="M-31 38l32 2q26 2 39 12.5t24 41.5l163 485q11 31 4.5 41.5t-32.5 12.5l-32 2l13 38h239q64 0 108 -12t70 -32.5t37.5 -48.5t11.5 -61q0 -43 -15 -78t-42.5 -61t-65.5 -43.5t-84 -24.5l66 -163q14 -35 29 -56.5t32.5 -33.5t39 -16.5t49.5 -4.5l-13 -38h-225 q-8 31 -38 105l-83 201h-21l-68 -204q-11 -33 -2 -45t38 -15l50 -4l-10 -38h-327zM331 352q33 0 64 7.5t55 27t38.5 53t14.5 84.5q0 48 -22 76.5t-69 28.5q-17 0 -26 -8.5t-17 -31.5l-79 -237h41zM185 -259q13 10 26.5 20t24 20.5t17 21.5t6.5 23q0 13 -8 18t-17.5 10 t-17.5 14t-8 30q0 23 16 37t39 14q32 0 47.5 -20t15.5 -51q0 -29 -9.5 -53t-25 -44t-36.5 -37.5t-45 -32.5z" unicode="Ŗ" horiz-adv-x="705"/>
<glyph glyph-name="rcommaaccent" d="M156 340q6 14 3.5 19.5t-7.5 5.5t-15 -9.5t-21 -23t-22 -28.5t-19 -26l-29 20q16 25 36 52.5t43.5 50t49 37t54.5 14.5q41 0 41 -40q0 -10 -4 -24t-10.5 -30.5t-15 -34.5t-16.5 -35l5 -3q21 32 41 62t42.5 53.5t47.5 37.5t55 14q38 0 61 -19.5t23 -54.5 q0 -28 -16.5 -46.5t-45.5 -18.5q-32 0 -42.5 14.5t-10.5 32.5q0 14 3.5 25t-8.5 11q-17 0 -42 -26.5t-52 -66.5t-53.5 -86t-45.5 -85l-65 -132h-111zM-42 -259q13 10 26.5 20t24 20.5t17 21.5t6.5 23q0 13 -8 18t-17.5 10t-17.5 14t-8 30q0 23 16 37t39 14q32 0 47.5 -20 t15.5 -51q0 -29 -9.5 -53t-25 -44t-36.5 -37.5t-45 -32.5z" unicode="ŗ" horiz-adv-x="479"/>
<glyph glyph-name="Rcaron" d="M-31 38l32 2q26 2 39 12.5t24 41.5l163 485q11 31 4.5 41.5t-32.5 12.5l-32 2l13 38h239q64 0 108 -12t70 -32.5t37.5 -48.5t11.5 -61q0 -43 -15 -78t-42.5 -61t-65.5 -43.5t-84 -24.5l66 -163q14 -35 29 -56.5t32.5 -33.5t39 -16.5t49.5 -4.5l-13 -38h-225 q-8 31 -38 105l-83 201h-21l-68 -204q-11 -33 -2 -45t38 -15l50 -4l-10 -38h-327zM331 352q33 0 64 7.5t55 27t38.5 53t14.5 84.5q0 48 -22 76.5t-69 28.5q-17 0 -26 -8.5t-17 -31.5l-79 -237h41zM310 886l34 16l78 -83l119 83l30 -23l-105 -108q-14 -15 -27 -26t-30 -11 t-27 9t-19 29z" unicode="Ř" horiz-adv-x="705"/>
<glyph glyph-name="rcaron" d="M156 340q6 14 3.5 19.5t-7.5 5.5t-15 -9.5t-21 -23t-22 -28.5t-19 -26l-29 20q16 25 36 52.5t43.5 50t49 37t54.5 14.5q41 0 41 -40q0 -10 -4 -24t-10.5 -30.5t-15 -34.5t-16.5 -35l5 -3q21 32 41 62t42.5 53.5t47.5 37.5t55 14q38 0 61 -19.5t23 -54.5 q0 -28 -16.5 -46.5t-45.5 -18.5q-32 0 -42.5 14.5t-10.5 32.5q0 14 3.5 25t-8.5 11q-17 0 -42 -26.5t-52 -66.5t-53.5 -86t-45.5 -85l-65 -132h-111zM403 513q-13 -17 -24.5 -24t-29.5 -7q-12 0 -25.5 8t-16.5 30l-23 169l38 9l48 -126l125 120l33 -23z" unicode="ř" horiz-adv-x="479"/>
<glyph glyph-name="Sacute" d="M78 242h44q-2 -12 -3 -25t-1 -29q0 -30 7.5 -59.5t23.5 -52.5t41.5 -37.5t60.5 -14.5q49 0 75 29t26 86q0 26 -7 47.5t-18.5 39.5t-26 33.5t-29.5 30.5q-22 22 -43.5 44.5t-38.5 47t-27.5 53t-10.5 62.5q0 90 59.5 141.5t160.5 51.5q34 0 58.5 -6t43 -13.5t31 -13.5 t22.5 -6q20 0 31 31h41l-73 -235h-43q3 30 3 59q0 30 -5 56t-17.5 45.5t-33.5 30.5t-54 11q-42 0 -67.5 -27t-25.5 -81q0 -23 7 -43t19.5 -38t29 -35.5t35.5 -36.5q22 -23 42.5 -46.5t36 -50t24.5 -55t9 -59.5q0 -44 -15 -79.5t-44.5 -61t-73 -39.5t-99.5 -14q-39 0 -68.5 8 t-51 17t-35.5 17t-23 8t-16 -8.5t-14 -19.5h-45zM336 751l128 139q6 6 13 11t18 5q18 0 32.5 -14.5t14.5 -35.5q0 -24 -24 -38l-160 -91z" unicode="Ś" horiz-adv-x="547"/>
<glyph glyph-name="sacute" d="M-35 71q0 18 13.5 33t36.5 15t34.5 -14t21.5 -31t23.5 -31t39.5 -14q9 0 18.5 2.5t17 8.5t12.5 16t5 26q0 31 -14 50.5t-34 45.5q-22 29 -39.5 60.5t-17.5 66.5q0 29 12.5 55.5t36.5 47t58.5 32.5t77.5 12q16 0 36.5 -2.5t37.5 -10t29 -20.5t12 -33q0 -15 -11 -30.5 t-38 -15.5q-24 0 -35.5 10.5t-20 23.5t-17.5 23.5t-27 10.5q-21 0 -34.5 -15.5t-13.5 -44.5q0 -26 17 -53t34 -49q23 -30 41 -60.5t18 -65.5q0 -26 -11 -49.5t-33.5 -41t-55.5 -28t-76 -10.5q-72 0 -113 22t-41 58zM315 668q6 11 13.5 14t15.5 3q23 0 37.5 -14.5t14.5 -34.5 q0 -6 -4.5 -15t-12.5 -17l-133 -126l-29 20z" unicode="ś" horiz-adv-x="349"/>
<glyph glyph-name="Scircumflex" d="M78 242h44q-2 -12 -3 -25t-1 -29q0 -30 7.5 -59.5t23.5 -52.5t41.5 -37.5t60.5 -14.5q49 0 75 29t26 86q0 26 -7 47.5t-18.5 39.5t-26 33.5t-29.5 30.5q-22 22 -43.5 44.5t-38.5 47t-27.5 53t-10.5 62.5q0 90 59.5 141.5t160.5 51.5q34 0 58.5 -6t43 -13.5t31 -13.5 t22.5 -6q20 0 31 31h41l-73 -235h-43q3 30 3 59q0 30 -5 56t-17.5 45.5t-33.5 30.5t-54 11q-42 0 -67.5 -27t-25.5 -81q0 -23 7 -43t19.5 -38t29 -35.5t35.5 -36.5q22 -23 42.5 -46.5t36 -50t24.5 -55t9 -59.5q0 -44 -15 -79.5t-44.5 -61t-73 -39.5t-99.5 -14q-39 0 -68.5 8 t-51 17t-35.5 17t-23 8t-16 -8.5t-14 -19.5h-45zM268 757l105 108q14 15 27 26t30 11t27 -9t19 -29l53 -114l-34 -16l-78 83l-116 -84z" unicode="Ŝ" horiz-adv-x="547"/>
<glyph glyph-name="scircumflex" d="M-35 71q0 18 13.5 33t36.5 15t34.5 -14t21.5 -31t23.5 -31t39.5 -14q9 0 18.5 2.5t17 8.5t12.5 16t5 26q0 31 -14 50.5t-34 45.5q-22 29 -39.5 60.5t-17.5 66.5q0 29 12.5 55.5t36.5 47t58.5 32.5t77.5 12q16 0 36.5 -2.5t37.5 -10t29 -20.5t12 -33q0 -15 -11 -30.5 t-38 -15.5q-24 0 -35.5 10.5t-20 23.5t-17.5 23.5t-27 10.5q-21 0 -34.5 -15.5t-13.5 -44.5q0 -26 17 -53t34 -49q23 -30 41 -60.5t18 -65.5q0 -26 -11 -49.5t-33.5 -41t-55.5 -28t-76 -10.5q-72 0 -113 22t-41 58zM147 511l125 156q13 17 24.5 24t29.5 7q12 0 25.5 -8 t16.5 -30l23 -169l-38 -9l-48 126l-125 -120z" unicode="ŝ" horiz-adv-x="349"/>
<glyph glyph-name="Scedilla" d="M121 -157q28 -16 56 -16q24 0 38.5 9t14.5 30q0 17 -11 24.5t-26 7.5q-11 0 -21 -2t-22 -6l-10 10l49 90q-23 5 -41.5 12.5t-32 14t-23.5 11.5t-17 5q-9 0 -16 -8.5t-14 -19.5h-45l78 237h44q-2 -12 -3 -25t-1 -29q0 -30 7.5 -59.5t23.5 -52.5t41.5 -37.5t60.5 -14.5 q49 0 75 29t26 86q0 26 -7 47.5t-18.5 39.5t-26 33.5t-29.5 30.5q-22 22 -43.5 44.5t-38.5 47t-27.5 53t-10.5 62.5q0 90 59.5 141.5t160.5 51.5q34 0 58.5 -6t43 -13.5t31 -13.5t22.5 -6q20 0 31 31h41l-73 -235h-43q3 30 3 59q0 30 -5 56t-17.5 45.5t-33.5 30.5t-54 11 q-42 0 -67.5 -27t-25.5 -81q0 -23 7 -43t19.5 -38t29 -35.5t35.5 -36.5q22 -23 42.5 -46.5t36 -50t24.5 -55t9 -59.5q0 -44 -15 -79.5t-44.5 -61t-73 -39.5t-99.5 -14q-6 0 -12 0.5t-11 0.5l-28 -46q5 1 13.5 1.5t14.5 0.5q31 0 52.5 -15t21.5 -50q0 -25 -10.5 -42 t-27.5 -27.5t-38.5 -15.5t-43.5 -5t-46.5 7.5t-37.5 18.5z" unicode="Ş" horiz-adv-x="547"/>
<glyph glyph-name="scedilla" d="M3 -157q28 -16 56 -16q24 0 38.5 9t14.5 30q0 17 -11 24.5t-26 7.5q-11 0 -21 -2t-22 -6l-10 10l51 94q-51 6 -79.5 26.5t-28.5 50.5q0 18 13.5 33t36.5 15t34.5 -14t21.5 -31t23.5 -31t39.5 -14q9 0 18.5 2.5t17 8.5t12.5 16t5 26q0 31 -14 50.5t-34 45.5 q-22 29 -39.5 60.5t-17.5 66.5q0 29 12.5 55.5t36.5 47t58.5 32.5t77.5 12q16 0 36.5 -2.5t37.5 -10t29 -20.5t12 -33q0 -15 -11 -30.5t-38 -15.5q-24 0 -35.5 10.5t-20 23.5t-17.5 23.5t-27 10.5q-21 0 -34.5 -15.5t-13.5 -44.5q0 -26 17 -53t34 -49q23 -30 41 -60.5 t18 -65.5q0 -26 -11 -49.5t-33.5 -41t-55.5 -28t-76 -10.5h-3l-32 -53q5 1 13.5 1.5t14.5 0.5q31 0 52.5 -15t21.5 -50q0 -25 -10.5 -42t-27.5 -27.5t-38.5 -15.5t-43.5 -5t-46.5 7.5t-37.5 18.5z" unicode="ş" horiz-adv-x="349"/>
<glyph glyph-name="Scaron" d="M78 242h44q-2 -12 -3 -25t-1 -29q0 -30 7.5 -59.5t23.5 -52.5t41.5 -37.5t60.5 -14.5q49 0 75 29t26 86q0 26 -7 47.5t-18.5 39.5t-26 33.5t-29.5 30.5q-22 22 -43.5 44.5t-38.5 47t-27.5 53t-10.5 62.5q0 90 59.5 141.5t160.5 51.5q34 0 58.5 -6t43 -13.5t31 -13.5 t22.5 -6q20 0 31 31h41l-73 -235h-43q3 30 3 59q0 30 -5 56t-17.5 45.5t-33.5 30.5t-54 11q-42 0 -67.5 -27t-25.5 -81q0 -23 7 -43t19.5 -38t29 -35.5t35.5 -36.5q22 -23 42.5 -46.5t36 -50t24.5 -55t9 -59.5q0 -44 -15 -79.5t-44.5 -61t-73 -39.5t-99.5 -14q-39 0 -68.5 8 t-51 17t-35.5 17t-23 8t-16 -8.5t-14 -19.5h-45zM290 886l34 16l78 -83l119 83l30 -23l-105 -108q-14 -15 -27 -26t-30 -11t-27 9t-19 29z" unicode="Š" horiz-adv-x="547"/>
<glyph glyph-name="scaron" d="M-35 71q0 18 13.5 33t36.5 15t34.5 -14t21.5 -31t23.5 -31t39.5 -14q9 0 18.5 2.5t17 8.5t12.5 16t5 26q0 31 -14 50.5t-34 45.5q-22 29 -39.5 60.5t-17.5 66.5q0 29 12.5 55.5t36.5 47t58.5 32.5t77.5 12q16 0 36.5 -2.5t37.5 -10t29 -20.5t12 -33q0 -15 -11 -30.5 t-38 -15.5q-24 0 -35.5 10.5t-20 23.5t-17.5 23.5t-27 10.5q-21 0 -34.5 -15.5t-13.5 -44.5q0 -26 17 -53t34 -49q23 -30 41 -60.5t18 -65.5q0 -26 -11 -49.5t-33.5 -41t-55.5 -28t-76 -10.5q-72 0 -113 22t-41 58zM327 513q-13 -17 -24.5 -24t-29.5 -7q-12 0 -25.5 8 t-16.5 30l-23 169l38 9l48 -126l125 120l33 -23z" unicode="š" horiz-adv-x="349"/>
<glyph glyph-name="Tcommaaccent" d="M107 37l47 3q28 2 43 16t24 40l178 533h-93q-13 0 -20.5 -4t-13.5 -12l-99 -125h-48l68 185h572l-60 -185h-40l-11 124q-3 17 -19 17h-98l-161 -486q-7 -22 -11 -38t-4 -28q0 -33 40 -36l60 -5l-14 -36h-352zM174 -259q13 10 26.5 20t24 20.5t17 21.5t6.5 23q0 13 -8 18 t-17.5 10t-17.5 14t-8 30q0 23 16 37t39 14q32 0 47.5 -20t15.5 -51q0 -29 -9.5 -53t-25 -44t-36.5 -37.5t-45 -32.5z" unicode="Ţ" horiz-adv-x="650"/>
<glyph glyph-name="tcommaaccent" d="M144 379h-63l20 52h66l39 95l109 35l18 -18l-48 -112h94l-18 -52h-98l-122 -278q-13 -31 1 -31q7 0 21 8t29.5 19t31.5 24t27 23l27 -27q-16 -16 -39.5 -37t-52 -39.5t-61 -31.5t-66.5 -13q-32 0 -42.5 12.5t-10.5 32.5q0 19 11 46zM-48 -259q13 10 26.5 20t24 20.5 t17 21.5t6.5 23q0 13 -8 18t-17.5 10t-17.5 14t-8 30q0 23 16 37t39 14q32 0 47.5 -20t15.5 -51q0 -29 -9.5 -53t-25 -44t-36.5 -37.5t-45 -32.5z" unicode="ţ" horiz-adv-x="329"/>
<glyph glyph-name="Tcaron" d="M107 37l47 3q28 2 43 16t24 40l178 533h-93q-13 0 -20.5 -4t-13.5 -12l-99 -125h-48l68 185h572l-60 -185h-40l-11 124q-3 17 -19 17h-98l-161 -486q-7 -22 -11 -38t-4 -28q0 -33 40 -36l60 -5l-14 -36h-352zM388 886l34 16l78 -83l119 83l30 -23l-105 -108 q-14 -15 -27 -26t-30 -11t-27 9t-19 29z" unicode="Ť" horiz-adv-x="650"/>
<glyph glyph-name="tcaron" d="M144 379h-63l20 52h66l39 95l109 35l18 -18l-48 -112h94l-18 -52h-98l-122 -278q-13 -31 1 -31q7 0 21 8t29.5 19t31.5 24t27 23l27 -27q-16 -16 -39.5 -37t-52 -39.5t-61 -31.5t-66.5 -13q-32 0 -42.5 12.5t-10.5 32.5q0 19 11 46zM368 483q5 15 12.5 38.5t15.5 48 t15 46.5t11 35q8 24 19 33.5t32 9.5q15 0 25.5 -5.5t16 -14.5t5.5 -19.5t-6 -20.5q-9 -14 -25.5 -39t-34 -50.5t-32.5 -46.5l-20 -28z" unicode="ť" horiz-adv-x="329"/>
<glyph glyph-name="Tbar" d="M107 37l47 3q28 2 43 16t24 40l71 214h-120l22 59h118l87 260h-93q-13 0 -20.5 -4t-13.5 -12l-99 -125h-48l68 185h572l-60 -185h-40l-11 124q-3 17 -19 17h-98l-86 -260h99l-22 -59h-97l-55 -167q-7 -22 -11 -38t-4 -28q0 -33 40 -36l60 -5l-14 -36h-352z" unicode="Ŧ" horiz-adv-x="650"/>
<glyph glyph-name="tbar" d="M79 229h-51l19 52h54l43 98h-63l20 52h66l39 95l109 35l18 -18l-48 -112h94l-18 -52h-98l-43 -98h106l-19 -52h-110l-56 -128q-13 -31 1 -31q7 0 21 8t29.5 19t31.5 24t27 23l27 -27q-16 -16 -39.5 -37t-52 -39.5t-61 -31.5t-66.5 -13q-32 0 -42.5 12.5t-10.5 32.5 q0 19 11 46z" unicode="ŧ" horiz-adv-x="329"/>
<glyph glyph-name="Utilde" d="M212 554q11 33 11 51q0 24 -23 27l-51 5l14 36h305l-12 -36l-45 -6q-20 -3 -29 -12.5t-16 -29.5l-119 -354q-8 -22 -13.5 -48t-5.5 -54q0 -46 24 -68t75 -22q64 0 97 31.5t56 99.5l122 357q5 15 9.5 33t4.5 28q0 23 -17 33t-62 10l13 38h260l-12 -37q-26 -2 -45.5 -6.5 t-34.5 -17t-28 -36.5t-27 -63l-126 -356q-15 -42 -32.5 -74.5t-44 -54.5t-64 -33.5t-91.5 -11.5q-44 0 -82.5 8t-67 27t-45.5 50.5t-17 79.5q0 26 7 59.5t19 68.5zM356 768q21 51 46 73t60 22q22 0 43 -6.5t40.5 -14t38 -13.5t35.5 -6q22 0 33.5 12.5t18.5 31.5l34 -11 q-17 -48 -39.5 -75t-61.5 -27q-23 0 -44.5 6t-41.5 13.5t-38.5 14t-34.5 6.5q-20 0 -31 -11t-22 -29z" unicode="Ũ" horiz-adv-x="670"/>
<glyph glyph-name="utilde" d="M145 344q9 22 -3 22q-5 0 -14.5 -7.5t-20.5 -19.5t-23 -26.5t-22 -27.5l-28 21q14 21 35 45.5t46 45.5t53.5 35t57.5 14q31 0 40 -15t9 -34q0 -22 -15 -56l-101 -245q-5 -12 -5.5 -22t13.5 -10q10 0 25.5 12.5t34 33t38.5 46t38 52.5t33.5 52t24.5 44l68 139h111 l-151 -352q-11 -25 2 -25q7 0 18 8.5t23.5 22t25 28.5t22.5 29l29 -20q-17 -24 -37.5 -49.5t-44.5 -46t-51 -34t-55 -13.5q-41 0 -41 40q0 10 4 24.5t11 31.5t15.5 35.5t16.5 35.5l-5 3q-20 -27 -44 -57t-51 -55t-57.5 -41.5t-63.5 -16.5q-32 0 -50.5 17t-18.5 46 q0 31 17 71zM199 545q21 51 46 73t60 22q22 0 42.5 -6t39.5 -13.5t37 -13.5t35 -6q19 0 31 12.5t19 31.5l39 -12q-17 -48 -39.5 -75t-61.5 -27q-23 0 -44.5 6t-41.5 13.5t-38.5 14t-34.5 6.5q-19 0 -28.5 -11.5t-20.5 -29.5z" unicode="ũ" horiz-adv-x="550"/>
<glyph glyph-name="Umacron" d="M212 554q11 33 11 51q0 24 -23 27l-51 5l14 36h305l-12 -36l-45 -6q-20 -3 -29 -12.5t-16 -29.5l-119 -354q-8 -22 -13.5 -48t-5.5 -54q0 -46 24 -68t75 -22q64 0 97 31.5t56 99.5l122 357q5 15 9.5 33t4.5 28q0 23 -17 33t-62 10l13 38h260l-12 -37q-26 -2 -45.5 -6.5 t-34.5 -17t-28 -36.5t-27 -63l-126 -356q-15 -42 -32.5 -74.5t-44 -54.5t-64 -33.5t-91.5 -11.5q-44 0 -82.5 8t-67 27t-45.5 50.5t-17 79.5q0 26 7 59.5t19 68.5zM414 824h247l-23 -66h-247z" unicode="Ū" horiz-adv-x="670"/>
<glyph glyph-name="umacron" d="M145 344q9 22 -3 22q-5 0 -14.5 -7.5t-20.5 -19.5t-23 -26.5t-22 -27.5l-28 21q14 21 35 45.5t46 45.5t53.5 35t57.5 14q31 0 40 -15t9 -34q0 -22 -15 -56l-101 -245q-5 -12 -5.5 -22t13.5 -10q10 0 25.5 12.5t34 33t38.5 46t38 52.5t33.5 52t24.5 44l68 139h111 l-151 -352q-11 -25 2 -25q7 0 18 8.5t23.5 22t25 28.5t22.5 29l29 -20q-17 -24 -37.5 -49.5t-44.5 -46t-51 -34t-55 -13.5q-41 0 -41 40q0 10 4 24.5t11 31.5t15.5 35.5t16.5 35.5l-5 3q-20 -27 -44 -57t-51 -55t-57.5 -41.5t-63.5 -16.5q-32 0 -50.5 17t-18.5 46 q0 31 17 71zM270 625h247l-23 -66h-247z" unicode="ū" horiz-adv-x="550"/>
<glyph glyph-name="Ubreve" d="M212 554q11 33 11 51q0 24 -23 27l-51 5l14 36h305l-12 -36l-45 -6q-20 -3 -29 -12.5t-16 -29.5l-119 -354q-8 -22 -13.5 -48t-5.5 -54q0 -46 24 -68t75 -22q64 0 97 31.5t56 99.5l122 357q5 15 9.5 33t4.5 28q0 23 -17 33t-62 10l13 38h260l-12 -37q-26 -2 -45.5 -6.5 t-34.5 -17t-28 -36.5t-27 -63l-126 -356q-15 -42 -32.5 -74.5t-44 -54.5t-64 -33.5t-91.5 -11.5q-44 0 -82.5 8t-67 27t-45.5 50.5t-17 79.5q0 26 7 59.5t19 68.5zM455 903q-1 -40 17.5 -63.5t60.5 -23.5q45 0 74 24t51 67l42 -8q-13 -39 -33 -67t-43.5 -47t-49 -28 t-50.5 -9q-60 0 -91 37t-21 118h43z" unicode="Ŭ" horiz-adv-x="670"/>
<glyph glyph-name="ubreve" d="M145 344q9 22 -3 22q-5 0 -14.5 -7.5t-20.5 -19.5t-23 -26.5t-22 -27.5l-28 21q14 21 35 45.5t46 45.5t53.5 35t57.5 14q31 0 40 -15t9 -34q0 -22 -15 -56l-101 -245q-5 -12 -5.5 -22t13.5 -10q10 0 25.5 12.5t34 33t38.5 46t38 52.5t33.5 52t24.5 44l68 139h111 l-151 -352q-11 -25 2 -25q7 0 18 8.5t23.5 22t25 28.5t22.5 29l29 -20q-17 -24 -37.5 -49.5t-44.5 -46t-51 -34t-55 -13.5q-41 0 -41 40q0 10 4 24.5t11 31.5t15.5 35.5t16.5 35.5l-5 3q-20 -27 -44 -57t-51 -55t-57.5 -41.5t-63.5 -16.5q-32 0 -50.5 17t-18.5 46 q0 31 17 71zM301 672q-1 -40 16 -62.5t59 -22.5q45 0 72.5 24t49.5 67l45 -10q-13 -39 -33 -67t-43.5 -47t-49 -28t-50.5 -9q-60 0 -91 37t-21 118h46z" unicode="ŭ" horiz-adv-x="550"/>
<glyph glyph-name="Uring" d="M212 554q11 33 11 51q0 24 -23 27l-51 5l14 36h305l-12 -36l-45 -6q-20 -3 -29 -12.5t-16 -29.5l-119 -354q-8 -22 -13.5 -48t-5.5 -54q0 -46 24 -68t75 -22q64 0 97 31.5t56 99.5l122 357q5 15 9.5 33t4.5 28q0 23 -17 33t-62 10l13 38h260l-12 -37q-26 -2 -45.5 -6.5 t-34.5 -17t-28 -36.5t-27 -63l-126 -356q-15 -42 -32.5 -74.5t-44 -54.5t-64 -33.5t-91.5 -11.5q-44 0 -82.5 8t-67 27t-45.5 50.5t-17 79.5q0 26 7 59.5t19 68.5zM430 804q0 37 26 63t63 26t63 -26t26 -63t-26 -63t-63 -26t-63 26t-26 63zM519 754q22 0 34 14t12 36 t-12 35.5t-34 13.5t-34.5 -13.5t-12.5 -35.5t12.5 -36t34.5 -14z" unicode="Ů" horiz-adv-x="670"/>
<glyph glyph-name="uring" d="M145 344q9 22 -3 22q-5 0 -14.5 -7.5t-20.5 -19.5t-23 -26.5t-22 -27.5l-28 21q14 21 35 45.5t46 45.5t53.5 35t57.5 14q31 0 40 -15t9 -34q0 -22 -15 -56l-101 -245q-5 -12 -5.5 -22t13.5 -10q10 0 25.5 12.5t34 33t38.5 46t38 52.5t33.5 52t24.5 44l68 139h111 l-151 -352q-11 -25 2 -25q7 0 18 8.5t23.5 22t25 28.5t22.5 29l29 -20q-17 -24 -37.5 -49.5t-44.5 -46t-51 -34t-55 -13.5q-41 0 -41 40q0 10 4 24.5t11 31.5t15.5 35.5t16.5 35.5l-5 3q-20 -27 -44 -57t-51 -55t-57.5 -41.5t-63.5 -16.5q-32 0 -50.5 17t-18.5 46 q0 31 17 71zM276 606q0 37 26 63t63 26t63 -26t26 -63t-26 -63t-63 -26t-63 26t-26 63zM365 556q22 0 34 14t12 36t-12 35.5t-34 13.5t-34.5 -13.5t-12.5 -35.5t12.5 -36t34.5 -14z" unicode="ů" horiz-adv-x="550"/>
<glyph glyph-name="Uhungarumlaut" d="M212 554q11 33 11 51q0 24 -23 27l-51 5l14 36h305l-12 -36l-45 -6q-20 -3 -29 -12.5t-16 -29.5l-119 -354q-8 -22 -13.5 -48t-5.5 -54q0 -46 24 -68t75 -22q64 0 97 31.5t56 99.5l122 357q5 15 9.5 33t4.5 28q0 23 -17 33t-62 10l13 38h260l-12 -37q-26 -2 -45.5 -6.5 t-34.5 -17t-28 -36.5t-27 -63l-126 -356q-15 -42 -32.5 -74.5t-44 -54.5t-64 -33.5t-91.5 -11.5q-44 0 -82.5 8t-67 27t-45.5 50.5t-17 79.5q0 26 7 59.5t19 68.5zM560 751l128 139q6 6 13 11t18 5q18 0 32.5 -14.5t14.5 -35.5q0 -24 -24 -38l-160 -91zM392 751l128 139 q6 6 13 11t18 5q18 0 32.5 -14.5t14.5 -35.5q0 -24 -24 -38l-160 -91z" unicode="Ű" horiz-adv-x="670"/>
<glyph glyph-name="uhungarumlaut" d="M145 344q9 22 -3 22q-5 0 -14.5 -7.5t-20.5 -19.5t-23 -26.5t-22 -27.5l-28 21q14 21 35 45.5t46 45.5t53.5 35t57.5 14q31 0 40 -15t9 -34q0 -22 -15 -56l-101 -245q-5 -12 -5.5 -22t13.5 -10q10 0 25.5 12.5t34 33t38.5 46t38 52.5t33.5 52t24.5 44l68 139h111 l-151 -352q-11 -25 2 -25q7 0 18 8.5t23.5 22t25 28.5t22.5 29l29 -20q-17 -24 -37.5 -49.5t-44.5 -46t-51 -34t-55 -13.5q-41 0 -41 40q0 10 4 24.5t11 31.5t15.5 35.5t16.5 35.5l-5 3q-20 -27 -44 -57t-51 -55t-57.5 -41.5t-63.5 -16.5q-32 0 -50.5 17t-18.5 46 q0 31 17 71zM497 671q6 11 13.5 14t15.5 3q23 0 37.5 -14.5t14.5 -34.5q0 -6 -4.5 -15t-12.5 -17l-133 -126l-29 20zM344 671q6 11 13.5 14t15.5 3q23 0 37.5 -14.5t14.5 -34.5q0 -6 -4.5 -15t-12.5 -17l-133 -126l-29 20z" unicode="ű" horiz-adv-x="550"/>
<glyph glyph-name="Uogonek" d="M467 -150q-22 -30 -50 -49t-68 -19q-34 0 -58.5 17.5t-24.5 56.5q0 20 7.5 38.5t19 35t25.5 30.5t28 25q-10 -1 -20 -1.5t-21 -0.5q-44 0 -82.5 8t-67 27t-45.5 50.5t-17 79.5q0 26 7 59.5t19 68.5l93 278q11 33 11 51q0 24 -23 27l-51 5l14 36h305l-12 -36l-45 -6 q-20 -3 -29 -12.5t-16 -29.5l-119 -354q-8 -22 -13.5 -48t-5.5 -54q0 -46 24 -68t75 -22q64 0 97 31.5t56 99.5l122 357q5 15 9.5 33t4.5 28q0 23 -17 33t-62 10l13 38h260l-12 -37q-26 -2 -45.5 -6.5t-34.5 -17t-28 -36.5t-27 -63l-126 -356q-19 -52 -42 -89.5t-62 -58.5 q-15 -15 -29.5 -30.5t-26.5 -32t-19 -33.5t-7 -33q0 -21 9 -29.5t25 -8.5t28.5 7t27.5 21z" unicode="Ų" horiz-adv-x="670"/>
<glyph glyph-name="uogonek" d="M159 96q-5 -12 -5.5 -22t13.5 -10q10 0 25.5 12.5t34 33t38.5 46t38 52.5t33.5 52t24.5 44l68 139h111l-151 -352q-11 -25 2 -25q7 0 18 8.5t23.5 22t25 28.5t22.5 29l29 -20q-23 -33 -53.5 -67.5t-66.5 -55.5q-15 -15 -30 -31t-27 -32.5t-19.5 -33.5t-7.5 -34 q0 -21 9 -29.5t25 -8.5t28.5 7t27.5 21l26 -20q-22 -30 -50 -49t-68 -19q-34 0 -58.5 17.5t-24.5 56.5q0 21 8.5 41t21.5 37t28.5 32t29.5 26q-28 6 -28 39q0 10 4 24.5t11 31.5t15.5 35.5t16.5 35.5l-5 3q-20 -27 -44 -57t-51 -55t-57.5 -41.5t-63.5 -16.5q-32 0 -50.5 17 t-18.5 46q0 31 17 71l91 219q9 22 -3 22q-5 0 -14.5 -7.5t-20.5 -19.5t-23 -26.5t-22 -27.5l-28 21q14 21 35 45.5t46 45.5t53.5 35t57.5 14q31 0 40 -15t9 -34q0 -22 -15 -56z" unicode="ų" horiz-adv-x="550"/>
<glyph glyph-name="Wcircumflex" d="M219 561q-1 44 -20 59t-55 15l13 38h288l-13 -38q-26 0 -42 -5t-25 -15.5t-12 -25.5t-4 -34l-17 -395l183 292l5 117q2 40 -9 53t-49 13l13 38h284l-13 -38q-30 0 -49.5 -5t-31 -15t-16 -25t-5.5 -36l-16 -390l221 354q19 31 28 50t9 37q0 17 -14.5 23.5t-44.5 6.5l13 38 h262l-12 -37q-23 -1 -42.5 -4.5t-39 -14.5t-40.5 -33t-46 -60l-345 -541h-81l13 355l-228 -355h-83zM502 757l105 108q14 15 27 26t30 11t27 -9t19 -29l53 -114l-34 -16l-78 83l-116 -84z" unicode="Ŵ" horiz-adv-x="958"/>
<glyph glyph-name="wcircumflex" d="M128 360q-32 0 -45 -13.5t-13 -27.5q0 -11 3 -17.5t8 -6.5q4 0 6.5 3.5t6 8t9 8.5t15.5 4q14 0 22 -9t8 -24q0 -17 -14 -30t-42 -13q-26 0 -41.5 16t-15.5 44t14.5 53t39.5 44.5t58.5 31t72.5 11.5h164l7 -11q-26 -32 -48 -57.5t-49 -56.5q-15 -18 -31.5 -40.5t-30 -46 t-22.5 -47t-9 -43.5q0 -26 13 -43t54 -17q16 0 33.5 5t35.5 13q-3 22 -3 49q0 61 16.5 114t43.5 92t61 61.5t69 22.5q29 0 44 -18t15 -51q0 -29 -11 -61.5t-30.5 -65.5t-45.5 -65t-57 -62q10 -14 24 -23.5t41 -9.5q36 0 68.5 20.5t57.5 52.5t39.5 69.5t14.5 72.5q0 27 -9 40 t-19.5 22t-19.5 19t-9 32q0 15 12 31.5t43 16.5q20 0 33.5 -9t22 -23.5t12 -33t3.5 -38.5q0 -54 -23 -117.5t-63.5 -118t-95.5 -91t-120 -36.5q-38 0 -61 13.5t-37 41.5q-18 -11 -35.5 -21t-35.5 -17.5t-38.5 -12t-45.5 -4.5q-35 0 -56.5 11t-33.5 26.5t-16.5 33.5t-4.5 32 q0 21 5 39.5t15.5 37t26 38.5t36.5 44q17 20 46.5 49t58.5 58h-147zM425 165q37 39 61 90t24 109q0 19 -5 26t-14 7q-8 0 -20 -11t-23 -33.5t-18.5 -58t-7.5 -83.5q0 -25 3 -46zM393 511l125 156q13 17 24.5 24t29.5 7q12 0 25.5 -8t16.5 -30l23 -169l-38 -9l-48 126 l-125 -120z" unicode="ŵ" horiz-adv-x="758"/>
<glyph glyph-name="Ycircumflex" d="M162 0l12 36l44 5q22 2 32 12.5t17 30.5l77 227l-88 247q-17 47 -44.5 62t-67.5 15l13 38h306l-13 -38q-35 0 -48 -8t-13 -23q0 -10 3 -22t7 -24l57 -175l149 160q20 21 27.5 36t7.5 28q0 17 -16.5 22.5t-47.5 5.5l13 38h280l-12 -36q-23 -2 -44 -6t-43 -15t-47 -31.5 t-56 -53.5l-175 -190l-64 -200q-15 -47 -15 -69q0 -17 8 -23.5t27 -8.5l46 -3l-14 -37h-318zM408 757l105 108q14 15 27 26t30 11t27 -9t19 -29l53 -114l-34 -16l-78 83l-116 -84z" unicode="Ŷ" horiz-adv-x="725"/>
<glyph glyph-name="ycircumflex" d="M35 279q11 33 23.5 64.5t30 55.5t40.5 38.5t54 14.5q43 0 60.5 -23t25.5 -65q6 -30 10.5 -68t7.5 -78t4.5 -78.5t1.5 -68.5q19 26 36.5 59.5t31 66.5t21.5 62.5t8 47.5q0 16 -5 28.5t-11.5 23t-11.5 21t-5 22.5q0 20 15 37t44 17q18 0 30 -6.5t18.5 -16t9 -21.5t2.5 -24 q0 -24 -10.5 -61t-29.5 -81.5t-45 -93.5t-57.5 -97t-67.5 -93.5t-74 -81.5q-19 -18 -37.5 -34t-38.5 -27.5t-43 -18t-51 -6.5q-29 0 -46 6t-26 15.5t-12 20t-3 19.5q0 19 14 34t38 15q22 0 33 -9.5t17 -21.5t11.5 -21.5t17.5 -9.5q11 0 26.5 9t32.5 24t33.5 33.5t30.5 37.5 q0 42 -3 95.5t-7.5 107t-10 101t-10.5 79.5q-6 32 -11 40.5t-12 8.5t-14.5 -10t-15 -25.5t-15.5 -35.5t-15 -40zM191 511l125 156q13 17 24.5 24t29.5 7q12 0 25.5 -8t16.5 -30l23 -169l-38 -9l-48 126l-125 -120z" unicode="ŷ" horiz-adv-x="476"/>
<glyph glyph-name="Ydieresis" d="M162 0l12 36l44 5q22 2 32 12.5t17 30.5l77 227l-88 247q-17 47 -44.5 62t-67.5 15l13 38h306l-13 -38q-35 0 -48 -8t-13 -23q0 -10 3 -22t7 -24l57 -175l149 160q20 21 27.5 36t7.5 28q0 17 -16.5 22.5t-47.5 5.5l13 38h280l-12 -36q-23 -2 -44 -6t-43 -15t-47 -31.5 t-56 -53.5l-175 -190l-64 -200q-15 -47 -15 -69q0 -17 8 -23.5t27 -8.5l46 -3l-14 -37h-318zM590 804q0 26 17.5 45t46.5 19q21 0 34.5 -14t13.5 -34q0 -25 -18 -44.5t-45 -19.5q-23 0 -36 14t-13 34zM401 804q0 26 17 45t47 19q20 0 34 -14t14 -34q0 -25 -18.5 -44.5 t-45.5 -19.5q-23 0 -35.5 14t-12.5 34z" unicode="Ÿ" horiz-adv-x="725"/>
<glyph glyph-name="Zacute" d="M9 47l495 580h-184q-17 0 -25.5 -5.5t-19.5 -17.5l-106 -116h-51l86 185h476l-9 -47l-495 -579h249q17 0 26 5.5t20 17.5l106 115h51l-86 -185h-547zM377 751l128 139q6 6 13 11t18 5q18 0 32.5 -14.5t14.5 -35.5q0 -24 -24 -38l-160 -91z" unicode="Ź" horiz-adv-x="650"/>
<glyph glyph-name="zacute" d="M300 319q-21 8 -37.5 19t-31.5 21.5t-32 18t-39 7.5q-27 0 -44.5 -11t-17.5 -31q0 -21 11 -21q8 0 14 7t22 7q11 0 22 -8t11 -28t-14.5 -35t-43.5 -15q-36 0 -52 21.5t-16 46.5q0 26 13 48.5t36.5 39t54.5 26t67 9.5q34 0 59 -7t45 -15.5t37 -15.5t35 -7q17 0 23.5 9.5 t11.5 21.5t14 21.5t31 9.5q20 0 28 -10.5t8 -24.5q0 -23 -27 -39q-21 -13 -42 -25.5t-38 -26.5l-223 -185q18 -6 36.5 -19t38.5 -27t41 -24.5t45 -10.5q29 0 44.5 11t15.5 40q0 23 -17 23q-6 0 -10 -3.5t-8.5 -8t-10.5 -8t-17 -3.5q-21 0 -30.5 13t-9.5 30q0 22 17 36t42 14 q38 0 59 -25.5t21 -61.5q0 -30 -14 -54.5t-37.5 -41.5t-54.5 -26.5t-65 -9.5q-35 0 -61.5 13t-48 28t-40.5 28t-38 13q-13 0 -21.5 -10.5t-16.5 -37.5q-10 -34 -51 -34q-20 0 -29.5 9.5t-9.5 22.5q0 14 6.5 26t27.5 26q16 10 42.5 26.5t55.5 39.5zM354 671q6 11 13.5 14 t15.5 3q23 0 37.5 -14.5t14.5 -34.5q0 -6 -4.5 -15t-12.5 -17l-133 -126l-29 20z" unicode="ź" horiz-adv-x="485"/>
<glyph glyph-name="Zdotaccent" d="M9 47l495 580h-184q-17 0 -25.5 -5.5t-19.5 -17.5l-106 -116h-51l86 185h476l-9 -47l-495 -579h249q17 0 26 5.5t20 17.5l106 115h51l-86 -185h-547zM377 809q0 29 20 51.5t54 22.5q24 0 40 -16t16 -39q0 -14 -5.5 -27.5t-15.5 -24t-23.5 -17t-29.5 -6.5 q-27 0 -41.5 16.5t-14.5 39.5z" unicode="Ż" horiz-adv-x="650"/>
<glyph glyph-name="zdotaccent" d="M300 319q-21 8 -37.5 19t-31.5 21.5t-32 18t-39 7.5q-27 0 -44.5 -11t-17.5 -31q0 -21 11 -21q8 0 14 7t22 7q11 0 22 -8t11 -28t-14.5 -35t-43.5 -15q-36 0 -52 21.5t-16 46.5q0 26 13 48.5t36.5 39t54.5 26t67 9.5q34 0 59 -7t45 -15.5t37 -15.5t35 -7q17 0 23.5 9.5 t11.5 21.5t14 21.5t31 9.5q20 0 28 -10.5t8 -24.5q0 -23 -27 -39q-21 -13 -42 -25.5t-38 -26.5l-223 -185q18 -6 36.5 -19t38.5 -27t41 -24.5t45 -10.5q29 0 44.5 11t15.5 40q0 23 -17 23q-6 0 -10 -3.5t-8.5 -8t-10.5 -8t-17 -3.5q-21 0 -30.5 13t-9.5 30q0 22 17 36t42 14 q38 0 59 -25.5t21 -61.5q0 -30 -14 -54.5t-37.5 -41.5t-54.5 -26.5t-65 -9.5q-35 0 -61.5 13t-48 28t-40.5 28t-38 13q-13 0 -21.5 -10.5t-16.5 -37.5q-10 -34 -51 -34q-20 0 -29.5 9.5t-9.5 22.5q0 14 6.5 26t27.5 26q16 10 42.5 26.5t55.5 39.5zM248 576q0 29 20 51.5 t54 22.5q24 0 40 -16t16 -39q0 -14 -5.5 -27.5t-15.5 -24t-23.5 -17t-29.5 -6.5q-27 0 -41.5 16.5t-14.5 39.5z" unicode="ż" horiz-adv-x="485"/>
<glyph glyph-name="Zcaron" d="M9 47l495 580h-184q-17 0 -25.5 -5.5t-19.5 -17.5l-106 -116h-51l86 185h476l-9 -47l-495 -579h249q17 0 26 5.5t20 17.5l106 115h51l-86 -185h-547zM329 886l34 16l78 -83l119 83l30 -23l-105 -108q-14 -15 -27 -26t-30 -11t-27 9t-19 29z" unicode="Ž" horiz-adv-x="650"/>
<glyph glyph-name="zcaron" d="M300 319q-21 8 -37.5 19t-31.5 21.5t-32 18t-39 7.5q-27 0 -44.5 -11t-17.5 -31q0 -21 11 -21q8 0 14 7t22 7q11 0 22 -8t11 -28t-14.5 -35t-43.5 -15q-36 0 -52 21.5t-16 46.5q0 26 13 48.5t36.5 39t54.5 26t67 9.5q34 0 59 -7t45 -15.5t37 -15.5t35 -7q17 0 23.5 9.5 t11.5 21.5t14 21.5t31 9.5q20 0 28 -10.5t8 -24.5q0 -23 -27 -39q-21 -13 -42 -25.5t-38 -26.5l-223 -185q18 -6 36.5 -19t38.5 -27t41 -24.5t45 -10.5q29 0 44.5 11t15.5 40q0 23 -17 23q-6 0 -10 -3.5t-8.5 -8t-10.5 -8t-17 -3.5q-21 0 -30.5 13t-9.5 30q0 22 17 36t42 14 q38 0 59 -25.5t21 -61.5q0 -30 -14 -54.5t-37.5 -41.5t-54.5 -26.5t-65 -9.5q-35 0 -61.5 13t-48 28t-40.5 28t-38 13q-13 0 -21.5 -10.5t-16.5 -37.5q-10 -34 -51 -34q-20 0 -29.5 9.5t-9.5 22.5q0 14 6.5 26t27.5 26q16 10 42.5 26.5t55.5 39.5zM376 513 q-13 -17 -24.5 -24t-29.5 -7q-12 0 -25.5 8t-16.5 30l-23 169l38 9l48 -126l125 120l33 -23z" unicode="ž" horiz-adv-x="485"/>
<glyph glyph-name="longs" d="M141 431q14 43 32.5 92t48 89.5t72.5 67.5t105 27q47 0 78.5 -18.5t31.5 -49.5q0 -20 -13 -33.5t-39 -13.5q-24 0 -35 12t-17 27t-11.5 27t-19.5 12q-7 0 -15.5 -6.5t-18.5 -22.5t-22 -43.5t-26 -70.5l-96 -291q-12 -38 -26.5 -82t-31 -89t-36.5 -89t-43 -81 q-11 -18 -28 -36.5t-39.5 -33.5t-51.5 -24.5t-63 -9.5q-51 0 -76.5 18t-25.5 47q0 19 12.5 35t40.5 16q22 0 33.5 -11t19 -24.5t14 -24.5t19.5 -11q14 0 27.5 20t26 49t23 60.5l18.5 55.5z" unicode="ſ" horiz-adv-x="269"/>
<glyph glyph-name="florin" d="M228 379h-118l18 52h114q8 26 17.5 56.5t23.5 61t32.5 59t43.5 50.5t57 35.5t74 13.5q47 0 78.5 -18.5t31.5 -49.5q0 -20 -13 -33.5t-39 -13.5q-24 0 -35 12t-17 27t-11.5 27t-19.5 12q-7 0 -14.5 -6.5t-16 -22.5t-18.5 -43.5t-23 -70.5l-29 -96h133l-18 -52h-131 l-41 -143q-11 -38 -24 -82.5t-29.5 -89.5t-36 -88.5t-42.5 -80.5q-11 -18 -27.5 -36.5t-38 -33.5t-48 -24.5t-58.5 -9.5q-51 0 -76.5 18t-25.5 47q0 19 12.5 35t40.5 16q22 0 33.5 -11t19 -24.5t14 -24.5t19.5 -11q10 0 22 20t23 49t21 60.5t17 55.5z" unicode="ƒ" horiz-adv-x="518"/>
<glyph glyph-name="Scommaaccent" d="M78 242h44q-2 -12 -3 -25t-1 -29q0 -30 7.5 -59.5t23.5 -52.5t41.5 -37.5t60.5 -14.5q49 0 75 29t26 86q0 26 -7 47.5t-18.5 39.5t-26 33.5t-29.5 30.5q-22 22 -43.5 44.5t-38.5 47t-27.5 53t-10.5 62.5q0 90 59.5 141.5t160.5 51.5q34 0 58.5 -6t43 -13.5t31 -13.5 t22.5 -6q20 0 31 31h41l-73 -235h-43q3 30 3 59q0 30 -5 56t-17.5 45.5t-33.5 30.5t-54 11q-42 0 -67.5 -27t-25.5 -81q0 -23 7 -43t19.5 -38t29 -35.5t35.5 -36.5q22 -23 42.5 -46.5t36 -50t24.5 -55t9 -59.5q0 -44 -15 -79.5t-44.5 -61t-73 -39.5t-99.5 -14q-39 0 -68.5 8 t-51 17t-35.5 17t-23 8t-16 -8.5t-14 -19.5h-45zM106 -259q13 10 26.5 20t24 20.5t17 21.5t6.5 23q0 13 -8 18t-17.5 10t-17.5 14t-8 30q0 23 16 37t39 14q32 0 47.5 -20t15.5 -51q0 -29 -9.5 -53t-25 -44t-36.5 -37.5t-45 -32.5z" unicode="Ș" horiz-adv-x="547"/>
<glyph glyph-name="scommaaccent" d="M-35 71q0 18 13.5 33t36.5 15t34.5 -14t21.5 -31t23.5 -31t39.5 -14q9 0 18.5 2.5t17 8.5t12.5 16t5 26q0 31 -14 50.5t-34 45.5q-22 29 -39.5 60.5t-17.5 66.5q0 29 12.5 55.5t36.5 47t58.5 32.5t77.5 12q16 0 36.5 -2.5t37.5 -10t29 -20.5t12 -33q0 -15 -11 -30.5 t-38 -15.5q-24 0 -35.5 10.5t-20 23.5t-17.5 23.5t-27 10.5q-21 0 -34.5 -15.5t-13.5 -44.5q0 -26 17 -53t34 -49q23 -30 41 -60.5t18 -65.5q0 -26 -11 -49.5t-33.5 -41t-55.5 -28t-76 -10.5q-72 0 -113 22t-41 58zM-38 -259q13 10 26.5 20t24 20.5t17 21.5t6.5 23 q0 13 -8 18t-17.5 10t-17.5 14t-8 30q0 23 16 37t39 14q32 0 47.5 -20t15.5 -51q0 -29 -9.5 -53t-25 -44t-36.5 -37.5t-45 -32.5z" unicode="ș" horiz-adv-x="349"/>
<glyph glyph-name="uni021A" d="M107 37l47 3q28 2 43 16t24 40l178 533h-93q-13 0 -20.5 -4t-13.5 -12l-99 -125h-48l68 185h572l-60 -185h-40l-11 124q-3 17 -19 17h-98l-161 -486q-7 -22 -11 -38t-4 -28q0 -33 40 -36l60 -5l-14 -36h-352zM174 -259q13 10 26.5 20t24 20.5t17 21.5t6.5 23q0 13 -8 18 t-17.5 10t-17.5 14t-8 30q0 23 16 37t39 14q32 0 47.5 -20t15.5 -51q0 -29 -9.5 -53t-25 -44t-36.5 -37.5t-45 -32.5z" unicode="Ț" horiz-adv-x="650"/>
<glyph glyph-name="uni021B" d="M144 379h-63l20 52h66l39 95l109 35l18 -18l-48 -112h94l-18 -52h-98l-122 -278q-13 -31 1 -31q7 0 21 8t29.5 19t31.5 24t27 23l27 -27q-16 -16 -39.5 -37t-52 -39.5t-61 -31.5t-66.5 -13q-32 0 -42.5 12.5t-10.5 32.5q0 19 11 46zM-48 -259q13 10 26.5 20t24 20.5 t17 21.5t6.5 23q0 13 -8 18t-17.5 10t-17.5 14t-8 30q0 23 16 37t39 14q32 0 47.5 -20t15.5 -51q0 -29 -9.5 -53t-25 -44t-36.5 -37.5t-45 -32.5z" unicode="ț" horiz-adv-x="329"/>
<glyph glyph-name="dotlessj" d="M155 351q6 14 4 19.5t-8 5.5t-17 -10t-23.5 -24.5t-26 -31.5t-23.5 -31l-28 20q18 26 39.5 53t45 49.5t49 36.5t52.5 14q32 0 44 -15t12 -35t-9.5 -48t-23.5 -63l-128 -307q-40 -96 -96 -138.5t-123 -42.5q-47 0 -75.5 16.5t-28.5 49.5q0 22 13.5 36.5t36.5 14.5 q22 0 32.5 -11.5t16.5 -26t11.5 -26t17.5 -11.5q11 0 29 26t43 86z" unicode="ȷ" horiz-adv-x="271"/>
<glyph glyph-name="apostrophe" d="M30 545q13 10 26.5 20t24 20.5t17 21.5t6.5 23q0 13 -8 18t-17.5 10t-17.5 14t-8 30q0 23 16 37t39 14q32 0 47.5 -20t15.5 -51q0 -29 -9.5 -53t-25 -44t-36.5 -37.5t-45 -32.5z" unicode="ʼ" horiz-adv-x="250"/>
<glyph glyph-name="circumflex" d="M127 511l125 156q13 17 24.5 24t29.5 7q12 0 25.5 -8t16.5 -30l23 -169l-38 -9l-48 126l-125 -120z" unicode="ˆ" horiz-adv-x="500"/>
<glyph glyph-name="caron" d="M363 513q-13 -17 -24.5 -24t-29.5 -7q-12 0 -25.5 8t-16.5 30l-23 169l38 9l48 -126l125 120l33 -23z" unicode="ˇ" horiz-adv-x="500"/>
<glyph glyph-name="uni02C9" d="M140 625h247l-23 -66h-247z" unicode="ˉ" horiz-adv-x="500"/>
<glyph glyph-name="breve" d="M178 672q-1 -40 16 -62.5t59 -22.5q45 0 72.5 24t49.5 67l45 -10q-13 -39 -33 -67t-43.5 -47t-49 -28t-50.5 -9q-60 0 -91 37t-21 118h46z" unicode="˘" horiz-adv-x="500"/>
<glyph glyph-name="dotaccent" d="M196 576q0 29 20 51.5t54 22.5q24 0 40 -16t16 -39q0 -14 -5.5 -27.5t-15.5 -24t-23.5 -17t-29.5 -6.5q-27 0 -41.5 16.5t-14.5 39.5z" unicode="˙" horiz-adv-x="500"/>
<glyph glyph-name="ring" d="M161 606q0 37 26 63t63 26t63 -26t26 -63t-26 -63t-63 -26t-63 26t-26 63zM250 556q22 0 34 14t12 36t-12 35.5t-34 13.5t-34.5 -13.5t-12.5 -35.5t12.5 -36t34.5 -14z" unicode="˚" horiz-adv-x="500"/>
<glyph glyph-name="ogonek" d="M353 -150q-22 -30 -50 -49t-68 -19q-34 0 -58.5 17.5t-24.5 56.5q0 27 13 51.5t31.5 44.5t38.5 35.5t33 24.5h54q-15 -15 -30.5 -31t-27.5 -33t-19.5 -34t-7.5 -34q0 -21 9 -29.5t25 -8.5t28.5 7t27.5 21z" unicode="˛" horiz-adv-x="500"/>
<glyph glyph-name="tilde" d="M74 545q21 51 46 73t60 22q22 0 42.5 -6t39.5 -13.5t37 -13.5t35 -6q19 0 31 12.5t19 31.5l39 -12q-17 -48 -39.5 -75t-61.5 -27q-23 0 -44.5 6t-41.5 13.5t-38.5 14t-34.5 6.5q-19 0 -28.5 -11.5t-20.5 -29.5z" unicode="˜" horiz-adv-x="500"/>
<glyph glyph-name="hungarumlaut" d="M353 671q6 11 13.5 14t15.5 3q23 0 37.5 -14.5t14.5 -34.5q0 -6 -4.5 -15t-12.5 -17l-133 -126l-29 20zM200 671q6 11 13.5 14t15.5 3q23 0 37.5 -14.5t14.5 -34.5q0 -6 -4.5 -15t-12.5 -17l-133 -126l-29 20z" unicode="˝" horiz-adv-x="500"/>
<glyph glyph-name="pi" d="M237 342h-48q-32 0 -45 -9t-29 -26h-47l90 136h457l-47 -101h-108l-47 -124q-8 -21 -16.5 -46.5t-8.5 -47.5q0 -19 10 -31.5t38 -12.5q22 0 41.5 12.5t31.5 25.5l22 -14q-11 -19 -25.5 -39t-32.5 -36.5t-39.5 -27t-46.5 -10.5q-45 0 -63 22.5t-18 55.5q0 20 5.5 40.5 t13.5 41.5l72 191h-95l-78 -189q-20 -49 -42.5 -80.5t-46.5 -49.5t-48.5 -25t-49.5 -7q-30 0 -53.5 16.5t-23.5 48.5q0 20 12 35.5t38 15.5q22 0 30 -11t12 -23.5t8.5 -23.5t18.5 -11q7 0 14.5 4t17 16t20.5 33t25 55z" unicode="π" horiz-adv-x="595"/>
<glyph glyph-name="Wgrave" d="M219 561q-1 44 -20 59t-55 15l13 38h288l-13 -38q-26 0 -42 -5t-25 -15.5t-12 -25.5t-4 -34l-17 -395l183 292l5 117q2 40 -9 53t-49 13l13 38h284l-13 -38q-30 0 -49.5 -5t-31 -15t-16 -25t-5.5 -36l-16 -390l221 354q19 31 28 50t9 37q0 17 -14.5 23.5t-44.5 6.5l13 38 h262l-12 -37q-23 -1 -42.5 -4.5t-39 -14.5t-40.5 -33t-46 -60l-345 -541h-81l13 355l-228 -355h-83zM479 818q-24 14 -24 38q0 21 14.5 35.5t32.5 14.5q11 0 18 -5t13 -11l128 -139l-22 -24z" unicode="Ẁ" horiz-adv-x="958"/>
<glyph glyph-name="wgrave" d="M128 360q-32 0 -45 -13.5t-13 -27.5q0 -11 3 -17.5t8 -6.5q4 0 6.5 3.5t6 8t9 8.5t15.5 4q14 0 22 -9t8 -24q0 -17 -14 -30t-42 -13q-26 0 -41.5 16t-15.5 44t14.5 53t39.5 44.5t58.5 31t72.5 11.5h164l7 -11q-26 -32 -48 -57.5t-49 -56.5q-15 -18 -31.5 -40.5t-30 -46 t-22.5 -47t-9 -43.5q0 -26 13 -43t54 -17q16 0 33.5 5t35.5 13q-3 22 -3 49q0 61 16.5 114t43.5 92t61 61.5t69 22.5q29 0 44 -18t15 -51q0 -29 -11 -61.5t-30.5 -65.5t-45.5 -65t-57 -62q10 -14 24 -23.5t41 -9.5q36 0 68.5 20.5t57.5 52.5t39.5 69.5t14.5 72.5q0 27 -9 40 t-19.5 22t-19.5 19t-9 32q0 15 12 31.5t43 16.5q20 0 33.5 -9t22 -23.5t12 -33t3.5 -38.5q0 -54 -23 -117.5t-63.5 -118t-95.5 -91t-120 -36.5q-38 0 -61 13.5t-37 41.5q-18 -11 -35.5 -21t-35.5 -17.5t-38.5 -12t-45.5 -4.5q-35 0 -56.5 11t-33.5 26.5t-16.5 33.5t-4.5 32 q0 21 5 39.5t15.5 37t26 38.5t36.5 44q17 20 46.5 49t58.5 58h-147zM425 165q37 39 61 90t24 109q0 19 -5 26t-14 7q-8 0 -20 -11t-23 -33.5t-18.5 -58t-7.5 -83.5q0 -25 3 -46zM398 607q-8 8 -12.5 17t-4.5 15q0 20 14.5 34.5t37.5 14.5q8 0 15 -3t14 -14l98 -170l-29 -20z " unicode="ẁ" horiz-adv-x="758"/>
<glyph glyph-name="Wacute" d="M219 561q-1 44 -20 59t-55 15l13 38h288l-13 -38q-26 0 -42 -5t-25 -15.5t-12 -25.5t-4 -34l-17 -395l183 292l5 117q2 40 -9 53t-49 13l13 38h284l-13 -38q-30 0 -49.5 -5t-31 -15t-16 -25t-5.5 -36l-16 -390l221 354q19 31 28 50t9 37q0 17 -14.5 23.5t-44.5 6.5l13 38 h262l-12 -37q-23 -1 -42.5 -4.5t-39 -14.5t-40.5 -33t-46 -60l-345 -541h-81l13 355l-228 -355h-83zM589 751l128 139q6 6 13 11t18 5q18 0 32.5 -14.5t14.5 -35.5q0 -24 -24 -38l-160 -91z" unicode="Ẃ" horiz-adv-x="958"/>
<glyph glyph-name="wacute" d="M128 360q-32 0 -45 -13.5t-13 -27.5q0 -11 3 -17.5t8 -6.5q4 0 6.5 3.5t6 8t9 8.5t15.5 4q14 0 22 -9t8 -24q0 -17 -14 -30t-42 -13q-26 0 -41.5 16t-15.5 44t14.5 53t39.5 44.5t58.5 31t72.5 11.5h164l7 -11q-26 -32 -48 -57.5t-49 -56.5q-15 -18 -31.5 -40.5t-30 -46 t-22.5 -47t-9 -43.5q0 -26 13 -43t54 -17q16 0 33.5 5t35.5 13q-3 22 -3 49q0 61 16.5 114t43.5 92t61 61.5t69 22.5q29 0 44 -18t15 -51q0 -29 -11 -61.5t-30.5 -65.5t-45.5 -65t-57 -62q10 -14 24 -23.5t41 -9.5q36 0 68.5 20.5t57.5 52.5t39.5 69.5t14.5 72.5q0 27 -9 40 t-19.5 22t-19.5 19t-9 32q0 15 12 31.5t43 16.5q20 0 33.5 -9t22 -23.5t12 -33t3.5 -38.5q0 -54 -23 -117.5t-63.5 -118t-95.5 -91t-120 -36.5q-38 0 -61 13.5t-37 41.5q-18 -11 -35.5 -21t-35.5 -17.5t-38.5 -12t-45.5 -4.5q-35 0 -56.5 11t-33.5 26.5t-16.5 33.5t-4.5 32 q0 21 5 39.5t15.5 37t26 38.5t36.5 44q17 20 46.5 49t58.5 58h-147zM425 165q37 39 61 90t24 109q0 19 -5 26t-14 7q-8 0 -20 -11t-23 -33.5t-18.5 -58t-7.5 -83.5q0 -25 3 -46zM582 671q6 11 13.5 14t15.5 3q23 0 37.5 -14.5t14.5 -34.5q0 -6 -4.5 -15t-12.5 -17l-133 -126 l-29 20z" unicode="ẃ" horiz-adv-x="758"/>
<glyph glyph-name="Wdieresis" d="M219 561q-1 44 -20 59t-55 15l13 38h288l-13 -38q-26 0 -42 -5t-25 -15.5t-12 -25.5t-4 -34l-17 -395l183 292l5 117q2 40 -9 53t-49 13l13 38h284l-13 -38q-30 0 -49.5 -5t-31 -15t-16 -25t-5.5 -36l-16 -390l221 354q19 31 28 50t9 37q0 17 -14.5 23.5t-44.5 6.5l13 38 h262l-12 -37q-23 -1 -42.5 -4.5t-39 -14.5t-40.5 -33t-46 -60l-345 -541h-81l13 355l-228 -355h-83zM679 804q0 26 17.5 45t46.5 19q21 0 34.5 -14t13.5 -34q0 -25 -18 -44.5t-45 -19.5q-23 0 -36 14t-13 34zM490 804q0 26 17 45t47 19q20 0 34 -14t14 -34 q0 -25 -18.5 -44.5t-45.5 -19.5q-23 0 -35.5 14t-12.5 34z" unicode="Ẅ" horiz-adv-x="958"/>
<glyph glyph-name="wdieresis" d="M128 360q-32 0 -45 -13.5t-13 -27.5q0 -11 3 -17.5t8 -6.5q4 0 6.5 3.5t6 8t9 8.5t15.5 4q14 0 22 -9t8 -24q0 -17 -14 -30t-42 -13q-26 0 -41.5 16t-15.5 44t14.5 53t39.5 44.5t58.5 31t72.5 11.5h164l7 -11q-26 -32 -48 -57.5t-49 -56.5q-15 -18 -31.5 -40.5t-30 -46 t-22.5 -47t-9 -43.5q0 -26 13 -43t54 -17q16 0 33.5 5t35.5 13q-3 22 -3 49q0 61 16.5 114t43.5 92t61 61.5t69 22.5q29 0 44 -18t15 -51q0 -29 -11 -61.5t-30.5 -65.5t-45.5 -65t-57 -62q10 -14 24 -23.5t41 -9.5q36 0 68.5 20.5t57.5 52.5t39.5 69.5t14.5 72.5q0 27 -9 40 t-19.5 22t-19.5 19t-9 32q0 15 12 31.5t43 16.5q20 0 33.5 -9t22 -23.5t12 -33t3.5 -38.5q0 -54 -23 -117.5t-63.5 -118t-95.5 -91t-120 -36.5q-38 0 -61 13.5t-37 41.5q-18 -11 -35.5 -21t-35.5 -17.5t-38.5 -12t-45.5 -4.5q-35 0 -56.5 11t-33.5 26.5t-16.5 33.5t-4.5 32 q0 21 5 39.5t15.5 37t26 38.5t36.5 44q17 20 46.5 49t58.5 58h-147zM425 165q37 39 61 90t24 109q0 19 -5 26t-14 7q-8 0 -20 -11t-23 -33.5t-18.5 -58t-7.5 -83.5q0 -25 3 -46zM565 589q0 26 17.5 45t46.5 19q21 0 34.5 -14t13.5 -34q0 -25 -18 -44.5t-45 -19.5 q-23 0 -36 14t-13 34zM376 589q0 26 17 45t47 19q20 0 34 -14t14 -34q0 -25 -18.5 -44.5t-45.5 -19.5q-23 0 -35.5 14t-12.5 34z" unicode="ẅ" horiz-adv-x="758"/>
<glyph glyph-name="Ygrave" d="M162 0l12 36l44 5q22 2 32 12.5t17 30.5l77 227l-88 247q-17 47 -44.5 62t-67.5 15l13 38h306l-13 -38q-35 0 -48 -8t-13 -23q0 -10 3 -22t7 -24l57 -175l149 160q20 21 27.5 36t7.5 28q0 17 -16.5 22.5t-47.5 5.5l13 38h280l-12 -36q-23 -2 -44 -6t-43 -15t-47 -31.5 t-56 -53.5l-175 -190l-64 -200q-15 -47 -15 -69q0 -17 8 -23.5t27 -8.5l46 -3l-14 -37h-318zM395 818q-24 14 -24 38q0 21 14.5 35.5t32.5 14.5q11 0 18 -5t13 -11l128 -139l-22 -24z" unicode="Ỳ" horiz-adv-x="725"/>
<glyph glyph-name="ygrave" d="M35 279q11 33 23.5 64.5t30 55.5t40.5 38.5t54 14.5q43 0 60.5 -23t25.5 -65q6 -30 10.5 -68t7.5 -78t4.5 -78.5t1.5 -68.5q19 26 36.5 59.5t31 66.5t21.5 62.5t8 47.5q0 16 -5 28.5t-11.5 23t-11.5 21t-5 22.5q0 20 15 37t44 17q18 0 30 -6.5t18.5 -16t9 -21.5t2.5 -24 q0 -24 -10.5 -61t-29.5 -81.5t-45 -93.5t-57.5 -97t-67.5 -93.5t-74 -81.5q-19 -18 -37.5 -34t-38.5 -27.5t-43 -18t-51 -6.5q-29 0 -46 6t-26 15.5t-12 20t-3 19.5q0 19 14 34t38 15q22 0 33 -9.5t17 -21.5t11.5 -21.5t17.5 -9.5q11 0 26.5 9t32.5 24t33.5 33.5t30.5 37.5 q0 42 -3 95.5t-7.5 107t-10 101t-10.5 79.5q-6 32 -11 40.5t-12 8.5t-14.5 -10t-15 -25.5t-15.5 -35.5t-15 -40zM189 607q-8 8 -12.5 17t-4.5 15q0 20 14.5 34.5t37.5 14.5q8 0 15 -3t14 -14l98 -170l-29 -20z" unicode="ỳ" horiz-adv-x="476"/>
<glyph glyph-name="endash" d="M15 289h500l-29 -76h-500z" unicode="–" horiz-adv-x="500"/>
<glyph glyph-name="emdash" d="M15 289h1000l-29 -76h-1000z" unicode="—" horiz-adv-x="1000"/>
<glyph glyph-name="quoteleft" d="M333 716q-14 -11 -29.5 -23t-29 -25.5t-22.5 -27.5t-9 -28q0 -15 9.5 -21.5t21.5 -13t21.5 -17.5t9.5 -36q0 -28 -19 -45t-48 -17q-39 0 -58.5 24t-19.5 58t12.5 64t32.5 55.5t45.5 47.5t51.5 42z" unicode="‘" horiz-adv-x="228"/>
<glyph glyph-name="quoteright" d="M160 499l32 24t29 25t21 27t8 28q0 15 -9.5 21.5t-21.5 13t-21.5 17.5t-9.5 36q0 28 19 45t48 17q39 0 58.5 -24.5t19.5 -62.5q0 -35 -11.5 -64.5t-31 -54t-45.5 -45.5t-54 -40z" unicode="’" horiz-adv-x="228"/>
<glyph glyph-name="quotesinglbase" d="M-40 -125l32 24t29 25t21 27t8 28q0 15 -9.5 21.5t-21.5 13t-21.5 17.5t-9.5 36q0 28 19 45t48 17q39 0 58.5 -24.5t19.5 -62.5q0 -35 -11.5 -64.5t-31 -54t-45.5 -45.5t-54 -40z" unicode="‚" horiz-adv-x="223"/>
<glyph glyph-name="quotedblleft" d="M333 716q-14 -11 -29.5 -23t-29 -25.5t-22.5 -27.5t-9 -28q0 -15 9.5 -21.5t21.5 -13t21.5 -17.5t9.5 -36q0 -28 -19 -45t-48 -17q-39 0 -58.5 24t-19.5 58t12.5 64t32.5 55.5t45.5 47.5t51.5 42zM530 716q-14 -11 -29.5 -23t-29 -25.5t-22.5 -27.5t-9 -28 q0 -15 9.5 -21.5t21.5 -13t21.5 -17.5t9.5 -36q0 -28 -19 -45t-48 -17q-39 0 -58.5 24t-19.5 58t12.5 64t32.5 55.5t45.5 47.5t51.5 42z" unicode="“" horiz-adv-x="425"/>
<glyph glyph-name="quotedblright" d="M160 499l32 24t29 25t21 27t8 28q0 15 -9.5 21.5t-21.5 13t-21.5 17.5t-9.5 36q0 28 19 45t48 17q39 0 58.5 -24.5t19.5 -62.5q0 -35 -11.5 -64.5t-31 -54t-45.5 -45.5t-54 -40zM357 499l32 24t29 25t21 27t8 28q0 15 -9.5 21.5t-21.5 13t-21.5 17.5t-9.5 36q0 28 19 45 t48 17q39 0 58.5 -24.5t19.5 -62.5q0 -35 -11.5 -64.5t-31 -54t-45.5 -45.5t-54 -40z" unicode="”" horiz-adv-x="425"/>
<glyph glyph-name="quotedblbase" d="M-40 -125l32 24t29 25t21 27t8 28q0 15 -9.5 21.5t-21.5 13t-21.5 17.5t-9.5 36q0 28 19 45t48 17q39 0 58.5 -24.5t19.5 -62.5q0 -35 -11.5 -64.5t-31 -54t-45.5 -45.5t-54 -40zM157 -125l32 24t29 25t21 27t8 28q0 15 -9.5 21.5t-21.5 13t-21.5 17.5t-9.5 36 q0 28 19 45t48 17q39 0 58.5 -24.5t19.5 -62.5q0 -35 -11.5 -64.5t-31 -54t-45.5 -45.5t-54 -40z" unicode="„" horiz-adv-x="420"/>
<glyph glyph-name="dagger" d="M100 -108q40 115 65.5 232t39.5 220q29 34 52.5 64t40.5 68l-17 -1q-20 -1 -33.5 -5.5t-24.5 -9t-22.5 -8.5t-27.5 -4q-26 0 -38.5 16.5t-12.5 33.5q0 31 17.5 49.5t46.5 18.5q15 0 27.5 -5t25 -12t26.5 -14t32 -11l15 -3l5 19q5 17 3.5 39t-1.5 44q0 15 3.5 30t12.5 27 t23.5 19t36.5 7q23 0 38.5 -11t15.5 -34q0 -18 -10 -34t-22.5 -30.5t-25.5 -29t-19 -30.5l-6 -16l16 2q17 2 31 8.5t26.5 13t25 12t26.5 5.5q25 0 39 -14.5t14 -34.5q0 -26 -16 -47.5t-49 -21.5q-16 0 -28 3.5t-23.5 8.5t-25 9.5t-32.5 6.5l-20 2q-7 -32 -6.5 -66.5 t5.5 -69.5q-26 -51 -52 -106.5t-51.5 -113t-49 -115t-43.5 -111.5h-53z" unicode="†" horiz-adv-x="474"/>
<glyph glyph-name="daggerdbl" d="M178 76l-16 -2q-17 -2 -31 -8.5t-26.5 -13.5t-25 -12t-26.5 -5q-25 0 -39 14.5t-14 34.5q0 26 16 47.5t49 21.5q16 0 28 -3.5t23.5 -8.5t24.5 -9.5t33 -6.5l20 -2q3 16 6 40.5t4.5 51t1 51.5t-2.5 43q28 38 58 82.5t47 84.5l-17 -1q-20 -1 -33.5 -5.5t-24.5 -9 t-22.5 -8.5t-27.5 -4q-26 0 -38.5 16.5t-12.5 33.5q0 31 17.5 49.5t46.5 18.5q15 0 27.5 -5t25 -12t26.5 -14t32 -11l15 -3l5 19q5 17 3.5 39t-1.5 44q0 15 3.5 30t12.5 27t23.5 19t36.5 7q23 0 38.5 -11t15.5 -34q0 -18 -10 -34t-22.5 -30.5t-25.5 -29t-19 -30.5l-6 -16 l16 2q17 2 31 8.5t26.5 13t25 12t26.5 5.5q25 0 39 -14.5t14 -34.5q0 -26 -16 -47.5t-49 -21.5q-16 0 -28 3.5t-23.5 8.5t-25 9.5t-32.5 6.5l-20 2q-3 -16 -6.5 -39t-6 -48t-3 -48.5t1.5 -41.5q-13 -18 -27 -40.5t-27.5 -46t-25.5 -47t-20 -42.5l17 1q20 1 33.5 5.5t24.5 9 t22.5 8.5t27.5 4q26 0 38.5 -16.5t12.5 -33.5q0 -31 -17.5 -49.5t-46.5 -18.5q-15 0 -27.5 5t-25 12t-26.5 14t-32 11l-15 3l-5 -19q-5 -17 -3.5 -39t1.5 -44q0 -15 -3.5 -30t-12.5 -27t-23.5 -19t-36.5 -7q-23 0 -38.5 11t-15.5 34q0 18 10 34t22.5 30.5t25.5 29t19 30.5z " unicode="‡" horiz-adv-x="499"/>
<glyph glyph-name="bullet" d="M104 362q18 11 36 22.5t34 25.5q17 14 31.5 29.5t28.5 31.5q16 17 21 25.5t10 8.5q4 0 6 -8.5t11 -25.5q8 -16 17 -31.5t20 -29.5t24 -26t26 -22q16 -12 23 -15t7 -8t-9 -8t-29 -15q-38 -21 -70 -48q-17 -14 -31.5 -29.5t-28.5 -31.5q-16 -17 -21 -25.5t-10 -8.5 q-4 0 -6 8.5t-11 25.5q-8 16 -17 31.5t-20 29.5t-24 26t-26 22q-16 12 -22.5 15t-6.5 8t8.5 8.5t28.5 14.5z" unicode="•" horiz-adv-x="402"/>
<glyph glyph-name="ellipsis" d="M-8 61q0 36 24.5 63.5t66.5 27.5q31 0 50.5 -19.5t19.5 -49.5q0 -17 -7 -33.5t-19 -29.5t-29 -21t-36 -8q-34 0 -52 20.5t-18 49.5zM272 61q0 36 24.5 63.5t66.5 27.5q31 0 50.5 -19.5t19.5 -49.5q0 -17 -7 -33.5t-19 -29.5t-29 -21t-36 -8q-34 0 -52 20.5t-18 49.5z M549 61q0 36 24.5 63.5t66.5 27.5q31 0 50.5 -19.5t19.5 -49.5q0 -17 -7 -33.5t-19 -29.5t-29 -21t-36 -8q-34 0 -52 20.5t-18 49.5z" unicode="…" horiz-adv-x="798"/>
<glyph glyph-name="perthousand" d="M622 673h87l-498 -690h-87zM95 464q0 39 15 77t41.5 67t62 47t77.5 18q60 0 96 -29t36 -88q0 -41 -15.5 -79.5t-42.5 -68.5t-63.5 -48.5t-78.5 -18.5q-60 0 -94 33t-34 90zM227 381q22 0 39 25t27.5 58.5t16 68t5.5 52.5q0 22 -6.5 35t-21.5 13q-20 0 -36 -23 t-27.5 -55.5t-18 -68t-6.5 -59.5q0 -20 5 -33t23 -13zM418 115q0 39 15 77t41.5 67t62 47t77.5 18q60 0 96 -29t36 -88q0 -41 -15.5 -79.5t-42.5 -68.5t-63.5 -48.5t-78.5 -18.5q-60 0 -94 33t-34 90zM550 32q22 0 39 25t27.5 58.5t16 68t5.5 52.5q0 22 -6.5 35t-21.5 13 q-20 0 -36 -23t-27.5 -55.5t-18 -68t-6.5 -59.5q0 -20 5 -33t23 -13zM777 115q0 39 15 77t41.5 67t62 47t77.5 18q60 0 96 -29t36 -88q0 -41 -15.5 -79.5t-42.5 -68.5t-63.5 -48.5t-78.5 -18.5q-60 0 -94 33t-34 90zM909 32q22 0 39 25t27.5 58.5t16 68t5.5 52.5 q0 22 -6.5 35t-21.5 13q-20 0 -36 -23t-27.5 -55.5t-18 -68t-6.5 -59.5q0 -20 5 -33t23 -13z" unicode="‰" horiz-adv-x="1139"/>
<glyph glyph-name="guilsinglleft" d="M16 212q-4 8 -6 14t-2 11q0 12 19 27l187 138l33 -33l-125 -141l27 -169l-49 -16z" unicode="‹" horiz-adv-x="233"/>
<glyph glyph-name="guilsinglright" d="M103 217l-27 169l49 16l84 -169q4 -8 6 -14t2 -11q0 -12 -19 -27l-187 -138l-33 33z" unicode="›" horiz-adv-x="233"/>
<glyph glyph-name="fraction" d="M331 673h75l-500 -690h-75z" unicode="⁄" horiz-adv-x="180"/>
<glyph glyph-name="zerosuperior" d="M192 294q-61 0 -89.5 33.5t-28.5 88.5q0 40 15 85t43 83t68 63.5t91 25.5q59 0 89 -33t30 -87q0 -41 -14.5 -86.5t-42.5 -84t-68.5 -63.5t-92.5 -25zM202 333q28 0 50 26.5t37.5 63.5t23.5 77.5t8 69.5q0 26 -9 44t-29 18q-31 0 -53.5 -27.5t-37.5 -65.5t-22 -78.5 t-7 -67.5t7 -43.5t32 -16.5z" unicode="⁰"/>
<glyph glyph-name="foursuperior" d="M96 433l250 237h78l-87 -233h46l-20 -50h-43l-32 -88h-82l33 88h-161zM255 437l57 144l-153 -144h96z" unicode="⁴"/>
<glyph glyph-name="fivesuperior" d="M196 665h144q25 0 41 29l32 -10l-27 -74q-3 -9 -11 -10.5t-19 -1.5h-134l-25 -65q10 2 24 4.5t27 2.5q65 0 90.5 -26t25.5 -69q0 -33 -14 -61t-38.5 -48.5t-57.5 -31.5t-71 -11q-59 0 -84.5 15.5t-25.5 39.5q0 12 9 22.5t29 10.5q17 0 26.5 -7t19.5 -18q8 -10 18 -18 t27 -8q16 0 28.5 8.5t21.5 22t14 31.5t5 36q0 29 -13 41.5t-39 12.5q-8 0 -16.5 -1t-16.5 -3q-9 -2 -18 -3t-19 -1q-15 0 -17.5 7t1.5 18z" unicode="⁵"/>
<glyph glyph-name="sixsuperior" d="M401 658q-62 -24 -105 -55.5t-73 -67.5q9 8 27.5 16t42.5 8q40 0 62 -21.5t22 -64.5q0 -31 -14 -63t-39 -58.5t-59 -43t-73 -16.5q-51 0 -78 25t-27 73q0 99 77.5 179t225.5 123zM200 330q17 0 32 13t26.5 33.5t18.5 46t7 51.5q0 40 -30 40q-15 0 -30 -14.5t-26.5 -36 t-18.5 -46t-7 -44.5q0 -17 5.5 -30t22.5 -13z" unicode="⁶"/>
<glyph glyph-name="sevensuperior" d="M165 688h37q0 -12 2 -17.5t10 -5.5h186l11 -21q-68 -80 -112 -156t-69 -149q-8 -23 -19.5 -34.5t-31.5 -11.5q-24 0 -33.5 11t-9.5 22q0 19 13 44q15 27 37 58.5t46 63t47.5 59t40.5 47.5h-129q-15 0 -23.5 -8.5t-19.5 -25.5h-45z" unicode="⁷"/>
<glyph glyph-name="eightsuperior" d="M317 494q23 -20 37.5 -42.5t14.5 -48.5q0 -27 -11.5 -48t-31.5 -34.5t-46.5 -20.5t-57.5 -7q-38 0 -64.5 8.5t-43 22t-24.5 30.5t-8 34q0 21 10 38t26 31t37 25t44 20q-21 20 -30.5 37.5t-9.5 37.5q0 46 36.5 71t92.5 25q54 0 85.5 -23t31.5 -56q0 -35 -28.5 -55 t-69.5 -36zM227 472q-15 -7 -27 -14t-21 -16t-14 -21t-5 -28q0 -29 18 -45.5t49 -16.5q26 0 40.5 15t14.5 41q0 17 -12 35t-29 36zM280 533q19 10 36.5 25t17.5 35q0 17 -10.5 29.5t-35.5 12.5q-22 0 -33.5 -11.5t-11.5 -29.5q0 -14 6 -25.5t16 -21.5z" unicode="⁸"/>
<glyph glyph-name="ninesuperior" d="M87 306q62 24 105 55.5t73 67.5q-9 -8 -27.5 -16t-42.5 -8q-40 0 -62 21.5t-22 64.5q0 31 14 63t39 58t59 43t73 17q51 0 78 -25t27 -73q0 -99 -77.5 -179t-225.5 -123zM234 450q15 0 30 14.5t26.5 36t18.5 46t7 44.5q0 17 -5.5 30t-22.5 13t-32 -13t-26.5 -33.5 t-18.5 -46.5t-7 -51q0 -40 30 -40z" unicode="⁹"/>
<glyph glyph-name="zeroinferior" d="M117 -4q-61 0 -89.5 33.5t-28.5 88.5q0 40 15 85t43 83t68 63.5t91 25.5q59 0 89 -33t30 -87q0 -41 -14.5 -86.5t-42.5 -84t-68.5 -63.5t-92.5 -25zM127 35q28 0 50 26.5t37.5 63.5t23.5 77.5t8 69.5q0 26 -9 44t-29 18q-31 0 -53.5 -27.5t-37.5 -65.5t-22 -78.5 t-7 -67.5t7 -43.5t32 -16.5z" unicode="₀"/>
<glyph glyph-name="oneinferior" d="M15 35l39 3q29 3 42 36l72 194q2 7 1 13.5t-9 4.5l-59 -14l-9 38q103 28 147 64h55l-111 -294q-6 -16 -3.5 -28t22.5 -14l38 -3l-10 -34h-227z" unicode="₁"/>
<glyph glyph-name="twoinferior" d="M213 70l31 35h48l-56 -104h-257q10 34 29 62.5t43 53.5t51 46.5t54 41.5q37 26 58 47t21 47q0 30 -31 30q-32 0 -62 -19.5t-61 -51.5l-30 29q12 13 28.5 28.5t38 28.5t48.5 21.5t59 8.5q51 0 79 -19.5t28 -54.5q0 -21 -7 -36.5t-21.5 -29t-36.5 -27t-53 -31.5 t-53.5 -32.5t-38.5 -26.5t-27 -23.5t-18 -23.5h136z" unicode="₂"/>
<glyph glyph-name="threeinferior" d="M89 194q29 8 55.5 17.5t46 21.5t31 27t11.5 34q0 15 -9.5 24t-23.5 9q-23 0 -48 -15t-58 -46l-30 27q13 13 30 27.5t37.5 26.5t45 19.5t52.5 7.5q43 0 67 -19t24 -51t-25 -56t-62 -41q23 -5 38.5 -23.5t15.5 -45.5q0 -30 -15 -56.5t-41 -45.5t-62 -30t-79 -11 q-17 0 -36 2.5t-35 9t-26 17t-10 26.5q0 11 9.5 22t29.5 11q17 0 26.5 -8.5t14.5 -17.5q6 -10 14.5 -19t29.5 -9q41 0 63 25t22 67q0 24 -11 36.5t-28 12.5q-11 0 -22.5 -2.5t-32.5 -9.5z" unicode="₃"/>
<glyph glyph-name="fourinferior" d="M9 135l250 237h78l-87 -233h46l-20 -50h-43l-32 -88h-82l33 88h-161zM168 139l57 144l-153 -144h96z" unicode="₄"/>
<glyph glyph-name="fiveinferior" d="M119 367h144q25 0 41 29l32 -10l-27 -74q-3 -9 -11 -10.5t-19 -1.5h-134l-25 -65q10 2 24 4.5t27 2.5q65 0 90.5 -26t25.5 -69q0 -33 -14 -61t-38.5 -48.5t-57.5 -31.5t-71 -11q-59 0 -84.5 15.5t-25.5 39.5q0 12 9 22.5t29 10.5q17 0 26.5 -7t19.5 -18q8 -10 18 -18 t27 -8q16 0 28.5 8.5t21.5 22t14 31.5t5 36q0 29 -13 41.5t-39 12.5q-8 0 -16.5 -1t-16.5 -3q-9 -2 -18 -3t-19 -1q-15 0 -17.5 7t1.5 18z" unicode="₅"/>
<glyph glyph-name="sixinferior" d="M324 360q-62 -24 -105 -55.5t-73 -67.5q9 8 27.5 16t42.5 8q40 0 62 -21.5t22 -64.5q0 -31 -14 -63t-39 -58.5t-59 -43t-73 -16.5q-51 0 -78 25t-27 73q0 99 77.5 179t225.5 123zM123 32q17 0 32 13t26.5 33.5t18.5 46t7 51.5q0 40 -30 40q-15 0 -30 -14.5t-26.5 -36 t-18.5 -46t-7 -44.5q0 -17 5.5 -30t22.5 -13z" unicode="₆"/>
<glyph glyph-name="seveninferior" d="M118 390h37q0 -12 2 -17.5t10 -5.5h186l11 -21q-68 -80 -112 -156t-69 -149q-8 -23 -19.5 -34.5t-31.5 -11.5q-24 0 -33.5 11t-9.5 22q0 19 13 44q15 27 37 58.5t46 63t47.5 59t40.5 47.5h-129q-15 0 -23.5 -8.5t-19.5 -25.5h-45z" unicode="₇"/>
<glyph glyph-name="eightinferior" d="M234 196q23 -20 37.5 -42.5t14.5 -48.5q0 -27 -11.5 -48t-31.5 -34.5t-46.5 -20.5t-57.5 -7q-38 0 -64.5 8.5t-43 22t-24.5 30.5t-8 34q0 21 10 38t26 31t37 25t44 20q-21 20 -30.5 37.5t-9.5 37.5q0 46 36.5 71t92.5 25q54 0 85.5 -23t31.5 -56q0 -35 -28.5 -55 t-69.5 -36zM144 174q-15 -7 -27 -14t-21 -16t-14 -21t-5 -28q0 -29 18 -45.5t49 -16.5q26 0 40.5 15t14.5 41q0 17 -12 35t-29 36zM197 235q19 10 36.5 25t17.5 35q0 17 -10.5 29.5t-35.5 12.5q-22 0 -33.5 -11.5t-11.5 -29.5q0 -14 6 -25.5t16 -21.5z" unicode="₈"/>
<glyph glyph-name="nineinferior" d="M14 8q62 24 105 55.5t73 67.5q-9 -8 -27.5 -16t-42.5 -8q-40 0 -62 21.5t-22 64.5q0 31 14 63t39 58t59 43t73 17q51 0 78 -25t27 -73q0 -99 -77.5 -179t-225.5 -123zM161 152q15 0 30 14.5t26.5 36t18.5 46t7 44.5q0 17 -5.5 30t-22.5 13t-32 -13t-26.5 -33.5 t-18.5 -46.5t-7 -51q0 -40 30 -40z" unicode="₉"/>
<glyph glyph-name="Euro" d="M11 287h68q5 22 10 43.5t13 41.5h-61l22 49h60q27 57 63.5 104.5t78.5 81.5t87 53t89 19q46 0 78 -10.5t52 -25.5t29 -32.5t9 -31.5q0 -28 -14 -43.5t-43 -15.5q-33 0 -46.5 17t-21.5 46q-14 52 -48 52q-21 0 -45 -15.5t-47 -44t-45 -68t-40 -86.5h209l-22 -49h-204 q-6 -20 -11 -41.5t-10 -43.5h200l-22 -49h-186q-4 -25 -5.5 -50t-1.5 -51q0 -21 3 -40.5t11.5 -35t22 -24.5t34.5 -9q24 0 45.5 12t37.5 50q3 8 8 19t13.5 21t20.5 17t29 7q30 0 41.5 -16t11.5 -33q0 -23 -15.5 -45t-43.5 -39t-68 -27.5t-88 -10.5q-105 0 -153 53t-48 140 q0 30 3 62h-82z" unicode="€" horiz-adv-x="518"/>
<glyph glyph-name="afii61289" d="M42 171q31 20 49.5 33t34.5 25v188q0 78 8.5 131t25.5 85.5t42.5 47t58.5 14.5q27 0 49.5 -7t39 -24t25.5 -46t9 -72q0 -103 -47 -190t-132 -162q0 -21 2.5 -43t9.5 -40t20.5 -29.5t35.5 -11.5q19 0 38.5 12.5t36.5 28.5q9 9 18 19.5t18 21.5l50 -50q-23 -30 -52 -56 q-24 -21 -55.5 -38t-66.5 -17q-31 0 -54 11t-39 31t-25.5 46.5t-12.5 58.5q-16 -11 -29.5 -20.5t-24.5 -16.5zM205 293q45 51 71.5 116.5t26.5 135.5q0 36 -12 53t-33 17q-15 0 -25 -10.5t-16.5 -36.5t-9 -69t-2.5 -109v-97z" unicode="ℓ" horiz-adv-x="460"/>
<glyph glyph-name="trademark" d="M577 366l26 1q16 1 16 24v233q0 11 -4 14t-12 4l-29 3v28h147l90 -218l77 218h141v-28l-30 -2q-15 -1 -15 -21v-231q0 -14 3.5 -19t12.5 -5l29 -1v-27h-172v27l26 1q16 1 16 24v190l-92 -246h-31l-110 248v-192q0 -24 16 -24l29 -1v-27h-134v27zM260 339v29l32 1 q8 0 11.5 5t3.5 19v243h-24q-21 0 -37 -6t-27 -16t-19.5 -22t-14.5 -24l-25 12l26 93h343l26 -93l-25 -12q-6 12 -14.5 24t-19.5 22t-27 16t-37 6h-24v-243q0 -24 16 -24l34 -1v-29h-198z" unicode="™" horiz-adv-x="979"/>
<glyph glyph-name="Omega" d="M35 177h36l31 -90h141l14 41q-20 8 -45 26t-47.5 44.5t-38 62.5t-15.5 80q0 75 29 139t81 110.5t124 73t158 26.5q66 0 120.5 -14.5t94 -43.5t61.5 -73t22 -102q0 -66 -25 -120.5t-68.5 -97t-102.5 -72.5t-127 -46l-12 -34h155l70 77h47l-77 -164h-279l52 144 q97 49 154.5 135t57.5 201q0 74 -37.5 119t-107.5 45q-61 0 -106.5 -32.5t-76 -82t-45.5 -108t-15 -111.5q0 -24 5 -48.5t13 -46.5t19.5 -39.5t23.5 -26.5l-49 -149h-240z" unicode="Ω" horiz-adv-x="816"/>
<glyph glyph-name="estimated" d="M217 78q59 -59 145 -59q124 0 193 120l35 -21q-25 -37 -50 -62.5t-52.5 -41.5t-58.5 -23.5t-67 -7.5q-58 0 -105.5 20.5t-81.5 57.5t-52.5 87.5t-18.5 110.5t19 111t53 87.5t81.5 57t104.5 20.5q58 0 104.5 -19.5t80 -55.5t52.5 -87t22 -114h-404v-181zM217 295h291v145 q-63 60 -147 60t-144 -60v-145z" unicode="℮" horiz-adv-x="673"/>
<glyph glyph-name="onethird" d="M92 333l39 3q29 3 42 36l72 194q2 7 1 13.5t-9 4.5l-59 -14l-9 38q103 28 147 64h55l-111 -294q-6 -16 -3.5 -28t22.5 -14l38 -3l-10 -34h-227zM681 673h75l-500 -690h-75zM614 194q29 8 55.5 17.5t46 21.5t31 27t11.5 34q0 15 -9.5 24t-23.5 9q-23 0 -48 -15t-58 -46 l-30 27q13 13 30 27.5t37.5 26.5t45 19.5t52.5 7.5q43 0 67 -19t24 -51t-25 -56t-62 -41q23 -5 38.5 -23.5t15.5 -45.5q0 -30 -15 -56.5t-41 -45.5t-62 -30t-79 -11q-17 0 -36 2.5t-35 9t-26 17t-10 26.5q0 11 9.5 22t29.5 11q17 0 26.5 -8.5t14.5 -17.5q6 -10 14.5 -19 t29.5 -9q41 0 63 25t22 67q0 24 -11 36.5t-28 12.5q-11 0 -22.5 -2.5t-32.5 -9.5z" unicode="⅓" horiz-adv-x="880"/>
<glyph glyph-name="twothirds" d="M286 368l31 35h48l-56 -104h-257q10 34 29 62.5t43 53.5t51 46.5t54 41.5q37 26 58 47t21 47q0 30 -31 30q-32 0 -62 -19.5t-61 -51.5l-30 29q12 13 28.5 28.5t38 28.5t48.5 21.5t59 8.5q51 0 79 -19.5t28 -54.5q0 -21 -7 -36.5t-21.5 -29t-36.5 -27t-53 -31.5 t-53.5 -32.5t-38.5 -26.5t-27 -23.5t-18 -23.5h136zM681 673h75l-500 -690h-75zM608 194q29 8 55.5 17.5t46 21.5t31 27t11.5 34q0 15 -9.5 24t-23.5 9q-23 0 -48 -15t-58 -46l-30 27q13 13 30 27.5t37.5 26.5t45 19.5t52.5 7.5q43 0 67 -19t24 -51t-25 -56t-62 -41 q23 -5 38.5 -23.5t15.5 -45.5q0 -30 -15 -56.5t-41 -45.5t-62 -30t-79 -11q-17 0 -36 2.5t-35 9t-26 17t-10 26.5q0 11 9.5 22t29.5 11q17 0 26.5 -8.5t14.5 -17.5q6 -10 14.5 -19t29.5 -9q41 0 63 25t22 67q0 24 -11 36.5t-28 12.5q-11 0 -22.5 -2.5t-32.5 -9.5z" unicode="⅔" horiz-adv-x="880"/>
<glyph glyph-name="oneeighth" d="M102 333l39 3q29 3 42 36l72 194q2 7 1 13.5t-9 4.5l-59 -14l-9 38q103 28 147 64h55l-111 -294q-6 -16 -3.5 -28t22.5 -14l38 -3l-10 -34h-227zM681 673h75l-500 -690h-75zM743 196q23 -20 37.5 -42.5t14.5 -48.5q0 -27 -11.5 -48t-31.5 -34.5t-46.5 -20.5t-57.5 -7 q-38 0 -64.5 8.5t-43 22t-24.5 30.5t-8 34q0 21 10 38t26 31t37 25t44 20q-21 20 -30.5 37.5t-9.5 37.5q0 46 36.5 71t92.5 25q54 0 85.5 -23t31.5 -56q0 -35 -28.5 -55t-69.5 -36zM653 174q-15 -7 -27 -14t-21 -16t-14 -21t-5 -28q0 -29 18 -45.5t49 -16.5q26 0 40.5 15 t14.5 41q0 17 -12 35t-29 36zM706 235q19 10 36.5 25t17.5 35q0 17 -10.5 29.5t-35.5 12.5q-22 0 -33.5 -11.5t-11.5 -29.5q0 -14 6 -25.5t16 -21.5z" unicode="⅛" horiz-adv-x="880"/>
<glyph glyph-name="threeeighths" d="M186 492q29 8 55.5 17.5t46 21.5t31 27t11.5 34q0 15 -9.5 24t-23.5 9q-23 0 -48 -15t-58 -46l-30 27q13 13 30 27.5t37.5 26.5t45 19.5t52.5 7.5q43 0 67 -19t24 -51t-25 -56t-62 -41q23 -5 38.5 -23.5t15.5 -45.5q0 -30 -15 -56.5t-41 -45.5t-62 -30t-79 -11 q-17 0 -36 2.5t-35 9t-26 17t-10 26.5q0 11 9.5 22t29.5 11q17 0 26.5 -8.5t14.5 -17.5q6 -10 14.5 -19t29.5 -9q41 0 63 25t22 67q0 24 -11 36.5t-28 12.5q-11 0 -22.5 -2.5t-32.5 -9.5zM681 673h75l-500 -690h-75zM743 196q23 -20 37.5 -42.5t14.5 -48.5q0 -27 -11.5 -48 t-31.5 -34.5t-46.5 -20.5t-57.5 -7q-38 0 -64.5 8.5t-43 22t-24.5 30.5t-8 34q0 21 10 38t26 31t37 25t44 20q-21 20 -30.5 37.5t-9.5 37.5q0 46 36.5 71t92.5 25q54 0 85.5 -23t31.5 -56q0 -35 -28.5 -55t-69.5 -36zM653 174q-15 -7 -27 -14t-21 -16t-14 -21t-5 -28 q0 -29 18 -45.5t49 -16.5q26 0 40.5 15t14.5 41q0 17 -12 35t-29 36zM706 235q19 10 36.5 25t17.5 35q0 17 -10.5 29.5t-35.5 12.5q-22 0 -33.5 -11.5t-11.5 -29.5q0 -14 6 -25.5t16 -21.5z" unicode="⅜" horiz-adv-x="880"/>
<glyph glyph-name="fiveeighths" d="M216 665h144q25 0 41 29l32 -10l-27 -74q-3 -9 -11 -10.5t-19 -1.5h-134l-25 -65q10 2 24 4.5t27 2.5q65 0 90.5 -26t25.5 -69q0 -33 -14 -61t-38.5 -48.5t-57.5 -31.5t-71 -11q-59 0 -84.5 15.5t-25.5 39.5q0 12 9 22.5t29 10.5q17 0 26.5 -7t19.5 -18q8 -10 18 -18 t27 -8q16 0 28.5 8.5t21.5 22t14 31.5t5 36q0 29 -13 41.5t-39 12.5q-8 0 -16.5 -1t-16.5 -3q-9 -2 -18 -3t-19 -1q-15 0 -17.5 7t1.5 18zM681 673h75l-500 -690h-75zM743 196q23 -20 37.5 -42.5t14.5 -48.5q0 -27 -11.5 -48t-31.5 -34.5t-46.5 -20.5t-57.5 -7 q-38 0 -64.5 8.5t-43 22t-24.5 30.5t-8 34q0 21 10 38t26 31t37 25t44 20q-21 20 -30.5 37.5t-9.5 37.5q0 46 36.5 71t92.5 25q54 0 85.5 -23t31.5 -56q0 -35 -28.5 -55t-69.5 -36zM653 174q-15 -7 -27 -14t-21 -16t-14 -21t-5 -28q0 -29 18 -45.5t49 -16.5q26 0 40.5 15 t14.5 41q0 17 -12 35t-29 36zM706 235q19 10 36.5 25t17.5 35q0 17 -10.5 29.5t-35.5 12.5q-22 0 -33.5 -11.5t-11.5 -29.5q0 -14 6 -25.5t16 -21.5z" unicode="⅝" horiz-adv-x="880"/>
<glyph glyph-name="seveneighths" d="M207 688h37q0 -12 2 -17.5t10 -5.5h186l11 -21q-68 -80 -112 -156t-69 -149q-8 -23 -19.5 -34.5t-31.5 -11.5q-24 0 -33.5 11t-9.5 22q0 19 13 44q15 27 37 58.5t46 63t47.5 59t40.5 47.5h-129q-15 0 -23.5 -8.5t-19.5 -25.5h-45zM661 673h75l-500 -690h-75zM723 196 q23 -20 37.5 -42.5t14.5 -48.5q0 -27 -11.5 -48t-31.5 -34.5t-46.5 -20.5t-57.5 -7q-38 0 -64.5 8.5t-43 22t-24.5 30.5t-8 34q0 21 10 38t26 31t37 25t44 20q-21 20 -30.5 37.5t-9.5 37.5q0 46 36.5 71t92.5 25q54 0 85.5 -23t31.5 -56q0 -35 -28.5 -55t-69.5 -36zM633 174 q-15 -7 -27 -14t-21 -16t-14 -21t-5 -28q0 -29 18 -45.5t49 -16.5q26 0 40.5 15t14.5 41q0 17 -12 35t-29 36zM686 235q19 10 36.5 25t17.5 35q0 17 -10.5 29.5t-35.5 12.5q-22 0 -33.5 -11.5t-11.5 -29.5q0 -14 6 -25.5t16 -21.5z" unicode="⅞" horiz-adv-x="880"/>
<glyph glyph-name="partialdiff" d="M399 688q28 -11 64 -33.5t67.5 -57t53 -80.5t21.5 -104q0 -77 -33 -153.5t-89.5 -137.5t-131.5 -99t-158 -38q-81 0 -117 37.5t-36 97.5q0 57 25.5 111t68 95.5t98 67t115.5 25.5q34 0 60.5 -7t52.5 -27q12 48 12 85q0 32 -8 58t-21.5 48t-32 41t-40.5 37zM435 329 q-24 24 -70 24q-40 0 -75 -26.5t-61.5 -66.5t-41.5 -85.5t-15 -84.5q0 -10 1.5 -20.5t6 -18.5t12.5 -13.5t22 -5.5q27 0 51.5 14.5t47 40t43 60.5t39.5 76q18 38 31 78z" unicode="∂" horiz-adv-x="625"/>
<glyph glyph-name="Delta" d="M478 673h125l-29 -673h-611zM435 79l30 476l-359 -476h329z" unicode="∆" horiz-adv-x="680"/>
<glyph glyph-name="product" d="M-72 -160l40 4q35 4 49 45l216 639q11 35 16 49.5t5 25.5t-7.5 19.5t-24.5 10.5l-46 3l13 37h719l-12 -37l-40 -4q-35 -4 -49 -45l-217 -639q-11 -35 -16 -49.5t-5 -25.5t7.5 -19.5t24.5 -10.5l46 -3l-13 -37h-307l12 37l43 4q35 4 49 45l247 731h-274l-227 -672 q-12 -35 -17 -49.5t-5 -25.5t7.5 -19.5t24.5 -10.5l47 -3l-13 -37h-305z" unicode="∏" horiz-adv-x="828"/>
<glyph glyph-name="summation" d="M-122 -104l378 334l-149 399l13 44h506v-187h-48l-57 140h-265l132 -377l-409 -349h346l137 140h65l-138 -237h-555z" unicode="∑" horiz-adv-x="606"/>
<glyph glyph-name="minus" d="M103 356h366v-60h-366v60z" unicode="−" horiz-adv-x="518"/>
<glyph glyph-name="uni2215" d="M391 673h75l-500 -690h-75z" unicode="∕" horiz-adv-x="348"/>
<glyph glyph-name="uni2219" d="M77 349q0 36 24.5 63.5t66.5 27.5q31 0 50.5 -19.5t19.5 -49.5q0 -17 -7 -33.5t-19 -29.5t-29 -21t-36 -8q-34 0 -52 20.5t-18 49.5z" unicode="∙" horiz-adv-x="258"/>
<glyph glyph-name="radical" d="M183 441l-81 -41l-20 42l222 113l113 -397l265 757l52 -14l-313 -901h-100z" unicode="√" horiz-adv-x="614"/>
<glyph glyph-name="infinity" d="M433 381q24 27 44 47t40.5 33.5t43.5 20.5t52 7q66 0 103.5 -42t37.5 -109q0 -76 -41.5 -121.5t-108.5 -45.5q-25 0 -46 4t-43 15t-47 31.5t-58 52.5q-22 -24 -42 -43.5t-41 -32.5t-44.5 -20t-51.5 -7q-72 0 -111.5 44t-39.5 113q0 35 11 64.5t31.5 51t48.5 33.5t62 12 q24 0 46.5 -4t46 -16t49.5 -33t58 -55zM470 345q35 -36 69.5 -60.5t74.5 -24.5q43 0 67 19t24 51q0 38 -27.5 59.5t-71.5 21.5q-38 0 -70 -17t-66 -49zM371 308q-47 47 -82 69.5t-73 22.5q-25 0 -41.5 -6.5t-26.5 -17t-14.5 -23t-4.5 -23.5q0 -16 5 -31t17 -26.5t31 -18.5 t46 -7q34 0 69.5 13t73.5 48z" unicode="∞" horiz-adv-x="775"/>
</font>
</defs>
</svg>
